%TF.GenerationSoftware,KiCad,Pcbnew,8.0.2*%
%TF.CreationDate,2025-01-01T18:30:46+01:00*%
%TF.ProjectId,test,74657374-2e6b-4696-9361-645f70636258,rev?*%
%TF.SameCoordinates,Original*%
%TF.FileFunction,Copper,L1,Top*%
%TF.FilePolarity,Positive*%
%FSLAX46Y46*%
G04 Gerber Fmt 4.6, Leading zero omitted, Abs format (unit mm)*
G04 Created by KiCad (PCBNEW 8.0.2) date 2025-01-01 18:30:46*
%MOMM*%
%LPD*%
G01*
G04 APERTURE LIST*
G04 Aperture macros list*
%AMRoundRect*
0 Rectangle with rounded corners*
0 $1 Rounding radius*
0 $2 $3 $4 $5 $6 $7 $8 $9 X,Y pos of 4 corners*
0 Add a 4 corners polygon primitive as box body*
4,1,4,$2,$3,$4,$5,$6,$7,$8,$9,$2,$3,0*
0 Add four circle primitives for the rounded corners*
1,1,$1+$1,$2,$3*
1,1,$1+$1,$4,$5*
1,1,$1+$1,$6,$7*
1,1,$1+$1,$8,$9*
0 Add four rect primitives between the rounded corners*
20,1,$1+$1,$2,$3,$4,$5,0*
20,1,$1+$1,$4,$5,$6,$7,0*
20,1,$1+$1,$6,$7,$8,$9,0*
20,1,$1+$1,$8,$9,$2,$3,0*%
G04 Aperture macros list end*
%TA.AperFunction,SMDPad,CuDef*%
%ADD10RoundRect,0.250000X0.450000X-0.262500X0.450000X0.262500X-0.450000X0.262500X-0.450000X-0.262500X0*%
%TD*%
%TA.AperFunction,ComponentPad*%
%ADD11O,1.700000X1.700000*%
%TD*%
%TA.AperFunction,ComponentPad*%
%ADD12R,1.700000X1.700000*%
%TD*%
%TA.AperFunction,SMDPad,CuDef*%
%ADD13RoundRect,0.243750X-0.456250X0.243750X-0.456250X-0.243750X0.456250X-0.243750X0.456250X0.243750X0*%
%TD*%
%TA.AperFunction,SMDPad,CuDef*%
%ADD14RoundRect,0.250000X-0.250000X-0.475000X0.250000X-0.475000X0.250000X0.475000X-0.250000X0.475000X0*%
%TD*%
%TA.AperFunction,ComponentPad*%
%ADD15R,1.500000X1.500000*%
%TD*%
%TA.AperFunction,ComponentPad*%
%ADD16C,1.500000*%
%TD*%
%TA.AperFunction,SMDPad,CuDef*%
%ADD17RoundRect,0.250000X0.250000X0.475000X-0.250000X0.475000X-0.250000X-0.475000X0.250000X-0.475000X0*%
%TD*%
%TA.AperFunction,SMDPad,CuDef*%
%ADD18C,1.000000*%
%TD*%
%TA.AperFunction,SMDPad,CuDef*%
%ADD19RoundRect,0.243750X-0.243750X-0.456250X0.243750X-0.456250X0.243750X0.456250X-0.243750X0.456250X0*%
%TD*%
%TA.AperFunction,SMDPad,CuDef*%
%ADD20RoundRect,0.250000X-0.450000X0.262500X-0.450000X-0.262500X0.450000X-0.262500X0.450000X0.262500X0*%
%TD*%
%TA.AperFunction,SMDPad,CuDef*%
%ADD21RoundRect,0.250000X0.475000X-0.250000X0.475000X0.250000X-0.475000X0.250000X-0.475000X-0.250000X0*%
%TD*%
%TA.AperFunction,SMDPad,CuDef*%
%ADD22RoundRect,0.100000X-0.100000X0.687500X-0.100000X-0.687500X0.100000X-0.687500X0.100000X0.687500X0*%
%TD*%
%TA.AperFunction,ComponentPad*%
%ADD23C,0.600000*%
%TD*%
%TA.AperFunction,SMDPad,CuDef*%
%ADD24R,6.500000X3.400000*%
%TD*%
%TA.AperFunction,SMDPad,CuDef*%
%ADD25RoundRect,0.100000X-0.637500X-0.100000X0.637500X-0.100000X0.637500X0.100000X-0.637500X0.100000X0*%
%TD*%
%TA.AperFunction,SMDPad,CuDef*%
%ADD26RoundRect,0.250000X0.262500X0.450000X-0.262500X0.450000X-0.262500X-0.450000X0.262500X-0.450000X0*%
%TD*%
%TA.AperFunction,ViaPad*%
%ADD27C,0.800000*%
%TD*%
%TA.AperFunction,Conductor*%
%ADD28C,0.600000*%
%TD*%
%TA.AperFunction,Conductor*%
%ADD29C,0.400000*%
%TD*%
%TA.AperFunction,Conductor*%
%ADD30C,0.250000*%
%TD*%
%TA.AperFunction,Conductor*%
%ADD31C,0.750000*%
%TD*%
%TA.AperFunction,Conductor*%
%ADD32C,0.200000*%
%TD*%
G04 APERTURE END LIST*
D10*
%TO.P,R5,2*%
%TO.N,+3V3*%
X150500000Y-90087500D03*
%TO.P,R5,1*%
%TO.N,Net-(D10-A)*%
X150500000Y-91912500D03*
%TD*%
D11*
%TO.P,J3,2,Pin_2*%
%TO.N,Net-(D10-A)*%
X153525000Y-92290000D03*
D12*
%TO.P,J3,1,Pin_1*%
%TO.N,+3V3*%
X153525000Y-89750000D03*
%TD*%
D13*
%TO.P,D11,1,K*%
%TO.N,Net-(D11-K)*%
X162560000Y-90062500D03*
%TO.P,D11,2,A*%
%TO.N,Net-(D10-A)*%
X162560000Y-91937500D03*
%TD*%
D14*
%TO.P,C1,1*%
%TO.N,+3V3*%
X141925000Y-97155000D03*
%TO.P,C1,2*%
%TO.N,GND*%
X143825000Y-97155000D03*
%TD*%
D15*
%TO.P,J2,1*%
%TO.N,/Dout_P*%
X106600000Y-88217500D03*
D16*
%TO.P,J2,2*%
%TO.N,/Dout_N*%
X109140000Y-89487500D03*
%TO.P,J2,3*%
%TO.N,/Cout_N*%
X106600000Y-90757500D03*
%TO.P,J2,4*%
%TO.N,/Cout_P*%
X109140000Y-92027500D03*
%TO.P,J2,5*%
%TO.N,+3V3*%
X106600000Y-93297500D03*
%TO.P,J2,6*%
%TO.N,GND*%
X109140000Y-94567500D03*
%TO.P,J2,7*%
%TO.N,+3V3*%
X106600000Y-95837500D03*
%TO.P,J2,8*%
%TO.N,GND*%
X109140000Y-97107500D03*
%TD*%
D13*
%TO.P,D3,1,K*%
%TO.N,Net-(D3-K)*%
X185420000Y-90062500D03*
%TO.P,D3,2,A*%
%TO.N,Net-(D10-A)*%
X185420000Y-91937500D03*
%TD*%
D17*
%TO.P,C5,1*%
%TO.N,+3V3*%
X125450000Y-85000000D03*
%TO.P,C5,2*%
%TO.N,GND*%
X123550000Y-85000000D03*
%TD*%
D13*
%TO.P,D9,1,K*%
%TO.N,Net-(D9-K)*%
X167640000Y-90062500D03*
%TO.P,D9,2,A*%
%TO.N,Net-(D10-A)*%
X167640000Y-91937500D03*
%TD*%
D12*
%TO.P,J11,1,Pin_1*%
%TO.N,Net-(D2-K)*%
X189230000Y-108580000D03*
D11*
%TO.P,J11,2,Pin_2*%
%TO.N,+3V3*%
X189230000Y-111120000D03*
%TO.P,J11,3,Pin_3*%
%TO.N,Net-(D3-K)*%
X186690000Y-108580000D03*
%TO.P,J11,4,Pin_4*%
%TO.N,+3V3*%
X186690000Y-111120000D03*
%TO.P,J11,5,Pin_5*%
%TO.N,Net-(D4-K)*%
X184150000Y-108580000D03*
%TO.P,J11,6,Pin_6*%
%TO.N,+3V3*%
X184150000Y-111120000D03*
%TO.P,J11,7,Pin_7*%
%TO.N,Net-(D5-K)*%
X181610000Y-108580000D03*
%TO.P,J11,8,Pin_8*%
%TO.N,+3V3*%
X181610000Y-111120000D03*
%TO.P,J11,9,Pin_9*%
%TO.N,Net-(D6-K)*%
X179070000Y-108580000D03*
%TO.P,J11,10,Pin_10*%
%TO.N,+3V3*%
X179070000Y-111120000D03*
%TO.P,J11,11,Pin_11*%
%TO.N,Net-(D7-K)*%
X176530000Y-108580000D03*
%TO.P,J11,12,Pin_12*%
%TO.N,+3V3*%
X176530000Y-111120000D03*
%TD*%
D13*
%TO.P,D12,1,K*%
%TO.N,Net-(D12-K)*%
X160020000Y-90062500D03*
%TO.P,D12,2,A*%
%TO.N,Net-(D10-A)*%
X160020000Y-91937500D03*
%TD*%
D18*
%TO.P,SCI,1*%
%TO.N,Net-(U1-ROUT2)*%
X130175000Y-88265000D03*
%TD*%
D19*
%TO.P,D1,1,K*%
%TO.N,GND*%
X101125000Y-107500000D03*
%TO.P,D1,2,A*%
%TO.N,Net-(D1-A)*%
X103000000Y-107500000D03*
%TD*%
D12*
%TO.P,J5,1,Pin_1*%
%TO.N,Net-(D7-K)*%
X135890000Y-73665000D03*
D11*
%TO.P,J5,2,Pin_2*%
%TO.N,+3V3*%
X135890000Y-71125000D03*
%TO.P,J5,3,Pin_3*%
%TO.N,Net-(D6-K)*%
X138430000Y-73665000D03*
%TO.P,J5,4,Pin_4*%
%TO.N,+3V3*%
X138430000Y-71125000D03*
%TO.P,J5,5,Pin_5*%
%TO.N,Net-(D5-K)*%
X140970000Y-73665000D03*
%TO.P,J5,6,Pin_6*%
%TO.N,+3V3*%
X140970000Y-71125000D03*
%TO.P,J5,7,Pin_7*%
%TO.N,Net-(D4-K)*%
X143510000Y-73665000D03*
%TO.P,J5,8,Pin_8*%
%TO.N,+3V3*%
X143510000Y-71125000D03*
%TO.P,J5,9,Pin_9*%
%TO.N,Net-(D3-K)*%
X146050000Y-73665000D03*
%TO.P,J5,10,Pin_10*%
%TO.N,+3V3*%
X146050000Y-71125000D03*
%TO.P,J5,11,Pin_11*%
%TO.N,Net-(D2-K)*%
X148590000Y-73665000D03*
%TO.P,J5,12,Pin_12*%
%TO.N,+3V3*%
X148590000Y-71125000D03*
%TD*%
D15*
%TO.P,J1,1*%
%TO.N,/Din_P*%
X106600000Y-72717500D03*
D16*
%TO.P,J1,2*%
%TO.N,/Din_N*%
X109140000Y-73987500D03*
%TO.P,J1,3*%
%TO.N,/Cin_N*%
X106600000Y-75257500D03*
%TO.P,J1,4*%
%TO.N,/Cin_P*%
X109140000Y-76527500D03*
%TO.P,J1,5*%
%TO.N,+3V3*%
X106600000Y-77797500D03*
%TO.P,J1,6*%
%TO.N,GND*%
X109140000Y-79067500D03*
%TO.P,J1,7*%
%TO.N,+3V3*%
X106600000Y-80337500D03*
%TO.P,J1,8*%
%TO.N,GND*%
X109140000Y-81607500D03*
%TD*%
D12*
%TO.P,J7,1,Pin_1*%
%TO.N,Net-(D7-K)*%
X176530000Y-73665000D03*
D11*
%TO.P,J7,2,Pin_2*%
%TO.N,+3V3*%
X176530000Y-71125000D03*
%TO.P,J7,3,Pin_3*%
%TO.N,Net-(D6-K)*%
X179070000Y-73665000D03*
%TO.P,J7,4,Pin_4*%
%TO.N,+3V3*%
X179070000Y-71125000D03*
%TO.P,J7,5,Pin_5*%
%TO.N,Net-(D5-K)*%
X181610000Y-73665000D03*
%TO.P,J7,6,Pin_6*%
%TO.N,+3V3*%
X181610000Y-71125000D03*
%TO.P,J7,7,Pin_7*%
%TO.N,Net-(D4-K)*%
X184150000Y-73665000D03*
%TO.P,J7,8,Pin_8*%
%TO.N,+3V3*%
X184150000Y-71125000D03*
%TO.P,J7,9,Pin_9*%
%TO.N,Net-(D3-K)*%
X186690000Y-73665000D03*
%TO.P,J7,10,Pin_10*%
%TO.N,+3V3*%
X186690000Y-71125000D03*
%TO.P,J7,11,Pin_11*%
%TO.N,Net-(D2-K)*%
X189230000Y-73665000D03*
%TO.P,J7,12,Pin_12*%
%TO.N,+3V3*%
X189230000Y-71125000D03*
%TD*%
D20*
%TO.P,R1,1*%
%TO.N,/Din_P*%
X116205000Y-81995000D03*
%TO.P,R1,2*%
%TO.N,/Din_N*%
X116205000Y-83820000D03*
%TD*%
D12*
%TO.P,J6,1,Pin_1*%
%TO.N,Net-(D13-K)*%
X158750000Y-73665000D03*
D11*
%TO.P,J6,2,Pin_2*%
%TO.N,+3V3*%
X158750000Y-71125000D03*
%TO.P,J6,3,Pin_3*%
%TO.N,Net-(D12-K)*%
X161290000Y-73665000D03*
%TO.P,J6,4,Pin_4*%
%TO.N,+3V3*%
X161290000Y-71125000D03*
%TO.P,J6,5,Pin_5*%
%TO.N,Net-(D11-K)*%
X163830000Y-73665000D03*
%TO.P,J6,6,Pin_6*%
%TO.N,+3V3*%
X163830000Y-71125000D03*
%TO.P,J6,7,Pin_7*%
%TO.N,Net-(D10-K)*%
X166370000Y-73665000D03*
%TO.P,J6,8,Pin_8*%
%TO.N,+3V3*%
X166370000Y-71125000D03*
%TO.P,J6,9,Pin_9*%
%TO.N,Net-(D9-K)*%
X168910000Y-73665000D03*
%TO.P,J6,10,Pin_10*%
%TO.N,+3V3*%
X168910000Y-71125000D03*
%TO.P,J6,11,Pin_11*%
%TO.N,Net-(D8-K)*%
X171450000Y-73665000D03*
%TO.P,J6,12,Pin_12*%
%TO.N,+3V3*%
X171450000Y-71125000D03*
%TD*%
D12*
%TO.P,J4,1,Pin_1*%
%TO.N,Net-(D13-K)*%
X118110000Y-73665000D03*
D11*
%TO.P,J4,2,Pin_2*%
%TO.N,+3V3*%
X118110000Y-71125000D03*
%TO.P,J4,3,Pin_3*%
%TO.N,Net-(D12-K)*%
X120650000Y-73665000D03*
%TO.P,J4,4,Pin_4*%
%TO.N,+3V3*%
X120650000Y-71125000D03*
%TO.P,J4,5,Pin_5*%
%TO.N,Net-(D11-K)*%
X123190000Y-73665000D03*
%TO.P,J4,6,Pin_6*%
%TO.N,+3V3*%
X123190000Y-71125000D03*
%TO.P,J4,7,Pin_7*%
%TO.N,Net-(D10-K)*%
X125730000Y-73665000D03*
%TO.P,J4,8,Pin_8*%
%TO.N,+3V3*%
X125730000Y-71125000D03*
%TO.P,J4,9,Pin_9*%
%TO.N,Net-(D9-K)*%
X128270000Y-73665000D03*
%TO.P,J4,10,Pin_10*%
%TO.N,+3V3*%
X128270000Y-71125000D03*
%TO.P,J4,11,Pin_11*%
%TO.N,Net-(D8-K)*%
X130810000Y-73665000D03*
%TO.P,J4,12,Pin_12*%
%TO.N,+3V3*%
X130810000Y-71125000D03*
%TD*%
D13*
%TO.P,D6,1,K*%
%TO.N,Net-(D6-K)*%
X177800000Y-90062500D03*
%TO.P,D6,2,A*%
%TO.N,Net-(D10-A)*%
X177800000Y-91937500D03*
%TD*%
%TO.P,D13,1,K*%
%TO.N,Net-(D13-K)*%
X157480000Y-90062500D03*
%TO.P,D13,2,A*%
%TO.N,Net-(D10-A)*%
X157480000Y-91937500D03*
%TD*%
D21*
%TO.P,C2,1*%
%TO.N,+3V3*%
X112750000Y-96500000D03*
%TO.P,C2,2*%
%TO.N,GND*%
X112750000Y-94600000D03*
%TD*%
D13*
%TO.P,D7,1,K*%
%TO.N,Net-(D7-K)*%
X175260000Y-90062500D03*
%TO.P,D7,2,A*%
%TO.N,Net-(D10-A)*%
X175260000Y-91937500D03*
%TD*%
D10*
%TO.P,R2,1*%
%TO.N,/Cin_P*%
X116205000Y-88265000D03*
%TO.P,R2,2*%
%TO.N,/Cin_N*%
X116205000Y-86440000D03*
%TD*%
D12*
%TO.P,J8,1,Pin_1*%
%TO.N,Net-(D8-K)*%
X130810000Y-108580000D03*
D11*
%TO.P,J8,2,Pin_2*%
%TO.N,+3V3*%
X130810000Y-111120000D03*
%TO.P,J8,3,Pin_3*%
%TO.N,Net-(D9-K)*%
X128270000Y-108580000D03*
%TO.P,J8,4,Pin_4*%
%TO.N,+3V3*%
X128270000Y-111120000D03*
%TO.P,J8,5,Pin_5*%
%TO.N,Net-(D10-K)*%
X125730000Y-108580000D03*
%TO.P,J8,6,Pin_6*%
%TO.N,+3V3*%
X125730000Y-111120000D03*
%TO.P,J8,7,Pin_7*%
%TO.N,Net-(D11-K)*%
X123190000Y-108580000D03*
%TO.P,J8,8,Pin_8*%
%TO.N,+3V3*%
X123190000Y-111120000D03*
%TO.P,J8,9,Pin_9*%
%TO.N,Net-(D12-K)*%
X120650000Y-108580000D03*
%TO.P,J8,10,Pin_10*%
%TO.N,+3V3*%
X120650000Y-111120000D03*
%TO.P,J8,11,Pin_11*%
%TO.N,Net-(D13-K)*%
X118110000Y-108580000D03*
%TO.P,J8,12,Pin_12*%
%TO.N,+3V3*%
X118110000Y-111120000D03*
%TD*%
D12*
%TO.P,J10,1,Pin_1*%
%TO.N,Net-(D8-K)*%
X171450000Y-108580000D03*
D11*
%TO.P,J10,2,Pin_2*%
%TO.N,+3V3*%
X171450000Y-111120000D03*
%TO.P,J10,3,Pin_3*%
%TO.N,Net-(D9-K)*%
X168910000Y-108580000D03*
%TO.P,J10,4,Pin_4*%
%TO.N,+3V3*%
X168910000Y-111120000D03*
%TO.P,J10,5,Pin_5*%
%TO.N,Net-(D10-K)*%
X166370000Y-108580000D03*
%TO.P,J10,6,Pin_6*%
%TO.N,+3V3*%
X166370000Y-111120000D03*
%TO.P,J10,7,Pin_7*%
%TO.N,Net-(D11-K)*%
X163830000Y-108580000D03*
%TO.P,J10,8,Pin_8*%
%TO.N,+3V3*%
X163830000Y-111120000D03*
%TO.P,J10,9,Pin_9*%
%TO.N,Net-(D12-K)*%
X161290000Y-108580000D03*
%TO.P,J10,10,Pin_10*%
%TO.N,+3V3*%
X161290000Y-111120000D03*
%TO.P,J10,11,Pin_11*%
%TO.N,Net-(D13-K)*%
X158750000Y-108580000D03*
%TO.P,J10,12,Pin_12*%
%TO.N,+3V3*%
X158750000Y-111120000D03*
%TD*%
D14*
%TO.P,C3,1*%
%TO.N,+3V3*%
X123200000Y-95200000D03*
%TO.P,C3,2*%
%TO.N,GND*%
X125100000Y-95200000D03*
%TD*%
D20*
%TO.P,R4,1*%
%TO.N,Net-(U2-IREF)*%
X141605000Y-88652500D03*
%TO.P,R4,2*%
%TO.N,GND*%
X141605000Y-90477500D03*
%TD*%
D18*
%TO.P,SDI,1*%
%TO.N,Net-(U1-ROUT1)*%
X130175000Y-86360000D03*
%TD*%
D22*
%TO.P,U2,1,IREF*%
%TO.N,Net-(U2-IREF)*%
X139450000Y-88577500D03*
%TO.P,U2,2,GND*%
%TO.N,GND*%
X138800000Y-88577500D03*
%TO.P,U2,3,OUTR0*%
%TO.N,Net-(D13-K)*%
X138150000Y-88577500D03*
%TO.P,U2,4,OUTG0*%
%TO.N,Net-(D12-K)*%
X137500000Y-88577500D03*
%TO.P,U2,5,OUTB0*%
%TO.N,Net-(D11-K)*%
X136850000Y-88577500D03*
%TO.P,U2,6,OUTR1*%
%TO.N,Net-(D10-K)*%
X136200000Y-88577500D03*
%TO.P,U2,7,OUTG1*%
%TO.N,Net-(D9-K)*%
X135550000Y-88577500D03*
%TO.P,U2,8,OUTB1*%
%TO.N,Net-(D8-K)*%
X134900000Y-88577500D03*
%TO.P,U2,9,SDTI*%
%TO.N,Net-(U1-ROUT1)*%
X134250000Y-88577500D03*
%TO.P,U2,10,SCKI*%
%TO.N,Net-(U1-ROUT2)*%
X133600000Y-88577500D03*
%TO.P,U2,11,SCKO*%
%TO.N,Net-(U1-DIN1)*%
X133600000Y-94302500D03*
%TO.P,U2,12,SDTO*%
%TO.N,Net-(U1-DIN2)*%
X134250000Y-94302500D03*
%TO.P,U2,13,OUTR2*%
%TO.N,Net-(D7-K)*%
X134900000Y-94302500D03*
%TO.P,U2,14,OUTG2*%
%TO.N,Net-(D6-K)*%
X135550000Y-94302500D03*
%TO.P,U2,15,OUTB2*%
%TO.N,Net-(D5-K)*%
X136200000Y-94302500D03*
%TO.P,U2,16,OUTR3*%
%TO.N,Net-(D4-K)*%
X136850000Y-94302500D03*
%TO.P,U2,17,OUTG3*%
%TO.N,Net-(D3-K)*%
X137500000Y-94302500D03*
%TO.P,U2,18,OUTB3*%
%TO.N,Net-(D2-K)*%
X138150000Y-94302500D03*
%TO.P,U2,19,VCC*%
%TO.N,+3V3*%
X138800000Y-94302500D03*
%TO.P,U2,20,VREG*%
%TO.N,Net-(U2-VREG)*%
X139450000Y-94302500D03*
D23*
%TO.P,U2,21,GND*%
%TO.N,GND*%
X139125000Y-90140000D03*
X137825000Y-90140000D03*
X136525000Y-90140000D03*
X135225000Y-90140000D03*
X133925000Y-90140000D03*
X139125000Y-91440000D03*
X137825000Y-91440000D03*
X136525000Y-91440000D03*
D24*
X136525000Y-91440000D03*
D23*
X135225000Y-91440000D03*
X133925000Y-91440000D03*
X139125000Y-92740000D03*
X137825000Y-92740000D03*
X136525000Y-92740000D03*
X135225000Y-92740000D03*
X133925000Y-92740000D03*
%TD*%
D21*
%TO.P,C6,1*%
%TO.N,Net-(U2-VREG)*%
X141605000Y-94640000D03*
%TO.P,C6,2*%
%TO.N,GND*%
X141605000Y-92740000D03*
%TD*%
D13*
%TO.P,D10,1,K*%
%TO.N,Net-(D10-K)*%
X165100000Y-90062500D03*
%TO.P,D10,2,A*%
%TO.N,Net-(D10-A)*%
X165100000Y-91937500D03*
%TD*%
%TO.P,D5,1,K*%
%TO.N,Net-(D5-K)*%
X180340000Y-90062500D03*
%TO.P,D5,2,A*%
%TO.N,Net-(D10-A)*%
X180340000Y-91937500D03*
%TD*%
D18*
%TO.P,SCO,1*%
%TO.N,Net-(U1-DIN1)*%
X130175000Y-92710000D03*
%TD*%
D13*
%TO.P,D4,1,K*%
%TO.N,Net-(D4-K)*%
X182880000Y-90062500D03*
%TO.P,D4,2,A*%
%TO.N,Net-(D10-A)*%
X182880000Y-91937500D03*
%TD*%
D18*
%TO.P,SDO,1*%
%TO.N,Net-(U1-DIN2)*%
X130175000Y-90805000D03*
%TD*%
D14*
%TO.P,C4,1*%
%TO.N,+3V3*%
X123195000Y-93000000D03*
%TO.P,C4,2*%
%TO.N,GND*%
X125095000Y-93000000D03*
%TD*%
D12*
%TO.P,J9,1,Pin_1*%
%TO.N,Net-(D2-K)*%
X148590000Y-108580000D03*
D11*
%TO.P,J9,2,Pin_2*%
%TO.N,+3V3*%
X148590000Y-111120000D03*
%TO.P,J9,3,Pin_3*%
%TO.N,Net-(D3-K)*%
X146050000Y-108580000D03*
%TO.P,J9,4,Pin_4*%
%TO.N,+3V3*%
X146050000Y-111120000D03*
%TO.P,J9,5,Pin_5*%
%TO.N,Net-(D4-K)*%
X143510000Y-108580000D03*
%TO.P,J9,6,Pin_6*%
%TO.N,+3V3*%
X143510000Y-111120000D03*
%TO.P,J9,7,Pin_7*%
%TO.N,Net-(D5-K)*%
X140970000Y-108580000D03*
%TO.P,J9,8,Pin_8*%
%TO.N,+3V3*%
X140970000Y-111120000D03*
%TO.P,J9,9,Pin_9*%
%TO.N,Net-(D6-K)*%
X138430000Y-108580000D03*
%TO.P,J9,10,Pin_10*%
%TO.N,+3V3*%
X138430000Y-111120000D03*
%TO.P,J9,11,Pin_11*%
%TO.N,Net-(D7-K)*%
X135890000Y-108580000D03*
%TO.P,J9,12,Pin_12*%
%TO.N,+3V3*%
X135890000Y-111120000D03*
%TD*%
D25*
%TO.P,U1,1,RIN1-*%
%TO.N,/Din_N*%
X119132500Y-86625000D03*
%TO.P,U1,2,RIN1+*%
%TO.N,/Din_P*%
X119132500Y-87275000D03*
%TO.P,U1,3,RIN2-*%
%TO.N,/Cin_N*%
X119132500Y-87925000D03*
%TO.P,U1,4,RIN2+*%
%TO.N,/Cin_P*%
X119132500Y-88575000D03*
%TO.P,U1,5,DOUT2-*%
%TO.N,/Dout_N*%
X119132500Y-89225000D03*
%TO.P,U1,6,DOUT2+*%
%TO.N,/Dout_P*%
X119132500Y-89875000D03*
%TO.P,U1,7,DOUT1-*%
%TO.N,/Cout_N*%
X119132500Y-90525000D03*
%TO.P,U1,8,DOUT1+*%
%TO.N,/Cout_P*%
X119132500Y-91175000D03*
%TO.P,U1,9,~{EN}*%
%TO.N,GND*%
X124857500Y-91175000D03*
%TO.P,U1,10,DIN1*%
%TO.N,Net-(U1-DIN1)*%
X124857500Y-90525000D03*
%TO.P,U1,11,DIN2*%
%TO.N,Net-(U1-DIN2)*%
X124857500Y-89875000D03*
%TO.P,U1,12,VCC*%
%TO.N,+3V3*%
X124857500Y-89225000D03*
%TO.P,U1,13,GND*%
%TO.N,GND*%
X124857500Y-88575000D03*
%TO.P,U1,14,ROUT2*%
%TO.N,Net-(U1-ROUT2)*%
X124857500Y-87925000D03*
%TO.P,U1,15,ROUT1*%
%TO.N,Net-(U1-ROUT1)*%
X124857500Y-87275000D03*
%TO.P,U1,16,EN*%
%TO.N,+3V3*%
X124857500Y-86625000D03*
%TD*%
D13*
%TO.P,D8,1,K*%
%TO.N,Net-(D8-K)*%
X170180000Y-90062500D03*
%TO.P,D8,2,A*%
%TO.N,Net-(D10-A)*%
X170180000Y-91937500D03*
%TD*%
%TO.P,D2,1,K*%
%TO.N,Net-(D2-K)*%
X187960000Y-90062500D03*
%TO.P,D2,2,A*%
%TO.N,Net-(D10-A)*%
X187960000Y-91937500D03*
%TD*%
D26*
%TO.P,R3,1*%
%TO.N,+3V3*%
X106977500Y-107500000D03*
%TO.P,R3,2*%
%TO.N,Net-(D1-A)*%
X105152500Y-107500000D03*
%TD*%
D27*
%TO.N,GND*%
X131465000Y-89535000D03*
X129500000Y-95000000D03*
X130500000Y-89535000D03*
X100065000Y-107500000D03*
X130500000Y-93980000D03*
X129500000Y-93980000D03*
X129500000Y-89535000D03*
X144780000Y-97155000D03*
%TO.N,Net-(D10-A)*%
X167640000Y-93500000D03*
X170180000Y-93500000D03*
X162560000Y-93500000D03*
X182880000Y-93500000D03*
X177800000Y-93500000D03*
X160020000Y-93500000D03*
X165100000Y-93500000D03*
X175260000Y-93500000D03*
X188000000Y-93500000D03*
X180340000Y-93500000D03*
X185420000Y-93500000D03*
X157480000Y-93500000D03*
%TO.N,Net-(D2-K)*%
X140970000Y-99060000D03*
X148590000Y-83185000D03*
X189230000Y-83312000D03*
%TO.N,Net-(D3-K)*%
X146050000Y-81915000D03*
X139700000Y-99060000D03*
X186690000Y-81915000D03*
%TO.N,Net-(D4-K)*%
X184150000Y-80645000D03*
X143510000Y-80645000D03*
X138430000Y-99060000D03*
%TO.N,Net-(D5-K)*%
X137160000Y-99060000D03*
X140970000Y-79375000D03*
X181610000Y-79375000D03*
%TO.N,Net-(D6-K)*%
X135890000Y-99060000D03*
X138430000Y-78105000D03*
X179070000Y-78105000D03*
%TO.N,Net-(D7-K)*%
X134620000Y-99060000D03*
X135890000Y-76835000D03*
X176530000Y-76835000D03*
%TO.N,Net-(U1-DIN2)*%
X131445000Y-90805000D03*
X131500000Y-95250000D03*
%TO.N,Net-(D8-K)*%
X130810000Y-99060000D03*
X171450000Y-99022500D03*
X130810000Y-84455000D03*
%TO.N,Net-(D9-K)*%
X128270000Y-100330000D03*
X168910000Y-100330000D03*
X128270000Y-83185000D03*
%TO.N,Net-(D10-K)*%
X125730000Y-81915000D03*
X166370000Y-101600000D03*
X125730000Y-101600000D03*
%TO.N,Net-(D11-K)*%
X163830000Y-102870000D03*
X123190000Y-80645000D03*
X123115000Y-102907500D03*
%TO.N,Net-(D12-K)*%
X120650000Y-79375000D03*
X120650000Y-104140000D03*
X161290000Y-104140000D03*
%TO.N,Net-(D13-K)*%
X118110000Y-78105000D03*
X118110000Y-105410000D03*
X158750000Y-105410000D03*
%TD*%
D28*
%TO.N,GND*%
X130500000Y-89535000D02*
X131465000Y-89535000D01*
X128122221Y-89535000D02*
X129500000Y-89535000D01*
X126000000Y-88575000D02*
X127162221Y-88575000D01*
X127162221Y-88575000D02*
X128122221Y-89535000D01*
D29*
X126000000Y-88575000D02*
X124857500Y-88575000D01*
%TO.N,+3V3*%
X124857500Y-85592500D02*
X125450000Y-85000000D01*
X124857500Y-86625000D02*
X124857500Y-85592500D01*
D28*
%TO.N,GND*%
X123500000Y-88250000D02*
X123825000Y-88575000D01*
X123500000Y-85050000D02*
X123500000Y-88250000D01*
X123550000Y-85000000D02*
X123500000Y-85050000D01*
X129500000Y-95000000D02*
X129500000Y-93980000D01*
D30*
X125100000Y-93005000D02*
X125095000Y-93000000D01*
D28*
X125100000Y-95200000D02*
X125100000Y-93005000D01*
D30*
%TO.N,Net-(U1-DIN2)*%
X134250000Y-95383021D02*
X134250000Y-94302500D01*
X133748021Y-95885000D02*
X134250000Y-95383021D01*
X132135000Y-95885000D02*
X133748021Y-95885000D01*
X131500000Y-95250000D02*
X132135000Y-95885000D01*
D28*
%TO.N,GND*%
X129500000Y-93980000D02*
X130500000Y-93980000D01*
X129500000Y-93980000D02*
X127635000Y-93980000D01*
X127635000Y-93980000D02*
X126655000Y-93000000D01*
X126655000Y-93000000D02*
X125095000Y-93000000D01*
X129500000Y-89535000D02*
X130500000Y-89535000D01*
D30*
%TO.N,Net-(D10-A)*%
X153147500Y-91912500D02*
X153525000Y-92290000D01*
X150500000Y-91912500D02*
X153147500Y-91912500D01*
X157480000Y-93500000D02*
X157480000Y-91937500D01*
X160020000Y-93500000D02*
X160020000Y-91937500D01*
X162560000Y-93500000D02*
X162560000Y-91937500D01*
X165100000Y-93500000D02*
X165100000Y-91937500D01*
X167640000Y-93500000D02*
X167640000Y-91937500D01*
X170180000Y-93500000D02*
X170180000Y-91937500D01*
X175260000Y-93500000D02*
X175260000Y-91937500D01*
X177800000Y-93500000D02*
X177800000Y-91937500D01*
X180340000Y-93500000D02*
X180340000Y-91937500D01*
X182880000Y-93500000D02*
X182880000Y-91937500D01*
X185420000Y-93500000D02*
X185420000Y-91937500D01*
X188000000Y-91977500D02*
X187960000Y-91937500D01*
X188000000Y-93500000D02*
X188000000Y-91977500D01*
%TO.N,Net-(D13-K)*%
X158687500Y-90062500D02*
X158750000Y-90000000D01*
X157480000Y-90062500D02*
X158687500Y-90062500D01*
X158750000Y-107950000D02*
X158750000Y-90000000D01*
X158750000Y-90000000D02*
X158750000Y-88900000D01*
%TO.N,Net-(D12-K)*%
X161227500Y-90062500D02*
X161290000Y-90000000D01*
X161290000Y-90000000D02*
X161290000Y-88900000D01*
X161290000Y-107950000D02*
X161290000Y-90000000D01*
X160020000Y-90062500D02*
X161227500Y-90062500D01*
%TO.N,Net-(D11-K)*%
X163830000Y-90000000D02*
X163830000Y-88900000D01*
X163830000Y-107950000D02*
X163830000Y-90000000D01*
X162560000Y-90062500D02*
X163767500Y-90062500D01*
X163767500Y-90062500D02*
X163830000Y-90000000D01*
%TO.N,Net-(D10-K)*%
X166307500Y-90062500D02*
X166370000Y-90000000D01*
X165100000Y-90062500D02*
X166307500Y-90062500D01*
X166370000Y-107950000D02*
X166370000Y-90000000D01*
X166370000Y-90000000D02*
X166370000Y-88900000D01*
%TO.N,Net-(D9-K)*%
X167640000Y-90062500D02*
X168847500Y-90062500D01*
X168847500Y-90062500D02*
X168910000Y-90000000D01*
X168910000Y-90000000D02*
X168910000Y-107950000D01*
X168910000Y-88900000D02*
X168910000Y-90000000D01*
%TO.N,Net-(D8-K)*%
X171387500Y-90062500D02*
X171450000Y-90000000D01*
X170180000Y-90062500D02*
X171387500Y-90062500D01*
X171450000Y-90000000D02*
X171450000Y-107950000D01*
X171450000Y-88900000D02*
X171450000Y-90000000D01*
%TO.N,Net-(D7-K)*%
X176467500Y-90062500D02*
X176530000Y-90000000D01*
X175260000Y-90062500D02*
X176467500Y-90062500D01*
X176530000Y-90000000D02*
X176530000Y-107950000D01*
X176530000Y-88900000D02*
X176530000Y-90000000D01*
%TO.N,Net-(D5-K)*%
X181547500Y-90062500D02*
X181610000Y-90000000D01*
X180340000Y-90062500D02*
X181547500Y-90062500D01*
X181610000Y-90000000D02*
X181610000Y-107950000D01*
X181610000Y-88900000D02*
X181610000Y-90000000D01*
%TO.N,Net-(D4-K)*%
X184087500Y-90062500D02*
X184150000Y-90000000D01*
X182880000Y-90062500D02*
X184087500Y-90062500D01*
X184150000Y-90000000D02*
X184150000Y-107950000D01*
X184150000Y-88900000D02*
X184150000Y-90000000D01*
%TO.N,Net-(D3-K)*%
X186627500Y-90062500D02*
X186690000Y-90000000D01*
X185420000Y-90062500D02*
X186627500Y-90062500D01*
X186690000Y-90000000D02*
X186690000Y-107950000D01*
X186690000Y-88900000D02*
X186690000Y-90000000D01*
%TO.N,Net-(D2-K)*%
X187960000Y-90062500D02*
X189167500Y-90062500D01*
X189167500Y-90062500D02*
X189230000Y-90000000D01*
X189230000Y-90000000D02*
X189230000Y-107950000D01*
X189230000Y-88900000D02*
X189230000Y-90000000D01*
%TO.N,Net-(D6-K)*%
X179007500Y-90062500D02*
X179070000Y-90000000D01*
X177800000Y-90062500D02*
X179007500Y-90062500D01*
%TO.N,GND*%
X109172500Y-94600000D02*
X109140000Y-94567500D01*
D31*
X112000000Y-94600000D02*
X109172500Y-94600000D01*
D30*
%TO.N,+3V3*%
X124857500Y-89225000D02*
X123190000Y-89225000D01*
D29*
%TO.N,GND*%
X124857500Y-91175000D02*
X124857500Y-92762500D01*
D30*
X138800000Y-89815000D02*
X139125000Y-90140000D01*
X139125000Y-90140000D02*
X141267500Y-90140000D01*
X139125000Y-92740000D02*
X141605000Y-92740000D01*
D29*
X123825000Y-88575000D02*
X124857500Y-88575000D01*
D30*
X101125000Y-107500000D02*
X100065000Y-107500000D01*
D29*
X124857500Y-92762500D02*
X125095000Y-93000000D01*
D30*
X138800000Y-88577500D02*
X138800000Y-89815000D01*
X144780000Y-97155000D02*
X143825000Y-97155000D01*
X141267500Y-90140000D02*
X141605000Y-90477500D01*
%TO.N,+3V3*%
X138800000Y-95041041D02*
X138800000Y-94302500D01*
X140278959Y-96520000D02*
X138800000Y-95041041D01*
X140335000Y-96520000D02*
X140278959Y-96520000D01*
%TO.N,Net-(U2-VREG)*%
X139450000Y-94302500D02*
X141267500Y-94302500D01*
X141267500Y-94302500D02*
X141605000Y-94640000D01*
D32*
%TO.N,Net-(D1-A)*%
X103000000Y-107500000D02*
X105152500Y-107500000D01*
%TO.N,/Din_P*%
X115269999Y-82682500D02*
X113248186Y-82682500D01*
X116205000Y-81995000D02*
X116392500Y-81995000D01*
X113248186Y-82682500D02*
X112900000Y-82334314D01*
X118980391Y-82682500D02*
X120523000Y-84225109D01*
X117080000Y-82682500D02*
X118980391Y-82682500D01*
X112900000Y-75334314D02*
X110283186Y-72717500D01*
X120523000Y-84225109D02*
X120523000Y-86646100D01*
X110283186Y-72717500D02*
X106600000Y-72717500D01*
X116205000Y-81995000D02*
X115957499Y-81995000D01*
X116392500Y-81995000D02*
X117080000Y-82682500D01*
X119894100Y-87275000D02*
X119132500Y-87275000D01*
X120523000Y-86646100D02*
X119894100Y-87275000D01*
X112900000Y-82334314D02*
X112900000Y-75334314D01*
X115957499Y-81995000D02*
X115269999Y-82682500D01*
%TO.N,/Din_N*%
X117080000Y-83132500D02*
X118692500Y-83132500D01*
X113132500Y-83132500D02*
X112500000Y-82500000D01*
X116205000Y-83820000D02*
X115951000Y-83820000D01*
X112500000Y-75500000D02*
X110987500Y-73987500D01*
X118692500Y-83132500D02*
X120015000Y-84455000D01*
X115951000Y-83820000D02*
X115263500Y-83132500D01*
X120015000Y-86360000D02*
X119750000Y-86625000D01*
X110987500Y-73987500D02*
X109140000Y-73987500D01*
X116205000Y-83820000D02*
X116392500Y-83820000D01*
X116392500Y-83820000D02*
X117080000Y-83132500D01*
X115263500Y-83132500D02*
X113132500Y-83132500D01*
X112500000Y-82500000D02*
X112500000Y-75500000D01*
X120015000Y-84455000D02*
X120015000Y-86360000D01*
X119750000Y-86625000D02*
X119132500Y-86625000D01*
%TO.N,/Cin_P*%
X111500000Y-77500000D02*
X110527500Y-76527500D01*
X110527500Y-76527500D02*
X109140000Y-76527500D01*
X117393603Y-88265000D02*
X116205000Y-88265000D01*
D30*
X116515000Y-88575000D02*
X116205000Y-88265000D01*
D32*
X115330000Y-87577500D02*
X112884315Y-87577500D01*
X117603603Y-88475000D02*
X117393603Y-88265000D01*
X112884315Y-87577500D02*
X111500000Y-86193185D01*
X119132500Y-88575000D02*
X118595000Y-88575000D01*
X116017500Y-88265000D02*
X115330000Y-87577500D01*
X118595000Y-88575000D02*
X118495000Y-88475000D01*
X111500000Y-86193185D02*
X111500000Y-77500000D01*
X118495000Y-88475000D02*
X117603603Y-88475000D01*
X116205000Y-88265000D02*
X116017500Y-88265000D01*
D30*
%TO.N,/Cin_N*%
X115725000Y-86440000D02*
X116205000Y-86440000D01*
D32*
X111900000Y-77334314D02*
X109823186Y-75257500D01*
X109823186Y-75257500D02*
X106600000Y-75257500D01*
X118495000Y-88025000D02*
X117790000Y-88025000D01*
X116205000Y-86440000D02*
X116017500Y-86440000D01*
X118595000Y-87925000D02*
X118495000Y-88025000D01*
X115330000Y-87127500D02*
X113000000Y-87127500D01*
X116017500Y-86440000D02*
X115330000Y-87127500D01*
X111900000Y-86027500D02*
X111900000Y-77334314D01*
X119132500Y-87925000D02*
X118595000Y-87925000D01*
X113000000Y-87127500D02*
X111900000Y-86027500D01*
X117790000Y-88025000D02*
X116205000Y-86440000D01*
%TO.N,/Dout_N*%
X119032500Y-89325000D02*
X109302500Y-89325000D01*
X119132500Y-89225000D02*
X119032500Y-89325000D01*
X109302500Y-89325000D02*
X109140000Y-89487500D01*
%TO.N,/Dout_P*%
X110775000Y-89725000D02*
X109962500Y-90537500D01*
X117876249Y-89725000D02*
X110775000Y-89725000D01*
X118026249Y-89875000D02*
X117876249Y-89725000D01*
X109962500Y-90537500D02*
X108058447Y-90537500D01*
X106600000Y-89079053D02*
X106600000Y-88217500D01*
X108058447Y-90537500D02*
X106600000Y-89079053D01*
X119132500Y-89875000D02*
X118026249Y-89875000D01*
%TO.N,/Cout_N*%
X114643064Y-90625000D02*
X114290564Y-90977500D01*
X106820000Y-90977500D02*
X106600000Y-90757500D01*
X118026249Y-90525000D02*
X117926249Y-90625000D01*
X119132500Y-90525000D02*
X118026249Y-90525000D01*
X117926249Y-90625000D02*
X114643064Y-90625000D01*
X114290564Y-90977500D02*
X106820000Y-90977500D01*
%TO.N,/Cout_P*%
X118026249Y-91175000D02*
X117926249Y-91075000D01*
X114456250Y-91377500D02*
X109790000Y-91377500D01*
X109790000Y-91377500D02*
X109140000Y-92027500D01*
X114758750Y-91075000D02*
X114456250Y-91377500D01*
X117926249Y-91075000D02*
X114758750Y-91075000D01*
X119132500Y-91175000D02*
X118026249Y-91175000D01*
D30*
%TO.N,Net-(U2-IREF)*%
X139450000Y-88577500D02*
X141530000Y-88577500D01*
X141530000Y-88577500D02*
X141605000Y-88652500D01*
%TO.N,Net-(D2-K)*%
X140970000Y-99060000D02*
X140970000Y-98425000D01*
X148590000Y-83185000D02*
X148590000Y-74295000D01*
X138025000Y-95480000D02*
X138025000Y-94427500D01*
X138025000Y-94427500D02*
X138150000Y-94302500D01*
X140970000Y-98425000D02*
X138025000Y-95480000D01*
X140970000Y-99060000D02*
X140970000Y-100330000D01*
X189230000Y-74295000D02*
X189230000Y-88900000D01*
X140970000Y-100330000D02*
X148590000Y-107950000D01*
%TO.N,Net-(D3-K)*%
X186690000Y-74295000D02*
X186690000Y-88900000D01*
X139700000Y-99060000D02*
X139700000Y-100330000D01*
X146050000Y-81915000D02*
X146050000Y-74295000D01*
X139700000Y-98425000D02*
X137500000Y-96225000D01*
X139700000Y-100330000D02*
X146050000Y-106680000D01*
X146050000Y-106680000D02*
X146050000Y-107950000D01*
X139700000Y-99060000D02*
X139700000Y-98425000D01*
X137500000Y-96225000D02*
X137500000Y-94302500D01*
%TO.N,Net-(D4-K)*%
X138430000Y-100330000D02*
X143510000Y-105410000D01*
X184150000Y-74295000D02*
X184150000Y-88900000D01*
X138430000Y-99060000D02*
X138430000Y-98425000D01*
X136850000Y-96845000D02*
X136850000Y-94302500D01*
X138430000Y-99060000D02*
X138430000Y-100330000D01*
X138430000Y-98425000D02*
X136850000Y-96845000D01*
X143510000Y-80645000D02*
X143510000Y-74295000D01*
X143510000Y-105410000D02*
X143510000Y-107950000D01*
%TO.N,Net-(D5-K)*%
X137160000Y-100330000D02*
X140970000Y-104140000D01*
X140970000Y-104140000D02*
X140970000Y-107950000D01*
X181610000Y-74295000D02*
X181610000Y-88900000D01*
X137160000Y-99060000D02*
X137160000Y-100330000D01*
X137160000Y-98425000D02*
X136200000Y-97465000D01*
X136200000Y-97465000D02*
X136200000Y-94302500D01*
X140970000Y-79375000D02*
X140970000Y-74295000D01*
X137160000Y-99060000D02*
X137160000Y-98425000D01*
%TO.N,Net-(D6-K)*%
X138430000Y-78105000D02*
X138430000Y-74295000D01*
X138430000Y-102870000D02*
X138430000Y-107950000D01*
X179070000Y-88900000D02*
X179070000Y-107950000D01*
X135890000Y-99060000D02*
X135890000Y-100330000D01*
X135550000Y-98085000D02*
X135550000Y-94302500D01*
X135890000Y-100330000D02*
X138430000Y-102870000D01*
X179070000Y-74295000D02*
X179070000Y-88900000D01*
X135890000Y-98425000D02*
X135550000Y-98085000D01*
X135890000Y-98425000D02*
X135890000Y-99060000D01*
%TO.N,Net-(D7-K)*%
X134620000Y-100330000D02*
X135890000Y-101600000D01*
X176530000Y-74295000D02*
X176530000Y-88900000D01*
X134620000Y-99060000D02*
X134620000Y-100330000D01*
X134620000Y-98425000D02*
X134900000Y-98145000D01*
X134620000Y-99060000D02*
X134620000Y-98425000D01*
X135890000Y-76835000D02*
X135890000Y-74295000D01*
X134900000Y-98145000D02*
X134900000Y-94302500D01*
X135890000Y-101600000D02*
X135890000Y-107950000D01*
%TO.N,Net-(U1-DIN1)*%
X130175000Y-92710000D02*
X132007500Y-92710000D01*
X128905000Y-92710000D02*
X130175000Y-92710000D01*
X126720000Y-90525000D02*
X128905000Y-92710000D01*
X132007500Y-92710000D02*
X133600000Y-94302500D01*
X124857500Y-90525000D02*
X126720000Y-90525000D01*
%TO.N,Net-(U1-DIN2)*%
X134307500Y-94302500D02*
X134250000Y-94302500D01*
X128270000Y-90805000D02*
X127340000Y-89875000D01*
X127340000Y-89875000D02*
X124857500Y-89875000D01*
X131445000Y-90805000D02*
X128270000Y-90805000D01*
%TO.N,Net-(U1-ROUT2)*%
X124857500Y-87925000D02*
X127930000Y-87925000D01*
X128270000Y-88265000D02*
X130175000Y-88265000D01*
X130175000Y-88265000D02*
X133287500Y-88265000D01*
X133287500Y-88265000D02*
X133600000Y-88577500D01*
X127930000Y-87925000D02*
X128270000Y-88265000D01*
%TO.N,Net-(U1-ROUT1)*%
X130175000Y-86360000D02*
X132771041Y-86360000D01*
X128905000Y-86360000D02*
X130175000Y-86360000D01*
X124857500Y-87275000D02*
X127990000Y-87275000D01*
X132771041Y-86360000D02*
X134250000Y-87838959D01*
X134250000Y-87838959D02*
X134250000Y-88577500D01*
X127990000Y-87275000D02*
X128905000Y-86360000D01*
%TO.N,Net-(D8-K)*%
X130810000Y-107950000D02*
X130810000Y-99060000D01*
X130810000Y-84455000D02*
X132078604Y-84455000D01*
X134900000Y-87276396D02*
X134900000Y-88577500D01*
X132078604Y-84455000D02*
X134900000Y-87276396D01*
X171450000Y-74295000D02*
X171450000Y-88900000D01*
%TO.N,Net-(D9-K)*%
X128270000Y-83185000D02*
X132080000Y-83185000D01*
X135550000Y-86655000D02*
X135550000Y-88577500D01*
X132080000Y-83185000D02*
X135550000Y-86655000D01*
X128270000Y-107950000D02*
X128270000Y-100330000D01*
X168910000Y-74295000D02*
X168910000Y-88900000D01*
%TO.N,Net-(D10-K)*%
X166370000Y-88900000D02*
X166370000Y-74295000D01*
X136200000Y-86036396D02*
X136200000Y-88577500D01*
X125730000Y-107950000D02*
X125730000Y-101600000D01*
X125730000Y-81915000D02*
X132078604Y-81915000D01*
X132078604Y-81915000D02*
X136200000Y-86036396D01*
%TO.N,Net-(D11-K)*%
X123190000Y-102982500D02*
X123115000Y-102907500D01*
X136850000Y-85415000D02*
X136850000Y-88577500D01*
X123190000Y-80645000D02*
X132080000Y-80645000D01*
X123190000Y-107950000D02*
X123190000Y-102945000D01*
X163830000Y-88900000D02*
X163830000Y-74295000D01*
X132080000Y-80645000D02*
X136850000Y-85415000D01*
%TO.N,Net-(D12-K)*%
X132078604Y-79375000D02*
X137500000Y-84796396D01*
X120650000Y-107950000D02*
X120650000Y-104140000D01*
X137500000Y-84796396D02*
X137500000Y-88577500D01*
X161290000Y-88900000D02*
X161290000Y-74295000D01*
X120650000Y-79375000D02*
X132078604Y-79375000D01*
%TO.N,Net-(D13-K)*%
X118110000Y-107950000D02*
X118110000Y-105410000D01*
X158750000Y-88900000D02*
X158750000Y-74295000D01*
X138150000Y-84175000D02*
X138150000Y-88577500D01*
X132080000Y-78105000D02*
X138150000Y-84175000D01*
X118110000Y-78105000D02*
X132080000Y-78105000D01*
%TD*%
%TA.AperFunction,Conductor*%
%TO.N,+3V3*%
G36*
X120184075Y-110927007D02*
G01*
X120150000Y-111054174D01*
X120150000Y-111185826D01*
X120184075Y-111312993D01*
X120216988Y-111370000D01*
X118543012Y-111370000D01*
X118575925Y-111312993D01*
X118610000Y-111185826D01*
X118610000Y-111054174D01*
X118575925Y-110927007D01*
X118543012Y-110870000D01*
X120216988Y-110870000D01*
X120184075Y-110927007D01*
G37*
%TD.AperFunction*%
%TA.AperFunction,Conductor*%
G36*
X122724075Y-110927007D02*
G01*
X122690000Y-111054174D01*
X122690000Y-111185826D01*
X122724075Y-111312993D01*
X122756988Y-111370000D01*
X121083012Y-111370000D01*
X121115925Y-111312993D01*
X121150000Y-111185826D01*
X121150000Y-111054174D01*
X121115925Y-110927007D01*
X121083012Y-110870000D01*
X122756988Y-110870000D01*
X122724075Y-110927007D01*
G37*
%TD.AperFunction*%
%TA.AperFunction,Conductor*%
G36*
X125264075Y-110927007D02*
G01*
X125230000Y-111054174D01*
X125230000Y-111185826D01*
X125264075Y-111312993D01*
X125296988Y-111370000D01*
X123623012Y-111370000D01*
X123655925Y-111312993D01*
X123690000Y-111185826D01*
X123690000Y-111054174D01*
X123655925Y-110927007D01*
X123623012Y-110870000D01*
X125296988Y-110870000D01*
X125264075Y-110927007D01*
G37*
%TD.AperFunction*%
%TA.AperFunction,Conductor*%
G36*
X127804075Y-110927007D02*
G01*
X127770000Y-111054174D01*
X127770000Y-111185826D01*
X127804075Y-111312993D01*
X127836988Y-111370000D01*
X126163012Y-111370000D01*
X126195925Y-111312993D01*
X126230000Y-111185826D01*
X126230000Y-111054174D01*
X126195925Y-110927007D01*
X126163012Y-110870000D01*
X127836988Y-110870000D01*
X127804075Y-110927007D01*
G37*
%TD.AperFunction*%
%TA.AperFunction,Conductor*%
G36*
X130344075Y-110927007D02*
G01*
X130310000Y-111054174D01*
X130310000Y-111185826D01*
X130344075Y-111312993D01*
X130376988Y-111370000D01*
X128703012Y-111370000D01*
X128735925Y-111312993D01*
X128770000Y-111185826D01*
X128770000Y-111054174D01*
X128735925Y-110927007D01*
X128703012Y-110870000D01*
X130376988Y-110870000D01*
X130344075Y-110927007D01*
G37*
%TD.AperFunction*%
%TA.AperFunction,Conductor*%
G36*
X137964075Y-110927007D02*
G01*
X137930000Y-111054174D01*
X137930000Y-111185826D01*
X137964075Y-111312993D01*
X137996988Y-111370000D01*
X136323012Y-111370000D01*
X136355925Y-111312993D01*
X136390000Y-111185826D01*
X136390000Y-111054174D01*
X136355925Y-110927007D01*
X136323012Y-110870000D01*
X137996988Y-110870000D01*
X137964075Y-110927007D01*
G37*
%TD.AperFunction*%
%TA.AperFunction,Conductor*%
G36*
X140504075Y-110927007D02*
G01*
X140470000Y-111054174D01*
X140470000Y-111185826D01*
X140504075Y-111312993D01*
X140536988Y-111370000D01*
X138863012Y-111370000D01*
X138895925Y-111312993D01*
X138930000Y-111185826D01*
X138930000Y-111054174D01*
X138895925Y-110927007D01*
X138863012Y-110870000D01*
X140536988Y-110870000D01*
X140504075Y-110927007D01*
G37*
%TD.AperFunction*%
%TA.AperFunction,Conductor*%
G36*
X143044075Y-110927007D02*
G01*
X143010000Y-111054174D01*
X143010000Y-111185826D01*
X143044075Y-111312993D01*
X143076988Y-111370000D01*
X141403012Y-111370000D01*
X141435925Y-111312993D01*
X141470000Y-111185826D01*
X141470000Y-111054174D01*
X141435925Y-110927007D01*
X141403012Y-110870000D01*
X143076988Y-110870000D01*
X143044075Y-110927007D01*
G37*
%TD.AperFunction*%
%TA.AperFunction,Conductor*%
G36*
X145584075Y-110927007D02*
G01*
X145550000Y-111054174D01*
X145550000Y-111185826D01*
X145584075Y-111312993D01*
X145616988Y-111370000D01*
X143943012Y-111370000D01*
X143975925Y-111312993D01*
X144010000Y-111185826D01*
X144010000Y-111054174D01*
X143975925Y-110927007D01*
X143943012Y-110870000D01*
X145616988Y-110870000D01*
X145584075Y-110927007D01*
G37*
%TD.AperFunction*%
%TA.AperFunction,Conductor*%
G36*
X148124075Y-110927007D02*
G01*
X148090000Y-111054174D01*
X148090000Y-111185826D01*
X148124075Y-111312993D01*
X148156988Y-111370000D01*
X146483012Y-111370000D01*
X146515925Y-111312993D01*
X146550000Y-111185826D01*
X146550000Y-111054174D01*
X146515925Y-110927007D01*
X146483012Y-110870000D01*
X148156988Y-110870000D01*
X148124075Y-110927007D01*
G37*
%TD.AperFunction*%
%TA.AperFunction,Conductor*%
G36*
X160824075Y-110927007D02*
G01*
X160790000Y-111054174D01*
X160790000Y-111185826D01*
X160824075Y-111312993D01*
X160856988Y-111370000D01*
X159183012Y-111370000D01*
X159215925Y-111312993D01*
X159250000Y-111185826D01*
X159250000Y-111054174D01*
X159215925Y-110927007D01*
X159183012Y-110870000D01*
X160856988Y-110870000D01*
X160824075Y-110927007D01*
G37*
%TD.AperFunction*%
%TA.AperFunction,Conductor*%
G36*
X163364075Y-110927007D02*
G01*
X163330000Y-111054174D01*
X163330000Y-111185826D01*
X163364075Y-111312993D01*
X163396988Y-111370000D01*
X161723012Y-111370000D01*
X161755925Y-111312993D01*
X161790000Y-111185826D01*
X161790000Y-111054174D01*
X161755925Y-110927007D01*
X161723012Y-110870000D01*
X163396988Y-110870000D01*
X163364075Y-110927007D01*
G37*
%TD.AperFunction*%
%TA.AperFunction,Conductor*%
G36*
X165904075Y-110927007D02*
G01*
X165870000Y-111054174D01*
X165870000Y-111185826D01*
X165904075Y-111312993D01*
X165936988Y-111370000D01*
X164263012Y-111370000D01*
X164295925Y-111312993D01*
X164330000Y-111185826D01*
X164330000Y-111054174D01*
X164295925Y-110927007D01*
X164263012Y-110870000D01*
X165936988Y-110870000D01*
X165904075Y-110927007D01*
G37*
%TD.AperFunction*%
%TA.AperFunction,Conductor*%
G36*
X168444075Y-110927007D02*
G01*
X168410000Y-111054174D01*
X168410000Y-111185826D01*
X168444075Y-111312993D01*
X168476988Y-111370000D01*
X166803012Y-111370000D01*
X166835925Y-111312993D01*
X166870000Y-111185826D01*
X166870000Y-111054174D01*
X166835925Y-110927007D01*
X166803012Y-110870000D01*
X168476988Y-110870000D01*
X168444075Y-110927007D01*
G37*
%TD.AperFunction*%
%TA.AperFunction,Conductor*%
G36*
X170984075Y-110927007D02*
G01*
X170950000Y-111054174D01*
X170950000Y-111185826D01*
X170984075Y-111312993D01*
X171016988Y-111370000D01*
X169343012Y-111370000D01*
X169375925Y-111312993D01*
X169410000Y-111185826D01*
X169410000Y-111054174D01*
X169375925Y-110927007D01*
X169343012Y-110870000D01*
X171016988Y-110870000D01*
X170984075Y-110927007D01*
G37*
%TD.AperFunction*%
%TA.AperFunction,Conductor*%
G36*
X160824075Y-70932007D02*
G01*
X160790000Y-71059174D01*
X160790000Y-71190826D01*
X160824075Y-71317993D01*
X160856988Y-71375000D01*
X159183012Y-71375000D01*
X159215925Y-71317993D01*
X159250000Y-71190826D01*
X159250000Y-71059174D01*
X159215925Y-70932007D01*
X159183012Y-70875000D01*
X160856988Y-70875000D01*
X160824075Y-70932007D01*
G37*
%TD.AperFunction*%
%TA.AperFunction,Conductor*%
G36*
X163364075Y-70932007D02*
G01*
X163330000Y-71059174D01*
X163330000Y-71190826D01*
X163364075Y-71317993D01*
X163396988Y-71375000D01*
X161723012Y-71375000D01*
X161755925Y-71317993D01*
X161790000Y-71190826D01*
X161790000Y-71059174D01*
X161755925Y-70932007D01*
X161723012Y-70875000D01*
X163396988Y-70875000D01*
X163364075Y-70932007D01*
G37*
%TD.AperFunction*%
%TA.AperFunction,Conductor*%
G36*
X165904075Y-70932007D02*
G01*
X165870000Y-71059174D01*
X165870000Y-71190826D01*
X165904075Y-71317993D01*
X165936988Y-71375000D01*
X164263012Y-71375000D01*
X164295925Y-71317993D01*
X164330000Y-71190826D01*
X164330000Y-71059174D01*
X164295925Y-70932007D01*
X164263012Y-70875000D01*
X165936988Y-70875000D01*
X165904075Y-70932007D01*
G37*
%TD.AperFunction*%
%TA.AperFunction,Conductor*%
G36*
X168444075Y-70932007D02*
G01*
X168410000Y-71059174D01*
X168410000Y-71190826D01*
X168444075Y-71317993D01*
X168476988Y-71375000D01*
X166803012Y-71375000D01*
X166835925Y-71317993D01*
X166870000Y-71190826D01*
X166870000Y-71059174D01*
X166835925Y-70932007D01*
X166803012Y-70875000D01*
X168476988Y-70875000D01*
X168444075Y-70932007D01*
G37*
%TD.AperFunction*%
%TA.AperFunction,Conductor*%
G36*
X170984075Y-70932007D02*
G01*
X170950000Y-71059174D01*
X170950000Y-71190826D01*
X170984075Y-71317993D01*
X171016988Y-71375000D01*
X169343012Y-71375000D01*
X169375925Y-71317993D01*
X169410000Y-71190826D01*
X169410000Y-71059174D01*
X169375925Y-70932007D01*
X169343012Y-70875000D01*
X171016988Y-70875000D01*
X170984075Y-70932007D01*
G37*
%TD.AperFunction*%
%TA.AperFunction,Conductor*%
G36*
X178604075Y-110927007D02*
G01*
X178570000Y-111054174D01*
X178570000Y-111185826D01*
X178604075Y-111312993D01*
X178636988Y-111370000D01*
X176963012Y-111370000D01*
X176995925Y-111312993D01*
X177030000Y-111185826D01*
X177030000Y-111054174D01*
X176995925Y-110927007D01*
X176963012Y-110870000D01*
X178636988Y-110870000D01*
X178604075Y-110927007D01*
G37*
%TD.AperFunction*%
%TA.AperFunction,Conductor*%
G36*
X181144075Y-110927007D02*
G01*
X181110000Y-111054174D01*
X181110000Y-111185826D01*
X181144075Y-111312993D01*
X181176988Y-111370000D01*
X179503012Y-111370000D01*
X179535925Y-111312993D01*
X179570000Y-111185826D01*
X179570000Y-111054174D01*
X179535925Y-110927007D01*
X179503012Y-110870000D01*
X181176988Y-110870000D01*
X181144075Y-110927007D01*
G37*
%TD.AperFunction*%
%TA.AperFunction,Conductor*%
G36*
X183684075Y-110927007D02*
G01*
X183650000Y-111054174D01*
X183650000Y-111185826D01*
X183684075Y-111312993D01*
X183716988Y-111370000D01*
X182043012Y-111370000D01*
X182075925Y-111312993D01*
X182110000Y-111185826D01*
X182110000Y-111054174D01*
X182075925Y-110927007D01*
X182043012Y-110870000D01*
X183716988Y-110870000D01*
X183684075Y-110927007D01*
G37*
%TD.AperFunction*%
%TA.AperFunction,Conductor*%
G36*
X186224075Y-110927007D02*
G01*
X186190000Y-111054174D01*
X186190000Y-111185826D01*
X186224075Y-111312993D01*
X186256988Y-111370000D01*
X184583012Y-111370000D01*
X184615925Y-111312993D01*
X184650000Y-111185826D01*
X184650000Y-111054174D01*
X184615925Y-110927007D01*
X184583012Y-110870000D01*
X186256988Y-110870000D01*
X186224075Y-110927007D01*
G37*
%TD.AperFunction*%
%TA.AperFunction,Conductor*%
G36*
X188764075Y-110927007D02*
G01*
X188730000Y-111054174D01*
X188730000Y-111185826D01*
X188764075Y-111312993D01*
X188796988Y-111370000D01*
X187123012Y-111370000D01*
X187155925Y-111312993D01*
X187190000Y-111185826D01*
X187190000Y-111054174D01*
X187155925Y-110927007D01*
X187123012Y-110870000D01*
X188796988Y-110870000D01*
X188764075Y-110927007D01*
G37*
%TD.AperFunction*%
%TA.AperFunction,Conductor*%
G36*
X178604075Y-70932007D02*
G01*
X178570000Y-71059174D01*
X178570000Y-71190826D01*
X178604075Y-71317993D01*
X178636988Y-71375000D01*
X176963012Y-71375000D01*
X176995925Y-71317993D01*
X177030000Y-71190826D01*
X177030000Y-71059174D01*
X176995925Y-70932007D01*
X176963012Y-70875000D01*
X178636988Y-70875000D01*
X178604075Y-70932007D01*
G37*
%TD.AperFunction*%
%TA.AperFunction,Conductor*%
G36*
X181144075Y-70932007D02*
G01*
X181110000Y-71059174D01*
X181110000Y-71190826D01*
X181144075Y-71317993D01*
X181176988Y-71375000D01*
X179503012Y-71375000D01*
X179535925Y-71317993D01*
X179570000Y-71190826D01*
X179570000Y-71059174D01*
X179535925Y-70932007D01*
X179503012Y-70875000D01*
X181176988Y-70875000D01*
X181144075Y-70932007D01*
G37*
%TD.AperFunction*%
%TA.AperFunction,Conductor*%
G36*
X183684075Y-70932007D02*
G01*
X183650000Y-71059174D01*
X183650000Y-71190826D01*
X183684075Y-71317993D01*
X183716988Y-71375000D01*
X182043012Y-71375000D01*
X182075925Y-71317993D01*
X182110000Y-71190826D01*
X182110000Y-71059174D01*
X182075925Y-70932007D01*
X182043012Y-70875000D01*
X183716988Y-70875000D01*
X183684075Y-70932007D01*
G37*
%TD.AperFunction*%
%TA.AperFunction,Conductor*%
G36*
X186224075Y-70932007D02*
G01*
X186190000Y-71059174D01*
X186190000Y-71190826D01*
X186224075Y-71317993D01*
X186256988Y-71375000D01*
X184583012Y-71375000D01*
X184615925Y-71317993D01*
X184650000Y-71190826D01*
X184650000Y-71059174D01*
X184615925Y-70932007D01*
X184583012Y-70875000D01*
X186256988Y-70875000D01*
X186224075Y-70932007D01*
G37*
%TD.AperFunction*%
%TA.AperFunction,Conductor*%
G36*
X188764075Y-70932007D02*
G01*
X188730000Y-71059174D01*
X188730000Y-71190826D01*
X188764075Y-71317993D01*
X188796988Y-71375000D01*
X187123012Y-71375000D01*
X187155925Y-71317993D01*
X187190000Y-71190826D01*
X187190000Y-71059174D01*
X187155925Y-70932007D01*
X187123012Y-70875000D01*
X188796988Y-70875000D01*
X188764075Y-70932007D01*
G37*
%TD.AperFunction*%
%TA.AperFunction,Conductor*%
G36*
X137964075Y-70932007D02*
G01*
X137930000Y-71059174D01*
X137930000Y-71190826D01*
X137964075Y-71317993D01*
X137996988Y-71375000D01*
X136323012Y-71375000D01*
X136355925Y-71317993D01*
X136390000Y-71190826D01*
X136390000Y-71059174D01*
X136355925Y-70932007D01*
X136323012Y-70875000D01*
X137996988Y-70875000D01*
X137964075Y-70932007D01*
G37*
%TD.AperFunction*%
%TA.AperFunction,Conductor*%
G36*
X140504075Y-70932007D02*
G01*
X140470000Y-71059174D01*
X140470000Y-71190826D01*
X140504075Y-71317993D01*
X140536988Y-71375000D01*
X138863012Y-71375000D01*
X138895925Y-71317993D01*
X138930000Y-71190826D01*
X138930000Y-71059174D01*
X138895925Y-70932007D01*
X138863012Y-70875000D01*
X140536988Y-70875000D01*
X140504075Y-70932007D01*
G37*
%TD.AperFunction*%
%TA.AperFunction,Conductor*%
G36*
X143044075Y-70932007D02*
G01*
X143010000Y-71059174D01*
X143010000Y-71190826D01*
X143044075Y-71317993D01*
X143076988Y-71375000D01*
X141403012Y-71375000D01*
X141435925Y-71317993D01*
X141470000Y-71190826D01*
X141470000Y-71059174D01*
X141435925Y-70932007D01*
X141403012Y-70875000D01*
X143076988Y-70875000D01*
X143044075Y-70932007D01*
G37*
%TD.AperFunction*%
%TA.AperFunction,Conductor*%
G36*
X145584075Y-70932007D02*
G01*
X145550000Y-71059174D01*
X145550000Y-71190826D01*
X145584075Y-71317993D01*
X145616988Y-71375000D01*
X143943012Y-71375000D01*
X143975925Y-71317993D01*
X144010000Y-71190826D01*
X144010000Y-71059174D01*
X143975925Y-70932007D01*
X143943012Y-70875000D01*
X145616988Y-70875000D01*
X145584075Y-70932007D01*
G37*
%TD.AperFunction*%
%TA.AperFunction,Conductor*%
G36*
X148124075Y-70932007D02*
G01*
X148090000Y-71059174D01*
X148090000Y-71190826D01*
X148124075Y-71317993D01*
X148156988Y-71375000D01*
X146483012Y-71375000D01*
X146515925Y-71317993D01*
X146550000Y-71190826D01*
X146550000Y-71059174D01*
X146515925Y-70932007D01*
X146483012Y-70875000D01*
X148156988Y-70875000D01*
X148124075Y-70932007D01*
G37*
%TD.AperFunction*%
%TA.AperFunction,Conductor*%
G36*
X120184075Y-70932007D02*
G01*
X120150000Y-71059174D01*
X120150000Y-71190826D01*
X120184075Y-71317993D01*
X120216988Y-71375000D01*
X118543012Y-71375000D01*
X118575925Y-71317993D01*
X118610000Y-71190826D01*
X118610000Y-71059174D01*
X118575925Y-70932007D01*
X118543012Y-70875000D01*
X120216988Y-70875000D01*
X120184075Y-70932007D01*
G37*
%TD.AperFunction*%
%TA.AperFunction,Conductor*%
G36*
X122724075Y-70932007D02*
G01*
X122690000Y-71059174D01*
X122690000Y-71190826D01*
X122724075Y-71317993D01*
X122756988Y-71375000D01*
X121083012Y-71375000D01*
X121115925Y-71317993D01*
X121150000Y-71190826D01*
X121150000Y-71059174D01*
X121115925Y-70932007D01*
X121083012Y-70875000D01*
X122756988Y-70875000D01*
X122724075Y-70932007D01*
G37*
%TD.AperFunction*%
%TA.AperFunction,Conductor*%
G36*
X125264075Y-70932007D02*
G01*
X125230000Y-71059174D01*
X125230000Y-71190826D01*
X125264075Y-71317993D01*
X125296988Y-71375000D01*
X123623012Y-71375000D01*
X123655925Y-71317993D01*
X123690000Y-71190826D01*
X123690000Y-71059174D01*
X123655925Y-70932007D01*
X123623012Y-70875000D01*
X125296988Y-70875000D01*
X125264075Y-70932007D01*
G37*
%TD.AperFunction*%
%TA.AperFunction,Conductor*%
G36*
X127804075Y-70932007D02*
G01*
X127770000Y-71059174D01*
X127770000Y-71190826D01*
X127804075Y-71317993D01*
X127836988Y-71375000D01*
X126163012Y-71375000D01*
X126195925Y-71317993D01*
X126230000Y-71190826D01*
X126230000Y-71059174D01*
X126195925Y-70932007D01*
X126163012Y-70875000D01*
X127836988Y-70875000D01*
X127804075Y-70932007D01*
G37*
%TD.AperFunction*%
%TA.AperFunction,Conductor*%
G36*
X130344075Y-70932007D02*
G01*
X130310000Y-71059174D01*
X130310000Y-71190826D01*
X130344075Y-71317993D01*
X130376988Y-71375000D01*
X128703012Y-71375000D01*
X128735925Y-71317993D01*
X128770000Y-71190826D01*
X128770000Y-71059174D01*
X128735925Y-70932007D01*
X128703012Y-70875000D01*
X130376988Y-70875000D01*
X130344075Y-70932007D01*
G37*
%TD.AperFunction*%
%TA.AperFunction,Conductor*%
G36*
X191713039Y-68599685D02*
G01*
X191758794Y-68652489D01*
X191770000Y-68704000D01*
X191770000Y-113541000D01*
X191750315Y-113608039D01*
X191697511Y-113653794D01*
X191646000Y-113665000D01*
X92834000Y-113665000D01*
X92766961Y-113645315D01*
X92721206Y-113592511D01*
X92710000Y-113541000D01*
X92710000Y-107500000D01*
X99159540Y-107500000D01*
X99179326Y-107688256D01*
X99179327Y-107688259D01*
X99237818Y-107868277D01*
X99237821Y-107868284D01*
X99332467Y-108032216D01*
X99419061Y-108128388D01*
X99459129Y-108172888D01*
X99612265Y-108284148D01*
X99612270Y-108284151D01*
X99785192Y-108361142D01*
X99785197Y-108361144D01*
X99970354Y-108400500D01*
X99970355Y-108400500D01*
X100159643Y-108400500D01*
X100159646Y-108400500D01*
X100187250Y-108394632D01*
X100256915Y-108399947D01*
X100300712Y-108428241D01*
X100416496Y-108544025D01*
X100416500Y-108544028D01*
X100564566Y-108635357D01*
X100564569Y-108635358D01*
X100564575Y-108635362D01*
X100729725Y-108690087D01*
X100831652Y-108700500D01*
X100831657Y-108700500D01*
X101418343Y-108700500D01*
X101418348Y-108700500D01*
X101520275Y-108690087D01*
X101685425Y-108635362D01*
X101833503Y-108544026D01*
X101956526Y-108421003D01*
X101956958Y-108420301D01*
X101957381Y-108419921D01*
X101961007Y-108415336D01*
X101961790Y-108415955D01*
X102008902Y-108373575D01*
X102077864Y-108362349D01*
X102141948Y-108390188D01*
X102163842Y-108415455D01*
X102163993Y-108415336D01*
X102166643Y-108418687D01*
X102168040Y-108420299D01*
X102168472Y-108420999D01*
X102168475Y-108421004D01*
X102291496Y-108544025D01*
X102291500Y-108544028D01*
X102439566Y-108635357D01*
X102439569Y-108635358D01*
X102439575Y-108635362D01*
X102604725Y-108690087D01*
X102706652Y-108700500D01*
X102706657Y-108700500D01*
X103293343Y-108700500D01*
X103293348Y-108700500D01*
X103395275Y-108690087D01*
X103560425Y-108635362D01*
X103708503Y-108544026D01*
X103831526Y-108421003D01*
X103922862Y-108272925D01*
X103946913Y-108200341D01*
X103986683Y-108142898D01*
X104051199Y-108116074D01*
X104119975Y-108128388D01*
X104171175Y-108175930D01*
X104182323Y-108200340D01*
X104205116Y-108269124D01*
X104205186Y-108269333D01*
X104205187Y-108269336D01*
X104207401Y-108272925D01*
X104297288Y-108418656D01*
X104421344Y-108542712D01*
X104570666Y-108634814D01*
X104737203Y-108689999D01*
X104839991Y-108700500D01*
X105465008Y-108700499D01*
X105465016Y-108700498D01*
X105465019Y-108700498D01*
X105521302Y-108694748D01*
X105567797Y-108689999D01*
X105734334Y-108634814D01*
X105883656Y-108542712D01*
X105977675Y-108448692D01*
X106038994Y-108415210D01*
X106108686Y-108420194D01*
X106153034Y-108448695D01*
X106246654Y-108542315D01*
X106395875Y-108634356D01*
X106395880Y-108634358D01*
X106562302Y-108689505D01*
X106562309Y-108689506D01*
X106665019Y-108699999D01*
X107227500Y-108699999D01*
X107289972Y-108699999D01*
X107289986Y-108699998D01*
X107392697Y-108689505D01*
X107559119Y-108634358D01*
X107559124Y-108634356D01*
X107647250Y-108579999D01*
X116754341Y-108579999D01*
X116754341Y-108580000D01*
X116774936Y-108815403D01*
X116774938Y-108815413D01*
X116836094Y-109043655D01*
X116836096Y-109043659D01*
X116836097Y-109043663D01*
X116840000Y-109052032D01*
X116935965Y-109257830D01*
X116935967Y-109257834D01*
X117044281Y-109412521D01*
X117071501Y-109451396D01*
X117071506Y-109451402D01*
X117238597Y-109618493D01*
X117238603Y-109618498D01*
X117424594Y-109748730D01*
X117468219Y-109803307D01*
X117475413Y-109872805D01*
X117443890Y-109935160D01*
X117424595Y-109951880D01*
X117238922Y-110081890D01*
X117238920Y-110081891D01*
X117071891Y-110248920D01*
X117071886Y-110248926D01*
X116936400Y-110442420D01*
X116936399Y-110442422D01*
X116836570Y-110656507D01*
X116836567Y-110656513D01*
X116779364Y-110869999D01*
X116779364Y-110870000D01*
X117676988Y-110870000D01*
X117644075Y-110927007D01*
X117610000Y-111054174D01*
X117610000Y-111185826D01*
X117644075Y-111312993D01*
X117676988Y-111370000D01*
X116779364Y-111370000D01*
X116836567Y-111583486D01*
X116836570Y-111583492D01*
X116936399Y-111797578D01*
X117071894Y-111991082D01*
X117238917Y-112158105D01*
X117432421Y-112293600D01*
X117646507Y-112393429D01*
X117646516Y-112393433D01*
X117860000Y-112450634D01*
X117860000Y-111553012D01*
X117917007Y-111585925D01*
X118044174Y-111620000D01*
X118175826Y-111620000D01*
X118302993Y-111585925D01*
X118360000Y-111553012D01*
X118360000Y-112450633D01*
X118573483Y-112393433D01*
X118573492Y-112393429D01*
X118787578Y-112293600D01*
X118981082Y-112158105D01*
X119148105Y-111991082D01*
X119278425Y-111804968D01*
X119333002Y-111761344D01*
X119402501Y-111754151D01*
X119464855Y-111785673D01*
X119481575Y-111804968D01*
X119611894Y-111991082D01*
X119778917Y-112158105D01*
X119972421Y-112293600D01*
X120186507Y-112393429D01*
X120186516Y-112393433D01*
X120400000Y-112450634D01*
X120400000Y-111553012D01*
X120457007Y-111585925D01*
X120584174Y-111620000D01*
X120715826Y-111620000D01*
X120842993Y-111585925D01*
X120900000Y-111553012D01*
X120900000Y-112450633D01*
X121113483Y-112393433D01*
X121113492Y-112393429D01*
X121327578Y-112293600D01*
X121521082Y-112158105D01*
X121688105Y-111991082D01*
X121818425Y-111804968D01*
X121873002Y-111761344D01*
X121942501Y-111754151D01*
X122004855Y-111785673D01*
X122021575Y-111804968D01*
X122151894Y-111991082D01*
X122318917Y-112158105D01*
X122512421Y-112293600D01*
X122726507Y-112393429D01*
X122726516Y-112393433D01*
X122940000Y-112450634D01*
X122940000Y-111553012D01*
X122997007Y-111585925D01*
X123124174Y-111620000D01*
X123255826Y-111620000D01*
X123382993Y-111585925D01*
X123440000Y-111553012D01*
X123440000Y-112450633D01*
X123653483Y-112393433D01*
X123653492Y-112393429D01*
X123867578Y-112293600D01*
X124061082Y-112158105D01*
X124228105Y-111991082D01*
X124358425Y-111804968D01*
X124413002Y-111761344D01*
X124482501Y-111754151D01*
X124544855Y-111785673D01*
X124561575Y-111804968D01*
X124691894Y-111991082D01*
X124858917Y-112158105D01*
X125052421Y-112293600D01*
X125266507Y-112393429D01*
X125266516Y-112393433D01*
X125480000Y-112450634D01*
X125480000Y-111553012D01*
X125537007Y-111585925D01*
X125664174Y-111620000D01*
X125795826Y-111620000D01*
X125922993Y-111585925D01*
X125980000Y-111553012D01*
X125980000Y-112450633D01*
X126193483Y-112393433D01*
X126193492Y-112393429D01*
X126407578Y-112293600D01*
X126601082Y-112158105D01*
X126768105Y-111991082D01*
X126898425Y-111804968D01*
X126953002Y-111761344D01*
X127022501Y-111754151D01*
X127084855Y-111785673D01*
X127101575Y-111804968D01*
X127231894Y-111991082D01*
X127398917Y-112158105D01*
X127592421Y-112293600D01*
X127806507Y-112393429D01*
X127806516Y-112393433D01*
X128020000Y-112450634D01*
X128020000Y-111553012D01*
X128077007Y-111585925D01*
X128204174Y-111620000D01*
X128335826Y-111620000D01*
X128462993Y-111585925D01*
X128520000Y-111553012D01*
X128520000Y-112450633D01*
X128733483Y-112393433D01*
X128733492Y-112393429D01*
X128947578Y-112293600D01*
X129141082Y-112158105D01*
X129308105Y-111991082D01*
X129438425Y-111804968D01*
X129493002Y-111761344D01*
X129562501Y-111754151D01*
X129624855Y-111785673D01*
X129641575Y-111804968D01*
X129771894Y-111991082D01*
X129938917Y-112158105D01*
X130132421Y-112293600D01*
X130346507Y-112393429D01*
X130346516Y-112393433D01*
X130560000Y-112450634D01*
X130560000Y-111553012D01*
X130617007Y-111585925D01*
X130744174Y-111620000D01*
X130875826Y-111620000D01*
X131002993Y-111585925D01*
X131060000Y-111553012D01*
X131060000Y-112450633D01*
X131273483Y-112393433D01*
X131273492Y-112393429D01*
X131487578Y-112293600D01*
X131681082Y-112158105D01*
X131848105Y-111991082D01*
X131983600Y-111797578D01*
X132083429Y-111583492D01*
X132083432Y-111583486D01*
X132140636Y-111370000D01*
X131243012Y-111370000D01*
X131275925Y-111312993D01*
X131310000Y-111185826D01*
X131310000Y-111054174D01*
X131275925Y-110927007D01*
X131243012Y-110870000D01*
X132140636Y-110870000D01*
X132140635Y-110869999D01*
X132083432Y-110656513D01*
X132083429Y-110656507D01*
X131983600Y-110442422D01*
X131983599Y-110442420D01*
X131848113Y-110248926D01*
X131848108Y-110248920D01*
X131726053Y-110126865D01*
X131692568Y-110065542D01*
X131697552Y-109995850D01*
X131739424Y-109939917D01*
X131770400Y-109923002D01*
X131902331Y-109873796D01*
X132017546Y-109787546D01*
X132103796Y-109672331D01*
X132154091Y-109537483D01*
X132160500Y-109477873D01*
X132160499Y-107682128D01*
X132154091Y-107622517D01*
X132152810Y-107619083D01*
X132103797Y-107487671D01*
X132103793Y-107487664D01*
X132017547Y-107372455D01*
X132017544Y-107372452D01*
X131902335Y-107286206D01*
X131902328Y-107286202D01*
X131767482Y-107235908D01*
X131767483Y-107235908D01*
X131707883Y-107229501D01*
X131707881Y-107229500D01*
X131707873Y-107229500D01*
X131707865Y-107229500D01*
X131559500Y-107229500D01*
X131492461Y-107209815D01*
X131446706Y-107157011D01*
X131435500Y-107105500D01*
X131435500Y-99758687D01*
X131455185Y-99691648D01*
X131467350Y-99675715D01*
X131489340Y-99651292D01*
X131542533Y-99592216D01*
X131637179Y-99428284D01*
X131695674Y-99248256D01*
X131715460Y-99060000D01*
X131695674Y-98871744D01*
X131637179Y-98691716D01*
X131542533Y-98527784D01*
X131415871Y-98387112D01*
X131415870Y-98387111D01*
X131262734Y-98275851D01*
X131262729Y-98275848D01*
X131089807Y-98198857D01*
X131089802Y-98198855D01*
X130944001Y-98167865D01*
X130904646Y-98159500D01*
X130715354Y-98159500D01*
X130682897Y-98166398D01*
X130530197Y-98198855D01*
X130530192Y-98198857D01*
X130357270Y-98275848D01*
X130357265Y-98275851D01*
X130204129Y-98387111D01*
X130077466Y-98527785D01*
X129982821Y-98691715D01*
X129982818Y-98691722D01*
X129924327Y-98871740D01*
X129924326Y-98871744D01*
X129904540Y-99060000D01*
X129924326Y-99248256D01*
X129924327Y-99248259D01*
X129982818Y-99428277D01*
X129982821Y-99428284D01*
X130077467Y-99592216D01*
X130084695Y-99600243D01*
X130152650Y-99675715D01*
X130182880Y-99738706D01*
X130184500Y-99758687D01*
X130184500Y-107105500D01*
X130164815Y-107172539D01*
X130112011Y-107218294D01*
X130060501Y-107229500D01*
X129912130Y-107229500D01*
X129912123Y-107229501D01*
X129852516Y-107235908D01*
X129717671Y-107286202D01*
X129717664Y-107286206D01*
X129602455Y-107372452D01*
X129602452Y-107372455D01*
X129516206Y-107487664D01*
X129516203Y-107487669D01*
X129467189Y-107619083D01*
X129425317Y-107675016D01*
X129359853Y-107699433D01*
X129291580Y-107684581D01*
X129263326Y-107663430D01*
X129141402Y-107541506D01*
X129141401Y-107541505D01*
X128948376Y-107406347D01*
X128904751Y-107351770D01*
X128895500Y-107304772D01*
X128895500Y-101028687D01*
X128915185Y-100961648D01*
X128927350Y-100945715D01*
X128967330Y-100901312D01*
X129002533Y-100862216D01*
X129097179Y-100698284D01*
X129155674Y-100518256D01*
X129175460Y-100330000D01*
X129155674Y-100141744D01*
X129097179Y-99961716D01*
X129002533Y-99797784D01*
X128875871Y-99657112D01*
X128875870Y-99657111D01*
X128722734Y-99545851D01*
X128722729Y-99545848D01*
X128549807Y-99468857D01*
X128549802Y-99468855D01*
X128404001Y-99437865D01*
X128364646Y-99429500D01*
X128175354Y-99429500D01*
X128142897Y-99436398D01*
X127990197Y-99468855D01*
X127990192Y-99468857D01*
X127817270Y-99545848D01*
X127817265Y-99545851D01*
X127664129Y-99657111D01*
X127537466Y-99797785D01*
X127442821Y-99961715D01*
X127442818Y-99961722D01*
X127386987Y-100133554D01*
X127384326Y-100141744D01*
X127364540Y-100330000D01*
X127384326Y-100518256D01*
X127384327Y-100518259D01*
X127442818Y-100698277D01*
X127442821Y-100698284D01*
X127537467Y-100862216D01*
X127572670Y-100901312D01*
X127612650Y-100945715D01*
X127642880Y-101008706D01*
X127644500Y-101028687D01*
X127644500Y-107304773D01*
X127624815Y-107371812D01*
X127591623Y-107406348D01*
X127398597Y-107541505D01*
X127231505Y-107708597D01*
X127101575Y-107894158D01*
X127046998Y-107937783D01*
X126977500Y-107944977D01*
X126915145Y-107913454D01*
X126898425Y-107894158D01*
X126768494Y-107708597D01*
X126601402Y-107541506D01*
X126601401Y-107541505D01*
X126408376Y-107406347D01*
X126364751Y-107351770D01*
X126355500Y-107304772D01*
X126355500Y-102298687D01*
X126375185Y-102231648D01*
X126387350Y-102215715D01*
X126427330Y-102171312D01*
X126462533Y-102132216D01*
X126557179Y-101968284D01*
X126615674Y-101788256D01*
X126635460Y-101600000D01*
X126615674Y-101411744D01*
X126557179Y-101231716D01*
X126462533Y-101067784D01*
X126335871Y-100927112D01*
X126335870Y-100927111D01*
X126182734Y-100815851D01*
X126182729Y-100815848D01*
X126009807Y-100738857D01*
X126009802Y-100738855D01*
X125864001Y-100707865D01*
X125824646Y-100699500D01*
X125635354Y-100699500D01*
X125602897Y-100706398D01*
X125450197Y-100738855D01*
X125450192Y-100738857D01*
X125277270Y-100815848D01*
X125277265Y-100815851D01*
X125124129Y-100927111D01*
X124997466Y-101067785D01*
X124902821Y-101231715D01*
X124902818Y-101231722D01*
X124844327Y-101411740D01*
X124844326Y-101411744D01*
X124824540Y-101600000D01*
X124844326Y-101788256D01*
X124844327Y-101788259D01*
X124902818Y-101968277D01*
X124902821Y-101968284D01*
X124997467Y-102132216D01*
X125032670Y-102171312D01*
X125072650Y-102215715D01*
X125102880Y-102278706D01*
X125104500Y-102298687D01*
X125104500Y-107304773D01*
X125084815Y-107371812D01*
X125051623Y-107406348D01*
X124858597Y-107541505D01*
X124691505Y-107708597D01*
X124561575Y-107894158D01*
X124506998Y-107937783D01*
X124437500Y-107944977D01*
X124375145Y-107913454D01*
X124358425Y-107894158D01*
X124228494Y-107708597D01*
X124061402Y-107541506D01*
X124061401Y-107541505D01*
X123868376Y-107406347D01*
X123824751Y-107351770D01*
X123815500Y-107304772D01*
X123815500Y-103522891D01*
X123835185Y-103455852D01*
X123847352Y-103439917D01*
X123847533Y-103439716D01*
X123942179Y-103275784D01*
X124000674Y-103095756D01*
X124020460Y-102907500D01*
X124000674Y-102719244D01*
X123942179Y-102539216D01*
X123847533Y-102375284D01*
X123720871Y-102234612D01*
X123720870Y-102234611D01*
X123567734Y-102123351D01*
X123567729Y-102123348D01*
X123394807Y-102046357D01*
X123394802Y-102046355D01*
X123249001Y-102015365D01*
X123209646Y-102007000D01*
X123020354Y-102007000D01*
X122987897Y-102013898D01*
X122835197Y-102046355D01*
X122835192Y-102046357D01*
X122662270Y-102123348D01*
X122662265Y-102123351D01*
X122509129Y-102234611D01*
X122382466Y-102375285D01*
X122287821Y-102539215D01*
X122287818Y-102539222D01*
X122229327Y-102719240D01*
X122229326Y-102719244D01*
X122209540Y-102907500D01*
X122229326Y-103095756D01*
X122229327Y-103095759D01*
X122287818Y-103275777D01*
X122287821Y-103275784D01*
X122382467Y-103439716D01*
X122458613Y-103524284D01*
X122509129Y-103580388D01*
X122513381Y-103583477D01*
X122556049Y-103638805D01*
X122564500Y-103683798D01*
X122564500Y-107304773D01*
X122544815Y-107371812D01*
X122511623Y-107406348D01*
X122318597Y-107541505D01*
X122151505Y-107708597D01*
X122021575Y-107894158D01*
X121966998Y-107937783D01*
X121897500Y-107944977D01*
X121835145Y-107913454D01*
X121818425Y-107894158D01*
X121688494Y-107708597D01*
X121521402Y-107541506D01*
X121521401Y-107541505D01*
X121328376Y-107406347D01*
X121284751Y-107351770D01*
X121275500Y-107304772D01*
X121275500Y-104838687D01*
X121295185Y-104771648D01*
X121307350Y-104755715D01*
X121347330Y-104711312D01*
X121382533Y-104672216D01*
X121477179Y-104508284D01*
X121535674Y-104328256D01*
X121555460Y-104140000D01*
X121535674Y-103951744D01*
X121477179Y-103771716D01*
X121382533Y-103607784D01*
X121255871Y-103467112D01*
X121255870Y-103467111D01*
X121102734Y-103355851D01*
X121102729Y-103355848D01*
X120929807Y-103278857D01*
X120929802Y-103278855D01*
X120784001Y-103247865D01*
X120744646Y-103239500D01*
X120555354Y-103239500D01*
X120522897Y-103246398D01*
X120370197Y-103278855D01*
X120370192Y-103278857D01*
X120197270Y-103355848D01*
X120197265Y-103355851D01*
X120044129Y-103467111D01*
X119917466Y-103607785D01*
X119822821Y-103771715D01*
X119822818Y-103771722D01*
X119764327Y-103951740D01*
X119764326Y-103951744D01*
X119744540Y-104140000D01*
X119764326Y-104328256D01*
X119764327Y-104328259D01*
X119822818Y-104508277D01*
X119822821Y-104508284D01*
X119917467Y-104672216D01*
X119952670Y-104711312D01*
X119992650Y-104755715D01*
X120022880Y-104818706D01*
X120024500Y-104838687D01*
X120024500Y-107304773D01*
X120004815Y-107371812D01*
X119971623Y-107406348D01*
X119778597Y-107541505D01*
X119611505Y-107708597D01*
X119481575Y-107894158D01*
X119426998Y-107937783D01*
X119357500Y-107944977D01*
X119295145Y-107913454D01*
X119278425Y-107894158D01*
X119148494Y-107708597D01*
X118981402Y-107541506D01*
X118981401Y-107541505D01*
X118788376Y-107406347D01*
X118744751Y-107351770D01*
X118735500Y-107304772D01*
X118735500Y-106108687D01*
X118755185Y-106041648D01*
X118767350Y-106025715D01*
X118785891Y-106005122D01*
X118842533Y-105942216D01*
X118937179Y-105778284D01*
X118995674Y-105598256D01*
X119015460Y-105410000D01*
X118995674Y-105221744D01*
X118937179Y-105041716D01*
X118842533Y-104877784D01*
X118715871Y-104737112D01*
X118715870Y-104737111D01*
X118562734Y-104625851D01*
X118562729Y-104625848D01*
X118389807Y-104548857D01*
X118389802Y-104548855D01*
X118244001Y-104517865D01*
X118204646Y-104509500D01*
X118015354Y-104509500D01*
X117982897Y-104516398D01*
X117830197Y-104548855D01*
X117830192Y-104548857D01*
X117657270Y-104625848D01*
X117657265Y-104625851D01*
X117504129Y-104737111D01*
X117377466Y-104877785D01*
X117282821Y-105041715D01*
X117282818Y-105041722D01*
X117224327Y-105221740D01*
X117224326Y-105221744D01*
X117204540Y-105410000D01*
X117224326Y-105598256D01*
X117224327Y-105598259D01*
X117282818Y-105778277D01*
X117282821Y-105778284D01*
X117377467Y-105942216D01*
X117420772Y-105990310D01*
X117452650Y-106025715D01*
X117482880Y-106088706D01*
X117484500Y-106108687D01*
X117484500Y-107304773D01*
X117464815Y-107371812D01*
X117431623Y-107406348D01*
X117238597Y-107541505D01*
X117071505Y-107708597D01*
X116935965Y-107902169D01*
X116935964Y-107902171D01*
X116836098Y-108116335D01*
X116836094Y-108116344D01*
X116774938Y-108344586D01*
X116774936Y-108344596D01*
X116754341Y-108579999D01*
X107647250Y-108579999D01*
X107708345Y-108542315D01*
X107832315Y-108418345D01*
X107924356Y-108269124D01*
X107924358Y-108269119D01*
X107979505Y-108102697D01*
X107979506Y-108102690D01*
X107989999Y-107999986D01*
X107990000Y-107999973D01*
X107990000Y-107750000D01*
X107227500Y-107750000D01*
X107227500Y-108699999D01*
X106665019Y-108699999D01*
X106727499Y-108699998D01*
X106727500Y-108699998D01*
X106727500Y-107250000D01*
X107227500Y-107250000D01*
X107989999Y-107250000D01*
X107989999Y-107000028D01*
X107989998Y-107000013D01*
X107979505Y-106897302D01*
X107924358Y-106730880D01*
X107924356Y-106730875D01*
X107832315Y-106581654D01*
X107708345Y-106457684D01*
X107559124Y-106365643D01*
X107559119Y-106365641D01*
X107392697Y-106310494D01*
X107392690Y-106310493D01*
X107289986Y-106300000D01*
X107227500Y-106300000D01*
X107227500Y-107250000D01*
X106727500Y-107250000D01*
X106727500Y-106300000D01*
X106727499Y-106299999D01*
X106665028Y-106300000D01*
X106665011Y-106300001D01*
X106562302Y-106310494D01*
X106395880Y-106365641D01*
X106395875Y-106365643D01*
X106246657Y-106457682D01*
X106153034Y-106551305D01*
X106091710Y-106584789D01*
X106022019Y-106579805D01*
X105977672Y-106551304D01*
X105883657Y-106457289D01*
X105883656Y-106457288D01*
X105734334Y-106365186D01*
X105567797Y-106310001D01*
X105567795Y-106310000D01*
X105465010Y-106299500D01*
X104839998Y-106299500D01*
X104839980Y-106299501D01*
X104737203Y-106310000D01*
X104737200Y-106310001D01*
X104570668Y-106365185D01*
X104570663Y-106365187D01*
X104421342Y-106457289D01*
X104297289Y-106581342D01*
X104205187Y-106730663D01*
X104205182Y-106730674D01*
X104182323Y-106799658D01*
X104142550Y-106857103D01*
X104078034Y-106883925D01*
X104009258Y-106871609D01*
X103958059Y-106824066D01*
X103946913Y-106799658D01*
X103922862Y-106727075D01*
X103922858Y-106727069D01*
X103922857Y-106727066D01*
X103831528Y-106579000D01*
X103831525Y-106578996D01*
X103708503Y-106455974D01*
X103708499Y-106455971D01*
X103560433Y-106364642D01*
X103560427Y-106364639D01*
X103560425Y-106364638D01*
X103560422Y-106364637D01*
X103395276Y-106309913D01*
X103293355Y-106299500D01*
X103293348Y-106299500D01*
X102706652Y-106299500D01*
X102706644Y-106299500D01*
X102604723Y-106309913D01*
X102439577Y-106364637D01*
X102439566Y-106364642D01*
X102291500Y-106455971D01*
X102291496Y-106455974D01*
X102168474Y-106578996D01*
X102168471Y-106579000D01*
X102168038Y-106579703D01*
X102167614Y-106580083D01*
X102163993Y-106584664D01*
X102163210Y-106584045D01*
X102116090Y-106626428D01*
X102047128Y-106637649D01*
X101983046Y-106609806D01*
X101961157Y-106584544D01*
X101961007Y-106584664D01*
X101958359Y-106581315D01*
X101956962Y-106579703D01*
X101956528Y-106579000D01*
X101956525Y-106578996D01*
X101833503Y-106455974D01*
X101833499Y-106455971D01*
X101685433Y-106364642D01*
X101685427Y-106364639D01*
X101685425Y-106364638D01*
X101685422Y-106364637D01*
X101520276Y-106309913D01*
X101418355Y-106299500D01*
X101418348Y-106299500D01*
X100831652Y-106299500D01*
X100831644Y-106299500D01*
X100729723Y-106309913D01*
X100564577Y-106364637D01*
X100564566Y-106364642D01*
X100416500Y-106455971D01*
X100300711Y-106571759D01*
X100239387Y-106605243D01*
X100187253Y-106605367D01*
X100159646Y-106599500D01*
X99970354Y-106599500D01*
X99943335Y-106605243D01*
X99785197Y-106638855D01*
X99785192Y-106638857D01*
X99612270Y-106715848D01*
X99612265Y-106715851D01*
X99459129Y-106827111D01*
X99332466Y-106967785D01*
X99237821Y-107131715D01*
X99237818Y-107131722D01*
X99181591Y-107304772D01*
X99179326Y-107311744D01*
X99159540Y-107500000D01*
X92710000Y-107500000D01*
X92710000Y-98256211D01*
X98399500Y-98256211D01*
X98399500Y-98498788D01*
X98431161Y-98739285D01*
X98493947Y-98973604D01*
X98529734Y-99060000D01*
X98586776Y-99197712D01*
X98708064Y-99407789D01*
X98708066Y-99407792D01*
X98708067Y-99407793D01*
X98855733Y-99600236D01*
X98855739Y-99600243D01*
X99027256Y-99771760D01*
X99027263Y-99771766D01*
X99061172Y-99797785D01*
X99219711Y-99919436D01*
X99429788Y-100040724D01*
X99653900Y-100133554D01*
X99888211Y-100196338D01*
X100068586Y-100220084D01*
X100128711Y-100228000D01*
X100128712Y-100228000D01*
X100371289Y-100228000D01*
X100419388Y-100221667D01*
X100611789Y-100196338D01*
X100846100Y-100133554D01*
X101070212Y-100040724D01*
X101280289Y-99919436D01*
X101472738Y-99771765D01*
X101644265Y-99600238D01*
X101791936Y-99407789D01*
X101913224Y-99197712D01*
X102006054Y-98973600D01*
X102068838Y-98739289D01*
X102100500Y-98498788D01*
X102100500Y-98256212D01*
X102096089Y-98222710D01*
X102079716Y-98098342D01*
X102068838Y-98015711D01*
X102006054Y-97781400D01*
X101913224Y-97557288D01*
X101791936Y-97347211D01*
X101644265Y-97154762D01*
X101644260Y-97154756D01*
X101472743Y-96983239D01*
X101472736Y-96983233D01*
X101280293Y-96835567D01*
X101280292Y-96835566D01*
X101280289Y-96835564D01*
X101070212Y-96714276D01*
X101070205Y-96714273D01*
X100846104Y-96621447D01*
X100611785Y-96558661D01*
X100371289Y-96527000D01*
X100371288Y-96527000D01*
X100128712Y-96527000D01*
X100128711Y-96527000D01*
X99888214Y-96558661D01*
X99653895Y-96621447D01*
X99429794Y-96714273D01*
X99429785Y-96714277D01*
X99219706Y-96835567D01*
X99027263Y-96983233D01*
X99027256Y-96983239D01*
X98855739Y-97154756D01*
X98855733Y-97154763D01*
X98708067Y-97347206D01*
X98586777Y-97557285D01*
X98586773Y-97557294D01*
X98493947Y-97781395D01*
X98431161Y-98015714D01*
X98399500Y-98256211D01*
X92710000Y-98256211D01*
X92710000Y-86826211D01*
X98399500Y-86826211D01*
X98399500Y-87068788D01*
X98431161Y-87309285D01*
X98493947Y-87543604D01*
X98560877Y-87705186D01*
X98586776Y-87767712D01*
X98708064Y-87977789D01*
X98708066Y-87977792D01*
X98708067Y-87977793D01*
X98855733Y-88170236D01*
X98855739Y-88170243D01*
X99027256Y-88341760D01*
X99027262Y-88341765D01*
X99219711Y-88489436D01*
X99429788Y-88610724D01*
X99653900Y-88703554D01*
X99888211Y-88766338D01*
X100068586Y-88790084D01*
X100128711Y-88798000D01*
X100128712Y-88798000D01*
X100371289Y-88798000D01*
X100419388Y-88791667D01*
X100611789Y-88766338D01*
X100846100Y-88703554D01*
X101070212Y-88610724D01*
X101280289Y-88489436D01*
X101472738Y-88341765D01*
X101644265Y-88170238D01*
X101791936Y-87977789D01*
X101913224Y-87767712D01*
X102006054Y-87543600D01*
X102068838Y-87309289D01*
X102100500Y-87068788D01*
X102100500Y-86826212D01*
X102068838Y-86585711D01*
X102006054Y-86351400D01*
X101913224Y-86127288D01*
X101791936Y-85917211D01*
X101685703Y-85778765D01*
X101644266Y-85724763D01*
X101644260Y-85724756D01*
X101472743Y-85553239D01*
X101472736Y-85553233D01*
X101280293Y-85405567D01*
X101280292Y-85405566D01*
X101280289Y-85405564D01*
X101070212Y-85284276D01*
X101007387Y-85258253D01*
X100846104Y-85191447D01*
X100611785Y-85128661D01*
X100371289Y-85097000D01*
X100371288Y-85097000D01*
X100128712Y-85097000D01*
X100128711Y-85097000D01*
X99888214Y-85128661D01*
X99653895Y-85191447D01*
X99429794Y-85284273D01*
X99429785Y-85284277D01*
X99219706Y-85405567D01*
X99027263Y-85553233D01*
X99027256Y-85553239D01*
X98855739Y-85724756D01*
X98855733Y-85724763D01*
X98708067Y-85917206D01*
X98586777Y-86127285D01*
X98586773Y-86127294D01*
X98493947Y-86351395D01*
X98431161Y-86585714D01*
X98399500Y-86826211D01*
X92710000Y-86826211D01*
X92710000Y-82756211D01*
X98399500Y-82756211D01*
X98399500Y-82998788D01*
X98431161Y-83239285D01*
X98493947Y-83473604D01*
X98584441Y-83692076D01*
X98586776Y-83697712D01*
X98708064Y-83907789D01*
X98708066Y-83907792D01*
X98708067Y-83907793D01*
X98855733Y-84100236D01*
X98855739Y-84100243D01*
X99027256Y-84271760D01*
X99027262Y-84271765D01*
X99219711Y-84419436D01*
X99429788Y-84540724D01*
X99653900Y-84633554D01*
X99888211Y-84696338D01*
X100068586Y-84720084D01*
X100128711Y-84728000D01*
X100128712Y-84728000D01*
X100371289Y-84728000D01*
X100419388Y-84721667D01*
X100611789Y-84696338D01*
X100846100Y-84633554D01*
X101070212Y-84540724D01*
X101280289Y-84419436D01*
X101472738Y-84271765D01*
X101644265Y-84100238D01*
X101791936Y-83907789D01*
X101913224Y-83697712D01*
X102006054Y-83473600D01*
X102068838Y-83239289D01*
X102100500Y-82998788D01*
X102100500Y-82756212D01*
X102068838Y-82515711D01*
X102006054Y-82281400D01*
X101913224Y-82057288D01*
X101791936Y-81847211D01*
X101644265Y-81654762D01*
X101644260Y-81654756D01*
X101472743Y-81483239D01*
X101472736Y-81483233D01*
X101280293Y-81335567D01*
X101280292Y-81335566D01*
X101280289Y-81335564D01*
X101108345Y-81236292D01*
X101070214Y-81214277D01*
X101070205Y-81214273D01*
X100846104Y-81121447D01*
X100611785Y-81058661D01*
X100371289Y-81027000D01*
X100371288Y-81027000D01*
X100128712Y-81027000D01*
X100128711Y-81027000D01*
X99888214Y-81058661D01*
X99653895Y-81121447D01*
X99429794Y-81214273D01*
X99429785Y-81214277D01*
X99219706Y-81335567D01*
X99027263Y-81483233D01*
X99027256Y-81483239D01*
X98855739Y-81654756D01*
X98855733Y-81654763D01*
X98708067Y-81847206D01*
X98586777Y-82057285D01*
X98586773Y-82057294D01*
X98493947Y-82281395D01*
X98431161Y-82515714D01*
X98399500Y-82756211D01*
X92710000Y-82756211D01*
X92710000Y-75257500D01*
X105344723Y-75257500D01*
X105359233Y-75423360D01*
X105363793Y-75475475D01*
X105363793Y-75475479D01*
X105420422Y-75686822D01*
X105420424Y-75686826D01*
X105420425Y-75686830D01*
X105432356Y-75712416D01*
X105512897Y-75885138D01*
X105512898Y-75885139D01*
X105638402Y-76064377D01*
X105793123Y-76219098D01*
X105922265Y-76309524D01*
X105972361Y-76344602D01*
X106124175Y-76415394D01*
X106176614Y-76461566D01*
X106195766Y-76528760D01*
X106175550Y-76595641D01*
X106124175Y-76640158D01*
X105972613Y-76710833D01*
X105910428Y-76754374D01*
X106573554Y-77417500D01*
X106549972Y-77417500D01*
X106453325Y-77443396D01*
X106366675Y-77493424D01*
X106295924Y-77564175D01*
X106245896Y-77650825D01*
X106220000Y-77747472D01*
X106220000Y-77771054D01*
X105556874Y-77107928D01*
X105513333Y-77170113D01*
X105420898Y-77368340D01*
X105420894Y-77368349D01*
X105364289Y-77579605D01*
X105364287Y-77579615D01*
X105345225Y-77797499D01*
X105345225Y-77797500D01*
X105364287Y-78015384D01*
X105364289Y-78015394D01*
X105420894Y-78226650D01*
X105420898Y-78226659D01*
X105513333Y-78424887D01*
X105556874Y-78487071D01*
X106220000Y-77823945D01*
X106220000Y-77847528D01*
X106245896Y-77944175D01*
X106295924Y-78030825D01*
X106366675Y-78101576D01*
X106453325Y-78151604D01*
X106549972Y-78177500D01*
X106573553Y-78177500D01*
X105910427Y-78840624D01*
X105972612Y-78884167D01*
X106124767Y-78955118D01*
X106177206Y-79001290D01*
X106196358Y-79068484D01*
X106176142Y-79135365D01*
X106124767Y-79179882D01*
X105972613Y-79250833D01*
X105910428Y-79294374D01*
X106573554Y-79957500D01*
X106549972Y-79957500D01*
X106453325Y-79983396D01*
X106366675Y-80033424D01*
X106295924Y-80104175D01*
X106245896Y-80190825D01*
X106220000Y-80287472D01*
X106220000Y-80311054D01*
X105556874Y-79647928D01*
X105513333Y-79710113D01*
X105420898Y-79908340D01*
X105420894Y-79908349D01*
X105364289Y-80119605D01*
X105364287Y-80119615D01*
X105345225Y-80337499D01*
X105345225Y-80337500D01*
X105364287Y-80555384D01*
X105364289Y-80555394D01*
X105420894Y-80766650D01*
X105420898Y-80766659D01*
X105513333Y-80964887D01*
X105556874Y-81027071D01*
X106220000Y-80363945D01*
X106220000Y-80387528D01*
X106245896Y-80484175D01*
X106295924Y-80570825D01*
X106366675Y-80641576D01*
X106453325Y-80691604D01*
X106549972Y-80717500D01*
X106573553Y-80717500D01*
X105910427Y-81380624D01*
X105972612Y-81424166D01*
X106170840Y-81516601D01*
X106170849Y-81516605D01*
X106382105Y-81573210D01*
X106382115Y-81573212D01*
X106599999Y-81592275D01*
X106600001Y-81592275D01*
X106817884Y-81573212D01*
X106817894Y-81573210D01*
X107029150Y-81516605D01*
X107029164Y-81516600D01*
X107227383Y-81424169D01*
X107227385Y-81424168D01*
X107289571Y-81380624D01*
X106626448Y-80717500D01*
X106650028Y-80717500D01*
X106746675Y-80691604D01*
X106833325Y-80641576D01*
X106904076Y-80570825D01*
X106954104Y-80484175D01*
X106980000Y-80387528D01*
X106980000Y-80363946D01*
X107643124Y-81027070D01*
X107686668Y-80964885D01*
X107686669Y-80964883D01*
X107779100Y-80766664D01*
X107779105Y-80766650D01*
X107835710Y-80555394D01*
X107835712Y-80555384D01*
X107854775Y-80337500D01*
X107854775Y-80337499D01*
X107835712Y-80119615D01*
X107835710Y-80119605D01*
X107779105Y-79908349D01*
X107779101Y-79908340D01*
X107686667Y-79710114D01*
X107686666Y-79710112D01*
X107643124Y-79647928D01*
X107643124Y-79647927D01*
X106980000Y-80311051D01*
X106980000Y-80287472D01*
X106954104Y-80190825D01*
X106904076Y-80104175D01*
X106833325Y-80033424D01*
X106746675Y-79983396D01*
X106650028Y-79957500D01*
X106626447Y-79957500D01*
X107289571Y-79294374D01*
X107227387Y-79250833D01*
X107075232Y-79179882D01*
X107022793Y-79133710D01*
X107003641Y-79066516D01*
X107023857Y-78999635D01*
X107075233Y-78955118D01*
X107227383Y-78884169D01*
X107227385Y-78884168D01*
X107289571Y-78840624D01*
X106626448Y-78177500D01*
X106650028Y-78177500D01*
X106746675Y-78151604D01*
X106833325Y-78101576D01*
X106904076Y-78030825D01*
X106954104Y-77944175D01*
X106980000Y-77847528D01*
X106980000Y-77823946D01*
X107643124Y-78487070D01*
X107686668Y-78424885D01*
X107686669Y-78424883D01*
X107779100Y-78226664D01*
X107779105Y-78226650D01*
X107835710Y-78015394D01*
X107835712Y-78015384D01*
X107854775Y-77797500D01*
X107854775Y-77797499D01*
X107835712Y-77579615D01*
X107835710Y-77579605D01*
X107779105Y-77368349D01*
X107779101Y-77368340D01*
X107686667Y-77170114D01*
X107686666Y-77170112D01*
X107643124Y-77107928D01*
X107643124Y-77107927D01*
X106980000Y-77771051D01*
X106980000Y-77747472D01*
X106954104Y-77650825D01*
X106904076Y-77564175D01*
X106833325Y-77493424D01*
X106746675Y-77443396D01*
X106650028Y-77417500D01*
X106626447Y-77417500D01*
X107289571Y-76754374D01*
X107227387Y-76710833D01*
X107075824Y-76640158D01*
X107023385Y-76593986D01*
X107004233Y-76526792D01*
X107024449Y-76459911D01*
X107075822Y-76415395D01*
X107227639Y-76344602D01*
X107406877Y-76219098D01*
X107561598Y-76064377D01*
X107669081Y-75910874D01*
X107723657Y-75867251D01*
X107770655Y-75858000D01*
X107877777Y-75858000D01*
X107944816Y-75877685D01*
X107990571Y-75930489D01*
X108000515Y-75999647D01*
X107990159Y-76034404D01*
X107960427Y-76098163D01*
X107960422Y-76098177D01*
X107903793Y-76309520D01*
X107903793Y-76309524D01*
X107884723Y-76527497D01*
X107884723Y-76527502D01*
X107903793Y-76745475D01*
X107903793Y-76745479D01*
X107960422Y-76956822D01*
X107960424Y-76956826D01*
X107960425Y-76956830D01*
X108006661Y-77055984D01*
X108052897Y-77155138D01*
X108069622Y-77179023D01*
X108178402Y-77334377D01*
X108333123Y-77489098D01*
X108512360Y-77614601D01*
X108512361Y-77614602D01*
X108663583Y-77685118D01*
X108716022Y-77731290D01*
X108735174Y-77798484D01*
X108714958Y-77865365D01*
X108663583Y-77909882D01*
X108512361Y-77980398D01*
X108512357Y-77980400D01*
X108333121Y-78105902D01*
X108178402Y-78260621D01*
X108052900Y-78439857D01*
X108052898Y-78439861D01*
X107960426Y-78638168D01*
X107960422Y-78638177D01*
X107903793Y-78849520D01*
X107903793Y-78849524D01*
X107884723Y-79067497D01*
X107884723Y-79067502D01*
X107903793Y-79285475D01*
X107903793Y-79285479D01*
X107960422Y-79496822D01*
X107960424Y-79496826D01*
X107960425Y-79496830D01*
X108006661Y-79595984D01*
X108052897Y-79695138D01*
X108077998Y-79730986D01*
X108178402Y-79874377D01*
X108333123Y-80029098D01*
X108512360Y-80154601D01*
X108512361Y-80154602D01*
X108663583Y-80225118D01*
X108716022Y-80271290D01*
X108735174Y-80338484D01*
X108714958Y-80405365D01*
X108663583Y-80449882D01*
X108512361Y-80520398D01*
X108512357Y-80520400D01*
X108333121Y-80645902D01*
X108178402Y-80800621D01*
X108052900Y-80979857D01*
X108052898Y-80979861D01*
X107960426Y-81178168D01*
X107960422Y-81178177D01*
X107903793Y-81389520D01*
X107903793Y-81389524D01*
X107884723Y-81607497D01*
X107884723Y-81607502D01*
X107903793Y-81825475D01*
X107903793Y-81825479D01*
X107960422Y-82036822D01*
X107960424Y-82036826D01*
X107960425Y-82036830D01*
X108000571Y-82122923D01*
X108052897Y-82235138D01*
X108052898Y-82235139D01*
X108178402Y-82414377D01*
X108333123Y-82569098D01*
X108512361Y-82694602D01*
X108710670Y-82787075D01*
X108922023Y-82843707D01*
X109104926Y-82859708D01*
X109139998Y-82862777D01*
X109140000Y-82862777D01*
X109140002Y-82862777D01*
X109168254Y-82860305D01*
X109357977Y-82843707D01*
X109569330Y-82787075D01*
X109767639Y-82694602D01*
X109946877Y-82569098D01*
X110101598Y-82414377D01*
X110227102Y-82235139D01*
X110319575Y-82036830D01*
X110376207Y-81825477D01*
X110395277Y-81607500D01*
X110376207Y-81389523D01*
X110319575Y-81178170D01*
X110227102Y-80979862D01*
X110227100Y-80979859D01*
X110227099Y-80979857D01*
X110101599Y-80800624D01*
X110067625Y-80766650D01*
X109946877Y-80645902D01*
X109767639Y-80520398D01*
X109616414Y-80449881D01*
X109563977Y-80403710D01*
X109544825Y-80336516D01*
X109565041Y-80269635D01*
X109616414Y-80225118D01*
X109767639Y-80154602D01*
X109946877Y-80029098D01*
X110101598Y-79874377D01*
X110227102Y-79695139D01*
X110319575Y-79496830D01*
X110376207Y-79285477D01*
X110395277Y-79067500D01*
X110376207Y-78849523D01*
X110319575Y-78638170D01*
X110227102Y-78439862D01*
X110227100Y-78439859D01*
X110227099Y-78439857D01*
X110101599Y-78260624D01*
X110067625Y-78226650D01*
X109946877Y-78105902D01*
X109767639Y-77980398D01*
X109616414Y-77909881D01*
X109563977Y-77863710D01*
X109544825Y-77796516D01*
X109565041Y-77729635D01*
X109616414Y-77685118D01*
X109767639Y-77614602D01*
X109946877Y-77489098D01*
X110101598Y-77334377D01*
X110174795Y-77229839D01*
X110229370Y-77186217D01*
X110298868Y-77179023D01*
X110361223Y-77210546D01*
X110364049Y-77213284D01*
X110863181Y-77712416D01*
X110896666Y-77773739D01*
X110899500Y-77800097D01*
X110899500Y-86106515D01*
X110899499Y-86106533D01*
X110899499Y-86272239D01*
X110899498Y-86272239D01*
X110940423Y-86424971D01*
X110940424Y-86424972D01*
X110967892Y-86472548D01*
X111019480Y-86561901D01*
X111019482Y-86561903D01*
X111138349Y-86680770D01*
X111138355Y-86680775D01*
X112399454Y-87941874D01*
X112399464Y-87941885D01*
X112403794Y-87946215D01*
X112403795Y-87946216D01*
X112515599Y-88058020D01*
X112601217Y-88107451D01*
X112652530Y-88137077D01*
X112805258Y-88178001D01*
X112805261Y-88178001D01*
X112970968Y-88178001D01*
X112970984Y-88178000D01*
X114880500Y-88178000D01*
X114947539Y-88197685D01*
X114993294Y-88250489D01*
X115004500Y-88302000D01*
X115004500Y-88577500D01*
X115004502Y-88577524D01*
X115005562Y-88587901D01*
X114992791Y-88656593D01*
X114944910Y-88707477D01*
X114882204Y-88724500D01*
X110196237Y-88724500D01*
X110129198Y-88704815D01*
X110105726Y-88684150D01*
X110105426Y-88684451D01*
X109946881Y-88525906D01*
X109946877Y-88525902D01*
X109767639Y-88400398D01*
X109767640Y-88400398D01*
X109767638Y-88400397D01*
X109641889Y-88341760D01*
X109569330Y-88307925D01*
X109569326Y-88307924D01*
X109569322Y-88307922D01*
X109357977Y-88251293D01*
X109140002Y-88232223D01*
X109139998Y-88232223D01*
X108994682Y-88244936D01*
X108922023Y-88251293D01*
X108922020Y-88251293D01*
X108710677Y-88307922D01*
X108710668Y-88307926D01*
X108512361Y-88400398D01*
X108512357Y-88400400D01*
X108333121Y-88525902D01*
X108178405Y-88680618D01*
X108076074Y-88826762D01*
X108021497Y-88870387D01*
X107951998Y-88877579D01*
X107889644Y-88846057D01*
X107854230Y-88785827D01*
X107850499Y-88755644D01*
X107850499Y-87419628D01*
X107844091Y-87360017D01*
X107829256Y-87320243D01*
X107793797Y-87225171D01*
X107793793Y-87225164D01*
X107707547Y-87109955D01*
X107707544Y-87109952D01*
X107592335Y-87023706D01*
X107592328Y-87023702D01*
X107457482Y-86973408D01*
X107457483Y-86973408D01*
X107397883Y-86967001D01*
X107397881Y-86967000D01*
X107397873Y-86967000D01*
X107397864Y-86967000D01*
X105802129Y-86967000D01*
X105802123Y-86967001D01*
X105742516Y-86973408D01*
X105607671Y-87023702D01*
X105607664Y-87023706D01*
X105492455Y-87109952D01*
X105492452Y-87109955D01*
X105406206Y-87225164D01*
X105406202Y-87225171D01*
X105355908Y-87360017D01*
X105349501Y-87419616D01*
X105349501Y-87419623D01*
X105349500Y-87419635D01*
X105349500Y-89015370D01*
X105349501Y-89015376D01*
X105355908Y-89074983D01*
X105406202Y-89209828D01*
X105406206Y-89209835D01*
X105492452Y-89325044D01*
X105492455Y-89325047D01*
X105607664Y-89411293D01*
X105607671Y-89411297D01*
X105649967Y-89427072D01*
X105742517Y-89461591D01*
X105802127Y-89468000D01*
X105868138Y-89467999D01*
X105935176Y-89487683D01*
X105980932Y-89540486D01*
X105990876Y-89609644D01*
X105961852Y-89673200D01*
X105939262Y-89693574D01*
X105793118Y-89795905D01*
X105638402Y-89950621D01*
X105512900Y-90129857D01*
X105512898Y-90129861D01*
X105420426Y-90328168D01*
X105420422Y-90328177D01*
X105363793Y-90539520D01*
X105363793Y-90539524D01*
X105344723Y-90757497D01*
X105344723Y-90757502D01*
X105352123Y-90842086D01*
X105363601Y-90973288D01*
X105363793Y-90975475D01*
X105363793Y-90975479D01*
X105420422Y-91186822D01*
X105420424Y-91186826D01*
X105420425Y-91186830D01*
X105457956Y-91267315D01*
X105512897Y-91385138D01*
X105512898Y-91385139D01*
X105638402Y-91564377D01*
X105793123Y-91719098D01*
X105972361Y-91844602D01*
X106085346Y-91897288D01*
X106124175Y-91915394D01*
X106176614Y-91961566D01*
X106195766Y-92028760D01*
X106175550Y-92095641D01*
X106124175Y-92140158D01*
X105972613Y-92210833D01*
X105910428Y-92254374D01*
X106573554Y-92917500D01*
X106549972Y-92917500D01*
X106453325Y-92943396D01*
X106366675Y-92993424D01*
X106295924Y-93064175D01*
X106245896Y-93150825D01*
X106220000Y-93247472D01*
X106220000Y-93271054D01*
X105556874Y-92607928D01*
X105513333Y-92670113D01*
X105420898Y-92868340D01*
X105420894Y-92868349D01*
X105364289Y-93079605D01*
X105364287Y-93079615D01*
X105345225Y-93297499D01*
X105345225Y-93297500D01*
X105364287Y-93515384D01*
X105364289Y-93515394D01*
X105420894Y-93726650D01*
X105420898Y-93726659D01*
X105513333Y-93924887D01*
X105556874Y-93987071D01*
X106220000Y-93323945D01*
X106220000Y-93347528D01*
X106245896Y-93444175D01*
X106295924Y-93530825D01*
X106366675Y-93601576D01*
X106453325Y-93651604D01*
X106549972Y-93677500D01*
X106573553Y-93677500D01*
X105910427Y-94340624D01*
X105972612Y-94384167D01*
X106124767Y-94455118D01*
X106177206Y-94501290D01*
X106196358Y-94568484D01*
X106176142Y-94635365D01*
X106124767Y-94679882D01*
X105972613Y-94750833D01*
X105910428Y-94794374D01*
X106573554Y-95457500D01*
X106549972Y-95457500D01*
X106453325Y-95483396D01*
X106366675Y-95533424D01*
X106295924Y-95604175D01*
X106245896Y-95690825D01*
X106220000Y-95787472D01*
X106220000Y-95811054D01*
X105556874Y-95147928D01*
X105513333Y-95210113D01*
X105420898Y-95408340D01*
X105420894Y-95408349D01*
X105364289Y-95619605D01*
X105364287Y-95619615D01*
X105345225Y-95837499D01*
X105345225Y-95837500D01*
X105364287Y-96055384D01*
X105364289Y-96055394D01*
X105420894Y-96266650D01*
X105420898Y-96266659D01*
X105513333Y-96464887D01*
X105556874Y-96527071D01*
X106220000Y-95863945D01*
X106220000Y-95887528D01*
X106245896Y-95984175D01*
X106295924Y-96070825D01*
X106366675Y-96141576D01*
X106453325Y-96191604D01*
X106549972Y-96217500D01*
X106573553Y-96217500D01*
X105910427Y-96880624D01*
X105972612Y-96924166D01*
X106170840Y-97016601D01*
X106170849Y-97016605D01*
X106382105Y-97073210D01*
X106382115Y-97073212D01*
X106599999Y-97092275D01*
X106600001Y-97092275D01*
X106817884Y-97073212D01*
X106817894Y-97073210D01*
X107029150Y-97016605D01*
X107029164Y-97016600D01*
X107227383Y-96924169D01*
X107227385Y-96924168D01*
X107289571Y-96880624D01*
X106626448Y-96217500D01*
X106650028Y-96217500D01*
X106746675Y-96191604D01*
X106833325Y-96141576D01*
X106904076Y-96070825D01*
X106954104Y-95984175D01*
X106980000Y-95887528D01*
X106980000Y-95863946D01*
X107643124Y-96527070D01*
X107686668Y-96464885D01*
X107686669Y-96464883D01*
X107779100Y-96266664D01*
X107779105Y-96266650D01*
X107835710Y-96055394D01*
X107835712Y-96055384D01*
X107854775Y-95837500D01*
X107854775Y-95837499D01*
X107835712Y-95619615D01*
X107835710Y-95619605D01*
X107779105Y-95408349D01*
X107779101Y-95408340D01*
X107686667Y-95210114D01*
X107686666Y-95210112D01*
X107643124Y-95147928D01*
X107643124Y-95147927D01*
X106980000Y-95811051D01*
X106980000Y-95787472D01*
X106954104Y-95690825D01*
X106904076Y-95604175D01*
X106833325Y-95533424D01*
X106746675Y-95483396D01*
X106650028Y-95457500D01*
X106626447Y-95457500D01*
X107289571Y-94794374D01*
X107227387Y-94750833D01*
X107075232Y-94679882D01*
X107022793Y-94633710D01*
X107003641Y-94566516D01*
X107023857Y-94499635D01*
X107075233Y-94455118D01*
X107227383Y-94384169D01*
X107227385Y-94384168D01*
X107289571Y-94340624D01*
X106626448Y-93677500D01*
X106650028Y-93677500D01*
X106746675Y-93651604D01*
X106833325Y-93601576D01*
X106904076Y-93530825D01*
X106954104Y-93444175D01*
X106980000Y-93347528D01*
X106980000Y-93323946D01*
X107643124Y-93987070D01*
X107686668Y-93924885D01*
X107686669Y-93924883D01*
X107779100Y-93726664D01*
X107779105Y-93726650D01*
X107835710Y-93515394D01*
X107835712Y-93515384D01*
X107854775Y-93297500D01*
X107854775Y-93297499D01*
X107835712Y-93079615D01*
X107835710Y-93079605D01*
X107779105Y-92868349D01*
X107779101Y-92868340D01*
X107686667Y-92670114D01*
X107686666Y-92670112D01*
X107643124Y-92607928D01*
X107643124Y-92607927D01*
X106980000Y-93271051D01*
X106980000Y-93247472D01*
X106954104Y-93150825D01*
X106904076Y-93064175D01*
X106833325Y-92993424D01*
X106746675Y-92943396D01*
X106650028Y-92917500D01*
X106626447Y-92917500D01*
X107289571Y-92254374D01*
X107227387Y-92210833D01*
X107075824Y-92140158D01*
X107023385Y-92093986D01*
X107004233Y-92026792D01*
X107024449Y-91959911D01*
X107075822Y-91915395D01*
X107227639Y-91844602D01*
X107406877Y-91719098D01*
X107511656Y-91614319D01*
X107572979Y-91580834D01*
X107599337Y-91578000D01*
X107804229Y-91578000D01*
X107871268Y-91597685D01*
X107917023Y-91650489D01*
X107926967Y-91719647D01*
X107924004Y-91734093D01*
X107903793Y-91809520D01*
X107903793Y-91809524D01*
X107884723Y-92027497D01*
X107884723Y-92027502D01*
X107889185Y-92078499D01*
X107901926Y-92224142D01*
X107903793Y-92245475D01*
X107903793Y-92245479D01*
X107960422Y-92456822D01*
X107960424Y-92456826D01*
X107960425Y-92456830D01*
X107992406Y-92525413D01*
X108052897Y-92655138D01*
X108077998Y-92690986D01*
X108178402Y-92834377D01*
X108333123Y-92989098D01*
X108489842Y-93098834D01*
X108512361Y-93114602D01*
X108663583Y-93185118D01*
X108716022Y-93231290D01*
X108735174Y-93298484D01*
X108714958Y-93365365D01*
X108663583Y-93409882D01*
X108512361Y-93480398D01*
X108512357Y-93480400D01*
X108333121Y-93605902D01*
X108178402Y-93760621D01*
X108052900Y-93939857D01*
X108052898Y-93939861D01*
X107960426Y-94138168D01*
X107960422Y-94138177D01*
X107903793Y-94349520D01*
X107903793Y-94349523D01*
X107902776Y-94361144D01*
X107884723Y-94567497D01*
X107884723Y-94567502D01*
X107903793Y-94785475D01*
X107903793Y-94785479D01*
X107960422Y-94996822D01*
X107960424Y-94996826D01*
X107960425Y-94996830D01*
X107981859Y-95042795D01*
X108052897Y-95195138D01*
X108066654Y-95214785D01*
X108178402Y-95374377D01*
X108333123Y-95529098D01*
X108510107Y-95653024D01*
X108512361Y-95654602D01*
X108663583Y-95725118D01*
X108716022Y-95771290D01*
X108735174Y-95838484D01*
X108714958Y-95905365D01*
X108663583Y-95949882D01*
X108512361Y-96020398D01*
X108512357Y-96020400D01*
X108333121Y-96145902D01*
X108178402Y-96300621D01*
X108052900Y-96479857D01*
X108052898Y-96479861D01*
X107960426Y-96678168D01*
X107960422Y-96678177D01*
X107903793Y-96889520D01*
X107903793Y-96889523D01*
X107902439Y-96905000D01*
X107884723Y-97107497D01*
X107884723Y-97107502D01*
X107903793Y-97325475D01*
X107903793Y-97325479D01*
X107960422Y-97536822D01*
X107960424Y-97536826D01*
X107960425Y-97536830D01*
X107969965Y-97557288D01*
X108052897Y-97735138D01*
X108052898Y-97735139D01*
X108178402Y-97914377D01*
X108333123Y-98069098D01*
X108512361Y-98194602D01*
X108710670Y-98287075D01*
X108922023Y-98343707D01*
X109102371Y-98359485D01*
X109139998Y-98362777D01*
X109140000Y-98362777D01*
X109140002Y-98362777D01*
X109168254Y-98360305D01*
X109357977Y-98343707D01*
X109569330Y-98287075D01*
X109767639Y-98194602D01*
X109946877Y-98069098D01*
X110101598Y-97914377D01*
X110227102Y-97735139D01*
X110319575Y-97536830D01*
X110376207Y-97325477D01*
X110395277Y-97107500D01*
X110376207Y-96889523D01*
X110352216Y-96799986D01*
X111525001Y-96799986D01*
X111535494Y-96902697D01*
X111590641Y-97069119D01*
X111590643Y-97069124D01*
X111682684Y-97218345D01*
X111806654Y-97342315D01*
X111955875Y-97434356D01*
X111955880Y-97434358D01*
X112122302Y-97489505D01*
X112122309Y-97489506D01*
X112225019Y-97499999D01*
X112499999Y-97499999D01*
X113000000Y-97499999D01*
X113274972Y-97499999D01*
X113274986Y-97499998D01*
X113377697Y-97489505D01*
X113544119Y-97434358D01*
X113544124Y-97434356D01*
X113693345Y-97342315D01*
X113817315Y-97218345D01*
X113909356Y-97069124D01*
X113909358Y-97069119D01*
X113964505Y-96902697D01*
X113964506Y-96902690D01*
X113974999Y-96799986D01*
X113975000Y-96799973D01*
X113975000Y-96750000D01*
X113000000Y-96750000D01*
X113000000Y-97499999D01*
X112499999Y-97499999D01*
X112500000Y-97499998D01*
X112500000Y-96750000D01*
X111525001Y-96750000D01*
X111525001Y-96799986D01*
X110352216Y-96799986D01*
X110319575Y-96678170D01*
X110227102Y-96479862D01*
X110227100Y-96479859D01*
X110227099Y-96479857D01*
X110101599Y-96300624D01*
X110035790Y-96234815D01*
X109946877Y-96145902D01*
X109767639Y-96020398D01*
X109616414Y-95949881D01*
X109563977Y-95903710D01*
X109544825Y-95836516D01*
X109565041Y-95769635D01*
X109616414Y-95725118D01*
X109767639Y-95654602D01*
X109946877Y-95529098D01*
X109964156Y-95511819D01*
X110025479Y-95478334D01*
X110051837Y-95475500D01*
X111689477Y-95475500D01*
X111756516Y-95495185D01*
X111802271Y-95547989D01*
X111812215Y-95617147D01*
X111783190Y-95680703D01*
X111777158Y-95687181D01*
X111682684Y-95781654D01*
X111590643Y-95930875D01*
X111590641Y-95930880D01*
X111535494Y-96097302D01*
X111535493Y-96097309D01*
X111525000Y-96200013D01*
X111525000Y-96250000D01*
X113974999Y-96250000D01*
X113974999Y-96200028D01*
X113974998Y-96200013D01*
X113964505Y-96097302D01*
X113909358Y-95930880D01*
X113909356Y-95930875D01*
X113817315Y-95781654D01*
X113760647Y-95724986D01*
X122200001Y-95724986D01*
X122210494Y-95827697D01*
X122265641Y-95994119D01*
X122265643Y-95994124D01*
X122357684Y-96143345D01*
X122481654Y-96267315D01*
X122630875Y-96359356D01*
X122630880Y-96359358D01*
X122797302Y-96414505D01*
X122797309Y-96414506D01*
X122900019Y-96424999D01*
X122949999Y-96424998D01*
X122950000Y-96424998D01*
X122950000Y-95450000D01*
X122200001Y-95450000D01*
X122200001Y-95724986D01*
X113760647Y-95724986D01*
X113693344Y-95657683D01*
X113693341Y-95657681D01*
X113690339Y-95655829D01*
X113688713Y-95654021D01*
X113687677Y-95653202D01*
X113687817Y-95653024D01*
X113643617Y-95603880D01*
X113632397Y-95534917D01*
X113660243Y-95470836D01*
X113690344Y-95444754D01*
X113693656Y-95442712D01*
X113817712Y-95318656D01*
X113909814Y-95169334D01*
X113964999Y-95002797D01*
X113975500Y-94900009D01*
X113975499Y-94299992D01*
X113974691Y-94292085D01*
X113964999Y-94197203D01*
X113964998Y-94197200D01*
X113956942Y-94172888D01*
X113909814Y-94030666D01*
X113817712Y-93881344D01*
X113693656Y-93757288D01*
X113581615Y-93688181D01*
X113544336Y-93665187D01*
X113544331Y-93665185D01*
X113503346Y-93651604D01*
X113377797Y-93610001D01*
X113377795Y-93610000D01*
X113275010Y-93599500D01*
X112224998Y-93599500D01*
X112224980Y-93599501D01*
X112122203Y-93610000D01*
X112122200Y-93610001D01*
X111955668Y-93665185D01*
X111955659Y-93665189D01*
X111889432Y-93706039D01*
X111824336Y-93724500D01*
X110116837Y-93724500D01*
X110049798Y-93704815D01*
X110029156Y-93688181D01*
X109946881Y-93605906D01*
X109946877Y-93605902D01*
X109831317Y-93524986D01*
X122195001Y-93524986D01*
X122205494Y-93627697D01*
X122260641Y-93794119D01*
X122260643Y-93794124D01*
X122352684Y-93943345D01*
X122424158Y-94014819D01*
X122457643Y-94076142D01*
X122452659Y-94145834D01*
X122424158Y-94190181D01*
X122357684Y-94256654D01*
X122265643Y-94405875D01*
X122265641Y-94405880D01*
X122210494Y-94572302D01*
X122210493Y-94572309D01*
X122200000Y-94675013D01*
X122200000Y-94950000D01*
X122950000Y-94950000D01*
X122950000Y-94241962D01*
X122947834Y-94237996D01*
X122945000Y-94211638D01*
X122945000Y-93250000D01*
X122195001Y-93250000D01*
X122195001Y-93524986D01*
X109831317Y-93524986D01*
X109767639Y-93480398D01*
X109616414Y-93409881D01*
X109563977Y-93363710D01*
X109544825Y-93296516D01*
X109565041Y-93229635D01*
X109616414Y-93185118D01*
X109767639Y-93114602D01*
X109946877Y-92989098D01*
X110101598Y-92834377D01*
X110227102Y-92655139D01*
X110311096Y-92475013D01*
X122195000Y-92475013D01*
X122195000Y-92750000D01*
X122945000Y-92750000D01*
X122945000Y-91775000D01*
X122944999Y-91774999D01*
X122895029Y-91775000D01*
X122895011Y-91775001D01*
X122792302Y-91785494D01*
X122625880Y-91840641D01*
X122625875Y-91840643D01*
X122476654Y-91932684D01*
X122352684Y-92056654D01*
X122260643Y-92205875D01*
X122260641Y-92205880D01*
X122205494Y-92372302D01*
X122205493Y-92372309D01*
X122195000Y-92475013D01*
X110311096Y-92475013D01*
X110319575Y-92456830D01*
X110376207Y-92245477D01*
X110389388Y-92094815D01*
X110389705Y-92091193D01*
X110415157Y-92026124D01*
X110471748Y-91985145D01*
X110513233Y-91978000D01*
X114369581Y-91978000D01*
X114369597Y-91978001D01*
X114377193Y-91978001D01*
X114535304Y-91978001D01*
X114535307Y-91978001D01*
X114688035Y-91937077D01*
X114756951Y-91897288D01*
X114824966Y-91858020D01*
X114936770Y-91746216D01*
X114936770Y-91746215D01*
X114954200Y-91728785D01*
X114954204Y-91728779D01*
X114971169Y-91711815D01*
X115032492Y-91678333D01*
X115058847Y-91675500D01*
X117658915Y-91675500D01*
X117720914Y-91692112D01*
X117794465Y-91734577D01*
X117906268Y-91764534D01*
X117947191Y-91775500D01*
X117947192Y-91775500D01*
X118118743Y-91775500D01*
X118185782Y-91795185D01*
X118191099Y-91798924D01*
X118192157Y-91799534D01*
X118192159Y-91799536D01*
X118192160Y-91799536D01*
X118192163Y-91799538D01*
X118216272Y-91809524D01*
X118338238Y-91860044D01*
X118455639Y-91875500D01*
X119809360Y-91875499D01*
X119809363Y-91875499D01*
X119926753Y-91860046D01*
X119926757Y-91860044D01*
X119926762Y-91860044D01*
X120072841Y-91799536D01*
X120198282Y-91703282D01*
X120294536Y-91577841D01*
X120355044Y-91431762D01*
X120370500Y-91314361D01*
X120370499Y-91035640D01*
X120355044Y-90918238D01*
X120355042Y-90918234D01*
X120346435Y-90897455D01*
X120338965Y-90827986D01*
X120346435Y-90802545D01*
X120355044Y-90781762D01*
X120370500Y-90664361D01*
X120370499Y-90385640D01*
X120355044Y-90268238D01*
X120355042Y-90268234D01*
X120346435Y-90247455D01*
X120338965Y-90177986D01*
X120346435Y-90152545D01*
X120347448Y-90150099D01*
X120355044Y-90131762D01*
X120370500Y-90014361D01*
X120370499Y-89735640D01*
X120355044Y-89618238D01*
X120346434Y-89597454D01*
X120338965Y-89527986D01*
X120346435Y-89502545D01*
X120346630Y-89502075D01*
X120355044Y-89481762D01*
X120370500Y-89364361D01*
X120370499Y-89085640D01*
X120370403Y-89084913D01*
X120361249Y-89015376D01*
X120355044Y-88968238D01*
X120353709Y-88965016D01*
X120346435Y-88947455D01*
X120338965Y-88877986D01*
X120346435Y-88852545D01*
X120355044Y-88831762D01*
X120370500Y-88714361D01*
X120370499Y-88435640D01*
X120355044Y-88318238D01*
X120350772Y-88307926D01*
X120346435Y-88297455D01*
X120338965Y-88227986D01*
X120346435Y-88202545D01*
X120348448Y-88197685D01*
X120355044Y-88181762D01*
X120370500Y-88064361D01*
X120370499Y-87785640D01*
X120362449Y-87724490D01*
X120373215Y-87655457D01*
X120397704Y-87620629D01*
X120881506Y-87136828D01*
X120881511Y-87136824D01*
X120891714Y-87126620D01*
X120891716Y-87126620D01*
X121003520Y-87014816D01*
X121061546Y-86914311D01*
X121082577Y-86877885D01*
X121123501Y-86725157D01*
X121123501Y-86567043D01*
X121123501Y-86559448D01*
X121123500Y-86559430D01*
X121123500Y-84314169D01*
X121123501Y-84314156D01*
X121123501Y-84146053D01*
X121123501Y-84146052D01*
X121082577Y-83993325D01*
X121047338Y-83932288D01*
X121003524Y-83856399D01*
X121003518Y-83856391D01*
X119467981Y-82320855D01*
X119467979Y-82320852D01*
X119349108Y-82201981D01*
X119349107Y-82201980D01*
X119262295Y-82151860D01*
X119262295Y-82151859D01*
X119262291Y-82151858D01*
X119212176Y-82122923D01*
X119059448Y-82081999D01*
X118901334Y-82081999D01*
X118893738Y-82081999D01*
X118893722Y-82082000D01*
X117529500Y-82082000D01*
X117462461Y-82062315D01*
X117416706Y-82009511D01*
X117405500Y-81958000D01*
X117405499Y-81682499D01*
X117405498Y-81682480D01*
X117394999Y-81579703D01*
X117394998Y-81579700D01*
X117374089Y-81516601D01*
X117339814Y-81413166D01*
X117247712Y-81263844D01*
X117123656Y-81139788D01*
X116992129Y-81058662D01*
X116974336Y-81047687D01*
X116974331Y-81047685D01*
X116972862Y-81047198D01*
X116807797Y-80992501D01*
X116807795Y-80992500D01*
X116705010Y-80982000D01*
X115704998Y-80982000D01*
X115704980Y-80982001D01*
X115602203Y-80992500D01*
X115602200Y-80992501D01*
X115435668Y-81047685D01*
X115435663Y-81047687D01*
X115286342Y-81139789D01*
X115162289Y-81263842D01*
X115070187Y-81413163D01*
X115070185Y-81413168D01*
X115046968Y-81483233D01*
X115015001Y-81579703D01*
X115015001Y-81579704D01*
X115015000Y-81579704D01*
X115004500Y-81682483D01*
X115004500Y-81682491D01*
X115004500Y-81847211D01*
X115004501Y-81958000D01*
X114984817Y-82025039D01*
X114932013Y-82070794D01*
X114880501Y-82082000D01*
X113624500Y-82082000D01*
X113557461Y-82062315D01*
X113511706Y-82009511D01*
X113500500Y-81958000D01*
X113500500Y-78105000D01*
X117204540Y-78105000D01*
X117224326Y-78293256D01*
X117224327Y-78293259D01*
X117282818Y-78473277D01*
X117282821Y-78473284D01*
X117377467Y-78637216D01*
X117466996Y-78736648D01*
X117504129Y-78777888D01*
X117657265Y-78889148D01*
X117657270Y-78889151D01*
X117830192Y-78966142D01*
X117830197Y-78966144D01*
X118015354Y-79005500D01*
X118015355Y-79005500D01*
X118204644Y-79005500D01*
X118204646Y-79005500D01*
X118389803Y-78966144D01*
X118562730Y-78889151D01*
X118715871Y-78777888D01*
X118718788Y-78774647D01*
X118721600Y-78771526D01*
X118781087Y-78734879D01*
X118813748Y-78730500D01*
X119767520Y-78730500D01*
X119834559Y-78750185D01*
X119880314Y-78802989D01*
X119890258Y-78872147D01*
X119874907Y-78916500D01*
X119822821Y-79006715D01*
X119822818Y-79006722D01*
X119764327Y-79186740D01*
X119764326Y-79186744D01*
X119744540Y-79375000D01*
X119764326Y-79563256D01*
X119764327Y-79563259D01*
X119822818Y-79743277D01*
X119822821Y-79743284D01*
X119917467Y-79907216D01*
X120006996Y-80006648D01*
X120044129Y-80047888D01*
X120197265Y-80159148D01*
X120197270Y-80159151D01*
X120370192Y-80236142D01*
X120370197Y-80236144D01*
X120555354Y-80275500D01*
X120555355Y-80275500D01*
X120744644Y-80275500D01*
X120744646Y-80275500D01*
X120929803Y-80236144D01*
X121102730Y-80159151D01*
X121255871Y-80047888D01*
X121258788Y-80044647D01*
X121261600Y-80041526D01*
X121321087Y-80004879D01*
X121353748Y-80000500D01*
X122307520Y-80000500D01*
X122374559Y-80020185D01*
X122420314Y-80072989D01*
X122430258Y-80142147D01*
X122414907Y-80186500D01*
X122362821Y-80276715D01*
X122362818Y-80276722D01*
X122304327Y-80456740D01*
X122304326Y-80456744D01*
X122284540Y-80645000D01*
X122304326Y-80833256D01*
X122304327Y-80833259D01*
X122362818Y-81013277D01*
X122362821Y-81013284D01*
X122457467Y-81177216D01*
X122546996Y-81276648D01*
X122584129Y-81317888D01*
X122737265Y-81429148D01*
X122737270Y-81429151D01*
X122910192Y-81506142D01*
X122910197Y-81506144D01*
X123095354Y-81545500D01*
X123095355Y-81545500D01*
X123284644Y-81545500D01*
X123284646Y-81545500D01*
X123469803Y-81506144D01*
X123642730Y-81429151D01*
X123795871Y-81317888D01*
X123798788Y-81314647D01*
X123801600Y-81311526D01*
X123861087Y-81274879D01*
X123893748Y-81270500D01*
X124847520Y-81270500D01*
X124914559Y-81290185D01*
X124960314Y-81342989D01*
X124970258Y-81412147D01*
X124954907Y-81456500D01*
X124902821Y-81546715D01*
X124902818Y-81546722D01*
X124858704Y-81682492D01*
X124844326Y-81726744D01*
X124824540Y-81915000D01*
X124844326Y-82103256D01*
X124844327Y-82103259D01*
X124902818Y-82283277D01*
X124902821Y-82283284D01*
X124997467Y-82447216D01*
X125086996Y-82546648D01*
X125124129Y-82587888D01*
X125277265Y-82699148D01*
X125277270Y-82699151D01*
X125450192Y-82776142D01*
X125450197Y-82776144D01*
X125635354Y-82815500D01*
X125635355Y-82815500D01*
X125824644Y-82815500D01*
X125824646Y-82815500D01*
X126009803Y-82776144D01*
X126182730Y-82699151D01*
X126335871Y-82587888D01*
X126338788Y-82584647D01*
X126341600Y-82581526D01*
X126401087Y-82544879D01*
X126433748Y-82540500D01*
X127387520Y-82540500D01*
X127454559Y-82560185D01*
X127500314Y-82612989D01*
X127510258Y-82682147D01*
X127494907Y-82726500D01*
X127442821Y-82816715D01*
X127442818Y-82816722D01*
X127384327Y-82996740D01*
X127384326Y-82996744D01*
X127364540Y-83185000D01*
X127384326Y-83373256D01*
X127384327Y-83373259D01*
X127442818Y-83553277D01*
X127442821Y-83553284D01*
X127537467Y-83717216D01*
X127651817Y-83844214D01*
X127664129Y-83857888D01*
X127817265Y-83969148D01*
X127817270Y-83969151D01*
X127990192Y-84046142D01*
X127990197Y-84046144D01*
X128175354Y-84085500D01*
X128175355Y-84085500D01*
X128364644Y-84085500D01*
X128364646Y-84085500D01*
X128549803Y-84046144D01*
X128722730Y-83969151D01*
X128875871Y-83857888D01*
X128878788Y-83854647D01*
X128881600Y-83851526D01*
X128941087Y-83814879D01*
X128973748Y-83810500D01*
X129927520Y-83810500D01*
X129994559Y-83830185D01*
X130040314Y-83882989D01*
X130050258Y-83952147D01*
X130034907Y-83996500D01*
X129982821Y-84086715D01*
X129982818Y-84086722D01*
X129934543Y-84235299D01*
X129924326Y-84266744D01*
X129904540Y-84455000D01*
X129924326Y-84643256D01*
X129924327Y-84643259D01*
X129982818Y-84823277D01*
X129982821Y-84823284D01*
X130077467Y-84987216D01*
X130161461Y-85080500D01*
X130198400Y-85121526D01*
X130204129Y-85127888D01*
X130211597Y-85133314D01*
X130254263Y-85188640D01*
X130260244Y-85258253D01*
X130227640Y-85320049D01*
X130166803Y-85354408D01*
X130150867Y-85357035D01*
X129978870Y-85373975D01*
X129790266Y-85431188D01*
X129616467Y-85524086D01*
X129616460Y-85524090D01*
X129464116Y-85649116D01*
X129431250Y-85689165D01*
X129373505Y-85728499D01*
X129335397Y-85734500D01*
X128843388Y-85734500D01*
X128722555Y-85758535D01*
X128722547Y-85758537D01*
X128608716Y-85805687D01*
X128536496Y-85853944D01*
X128536495Y-85853945D01*
X128506263Y-85874144D01*
X128506262Y-85874145D01*
X127767229Y-86613181D01*
X127705906Y-86646666D01*
X127679548Y-86649500D01*
X126218999Y-86649500D01*
X126151960Y-86629815D01*
X126106205Y-86577011D01*
X126094999Y-86525500D01*
X126094999Y-86485675D01*
X126079557Y-86368371D01*
X126079556Y-86368369D01*
X126038710Y-86269757D01*
X126031241Y-86200287D01*
X126062516Y-86137808D01*
X126088175Y-86116765D01*
X126168343Y-86067317D01*
X126292315Y-85943345D01*
X126384356Y-85794124D01*
X126384358Y-85794119D01*
X126439505Y-85627697D01*
X126439506Y-85627690D01*
X126449999Y-85524986D01*
X126450000Y-85524973D01*
X126450000Y-85250000D01*
X125324000Y-85250000D01*
X125256961Y-85230315D01*
X125211206Y-85177511D01*
X125200000Y-85126000D01*
X125200000Y-84750000D01*
X125700000Y-84750000D01*
X126449999Y-84750000D01*
X126449999Y-84475028D01*
X126449998Y-84475013D01*
X126439505Y-84372302D01*
X126384358Y-84205880D01*
X126384356Y-84205875D01*
X126292315Y-84056654D01*
X126168345Y-83932684D01*
X126019124Y-83840643D01*
X126019119Y-83840641D01*
X125852697Y-83785494D01*
X125852690Y-83785493D01*
X125749986Y-83775000D01*
X125700000Y-83775000D01*
X125700000Y-84750000D01*
X125200000Y-84750000D01*
X125200000Y-83775000D01*
X125199999Y-83774999D01*
X125150029Y-83775000D01*
X125150011Y-83775001D01*
X125047302Y-83785494D01*
X124880880Y-83840641D01*
X124880875Y-83840643D01*
X124731654Y-83932684D01*
X124607683Y-84056655D01*
X124607679Y-84056660D01*
X124605826Y-84059665D01*
X124604018Y-84061290D01*
X124603202Y-84062323D01*
X124603025Y-84062183D01*
X124553874Y-84106385D01*
X124484911Y-84117601D01*
X124420831Y-84089752D01*
X124394753Y-84059653D01*
X124394737Y-84059628D01*
X124392712Y-84056344D01*
X124268656Y-83932288D01*
X124125868Y-83844216D01*
X124119336Y-83840187D01*
X124119331Y-83840185D01*
X124089153Y-83830185D01*
X123952797Y-83785001D01*
X123952795Y-83785000D01*
X123850010Y-83774500D01*
X123249998Y-83774500D01*
X123249980Y-83774501D01*
X123147203Y-83785000D01*
X123147200Y-83785001D01*
X122980668Y-83840185D01*
X122980663Y-83840187D01*
X122831342Y-83932289D01*
X122707289Y-84056342D01*
X122615187Y-84205663D01*
X122615185Y-84205668D01*
X122594948Y-84266740D01*
X122560001Y-84372203D01*
X122560001Y-84372204D01*
X122560000Y-84372204D01*
X122549500Y-84474983D01*
X122549500Y-85525001D01*
X122549501Y-85525019D01*
X122560000Y-85627796D01*
X122560001Y-85627799D01*
X122615185Y-85794331D01*
X122615187Y-85794336D01*
X122622190Y-85805689D01*
X122681039Y-85901099D01*
X122699500Y-85966195D01*
X122699500Y-88328846D01*
X122730261Y-88483489D01*
X122730264Y-88483501D01*
X122790602Y-88629172D01*
X122790609Y-88629185D01*
X122878210Y-88760288D01*
X122878213Y-88760292D01*
X123314709Y-89196788D01*
X123445814Y-89284389D01*
X123445820Y-89284392D01*
X123445821Y-89284393D01*
X123552776Y-89328696D01*
X123607178Y-89372536D01*
X123628261Y-89427072D01*
X123635442Y-89481622D01*
X123635445Y-89481634D01*
X123643837Y-89501895D01*
X123651304Y-89571364D01*
X123643838Y-89596794D01*
X123634956Y-89618238D01*
X123634955Y-89618239D01*
X123619500Y-89735638D01*
X123619500Y-90014363D01*
X123634953Y-90131753D01*
X123634957Y-90131765D01*
X123643566Y-90152550D01*
X123651033Y-90222019D01*
X123643566Y-90247450D01*
X123634957Y-90268234D01*
X123634955Y-90268239D01*
X123619500Y-90385638D01*
X123619500Y-90664363D01*
X123634953Y-90781753D01*
X123634957Y-90781765D01*
X123643566Y-90802550D01*
X123651033Y-90872019D01*
X123643566Y-90897450D01*
X123634957Y-90918234D01*
X123634955Y-90918239D01*
X123619500Y-91035638D01*
X123619500Y-91314363D01*
X123634953Y-91431753D01*
X123634956Y-91431762D01*
X123695463Y-91577840D01*
X123695464Y-91577841D01*
X123701673Y-91585933D01*
X123726868Y-91651101D01*
X123712830Y-91719546D01*
X123664017Y-91769537D01*
X123595926Y-91785201D01*
X123590696Y-91784778D01*
X123494988Y-91775000D01*
X123445000Y-91775000D01*
X123445000Y-93958037D01*
X123447166Y-93962004D01*
X123450000Y-93988362D01*
X123450000Y-96424999D01*
X123499972Y-96424999D01*
X123499986Y-96424998D01*
X123602697Y-96414505D01*
X123769119Y-96359358D01*
X123769124Y-96359356D01*
X123918345Y-96267315D01*
X124042318Y-96143342D01*
X124044165Y-96140348D01*
X124045969Y-96138724D01*
X124046798Y-96137677D01*
X124046976Y-96137818D01*
X124096110Y-96093621D01*
X124165073Y-96082396D01*
X124229156Y-96110236D01*
X124255243Y-96140341D01*
X124257288Y-96143656D01*
X124381344Y-96267712D01*
X124530666Y-96359814D01*
X124697203Y-96414999D01*
X124799991Y-96425500D01*
X125400008Y-96425499D01*
X125400016Y-96425498D01*
X125400019Y-96425498D01*
X125456302Y-96419748D01*
X125502797Y-96414999D01*
X125669334Y-96359814D01*
X125818656Y-96267712D01*
X125942712Y-96143656D01*
X126034814Y-95994334D01*
X126089999Y-95827797D01*
X126100500Y-95725009D01*
X126100499Y-94674992D01*
X126089999Y-94572203D01*
X126034814Y-94405666D01*
X125942712Y-94256344D01*
X125936819Y-94250451D01*
X125903334Y-94189128D01*
X125900500Y-94162770D01*
X125900500Y-94032230D01*
X125920185Y-93965191D01*
X125936819Y-93944549D01*
X125937712Y-93943656D01*
X125989680Y-93859402D01*
X126041627Y-93812679D01*
X126095218Y-93800500D01*
X126272060Y-93800500D01*
X126339099Y-93820185D01*
X126359741Y-93836819D01*
X127008870Y-94485947D01*
X127008891Y-94485970D01*
X127124707Y-94601786D01*
X127124711Y-94601789D01*
X127255814Y-94689390D01*
X127255827Y-94689397D01*
X127324363Y-94717785D01*
X127401503Y-94749737D01*
X127401507Y-94749737D01*
X127401508Y-94749738D01*
X127556154Y-94780500D01*
X127556157Y-94780500D01*
X127556158Y-94780500D01*
X128479894Y-94780500D01*
X128546933Y-94800185D01*
X128592688Y-94852989D01*
X128603214Y-94917460D01*
X128594540Y-95000000D01*
X128614326Y-95188256D01*
X128614327Y-95188259D01*
X128672818Y-95368277D01*
X128672821Y-95368284D01*
X128767467Y-95532216D01*
X128864965Y-95640498D01*
X128894129Y-95672888D01*
X129047265Y-95784148D01*
X129047270Y-95784151D01*
X129220192Y-95861142D01*
X129220197Y-95861144D01*
X129405354Y-95900500D01*
X129405355Y-95900500D01*
X129594644Y-95900500D01*
X129594646Y-95900500D01*
X129779803Y-95861144D01*
X129952730Y-95784151D01*
X130105871Y-95672888D01*
X130232533Y-95532216D01*
X130327179Y-95368284D01*
X130358314Y-95272459D01*
X130397751Y-95214785D01*
X130462110Y-95187586D01*
X130530956Y-95199500D01*
X130582432Y-95246744D01*
X130599565Y-95297813D01*
X130614326Y-95438256D01*
X130614327Y-95438259D01*
X130672818Y-95618277D01*
X130672821Y-95618284D01*
X130767467Y-95782216D01*
X130847673Y-95871293D01*
X130894129Y-95922888D01*
X131047265Y-96034148D01*
X131047270Y-96034151D01*
X131220192Y-96111142D01*
X131220197Y-96111144D01*
X131405354Y-96150500D01*
X131464547Y-96150500D01*
X131531586Y-96170185D01*
X131552228Y-96186819D01*
X131736263Y-96370855D01*
X131736267Y-96370858D01*
X131838712Y-96439310D01*
X131838711Y-96439310D01*
X131838713Y-96439311D01*
X131838715Y-96439312D01*
X131875381Y-96454499D01*
X131875382Y-96454500D01*
X131875383Y-96454500D01*
X131952548Y-96486463D01*
X131972597Y-96490451D01*
X131996522Y-96495210D01*
X132073392Y-96510501D01*
X132073394Y-96510501D01*
X132202721Y-96510501D01*
X132202741Y-96510500D01*
X133809629Y-96510500D01*
X133809629Y-96510499D01*
X133886497Y-96495210D01*
X133886498Y-96495210D01*
X133910428Y-96490450D01*
X133930473Y-96486463D01*
X133930478Y-96486460D01*
X133930481Y-96486460D01*
X133963808Y-96472654D01*
X133963807Y-96472654D01*
X133963813Y-96472652D01*
X134044307Y-96439312D01*
X134081608Y-96414386D01*
X134148281Y-96393507D01*
X134215662Y-96411988D01*
X134262354Y-96463965D01*
X134274500Y-96517487D01*
X134274500Y-97834546D01*
X134254815Y-97901585D01*
X134238181Y-97922227D01*
X134221280Y-97939127D01*
X134221271Y-97939137D01*
X134221270Y-97939139D01*
X134221267Y-97939142D01*
X134177704Y-97982704D01*
X134134142Y-98026266D01*
X134126706Y-98037396D01*
X134107284Y-98066463D01*
X134065689Y-98128711D01*
X134065684Y-98128721D01*
X134052169Y-98161353D01*
X134052168Y-98161356D01*
X134018537Y-98242547D01*
X134018535Y-98242553D01*
X134011912Y-98275847D01*
X134011913Y-98275848D01*
X133995278Y-98359485D01*
X133995274Y-98359503D01*
X133994500Y-98363388D01*
X133993903Y-98369455D01*
X133992159Y-98369283D01*
X133974815Y-98428351D01*
X133962650Y-98444284D01*
X133887466Y-98527784D01*
X133792821Y-98691715D01*
X133792818Y-98691722D01*
X133734327Y-98871740D01*
X133734326Y-98871744D01*
X133714540Y-99060000D01*
X133734326Y-99248256D01*
X133734327Y-99248259D01*
X133792818Y-99428277D01*
X133792821Y-99428284D01*
X133887467Y-99592216D01*
X133894695Y-99600243D01*
X133962650Y-99675715D01*
X133992880Y-99738706D01*
X133994500Y-99758687D01*
X133994500Y-100391611D01*
X134018535Y-100512444D01*
X134018540Y-100512461D01*
X134065685Y-100626280D01*
X134065690Y-100626289D01*
X134099914Y-100677507D01*
X134099915Y-100677509D01*
X134134141Y-100728733D01*
X134225586Y-100820178D01*
X134225608Y-100820198D01*
X135228181Y-101822771D01*
X135261666Y-101884094D01*
X135264500Y-101910452D01*
X135264500Y-107304773D01*
X135244815Y-107371812D01*
X135211623Y-107406348D01*
X135018597Y-107541505D01*
X134851505Y-107708597D01*
X134715965Y-107902169D01*
X134715964Y-107902171D01*
X134616098Y-108116335D01*
X134616094Y-108116344D01*
X134554938Y-108344586D01*
X134554936Y-108344596D01*
X134534341Y-108579999D01*
X134534341Y-108580000D01*
X134554936Y-108815403D01*
X134554938Y-108815413D01*
X134616094Y-109043655D01*
X134616096Y-109043659D01*
X134616097Y-109043663D01*
X134620000Y-109052032D01*
X134715965Y-109257830D01*
X134715967Y-109257834D01*
X134824281Y-109412521D01*
X134851501Y-109451396D01*
X134851506Y-109451402D01*
X135018597Y-109618493D01*
X135018603Y-109618498D01*
X135204594Y-109748730D01*
X135248219Y-109803307D01*
X135255413Y-109872805D01*
X135223890Y-109935160D01*
X135204595Y-109951880D01*
X135018922Y-110081890D01*
X135018920Y-110081891D01*
X134851891Y-110248920D01*
X134851886Y-110248926D01*
X134716400Y-110442420D01*
X134716399Y-110442422D01*
X134616570Y-110656507D01*
X134616567Y-110656513D01*
X134559364Y-110869999D01*
X134559364Y-110870000D01*
X135456988Y-110870000D01*
X135424075Y-110927007D01*
X135390000Y-111054174D01*
X135390000Y-111185826D01*
X135424075Y-111312993D01*
X135456988Y-111370000D01*
X134559364Y-111370000D01*
X134616567Y-111583486D01*
X134616570Y-111583492D01*
X134716399Y-111797578D01*
X134851894Y-111991082D01*
X135018917Y-112158105D01*
X135212421Y-112293600D01*
X135426507Y-112393429D01*
X135426516Y-112393433D01*
X135640000Y-112450634D01*
X135640000Y-111553012D01*
X135697007Y-111585925D01*
X135824174Y-111620000D01*
X135955826Y-111620000D01*
X136082993Y-111585925D01*
X136140000Y-111553012D01*
X136140000Y-112450633D01*
X136353483Y-112393433D01*
X136353492Y-112393429D01*
X136567578Y-112293600D01*
X136761082Y-112158105D01*
X136928105Y-111991082D01*
X137058425Y-111804968D01*
X137113002Y-111761344D01*
X137182501Y-111754151D01*
X137244855Y-111785673D01*
X137261575Y-111804968D01*
X137391894Y-111991082D01*
X137558917Y-112158105D01*
X137752421Y-112293600D01*
X137966507Y-112393429D01*
X137966516Y-112393433D01*
X138180000Y-112450634D01*
X138180000Y-111553012D01*
X138237007Y-111585925D01*
X138364174Y-111620000D01*
X138495826Y-111620000D01*
X138622993Y-111585925D01*
X138680000Y-111553012D01*
X138680000Y-112450634D01*
X138893483Y-112393433D01*
X138893492Y-112393429D01*
X139107578Y-112293600D01*
X139301082Y-112158105D01*
X139468105Y-111991082D01*
X139598425Y-111804968D01*
X139653002Y-111761344D01*
X139722501Y-111754151D01*
X139784855Y-111785673D01*
X139801575Y-111804968D01*
X139931894Y-111991082D01*
X140098917Y-112158105D01*
X140292421Y-112293600D01*
X140506507Y-112393429D01*
X140506516Y-112393433D01*
X140720000Y-112450634D01*
X140720000Y-111553012D01*
X140777007Y-111585925D01*
X140904174Y-111620000D01*
X141035826Y-111620000D01*
X141162993Y-111585925D01*
X141220000Y-111553012D01*
X141220000Y-112450634D01*
X141433483Y-112393433D01*
X141433492Y-112393429D01*
X141647578Y-112293600D01*
X141841082Y-112158105D01*
X142008105Y-111991082D01*
X142138425Y-111804968D01*
X142193002Y-111761344D01*
X142262501Y-111754151D01*
X142324855Y-111785673D01*
X142341575Y-111804968D01*
X142471894Y-111991082D01*
X142638917Y-112158105D01*
X142832421Y-112293600D01*
X143046507Y-112393429D01*
X143046516Y-112393433D01*
X143260000Y-112450634D01*
X143260000Y-111553012D01*
X143317007Y-111585925D01*
X143444174Y-111620000D01*
X143575826Y-111620000D01*
X143702993Y-111585925D01*
X143760000Y-111553012D01*
X143760000Y-112450633D01*
X143973483Y-112393433D01*
X143973492Y-112393429D01*
X144187578Y-112293600D01*
X144381082Y-112158105D01*
X144548105Y-111991082D01*
X144678425Y-111804968D01*
X144733002Y-111761344D01*
X144802501Y-111754151D01*
X144864855Y-111785673D01*
X144881575Y-111804968D01*
X145011894Y-111991082D01*
X145178917Y-112158105D01*
X145372421Y-112293600D01*
X145586507Y-112393429D01*
X145586516Y-112393433D01*
X145800000Y-112450634D01*
X145800000Y-111553012D01*
X145857007Y-111585925D01*
X145984174Y-111620000D01*
X146115826Y-111620000D01*
X146242993Y-111585925D01*
X146300000Y-111553012D01*
X146300000Y-112450634D01*
X146513483Y-112393433D01*
X146513492Y-112393429D01*
X146727578Y-112293600D01*
X146921082Y-112158105D01*
X147088105Y-111991082D01*
X147218425Y-111804968D01*
X147273002Y-111761344D01*
X147342501Y-111754151D01*
X147404855Y-111785673D01*
X147421575Y-111804968D01*
X147551894Y-111991082D01*
X147718917Y-112158105D01*
X147912421Y-112293600D01*
X148126507Y-112393429D01*
X148126516Y-112393433D01*
X148340000Y-112450634D01*
X148340000Y-111553012D01*
X148397007Y-111585925D01*
X148524174Y-111620000D01*
X148655826Y-111620000D01*
X148782993Y-111585925D01*
X148840000Y-111553012D01*
X148840000Y-112450633D01*
X149053483Y-112393433D01*
X149053492Y-112393429D01*
X149267578Y-112293600D01*
X149461082Y-112158105D01*
X149628105Y-111991082D01*
X149763600Y-111797578D01*
X149863429Y-111583492D01*
X149863432Y-111583486D01*
X149920636Y-111370000D01*
X149023012Y-111370000D01*
X149055925Y-111312993D01*
X149090000Y-111185826D01*
X149090000Y-111054174D01*
X149055925Y-110927007D01*
X149023012Y-110870000D01*
X149920636Y-110870000D01*
X149920635Y-110869999D01*
X149863432Y-110656513D01*
X149863429Y-110656507D01*
X149763600Y-110442422D01*
X149763599Y-110442420D01*
X149628113Y-110248926D01*
X149628108Y-110248920D01*
X149506053Y-110126865D01*
X149472568Y-110065542D01*
X149477552Y-109995850D01*
X149519424Y-109939917D01*
X149550400Y-109923002D01*
X149682331Y-109873796D01*
X149797546Y-109787546D01*
X149883796Y-109672331D01*
X149934091Y-109537483D01*
X149940500Y-109477873D01*
X149940499Y-107682128D01*
X149934091Y-107622517D01*
X149932810Y-107619083D01*
X149883797Y-107487671D01*
X149883793Y-107487664D01*
X149797547Y-107372455D01*
X149797544Y-107372452D01*
X149682335Y-107286206D01*
X149682328Y-107286202D01*
X149547482Y-107235908D01*
X149547483Y-107235908D01*
X149487883Y-107229501D01*
X149487881Y-107229500D01*
X149487873Y-107229500D01*
X149487865Y-107229500D01*
X148805453Y-107229500D01*
X148738414Y-107209815D01*
X148717772Y-107193181D01*
X141631819Y-100107228D01*
X141598334Y-100045905D01*
X141595500Y-100019547D01*
X141595500Y-99758687D01*
X141615185Y-99691648D01*
X141627350Y-99675715D01*
X141649340Y-99651292D01*
X141702533Y-99592216D01*
X141797179Y-99428284D01*
X141855674Y-99248256D01*
X141875460Y-99060000D01*
X141855674Y-98871744D01*
X141797179Y-98691716D01*
X141702533Y-98527784D01*
X141698204Y-98522976D01*
X141667975Y-98459984D01*
X141675000Y-98403516D01*
X141675000Y-97405000D01*
X140885952Y-97405000D01*
X140818913Y-97385315D01*
X140798271Y-97368681D01*
X140059603Y-96630013D01*
X140925000Y-96630013D01*
X140925000Y-96905000D01*
X141675000Y-96905000D01*
X141675000Y-95930000D01*
X142175000Y-95930000D01*
X142175000Y-98379999D01*
X142224972Y-98379999D01*
X142224986Y-98379998D01*
X142327697Y-98369505D01*
X142494119Y-98314358D01*
X142494124Y-98314356D01*
X142643345Y-98222315D01*
X142767318Y-98098342D01*
X142769165Y-98095348D01*
X142770969Y-98093724D01*
X142771798Y-98092677D01*
X142771976Y-98092818D01*
X142821110Y-98048621D01*
X142890073Y-98037396D01*
X142954156Y-98065236D01*
X142980243Y-98095341D01*
X142982288Y-98098656D01*
X143106344Y-98222712D01*
X143255666Y-98314814D01*
X143422203Y-98369999D01*
X143524991Y-98380500D01*
X144125008Y-98380499D01*
X144125016Y-98380498D01*
X144125019Y-98380498D01*
X144181302Y-98374748D01*
X144227797Y-98369999D01*
X144394334Y-98314814D01*
X144543656Y-98222712D01*
X144667712Y-98098656D01*
X144667712Y-98098655D01*
X144672819Y-98093549D01*
X144674705Y-98095435D01*
X144721625Y-98062212D01*
X144761868Y-98055500D01*
X144874644Y-98055500D01*
X144874646Y-98055500D01*
X145059803Y-98016144D01*
X145232730Y-97939151D01*
X145385871Y-97827888D01*
X145512533Y-97687216D01*
X145607179Y-97523284D01*
X145665674Y-97343256D01*
X145685460Y-97155000D01*
X145665674Y-96966744D01*
X145607179Y-96786716D01*
X145512533Y-96622784D01*
X145385871Y-96482112D01*
X145385870Y-96482111D01*
X145232734Y-96370851D01*
X145232729Y-96370848D01*
X145059807Y-96293857D01*
X145059802Y-96293855D01*
X144907028Y-96261383D01*
X144874646Y-96254500D01*
X144874645Y-96254500D01*
X144761868Y-96254500D01*
X144694829Y-96234815D01*
X144673653Y-96215616D01*
X144672819Y-96216451D01*
X144543657Y-96087289D01*
X144543656Y-96087288D01*
X144435213Y-96020400D01*
X144394336Y-95995187D01*
X144394331Y-95995185D01*
X144361105Y-95984175D01*
X144227797Y-95940001D01*
X144227795Y-95940000D01*
X144125010Y-95929500D01*
X143524998Y-95929500D01*
X143524980Y-95929501D01*
X143422203Y-95940000D01*
X143422200Y-95940001D01*
X143255668Y-95995185D01*
X143255663Y-95995187D01*
X143106342Y-96087289D01*
X142982288Y-96211343D01*
X142982283Y-96211349D01*
X142980241Y-96214661D01*
X142978247Y-96216453D01*
X142977807Y-96217011D01*
X142977711Y-96216935D01*
X142928291Y-96261383D01*
X142859328Y-96272602D01*
X142795247Y-96244755D01*
X142769168Y-96214656D01*
X142767319Y-96211659D01*
X142767316Y-96211655D01*
X142643345Y-96087684D01*
X142494124Y-95995643D01*
X142494119Y-95995641D01*
X142327697Y-95940494D01*
X142327690Y-95940493D01*
X142224986Y-95930000D01*
X142175000Y-95930000D01*
X141675000Y-95930000D01*
X141674999Y-95929999D01*
X141625029Y-95930000D01*
X141625011Y-95930001D01*
X141522302Y-95940494D01*
X141355880Y-95995641D01*
X141355875Y-95995643D01*
X141206654Y-96087684D01*
X141082684Y-96211654D01*
X140990643Y-96360875D01*
X140990641Y-96360880D01*
X140935494Y-96527302D01*
X140935493Y-96527309D01*
X140925000Y-96630013D01*
X140059603Y-96630013D01*
X139231770Y-95802180D01*
X139198285Y-95740857D01*
X139203269Y-95671165D01*
X139245141Y-95615232D01*
X139310605Y-95590815D01*
X139319423Y-95590499D01*
X139589360Y-95590499D01*
X139589363Y-95590499D01*
X139706753Y-95575046D01*
X139706757Y-95575044D01*
X139706762Y-95575044D01*
X139852841Y-95514536D01*
X139978282Y-95418282D01*
X140074536Y-95292841D01*
X140135044Y-95146762D01*
X140146821Y-95057298D01*
X140175087Y-94993404D01*
X140233411Y-94954932D01*
X140303276Y-94954100D01*
X140362499Y-94991172D01*
X140385734Y-95037077D01*
X140387871Y-95036370D01*
X140445185Y-95209331D01*
X140445187Y-95209336D01*
X140470269Y-95250000D01*
X140537288Y-95358656D01*
X140661344Y-95482712D01*
X140810666Y-95574814D01*
X140977203Y-95629999D01*
X141079991Y-95640500D01*
X142130008Y-95640499D01*
X142130016Y-95640498D01*
X142130019Y-95640498D01*
X142186302Y-95634748D01*
X142232797Y-95629999D01*
X142399334Y-95574814D01*
X142548656Y-95482712D01*
X142672712Y-95358656D01*
X142764814Y-95209334D01*
X142819999Y-95042797D01*
X142830500Y-94940009D01*
X142830499Y-94339992D01*
X142829459Y-94329815D01*
X142819999Y-94237203D01*
X142819998Y-94237200D01*
X142812354Y-94214132D01*
X142764814Y-94070666D01*
X142672712Y-93921344D01*
X142548656Y-93797288D01*
X142545819Y-93795538D01*
X142544283Y-93793830D01*
X142542989Y-93792807D01*
X142543163Y-93792585D01*
X142499096Y-93743594D01*
X142487872Y-93674632D01*
X142515713Y-93610549D01*
X142545817Y-93584462D01*
X142548656Y-93582712D01*
X142672712Y-93458656D01*
X142764814Y-93309334D01*
X142819999Y-93142797D01*
X142830500Y-93040009D01*
X142830499Y-92439992D01*
X142828026Y-92415786D01*
X142819999Y-92337203D01*
X142819998Y-92337200D01*
X142792552Y-92254374D01*
X142764814Y-92170666D01*
X142672712Y-92021344D01*
X142548656Y-91897288D01*
X142433637Y-91826344D01*
X142399336Y-91805187D01*
X142399331Y-91805185D01*
X142382283Y-91799536D01*
X142232797Y-91750001D01*
X142232795Y-91750000D01*
X142130010Y-91739500D01*
X141079998Y-91739500D01*
X141079980Y-91739501D01*
X140977203Y-91750000D01*
X140977200Y-91750001D01*
X140810668Y-91805185D01*
X140810663Y-91805187D01*
X140661342Y-91897289D01*
X140537289Y-92021342D01*
X140537288Y-92021344D01*
X140516781Y-92054592D01*
X140516161Y-92055597D01*
X140464213Y-92102321D01*
X140410622Y-92114500D01*
X140399500Y-92114500D01*
X140332461Y-92094815D01*
X140286706Y-92042011D01*
X140275500Y-91990500D01*
X140275500Y-91599983D01*
X149299500Y-91599983D01*
X149299500Y-92225001D01*
X149299501Y-92225019D01*
X149310000Y-92327796D01*
X149310001Y-92327799D01*
X149365185Y-92494331D01*
X149365187Y-92494336D01*
X149392119Y-92538000D01*
X149457288Y-92643656D01*
X149581344Y-92767712D01*
X149730666Y-92859814D01*
X149897203Y-92914999D01*
X149999991Y-92925500D01*
X151000008Y-92925499D01*
X151000016Y-92925498D01*
X151000019Y-92925498D01*
X151056302Y-92919748D01*
X151102797Y-92914999D01*
X151269334Y-92859814D01*
X151418656Y-92767712D01*
X151542712Y-92643656D01*
X151571549Y-92596902D01*
X151623497Y-92550179D01*
X151677088Y-92538000D01*
X152098162Y-92538000D01*
X152165201Y-92557685D01*
X152210956Y-92610489D01*
X152217937Y-92629907D01*
X152251094Y-92753655D01*
X152251096Y-92753659D01*
X152251097Y-92753663D01*
X152327496Y-92917500D01*
X152350965Y-92967830D01*
X152350967Y-92967834D01*
X152429231Y-93079605D01*
X152486505Y-93161401D01*
X152653599Y-93328495D01*
X152706255Y-93365365D01*
X152847165Y-93464032D01*
X152847167Y-93464033D01*
X152847170Y-93464035D01*
X153061337Y-93563903D01*
X153289592Y-93625063D01*
X153477918Y-93641539D01*
X153524999Y-93645659D01*
X153525000Y-93645659D01*
X153525001Y-93645659D01*
X153564234Y-93642226D01*
X153760408Y-93625063D01*
X153988663Y-93563903D01*
X154202830Y-93464035D01*
X154396401Y-93328495D01*
X154563495Y-93161401D01*
X154699035Y-92967830D01*
X154798903Y-92753663D01*
X154860063Y-92525408D01*
X154880659Y-92290000D01*
X154860063Y-92054592D01*
X154812076Y-91875499D01*
X154798905Y-91826344D01*
X154798904Y-91826343D01*
X154798903Y-91826337D01*
X154699035Y-91612171D01*
X154689231Y-91598170D01*
X154563496Y-91418600D01*
X154521962Y-91377066D01*
X154441179Y-91296283D01*
X154407696Y-91234963D01*
X154412680Y-91165271D01*
X154454551Y-91109337D01*
X154485529Y-91092422D01*
X154617086Y-91043354D01*
X154617093Y-91043350D01*
X154732187Y-90957190D01*
X154732190Y-90957187D01*
X154818350Y-90842093D01*
X154818354Y-90842086D01*
X154868596Y-90707379D01*
X154868598Y-90707372D01*
X154874999Y-90647844D01*
X154875000Y-90647827D01*
X154875000Y-90000000D01*
X153958012Y-90000000D01*
X153990925Y-89942993D01*
X154025000Y-89815826D01*
X154025000Y-89769144D01*
X156279500Y-89769144D01*
X156279500Y-90355855D01*
X156289913Y-90457776D01*
X156344637Y-90622922D01*
X156344642Y-90622933D01*
X156435971Y-90770999D01*
X156435974Y-90771003D01*
X156558996Y-90894025D01*
X156559000Y-90894028D01*
X156559703Y-90894462D01*
X156560083Y-90894885D01*
X156564664Y-90898507D01*
X156564045Y-90899289D01*
X156606428Y-90946410D01*
X156617649Y-91015372D01*
X156589806Y-91079454D01*
X156564544Y-91101342D01*
X156564664Y-91101493D01*
X156561315Y-91104140D01*
X156559703Y-91105538D01*
X156559000Y-91105971D01*
X156558996Y-91105974D01*
X156435974Y-91228996D01*
X156435971Y-91229000D01*
X156344642Y-91377066D01*
X156344637Y-91377077D01*
X156289913Y-91542223D01*
X156279500Y-91644144D01*
X156279500Y-92230855D01*
X156289913Y-92332776D01*
X156344637Y-92497922D01*
X156344642Y-92497933D01*
X156435971Y-92645999D01*
X156435974Y-92646003D01*
X156558997Y-92769026D01*
X156680082Y-92843712D01*
X156726805Y-92895659D01*
X156738027Y-92964622D01*
X156722372Y-93011249D01*
X156652820Y-93131718D01*
X156652818Y-93131722D01*
X156598954Y-93297500D01*
X156594326Y-93311744D01*
X156574540Y-93500000D01*
X156594326Y-93688256D01*
X156594327Y-93688259D01*
X156652818Y-93868277D01*
X156652821Y-93868284D01*
X156747467Y-94032216D01*
X156865019Y-94162770D01*
X156874129Y-94172888D01*
X157027265Y-94284148D01*
X157027270Y-94284151D01*
X157200192Y-94361142D01*
X157200197Y-94361144D01*
X157385354Y-94400500D01*
X157385355Y-94400500D01*
X157574644Y-94400500D01*
X157574646Y-94400500D01*
X157759803Y-94361144D01*
X157932730Y-94284151D01*
X157932733Y-94284148D01*
X157938363Y-94280899D01*
X157939904Y-94283569D01*
X157992948Y-94264415D01*
X158061062Y-94279980D01*
X158109948Y-94329900D01*
X158124500Y-94388185D01*
X158124500Y-104711312D01*
X158104815Y-104778351D01*
X158092650Y-104794284D01*
X158017466Y-104877784D01*
X157922821Y-105041715D01*
X157922818Y-105041722D01*
X157864327Y-105221740D01*
X157864326Y-105221744D01*
X157844540Y-105410000D01*
X157864326Y-105598256D01*
X157864327Y-105598259D01*
X157922818Y-105778277D01*
X157922821Y-105778284D01*
X158017467Y-105942216D01*
X158060772Y-105990310D01*
X158092650Y-106025715D01*
X158122880Y-106088706D01*
X158124500Y-106108687D01*
X158124500Y-107304773D01*
X158104815Y-107371812D01*
X158071623Y-107406348D01*
X157878597Y-107541505D01*
X157711505Y-107708597D01*
X157575965Y-107902169D01*
X157575964Y-107902171D01*
X157476098Y-108116335D01*
X157476094Y-108116344D01*
X157414938Y-108344586D01*
X157414936Y-108344596D01*
X157394341Y-108579999D01*
X157394341Y-108580000D01*
X157414936Y-108815403D01*
X157414938Y-108815413D01*
X157476094Y-109043655D01*
X157476096Y-109043659D01*
X157476097Y-109043663D01*
X157480000Y-109052032D01*
X157575965Y-109257830D01*
X157575967Y-109257834D01*
X157684281Y-109412521D01*
X157711501Y-109451396D01*
X157711506Y-109451402D01*
X157878597Y-109618493D01*
X157878603Y-109618498D01*
X158064594Y-109748730D01*
X158108219Y-109803307D01*
X158115413Y-109872805D01*
X158083890Y-109935160D01*
X158064595Y-109951880D01*
X157878922Y-110081890D01*
X157878920Y-110081891D01*
X157711891Y-110248920D01*
X157711886Y-110248926D01*
X157576400Y-110442420D01*
X157576399Y-110442422D01*
X157476570Y-110656507D01*
X157476567Y-110656513D01*
X157419364Y-110869999D01*
X157419364Y-110870000D01*
X158316988Y-110870000D01*
X158284075Y-110927007D01*
X158250000Y-111054174D01*
X158250000Y-111185826D01*
X158284075Y-111312993D01*
X158316988Y-111370000D01*
X157419364Y-111370000D01*
X157476567Y-111583486D01*
X157476570Y-111583492D01*
X157576399Y-111797578D01*
X157711894Y-111991082D01*
X157878917Y-112158105D01*
X158072421Y-112293600D01*
X158286507Y-112393429D01*
X158286516Y-112393433D01*
X158500000Y-112450634D01*
X158500000Y-111553012D01*
X158557007Y-111585925D01*
X158684174Y-111620000D01*
X158815826Y-111620000D01*
X158942993Y-111585925D01*
X159000000Y-111553012D01*
X159000000Y-112450634D01*
X159213483Y-112393433D01*
X159213492Y-112393429D01*
X159427578Y-112293600D01*
X159621082Y-112158105D01*
X159788105Y-111991082D01*
X159918425Y-111804968D01*
X159973002Y-111761344D01*
X160042501Y-111754151D01*
X160104855Y-111785673D01*
X160121575Y-111804968D01*
X160251894Y-111991082D01*
X160418917Y-112158105D01*
X160612421Y-112293600D01*
X160826507Y-112393429D01*
X160826516Y-112393433D01*
X161040000Y-112450634D01*
X161040000Y-111553012D01*
X161097007Y-111585925D01*
X161224174Y-111620000D01*
X161355826Y-111620000D01*
X161482993Y-111585925D01*
X161540000Y-111553012D01*
X161540000Y-112450633D01*
X161753483Y-112393433D01*
X161753492Y-112393429D01*
X161967578Y-112293600D01*
X162161082Y-112158105D01*
X162328105Y-111991082D01*
X162458425Y-111804968D01*
X162513002Y-111761344D01*
X162582501Y-111754151D01*
X162644855Y-111785673D01*
X162661575Y-111804968D01*
X162791894Y-111991082D01*
X162958917Y-112158105D01*
X163152421Y-112293600D01*
X163366507Y-112393429D01*
X163366516Y-112393433D01*
X163580000Y-112450634D01*
X163580000Y-111553012D01*
X163637007Y-111585925D01*
X163764174Y-111620000D01*
X163895826Y-111620000D01*
X164022993Y-111585925D01*
X164080000Y-111553012D01*
X164080000Y-112450633D01*
X164293483Y-112393433D01*
X164293492Y-112393429D01*
X164507578Y-112293600D01*
X164701082Y-112158105D01*
X164868105Y-111991082D01*
X164998425Y-111804968D01*
X165053002Y-111761344D01*
X165122501Y-111754151D01*
X165184855Y-111785673D01*
X165201575Y-111804968D01*
X165331894Y-111991082D01*
X165498917Y-112158105D01*
X165692421Y-112293600D01*
X165906507Y-112393429D01*
X165906516Y-112393433D01*
X166120000Y-112450634D01*
X166120000Y-111553012D01*
X166177007Y-111585925D01*
X166304174Y-111620000D01*
X166435826Y-111620000D01*
X166562993Y-111585925D01*
X166620000Y-111553012D01*
X166620000Y-112450633D01*
X166833483Y-112393433D01*
X166833492Y-112393429D01*
X167047578Y-112293600D01*
X167241082Y-112158105D01*
X167408105Y-111991082D01*
X167538425Y-111804968D01*
X167593002Y-111761344D01*
X167662501Y-111754151D01*
X167724855Y-111785673D01*
X167741575Y-111804968D01*
X167871894Y-111991082D01*
X168038917Y-112158105D01*
X168232421Y-112293600D01*
X168446507Y-112393429D01*
X168446516Y-112393433D01*
X168660000Y-112450634D01*
X168660000Y-111553012D01*
X168717007Y-111585925D01*
X168844174Y-111620000D01*
X168975826Y-111620000D01*
X169102993Y-111585925D01*
X169160000Y-111553012D01*
X169160000Y-112450633D01*
X169373483Y-112393433D01*
X169373492Y-112393429D01*
X169587578Y-112293600D01*
X169781082Y-112158105D01*
X169948105Y-111991082D01*
X170078425Y-111804968D01*
X170133002Y-111761344D01*
X170202501Y-111754151D01*
X170264855Y-111785673D01*
X170281575Y-111804968D01*
X170411894Y-111991082D01*
X170578917Y-112158105D01*
X170772421Y-112293600D01*
X170986507Y-112393429D01*
X170986516Y-112393433D01*
X171200000Y-112450634D01*
X171200000Y-111553012D01*
X171257007Y-111585925D01*
X171384174Y-111620000D01*
X171515826Y-111620000D01*
X171642993Y-111585925D01*
X171700000Y-111553012D01*
X171700000Y-112450633D01*
X171913483Y-112393433D01*
X171913492Y-112393429D01*
X172127578Y-112293600D01*
X172321082Y-112158105D01*
X172488105Y-111991082D01*
X172623600Y-111797578D01*
X172723429Y-111583492D01*
X172723432Y-111583486D01*
X172780636Y-111370000D01*
X171883012Y-111370000D01*
X171915925Y-111312993D01*
X171950000Y-111185826D01*
X171950000Y-111054174D01*
X171915925Y-110927007D01*
X171883012Y-110870000D01*
X172780636Y-110870000D01*
X172780635Y-110869999D01*
X172723432Y-110656513D01*
X172723429Y-110656507D01*
X172623600Y-110442422D01*
X172623599Y-110442420D01*
X172488113Y-110248926D01*
X172488108Y-110248920D01*
X172366053Y-110126865D01*
X172332568Y-110065542D01*
X172337552Y-109995850D01*
X172379424Y-109939917D01*
X172410400Y-109923002D01*
X172542331Y-109873796D01*
X172657546Y-109787546D01*
X172743796Y-109672331D01*
X172794091Y-109537483D01*
X172800500Y-109477873D01*
X172800499Y-107682128D01*
X172794091Y-107622517D01*
X172792810Y-107619083D01*
X172743797Y-107487671D01*
X172743793Y-107487664D01*
X172657547Y-107372455D01*
X172657544Y-107372452D01*
X172542335Y-107286206D01*
X172542328Y-107286202D01*
X172407482Y-107235908D01*
X172407483Y-107235908D01*
X172347883Y-107229501D01*
X172347881Y-107229500D01*
X172347873Y-107229500D01*
X172347865Y-107229500D01*
X172199500Y-107229500D01*
X172132461Y-107209815D01*
X172086706Y-107157011D01*
X172075500Y-107105500D01*
X172075500Y-99721187D01*
X172095185Y-99654148D01*
X172107350Y-99638215D01*
X172125891Y-99617622D01*
X172182533Y-99554716D01*
X172277179Y-99390784D01*
X172335674Y-99210756D01*
X172355460Y-99022500D01*
X172335674Y-98834244D01*
X172277179Y-98654216D01*
X172182533Y-98490284D01*
X172155251Y-98459984D01*
X172107350Y-98406784D01*
X172077120Y-98343792D01*
X172075500Y-98323812D01*
X172075500Y-89769144D01*
X174059500Y-89769144D01*
X174059500Y-90355855D01*
X174069913Y-90457776D01*
X174124637Y-90622922D01*
X174124642Y-90622933D01*
X174215971Y-90770999D01*
X174215974Y-90771003D01*
X174338996Y-90894025D01*
X174339000Y-90894028D01*
X174339703Y-90894462D01*
X174340083Y-90894885D01*
X174344664Y-90898507D01*
X174344045Y-90899289D01*
X174386428Y-90946410D01*
X174397649Y-91015372D01*
X174369806Y-91079454D01*
X174344544Y-91101342D01*
X174344664Y-91101493D01*
X174341315Y-91104140D01*
X174339703Y-91105538D01*
X174339000Y-91105971D01*
X174338996Y-91105974D01*
X174215974Y-91228996D01*
X174215971Y-91229000D01*
X174124642Y-91377066D01*
X174124637Y-91377077D01*
X174069913Y-91542223D01*
X174059500Y-91644144D01*
X174059500Y-92230855D01*
X174069913Y-92332776D01*
X174124637Y-92497922D01*
X174124642Y-92497933D01*
X174215971Y-92645999D01*
X174215974Y-92646003D01*
X174338997Y-92769026D01*
X174460082Y-92843712D01*
X174506805Y-92895659D01*
X174518027Y-92964622D01*
X174502372Y-93011249D01*
X174432820Y-93131718D01*
X174432818Y-93131722D01*
X174378954Y-93297500D01*
X174374326Y-93311744D01*
X174354540Y-93500000D01*
X174374326Y-93688256D01*
X174374327Y-93688259D01*
X174432818Y-93868277D01*
X174432821Y-93868284D01*
X174527467Y-94032216D01*
X174645019Y-94162770D01*
X174654129Y-94172888D01*
X174807265Y-94284148D01*
X174807270Y-94284151D01*
X174980192Y-94361142D01*
X174980197Y-94361144D01*
X175165354Y-94400500D01*
X175165355Y-94400500D01*
X175354644Y-94400500D01*
X175354646Y-94400500D01*
X175539803Y-94361144D01*
X175712730Y-94284151D01*
X175712733Y-94284148D01*
X175718363Y-94280899D01*
X175719904Y-94283569D01*
X175772948Y-94264415D01*
X175841062Y-94279980D01*
X175889948Y-94329900D01*
X175904500Y-94388185D01*
X175904500Y-107304773D01*
X175884815Y-107371812D01*
X175851623Y-107406348D01*
X175658597Y-107541505D01*
X175491505Y-107708597D01*
X175355965Y-107902169D01*
X175355964Y-107902171D01*
X175256098Y-108116335D01*
X175256094Y-108116344D01*
X175194938Y-108344586D01*
X175194936Y-108344596D01*
X175174341Y-108579999D01*
X175174341Y-108580000D01*
X175194936Y-108815403D01*
X175194938Y-108815413D01*
X175256094Y-109043655D01*
X175256096Y-109043659D01*
X175256097Y-109043663D01*
X175260000Y-109052032D01*
X175355965Y-109257830D01*
X175355967Y-109257834D01*
X175464281Y-109412521D01*
X175491501Y-109451396D01*
X175491506Y-109451402D01*
X175658597Y-109618493D01*
X175658603Y-109618498D01*
X175844594Y-109748730D01*
X175888219Y-109803307D01*
X175895413Y-109872805D01*
X175863890Y-109935160D01*
X175844595Y-109951880D01*
X175658922Y-110081890D01*
X175658920Y-110081891D01*
X175491891Y-110248920D01*
X175491886Y-110248926D01*
X175356400Y-110442420D01*
X175356399Y-110442422D01*
X175256570Y-110656507D01*
X175256567Y-110656513D01*
X175199364Y-110869999D01*
X175199364Y-110870000D01*
X176096988Y-110870000D01*
X176064075Y-110927007D01*
X176030000Y-111054174D01*
X176030000Y-111185826D01*
X176064075Y-111312993D01*
X176096988Y-111370000D01*
X175199364Y-111370000D01*
X175256567Y-111583486D01*
X175256570Y-111583492D01*
X175356399Y-111797578D01*
X175491894Y-111991082D01*
X175658917Y-112158105D01*
X175852421Y-112293600D01*
X176066507Y-112393429D01*
X176066516Y-112393433D01*
X176280000Y-112450634D01*
X176280000Y-111553012D01*
X176337007Y-111585925D01*
X176464174Y-111620000D01*
X176595826Y-111620000D01*
X176722993Y-111585925D01*
X176780000Y-111553012D01*
X176780000Y-112450633D01*
X176993483Y-112393433D01*
X176993492Y-112393429D01*
X177207578Y-112293600D01*
X177401082Y-112158105D01*
X177568105Y-111991082D01*
X177698425Y-111804968D01*
X177753002Y-111761344D01*
X177822501Y-111754151D01*
X177884855Y-111785673D01*
X177901575Y-111804968D01*
X178031894Y-111991082D01*
X178198917Y-112158105D01*
X178392421Y-112293600D01*
X178606507Y-112393429D01*
X178606516Y-112393433D01*
X178820000Y-112450634D01*
X178820000Y-111553012D01*
X178877007Y-111585925D01*
X179004174Y-111620000D01*
X179135826Y-111620000D01*
X179262993Y-111585925D01*
X179320000Y-111553012D01*
X179320000Y-112450633D01*
X179533483Y-112393433D01*
X179533492Y-112393429D01*
X179747578Y-112293600D01*
X179941082Y-112158105D01*
X180108105Y-111991082D01*
X180238425Y-111804968D01*
X180293002Y-111761344D01*
X180362501Y-111754151D01*
X180424855Y-111785673D01*
X180441575Y-111804968D01*
X180571894Y-111991082D01*
X180738917Y-112158105D01*
X180932421Y-112293600D01*
X181146507Y-112393429D01*
X181146516Y-112393433D01*
X181360000Y-112450634D01*
X181360000Y-111553012D01*
X181417007Y-111585925D01*
X181544174Y-111620000D01*
X181675826Y-111620000D01*
X181802993Y-111585925D01*
X181860000Y-111553012D01*
X181860000Y-112450633D01*
X182073483Y-112393433D01*
X182073492Y-112393429D01*
X182287578Y-112293600D01*
X182481082Y-112158105D01*
X182648105Y-111991082D01*
X182778425Y-111804968D01*
X182833002Y-111761344D01*
X182902501Y-111754151D01*
X182964855Y-111785673D01*
X182981575Y-111804968D01*
X183111894Y-111991082D01*
X183278917Y-112158105D01*
X183472421Y-112293600D01*
X183686507Y-112393429D01*
X183686516Y-112393433D01*
X183900000Y-112450634D01*
X183900000Y-111553012D01*
X183957007Y-111585925D01*
X184084174Y-111620000D01*
X184215826Y-111620000D01*
X184342993Y-111585925D01*
X184400000Y-111553012D01*
X184400000Y-112450633D01*
X184613483Y-112393433D01*
X184613492Y-112393429D01*
X184827578Y-112293600D01*
X185021082Y-112158105D01*
X185188105Y-111991082D01*
X185318425Y-111804968D01*
X185373002Y-111761344D01*
X185442501Y-111754151D01*
X185504855Y-111785673D01*
X185521575Y-111804968D01*
X185651894Y-111991082D01*
X185818917Y-112158105D01*
X186012421Y-112293600D01*
X186226507Y-112393429D01*
X186226516Y-112393433D01*
X186440000Y-112450634D01*
X186440000Y-111553012D01*
X186497007Y-111585925D01*
X186624174Y-111620000D01*
X186755826Y-111620000D01*
X186882993Y-111585925D01*
X186940000Y-111553012D01*
X186940000Y-112450633D01*
X187153483Y-112393433D01*
X187153492Y-112393429D01*
X187367578Y-112293600D01*
X187561082Y-112158105D01*
X187728105Y-111991082D01*
X187858425Y-111804968D01*
X187913002Y-111761344D01*
X187982501Y-111754151D01*
X188044855Y-111785673D01*
X188061575Y-111804968D01*
X188191894Y-111991082D01*
X188358917Y-112158105D01*
X188552421Y-112293600D01*
X188766507Y-112393429D01*
X188766516Y-112393433D01*
X188980000Y-112450634D01*
X188980000Y-111553012D01*
X189037007Y-111585925D01*
X189164174Y-111620000D01*
X189295826Y-111620000D01*
X189422993Y-111585925D01*
X189480000Y-111553012D01*
X189480000Y-112450633D01*
X189693483Y-112393433D01*
X189693492Y-112393429D01*
X189907578Y-112293600D01*
X190101082Y-112158105D01*
X190268105Y-111991082D01*
X190403600Y-111797578D01*
X190503429Y-111583492D01*
X190503432Y-111583486D01*
X190560636Y-111370000D01*
X189663012Y-111370000D01*
X189695925Y-111312993D01*
X189730000Y-111185826D01*
X189730000Y-111054174D01*
X189695925Y-110927007D01*
X189663012Y-110870000D01*
X190560636Y-110870000D01*
X190560635Y-110869999D01*
X190503432Y-110656513D01*
X190503429Y-110656507D01*
X190403600Y-110442422D01*
X190403599Y-110442420D01*
X190268113Y-110248926D01*
X190268108Y-110248920D01*
X190146053Y-110126865D01*
X190112568Y-110065542D01*
X190117552Y-109995850D01*
X190159424Y-109939917D01*
X190190400Y-109923002D01*
X190322331Y-109873796D01*
X190437546Y-109787546D01*
X190523796Y-109672331D01*
X190574091Y-109537483D01*
X190580500Y-109477873D01*
X190580499Y-107682128D01*
X190574091Y-107622517D01*
X190572810Y-107619083D01*
X190523797Y-107487671D01*
X190523793Y-107487664D01*
X190437547Y-107372455D01*
X190437544Y-107372452D01*
X190322335Y-107286206D01*
X190322328Y-107286202D01*
X190187482Y-107235908D01*
X190187483Y-107235908D01*
X190127883Y-107229501D01*
X190127881Y-107229500D01*
X190127873Y-107229500D01*
X190127865Y-107229500D01*
X189979500Y-107229500D01*
X189912461Y-107209815D01*
X189866706Y-107157011D01*
X189855500Y-107105500D01*
X189855500Y-84010687D01*
X189875185Y-83943648D01*
X189887350Y-83927715D01*
X189927621Y-83882989D01*
X189962533Y-83844216D01*
X190057179Y-83680284D01*
X190115674Y-83500256D01*
X190135460Y-83312000D01*
X190115674Y-83123744D01*
X190057179Y-82943716D01*
X189962533Y-82779784D01*
X189889931Y-82699151D01*
X189887350Y-82696284D01*
X189857120Y-82633292D01*
X189855500Y-82613312D01*
X189855500Y-74940226D01*
X189875185Y-74873187D01*
X189908374Y-74838654D01*
X190101401Y-74703495D01*
X190268495Y-74536401D01*
X190404035Y-74342830D01*
X190503903Y-74128663D01*
X190565063Y-73900408D01*
X190585659Y-73665000D01*
X190565063Y-73429592D01*
X190503903Y-73201337D01*
X190404035Y-72987171D01*
X190398425Y-72979158D01*
X190268494Y-72793597D01*
X190101402Y-72626506D01*
X190101401Y-72626505D01*
X189915405Y-72496269D01*
X189871781Y-72441692D01*
X189864588Y-72372193D01*
X189896110Y-72309839D01*
X189915405Y-72293119D01*
X190101082Y-72163105D01*
X190268105Y-71996082D01*
X190403600Y-71802578D01*
X190503429Y-71588492D01*
X190503432Y-71588486D01*
X190560636Y-71375000D01*
X189663012Y-71375000D01*
X189695925Y-71317993D01*
X189730000Y-71190826D01*
X189730000Y-71059174D01*
X189695925Y-70932007D01*
X189663012Y-70875000D01*
X190560636Y-70875000D01*
X190560635Y-70874999D01*
X190503432Y-70661513D01*
X190503429Y-70661507D01*
X190403600Y-70447422D01*
X190403599Y-70447420D01*
X190268113Y-70253926D01*
X190268108Y-70253920D01*
X190101082Y-70086894D01*
X189907578Y-69951399D01*
X189693492Y-69851570D01*
X189693486Y-69851567D01*
X189480000Y-69794364D01*
X189480000Y-70691988D01*
X189422993Y-70659075D01*
X189295826Y-70625000D01*
X189164174Y-70625000D01*
X189037007Y-70659075D01*
X188980000Y-70691988D01*
X188980000Y-69794364D01*
X188979999Y-69794364D01*
X188766513Y-69851567D01*
X188766507Y-69851570D01*
X188552422Y-69951399D01*
X188552420Y-69951400D01*
X188358926Y-70086886D01*
X188358920Y-70086891D01*
X188191891Y-70253920D01*
X188191890Y-70253922D01*
X188061575Y-70440031D01*
X188006998Y-70483655D01*
X187937499Y-70490848D01*
X187875145Y-70459326D01*
X187858425Y-70440031D01*
X187728109Y-70253922D01*
X187728108Y-70253920D01*
X187561082Y-70086894D01*
X187367578Y-69951399D01*
X187153492Y-69851570D01*
X187153486Y-69851567D01*
X186940000Y-69794364D01*
X186940000Y-70691988D01*
X186882993Y-70659075D01*
X186755826Y-70625000D01*
X186624174Y-70625000D01*
X186497007Y-70659075D01*
X186440000Y-70691988D01*
X186440000Y-69794364D01*
X186439999Y-69794364D01*
X186226513Y-69851567D01*
X186226507Y-69851570D01*
X186012422Y-69951399D01*
X186012420Y-69951400D01*
X185818926Y-70086886D01*
X185818920Y-70086891D01*
X185651891Y-70253920D01*
X185651890Y-70253922D01*
X185521575Y-70440031D01*
X185466998Y-70483655D01*
X185397499Y-70490848D01*
X185335145Y-70459326D01*
X185318425Y-70440031D01*
X185188109Y-70253922D01*
X185188108Y-70253920D01*
X185021082Y-70086894D01*
X184827578Y-69951399D01*
X184613492Y-69851570D01*
X184613486Y-69851567D01*
X184400000Y-69794364D01*
X184400000Y-70691988D01*
X184342993Y-70659075D01*
X184215826Y-70625000D01*
X184084174Y-70625000D01*
X183957007Y-70659075D01*
X183900000Y-70691988D01*
X183900000Y-69794364D01*
X183899999Y-69794364D01*
X183686513Y-69851567D01*
X183686507Y-69851570D01*
X183472422Y-69951399D01*
X183472420Y-69951400D01*
X183278926Y-70086886D01*
X183278920Y-70086891D01*
X183111891Y-70253920D01*
X183111890Y-70253922D01*
X182981575Y-70440031D01*
X182926998Y-70483655D01*
X182857499Y-70490848D01*
X182795145Y-70459326D01*
X182778425Y-70440031D01*
X182648109Y-70253922D01*
X182648108Y-70253920D01*
X182481082Y-70086894D01*
X182287578Y-69951399D01*
X182073492Y-69851570D01*
X182073486Y-69851567D01*
X181860000Y-69794364D01*
X181860000Y-70691988D01*
X181802993Y-70659075D01*
X181675826Y-70625000D01*
X181544174Y-70625000D01*
X181417007Y-70659075D01*
X181360000Y-70691988D01*
X181360000Y-69794364D01*
X181359999Y-69794364D01*
X181146513Y-69851567D01*
X181146507Y-69851570D01*
X180932422Y-69951399D01*
X180932420Y-69951400D01*
X180738926Y-70086886D01*
X180738920Y-70086891D01*
X180571891Y-70253920D01*
X180571890Y-70253922D01*
X180441575Y-70440031D01*
X180386998Y-70483655D01*
X180317499Y-70490848D01*
X180255145Y-70459326D01*
X180238425Y-70440031D01*
X180108109Y-70253922D01*
X180108108Y-70253920D01*
X179941082Y-70086894D01*
X179747578Y-69951399D01*
X179533492Y-69851570D01*
X179533486Y-69851567D01*
X179320000Y-69794364D01*
X179320000Y-70691988D01*
X179262993Y-70659075D01*
X179135826Y-70625000D01*
X179004174Y-70625000D01*
X178877007Y-70659075D01*
X178820000Y-70691988D01*
X178820000Y-69794364D01*
X178819999Y-69794364D01*
X178606513Y-69851567D01*
X178606507Y-69851570D01*
X178392422Y-69951399D01*
X178392420Y-69951400D01*
X178198926Y-70086886D01*
X178198920Y-70086891D01*
X178031891Y-70253920D01*
X178031890Y-70253922D01*
X177901575Y-70440031D01*
X177846998Y-70483655D01*
X177777499Y-70490848D01*
X177715145Y-70459326D01*
X177698425Y-70440031D01*
X177568109Y-70253922D01*
X177568108Y-70253920D01*
X177401082Y-70086894D01*
X177207578Y-69951399D01*
X176993492Y-69851570D01*
X176993486Y-69851567D01*
X176780000Y-69794364D01*
X176780000Y-70691988D01*
X176722993Y-70659075D01*
X176595826Y-70625000D01*
X176464174Y-70625000D01*
X176337007Y-70659075D01*
X176280000Y-70691988D01*
X176280000Y-69794364D01*
X176279999Y-69794364D01*
X176066513Y-69851567D01*
X176066507Y-69851570D01*
X175852422Y-69951399D01*
X175852420Y-69951400D01*
X175658926Y-70086886D01*
X175658920Y-70086891D01*
X175491891Y-70253920D01*
X175491886Y-70253926D01*
X175356400Y-70447420D01*
X175356399Y-70447422D01*
X175256570Y-70661507D01*
X175256567Y-70661513D01*
X175199364Y-70874999D01*
X175199364Y-70875000D01*
X176096988Y-70875000D01*
X176064075Y-70932007D01*
X176030000Y-71059174D01*
X176030000Y-71190826D01*
X176064075Y-71317993D01*
X176096988Y-71375000D01*
X175199364Y-71375000D01*
X175256567Y-71588486D01*
X175256570Y-71588492D01*
X175356399Y-71802578D01*
X175491894Y-71996082D01*
X175613946Y-72118134D01*
X175647431Y-72179457D01*
X175642447Y-72249149D01*
X175600575Y-72305082D01*
X175569598Y-72321997D01*
X175437671Y-72371202D01*
X175437664Y-72371206D01*
X175322455Y-72457452D01*
X175322452Y-72457455D01*
X175236206Y-72572664D01*
X175236202Y-72572671D01*
X175185908Y-72707517D01*
X175179501Y-72767116D01*
X175179500Y-72767135D01*
X175179500Y-74562870D01*
X175179501Y-74562876D01*
X175185908Y-74622483D01*
X175236202Y-74757328D01*
X175236206Y-74757335D01*
X175322452Y-74872544D01*
X175322455Y-74872547D01*
X175437664Y-74958793D01*
X175437671Y-74958797D01*
X175482618Y-74975561D01*
X175572517Y-75009091D01*
X175632127Y-75015500D01*
X175780500Y-75015499D01*
X175847539Y-75035183D01*
X175893294Y-75087987D01*
X175904500Y-75139499D01*
X175904500Y-76136312D01*
X175884815Y-76203351D01*
X175872650Y-76219284D01*
X175797466Y-76302784D01*
X175702821Y-76466715D01*
X175702818Y-76466722D01*
X175661468Y-76593986D01*
X175644326Y-76646744D01*
X175624540Y-76835000D01*
X175644326Y-77023256D01*
X175644327Y-77023259D01*
X175702818Y-77203277D01*
X175702821Y-77203284D01*
X175797467Y-77367216D01*
X175832670Y-77406312D01*
X175872650Y-77450715D01*
X175902880Y-77513706D01*
X175904500Y-77533687D01*
X175904500Y-88951351D01*
X175884815Y-89018390D01*
X175832011Y-89064145D01*
X175769011Y-89074526D01*
X175769005Y-89074661D01*
X175768385Y-89074629D01*
X175767903Y-89074709D01*
X175765869Y-89074501D01*
X175765851Y-89074500D01*
X175765848Y-89074500D01*
X174754152Y-89074500D01*
X174754144Y-89074500D01*
X174652223Y-89084913D01*
X174487077Y-89139637D01*
X174487066Y-89139642D01*
X174339000Y-89230971D01*
X174338996Y-89230974D01*
X174215974Y-89353996D01*
X174215971Y-89354000D01*
X174124642Y-89502066D01*
X174124637Y-89502077D01*
X174069913Y-89667223D01*
X174059500Y-89769144D01*
X172075500Y-89769144D01*
X172075500Y-74940226D01*
X172095185Y-74873187D01*
X172128374Y-74838654D01*
X172321401Y-74703495D01*
X172488495Y-74536401D01*
X172624035Y-74342830D01*
X172723903Y-74128663D01*
X172785063Y-73900408D01*
X172805659Y-73665000D01*
X172785063Y-73429592D01*
X172723903Y-73201337D01*
X172624035Y-72987171D01*
X172618425Y-72979158D01*
X172488494Y-72793597D01*
X172321402Y-72626506D01*
X172321401Y-72626505D01*
X172135405Y-72496269D01*
X172091781Y-72441692D01*
X172084588Y-72372193D01*
X172116110Y-72309839D01*
X172135405Y-72293119D01*
X172321082Y-72163105D01*
X172488105Y-71996082D01*
X172623600Y-71802578D01*
X172723429Y-71588492D01*
X172723432Y-71588486D01*
X172780636Y-71375000D01*
X171883012Y-71375000D01*
X171915925Y-71317993D01*
X171950000Y-71190826D01*
X171950000Y-71059174D01*
X171915925Y-70932007D01*
X171883012Y-70875000D01*
X172780636Y-70875000D01*
X172780635Y-70874999D01*
X172723432Y-70661513D01*
X172723429Y-70661507D01*
X172623600Y-70447422D01*
X172623599Y-70447420D01*
X172488113Y-70253926D01*
X172488108Y-70253920D01*
X172321082Y-70086894D01*
X172127578Y-69951399D01*
X171913492Y-69851570D01*
X171913486Y-69851567D01*
X171700000Y-69794364D01*
X171700000Y-70691988D01*
X171642993Y-70659075D01*
X171515826Y-70625000D01*
X171384174Y-70625000D01*
X171257007Y-70659075D01*
X171200000Y-70691988D01*
X171200000Y-69794364D01*
X171199999Y-69794364D01*
X170986513Y-69851567D01*
X170986507Y-69851570D01*
X170772422Y-69951399D01*
X170772420Y-69951400D01*
X170578926Y-70086886D01*
X170578920Y-70086891D01*
X170411891Y-70253920D01*
X170411890Y-70253922D01*
X170281575Y-70440031D01*
X170226998Y-70483655D01*
X170157499Y-70490848D01*
X170095145Y-70459326D01*
X170078425Y-70440031D01*
X169948109Y-70253922D01*
X169948108Y-70253920D01*
X169781082Y-70086894D01*
X169587578Y-69951399D01*
X169373492Y-69851570D01*
X169373486Y-69851567D01*
X169160000Y-69794364D01*
X169160000Y-70691988D01*
X169102993Y-70659075D01*
X168975826Y-70625000D01*
X168844174Y-70625000D01*
X168717007Y-70659075D01*
X168660000Y-70691988D01*
X168660000Y-69794364D01*
X168659999Y-69794364D01*
X168446513Y-69851567D01*
X168446507Y-69851570D01*
X168232422Y-69951399D01*
X168232420Y-69951400D01*
X168038926Y-70086886D01*
X168038920Y-70086891D01*
X167871891Y-70253920D01*
X167871890Y-70253922D01*
X167741575Y-70440031D01*
X167686998Y-70483655D01*
X167617499Y-70490848D01*
X167555145Y-70459326D01*
X167538425Y-70440031D01*
X167408109Y-70253922D01*
X167408108Y-70253920D01*
X167241082Y-70086894D01*
X167047578Y-69951399D01*
X166833492Y-69851570D01*
X166833486Y-69851567D01*
X166620000Y-69794364D01*
X166620000Y-70691988D01*
X166562993Y-70659075D01*
X166435826Y-70625000D01*
X166304174Y-70625000D01*
X166177007Y-70659075D01*
X166120000Y-70691988D01*
X166120000Y-69794364D01*
X166119999Y-69794364D01*
X165906513Y-69851567D01*
X165906507Y-69851570D01*
X165692422Y-69951399D01*
X165692420Y-69951400D01*
X165498926Y-70086886D01*
X165498920Y-70086891D01*
X165331891Y-70253920D01*
X165331890Y-70253922D01*
X165201575Y-70440031D01*
X165146998Y-70483655D01*
X165077499Y-70490848D01*
X165015145Y-70459326D01*
X164998425Y-70440031D01*
X164868109Y-70253922D01*
X164868108Y-70253920D01*
X164701082Y-70086894D01*
X164507578Y-69951399D01*
X164293492Y-69851570D01*
X164293486Y-69851567D01*
X164080000Y-69794364D01*
X164080000Y-70691988D01*
X164022993Y-70659075D01*
X163895826Y-70625000D01*
X163764174Y-70625000D01*
X163637007Y-70659075D01*
X163580000Y-70691988D01*
X163580000Y-69794364D01*
X163579999Y-69794364D01*
X163366513Y-69851567D01*
X163366507Y-69851570D01*
X163152422Y-69951399D01*
X163152420Y-69951400D01*
X162958926Y-70086886D01*
X162958920Y-70086891D01*
X162791891Y-70253920D01*
X162791890Y-70253922D01*
X162661575Y-70440031D01*
X162606998Y-70483655D01*
X162537499Y-70490848D01*
X162475145Y-70459326D01*
X162458425Y-70440031D01*
X162328109Y-70253922D01*
X162328108Y-70253920D01*
X162161082Y-70086894D01*
X161967578Y-69951399D01*
X161753492Y-69851570D01*
X161753486Y-69851567D01*
X161540000Y-69794364D01*
X161540000Y-70691988D01*
X161482993Y-70659075D01*
X161355826Y-70625000D01*
X161224174Y-70625000D01*
X161097007Y-70659075D01*
X161040000Y-70691988D01*
X161040000Y-69794364D01*
X161039999Y-69794364D01*
X160826513Y-69851567D01*
X160826507Y-69851570D01*
X160612422Y-69951399D01*
X160612420Y-69951400D01*
X160418926Y-70086886D01*
X160418920Y-70086891D01*
X160251891Y-70253920D01*
X160251890Y-70253922D01*
X160121575Y-70440031D01*
X160066998Y-70483655D01*
X159997499Y-70490848D01*
X159935145Y-70459326D01*
X159918425Y-70440031D01*
X159788109Y-70253922D01*
X159788108Y-70253920D01*
X159621082Y-70086894D01*
X159427578Y-69951399D01*
X159213492Y-69851570D01*
X159213486Y-69851567D01*
X159000000Y-69794364D01*
X159000000Y-70691988D01*
X158942993Y-70659075D01*
X158815826Y-70625000D01*
X158684174Y-70625000D01*
X158557007Y-70659075D01*
X158500000Y-70691988D01*
X158500000Y-69794364D01*
X158499999Y-69794364D01*
X158286513Y-69851567D01*
X158286507Y-69851570D01*
X158072422Y-69951399D01*
X158072420Y-69951400D01*
X157878926Y-70086886D01*
X157878920Y-70086891D01*
X157711891Y-70253920D01*
X157711886Y-70253926D01*
X157576400Y-70447420D01*
X157576399Y-70447422D01*
X157476570Y-70661507D01*
X157476567Y-70661513D01*
X157419364Y-70874999D01*
X157419364Y-70875000D01*
X158316988Y-70875000D01*
X158284075Y-70932007D01*
X158250000Y-71059174D01*
X158250000Y-71190826D01*
X158284075Y-71317993D01*
X158316988Y-71375000D01*
X157419364Y-71375000D01*
X157476567Y-71588486D01*
X157476570Y-71588492D01*
X157576399Y-71802578D01*
X157711894Y-71996082D01*
X157833946Y-72118134D01*
X157867431Y-72179457D01*
X157862447Y-72249149D01*
X157820575Y-72305082D01*
X157789598Y-72321997D01*
X157657671Y-72371202D01*
X157657664Y-72371206D01*
X157542455Y-72457452D01*
X157542452Y-72457455D01*
X157456206Y-72572664D01*
X157456202Y-72572671D01*
X157405908Y-72707517D01*
X157399501Y-72767116D01*
X157399500Y-72767135D01*
X157399500Y-74562870D01*
X157399501Y-74562876D01*
X157405908Y-74622483D01*
X157456202Y-74757328D01*
X157456206Y-74757335D01*
X157542452Y-74872544D01*
X157542455Y-74872547D01*
X157657664Y-74958793D01*
X157657671Y-74958797D01*
X157702618Y-74975561D01*
X157792517Y-75009091D01*
X157852127Y-75015500D01*
X158000500Y-75015499D01*
X158067539Y-75035183D01*
X158113294Y-75087987D01*
X158124500Y-75139499D01*
X158124500Y-88951351D01*
X158104815Y-89018390D01*
X158052011Y-89064145D01*
X157989011Y-89074526D01*
X157989005Y-89074661D01*
X157988385Y-89074629D01*
X157987903Y-89074709D01*
X157985869Y-89074501D01*
X157985851Y-89074500D01*
X157985848Y-89074500D01*
X156974152Y-89074500D01*
X156974144Y-89074500D01*
X156872223Y-89084913D01*
X156707077Y-89139637D01*
X156707066Y-89139642D01*
X156559000Y-89230971D01*
X156558996Y-89230974D01*
X156435974Y-89353996D01*
X156435971Y-89354000D01*
X156344642Y-89502066D01*
X156344637Y-89502077D01*
X156289913Y-89667223D01*
X156279500Y-89769144D01*
X154025000Y-89769144D01*
X154025000Y-89684174D01*
X153990925Y-89557007D01*
X153958012Y-89500000D01*
X154875000Y-89500000D01*
X154875000Y-88852172D01*
X154874999Y-88852155D01*
X154868598Y-88792627D01*
X154868596Y-88792620D01*
X154818354Y-88657913D01*
X154818350Y-88657906D01*
X154732190Y-88542812D01*
X154732187Y-88542809D01*
X154617093Y-88456649D01*
X154617086Y-88456645D01*
X154482379Y-88406403D01*
X154482372Y-88406401D01*
X154422844Y-88400000D01*
X153775000Y-88400000D01*
X153775000Y-89316988D01*
X153717993Y-89284075D01*
X153590826Y-89250000D01*
X153459174Y-89250000D01*
X153332007Y-89284075D01*
X153275000Y-89316988D01*
X153275000Y-88400000D01*
X152627155Y-88400000D01*
X152567627Y-88406401D01*
X152567620Y-88406403D01*
X152432913Y-88456645D01*
X152432906Y-88456649D01*
X152317812Y-88542809D01*
X152317809Y-88542812D01*
X152231649Y-88657906D01*
X152231645Y-88657913D01*
X152181403Y-88792620D01*
X152181401Y-88792627D01*
X152175000Y-88852155D01*
X152175000Y-89500000D01*
X153091988Y-89500000D01*
X153059075Y-89557007D01*
X153025000Y-89684174D01*
X153025000Y-89815826D01*
X153059075Y-89942993D01*
X153091988Y-90000000D01*
X152175000Y-90000000D01*
X152175000Y-90647844D01*
X152181401Y-90707372D01*
X152181403Y-90707379D01*
X152231645Y-90842086D01*
X152231649Y-90842093D01*
X152317809Y-90957187D01*
X152317812Y-90957190D01*
X152432906Y-91043350D01*
X152432913Y-91043354D01*
X152442200Y-91046818D01*
X152498134Y-91088689D01*
X152522551Y-91154153D01*
X152507699Y-91222426D01*
X152458294Y-91271832D01*
X152398867Y-91287000D01*
X151677088Y-91287000D01*
X151610049Y-91267315D01*
X151571549Y-91228097D01*
X151542712Y-91181344D01*
X151448695Y-91087327D01*
X151415210Y-91026004D01*
X151420194Y-90956312D01*
X151448695Y-90911964D01*
X151542317Y-90818342D01*
X151634356Y-90669124D01*
X151634358Y-90669119D01*
X151689505Y-90502697D01*
X151689506Y-90502690D01*
X151699999Y-90399986D01*
X151700000Y-90399973D01*
X151700000Y-90337500D01*
X149300001Y-90337500D01*
X149300001Y-90399986D01*
X149310494Y-90502697D01*
X149365641Y-90669119D01*
X149365643Y-90669124D01*
X149457684Y-90818345D01*
X149551304Y-90911965D01*
X149584789Y-90973288D01*
X149579805Y-91042980D01*
X149551305Y-91087327D01*
X149457287Y-91181345D01*
X149365187Y-91330663D01*
X149365185Y-91330668D01*
X149349807Y-91377077D01*
X149310001Y-91497203D01*
X149310001Y-91497204D01*
X149310000Y-91497204D01*
X149299500Y-91599983D01*
X140275500Y-91599983D01*
X140275500Y-91585932D01*
X140275499Y-91180933D01*
X140295183Y-91113896D01*
X140347987Y-91068141D01*
X140417146Y-91058197D01*
X140480702Y-91087222D01*
X140505037Y-91115836D01*
X140562288Y-91208656D01*
X140686344Y-91332712D01*
X140835666Y-91424814D01*
X141002203Y-91479999D01*
X141104991Y-91490500D01*
X142105008Y-91490499D01*
X142105016Y-91490498D01*
X142105019Y-91490498D01*
X142161302Y-91484748D01*
X142207797Y-91479999D01*
X142374334Y-91424814D01*
X142523656Y-91332712D01*
X142647712Y-91208656D01*
X142739814Y-91059334D01*
X142794999Y-90892797D01*
X142805500Y-90790009D01*
X142805499Y-90164992D01*
X142802103Y-90131751D01*
X142794999Y-90062203D01*
X142794998Y-90062200D01*
X142758024Y-89950621D01*
X142739814Y-89895666D01*
X142665395Y-89775013D01*
X149300000Y-89775013D01*
X149300000Y-89837500D01*
X150250000Y-89837500D01*
X150750000Y-89837500D01*
X151699999Y-89837500D01*
X151699999Y-89775028D01*
X151699998Y-89775013D01*
X151689505Y-89672302D01*
X151634358Y-89505880D01*
X151634356Y-89505875D01*
X151542315Y-89356654D01*
X151418345Y-89232684D01*
X151269124Y-89140643D01*
X151269119Y-89140641D01*
X151102697Y-89085494D01*
X151102690Y-89085493D01*
X150999986Y-89075000D01*
X150750000Y-89075000D01*
X150750000Y-89837500D01*
X150250000Y-89837500D01*
X150250000Y-89075000D01*
X150000029Y-89075000D01*
X150000012Y-89075001D01*
X149897302Y-89085494D01*
X149730880Y-89140641D01*
X149730875Y-89140643D01*
X149581654Y-89232684D01*
X149457684Y-89356654D01*
X149365643Y-89505875D01*
X149365641Y-89505880D01*
X149310494Y-89672302D01*
X149310493Y-89672309D01*
X149300000Y-89775013D01*
X142665395Y-89775013D01*
X142647712Y-89746344D01*
X142554049Y-89652681D01*
X142520564Y-89591358D01*
X142525548Y-89521666D01*
X142554049Y-89477319D01*
X142599773Y-89431595D01*
X142647712Y-89383656D01*
X142739814Y-89234334D01*
X142794999Y-89067797D01*
X142805500Y-88965009D01*
X142805499Y-88339992D01*
X142804360Y-88328846D01*
X142794999Y-88237203D01*
X142794998Y-88237200D01*
X142781904Y-88197685D01*
X142739814Y-88070666D01*
X142647712Y-87921344D01*
X142523656Y-87797288D01*
X142374334Y-87705186D01*
X142207797Y-87650001D01*
X142207795Y-87650000D01*
X142105010Y-87639500D01*
X141104998Y-87639500D01*
X141104980Y-87639501D01*
X141002203Y-87650000D01*
X141002200Y-87650001D01*
X140835668Y-87705185D01*
X140835663Y-87705187D01*
X140686342Y-87797289D01*
X140567951Y-87915681D01*
X140506628Y-87949166D01*
X140480270Y-87952000D01*
X140272588Y-87952000D01*
X140205549Y-87932315D01*
X140159794Y-87879511D01*
X140149649Y-87844183D01*
X140135045Y-87733246D01*
X140135044Y-87733238D01*
X140074536Y-87587159D01*
X139978282Y-87461718D01*
X139852841Y-87365464D01*
X139839688Y-87360016D01*
X139706762Y-87304956D01*
X139706760Y-87304955D01*
X139589361Y-87289500D01*
X139310636Y-87289500D01*
X139193246Y-87304953D01*
X139193234Y-87304957D01*
X139172450Y-87313566D01*
X139102981Y-87321033D01*
X139077550Y-87313566D01*
X139056765Y-87304957D01*
X139056760Y-87304955D01*
X138939370Y-87289501D01*
X138939367Y-87289500D01*
X138939361Y-87289500D01*
X138939354Y-87289500D01*
X138899500Y-87289500D01*
X138832461Y-87269815D01*
X138786706Y-87217011D01*
X138775500Y-87165500D01*
X138775500Y-84113393D01*
X138775499Y-84113389D01*
X138770195Y-84086722D01*
X138751463Y-83992548D01*
X138704311Y-83878714D01*
X138704310Y-83878713D01*
X138704307Y-83878707D01*
X138635859Y-83776268D01*
X138592590Y-83732999D01*
X138548733Y-83689142D01*
X138548732Y-83689141D01*
X132572927Y-77713337D01*
X132572925Y-77713334D01*
X132572925Y-77713335D01*
X132565858Y-77706268D01*
X132565858Y-77706267D01*
X132478733Y-77619142D01*
X132418743Y-77579058D01*
X132418744Y-77579058D01*
X132418742Y-77579056D01*
X132376290Y-77550690D01*
X132376286Y-77550688D01*
X132295792Y-77517347D01*
X132262452Y-77503537D01*
X132262448Y-77503536D01*
X132262444Y-77503535D01*
X132189859Y-77489097D01*
X132189858Y-77489097D01*
X132141611Y-77479500D01*
X132141607Y-77479500D01*
X132141606Y-77479500D01*
X118813748Y-77479500D01*
X118746709Y-77459815D01*
X118721600Y-77438474D01*
X118715873Y-77432114D01*
X118715869Y-77432110D01*
X118562734Y-77320851D01*
X118562729Y-77320848D01*
X118389807Y-77243857D01*
X118389802Y-77243855D01*
X118233090Y-77210546D01*
X118204646Y-77204500D01*
X118015354Y-77204500D01*
X117986910Y-77210546D01*
X117830197Y-77243855D01*
X117830192Y-77243857D01*
X117657270Y-77320848D01*
X117657265Y-77320851D01*
X117504129Y-77432111D01*
X117377466Y-77572785D01*
X117282821Y-77736715D01*
X117282818Y-77736722D01*
X117224327Y-77916740D01*
X117224326Y-77916744D01*
X117204540Y-78105000D01*
X113500500Y-78105000D01*
X113500500Y-75423373D01*
X113500501Y-75423360D01*
X113500501Y-75255259D01*
X113500501Y-75255257D01*
X113459577Y-75102529D01*
X113412309Y-75020659D01*
X113380520Y-74965598D01*
X113268716Y-74853794D01*
X113268715Y-74853793D01*
X113264385Y-74849463D01*
X113264374Y-74849453D01*
X111182056Y-72767135D01*
X116759500Y-72767135D01*
X116759500Y-74562870D01*
X116759501Y-74562876D01*
X116765908Y-74622483D01*
X116816202Y-74757328D01*
X116816206Y-74757335D01*
X116902452Y-74872544D01*
X116902455Y-74872547D01*
X117017664Y-74958793D01*
X117017671Y-74958797D01*
X117152517Y-75009091D01*
X117152516Y-75009091D01*
X117159444Y-75009835D01*
X117212127Y-75015500D01*
X119007872Y-75015499D01*
X119067483Y-75009091D01*
X119202331Y-74958796D01*
X119317546Y-74872546D01*
X119403796Y-74757331D01*
X119452810Y-74625916D01*
X119494681Y-74569984D01*
X119560145Y-74545566D01*
X119628418Y-74560417D01*
X119656673Y-74581569D01*
X119778599Y-74703495D01*
X119875384Y-74771265D01*
X119972165Y-74839032D01*
X119972167Y-74839033D01*
X119972170Y-74839035D01*
X120186337Y-74938903D01*
X120186343Y-74938904D01*
X120186344Y-74938905D01*
X120241285Y-74953626D01*
X120414592Y-75000063D01*
X120591034Y-75015500D01*
X120649999Y-75020659D01*
X120650000Y-75020659D01*
X120650001Y-75020659D01*
X120708966Y-75015500D01*
X120885408Y-75000063D01*
X121113663Y-74938903D01*
X121327830Y-74839035D01*
X121521401Y-74703495D01*
X121688495Y-74536401D01*
X121818425Y-74350842D01*
X121873002Y-74307217D01*
X121942500Y-74300023D01*
X122004855Y-74331546D01*
X122021575Y-74350842D01*
X122151500Y-74536395D01*
X122151505Y-74536401D01*
X122318599Y-74703495D01*
X122415384Y-74771265D01*
X122512165Y-74839032D01*
X122512167Y-74839033D01*
X122512170Y-74839035D01*
X122726337Y-74938903D01*
X122726343Y-74938904D01*
X122726344Y-74938905D01*
X122781285Y-74953626D01*
X122954592Y-75000063D01*
X123131034Y-75015500D01*
X123189999Y-75020659D01*
X123190000Y-75020659D01*
X123190001Y-75020659D01*
X123248966Y-75015500D01*
X123425408Y-75000063D01*
X123653663Y-74938903D01*
X123867830Y-74839035D01*
X124061401Y-74703495D01*
X124228495Y-74536401D01*
X124358425Y-74350842D01*
X124413002Y-74307217D01*
X124482500Y-74300023D01*
X124544855Y-74331546D01*
X124561575Y-74350842D01*
X124691500Y-74536395D01*
X124691505Y-74536401D01*
X124858599Y-74703495D01*
X124955384Y-74771265D01*
X125052165Y-74839032D01*
X125052167Y-74839033D01*
X125052170Y-74839035D01*
X125266337Y-74938903D01*
X125266343Y-74938904D01*
X125266344Y-74938905D01*
X125321285Y-74953626D01*
X125494592Y-75000063D01*
X125671034Y-75015500D01*
X125729999Y-75020659D01*
X125730000Y-75020659D01*
X125730001Y-75020659D01*
X125788966Y-75015500D01*
X125965408Y-75000063D01*
X126193663Y-74938903D01*
X126407830Y-74839035D01*
X126601401Y-74703495D01*
X126768495Y-74536401D01*
X126898425Y-74350842D01*
X126953002Y-74307217D01*
X127022500Y-74300023D01*
X127084855Y-74331546D01*
X127101575Y-74350842D01*
X127231500Y-74536395D01*
X127231505Y-74536401D01*
X127398599Y-74703495D01*
X127495384Y-74771265D01*
X127592165Y-74839032D01*
X127592167Y-74839033D01*
X127592170Y-74839035D01*
X127806337Y-74938903D01*
X127806343Y-74938904D01*
X127806344Y-74938905D01*
X127861285Y-74953626D01*
X128034592Y-75000063D01*
X128211034Y-75015500D01*
X128269999Y-75020659D01*
X128270000Y-75020659D01*
X128270001Y-75020659D01*
X128328966Y-75015500D01*
X128505408Y-75000063D01*
X128733663Y-74938903D01*
X128947830Y-74839035D01*
X129141401Y-74703495D01*
X129308495Y-74536401D01*
X129438425Y-74350842D01*
X129493002Y-74307217D01*
X129562500Y-74300023D01*
X129624855Y-74331546D01*
X129641575Y-74350842D01*
X129771500Y-74536395D01*
X129771505Y-74536401D01*
X129938599Y-74703495D01*
X130035384Y-74771265D01*
X130132165Y-74839032D01*
X130132167Y-74839033D01*
X130132170Y-74839035D01*
X130346337Y-74938903D01*
X130346343Y-74938904D01*
X130346344Y-74938905D01*
X130401285Y-74953626D01*
X130574592Y-75000063D01*
X130751034Y-75015500D01*
X130809999Y-75020659D01*
X130810000Y-75020659D01*
X130810001Y-75020659D01*
X130868966Y-75015500D01*
X131045408Y-75000063D01*
X131273663Y-74938903D01*
X131487830Y-74839035D01*
X131681401Y-74703495D01*
X131848495Y-74536401D01*
X131984035Y-74342830D01*
X132083903Y-74128663D01*
X132145063Y-73900408D01*
X132165659Y-73665000D01*
X132145063Y-73429592D01*
X132083903Y-73201337D01*
X131984035Y-72987171D01*
X131978425Y-72979158D01*
X131848494Y-72793597D01*
X131822032Y-72767135D01*
X134539500Y-72767135D01*
X134539500Y-74562870D01*
X134539501Y-74562876D01*
X134545908Y-74622483D01*
X134596202Y-74757328D01*
X134596206Y-74757335D01*
X134682452Y-74872544D01*
X134682455Y-74872547D01*
X134797664Y-74958793D01*
X134797671Y-74958797D01*
X134842618Y-74975561D01*
X134932517Y-75009091D01*
X134992127Y-75015500D01*
X135140500Y-75015499D01*
X135207539Y-75035183D01*
X135253294Y-75087987D01*
X135264500Y-75139499D01*
X135264500Y-76136312D01*
X135244815Y-76203351D01*
X135232650Y-76219284D01*
X135157466Y-76302784D01*
X135062821Y-76466715D01*
X135062818Y-76466722D01*
X135021468Y-76593986D01*
X135004326Y-76646744D01*
X134984540Y-76835000D01*
X135004326Y-77023256D01*
X135004327Y-77023259D01*
X135062818Y-77203277D01*
X135062821Y-77203284D01*
X135157467Y-77367216D01*
X135267210Y-77489098D01*
X135284129Y-77507888D01*
X135437265Y-77619148D01*
X135437270Y-77619151D01*
X135610192Y-77696142D01*
X135610197Y-77696144D01*
X135795354Y-77735500D01*
X135795355Y-77735500D01*
X135984644Y-77735500D01*
X135984646Y-77735500D01*
X136169803Y-77696144D01*
X136342730Y-77619151D01*
X136495871Y-77507888D01*
X136622533Y-77367216D01*
X136717179Y-77203284D01*
X136775674Y-77023256D01*
X136795460Y-76835000D01*
X136775674Y-76646744D01*
X136717179Y-76466716D01*
X136622533Y-76302784D01*
X136547350Y-76219284D01*
X136517120Y-76156292D01*
X136515500Y-76136312D01*
X136515500Y-75139499D01*
X136535185Y-75072460D01*
X136587989Y-75026705D01*
X136639500Y-75015499D01*
X136787871Y-75015499D01*
X136787872Y-75015499D01*
X136847483Y-75009091D01*
X136982331Y-74958796D01*
X137097546Y-74872546D01*
X137183796Y-74757331D01*
X137232810Y-74625916D01*
X137274681Y-74569984D01*
X137340145Y-74545566D01*
X137408418Y-74560417D01*
X137436673Y-74581569D01*
X137558599Y-74703495D01*
X137751624Y-74838653D01*
X137795248Y-74893228D01*
X137804500Y-74940226D01*
X137804500Y-77406312D01*
X137784815Y-77473351D01*
X137772650Y-77489284D01*
X137697466Y-77572784D01*
X137602821Y-77736715D01*
X137602818Y-77736722D01*
X137544327Y-77916740D01*
X137544326Y-77916744D01*
X137524540Y-78105000D01*
X137544326Y-78293256D01*
X137544327Y-78293259D01*
X137602818Y-78473277D01*
X137602821Y-78473284D01*
X137697467Y-78637216D01*
X137786996Y-78736648D01*
X137824129Y-78777888D01*
X137977265Y-78889148D01*
X137977270Y-78889151D01*
X138150192Y-78966142D01*
X138150197Y-78966144D01*
X138335354Y-79005500D01*
X138335355Y-79005500D01*
X138524644Y-79005500D01*
X138524646Y-79005500D01*
X138709803Y-78966144D01*
X138882730Y-78889151D01*
X139035871Y-78777888D01*
X139162533Y-78637216D01*
X139257179Y-78473284D01*
X139315674Y-78293256D01*
X139335460Y-78105000D01*
X139315674Y-77916744D01*
X139257179Y-77736716D01*
X139162533Y-77572784D01*
X139154781Y-77564175D01*
X139087350Y-77489284D01*
X139057120Y-77426292D01*
X139055500Y-77406312D01*
X139055500Y-74940226D01*
X139075185Y-74873187D01*
X139108374Y-74838654D01*
X139301401Y-74703495D01*
X139468495Y-74536401D01*
X139598425Y-74350842D01*
X139653002Y-74307217D01*
X139722500Y-74300023D01*
X139784855Y-74331546D01*
X139801575Y-74350842D01*
X139931500Y-74536395D01*
X139931505Y-74536401D01*
X140098599Y-74703495D01*
X140291624Y-74838653D01*
X140335248Y-74893228D01*
X140344500Y-74940226D01*
X140344500Y-78676312D01*
X140324815Y-78743351D01*
X140312650Y-78759284D01*
X140237466Y-78842784D01*
X140142821Y-79006715D01*
X140142818Y-79006722D01*
X140084327Y-79186740D01*
X140084326Y-79186744D01*
X140064540Y-79375000D01*
X140084326Y-79563256D01*
X140084327Y-79563259D01*
X140142818Y-79743277D01*
X140142821Y-79743284D01*
X140237467Y-79907216D01*
X140326996Y-80006648D01*
X140364129Y-80047888D01*
X140517265Y-80159148D01*
X140517270Y-80159151D01*
X140690192Y-80236142D01*
X140690197Y-80236144D01*
X140875354Y-80275500D01*
X140875355Y-80275500D01*
X141064644Y-80275500D01*
X141064646Y-80275500D01*
X141249803Y-80236144D01*
X141422730Y-80159151D01*
X141575871Y-80047888D01*
X141702533Y-79907216D01*
X141797179Y-79743284D01*
X141855674Y-79563256D01*
X141875460Y-79375000D01*
X141855674Y-79186744D01*
X141797179Y-79006716D01*
X141702533Y-78842784D01*
X141667330Y-78803687D01*
X141627350Y-78759284D01*
X141597120Y-78696292D01*
X141595500Y-78676312D01*
X141595500Y-74940226D01*
X141615185Y-74873187D01*
X141648374Y-74838654D01*
X141841401Y-74703495D01*
X142008495Y-74536401D01*
X142138425Y-74350842D01*
X142193002Y-74307217D01*
X142262500Y-74300023D01*
X142324855Y-74331546D01*
X142341575Y-74350842D01*
X142471500Y-74536395D01*
X142471505Y-74536401D01*
X142638599Y-74703495D01*
X142831624Y-74838653D01*
X142875248Y-74893228D01*
X142884500Y-74940226D01*
X142884500Y-79946312D01*
X142864815Y-80013351D01*
X142852650Y-80029284D01*
X142777466Y-80112784D01*
X142682821Y-80276715D01*
X142682818Y-80276722D01*
X142624327Y-80456740D01*
X142624326Y-80456744D01*
X142604540Y-80645000D01*
X142624326Y-80833256D01*
X142624327Y-80833259D01*
X142682818Y-81013277D01*
X142682821Y-81013284D01*
X142777467Y-81177216D01*
X142866996Y-81276648D01*
X142904129Y-81317888D01*
X143057265Y-81429148D01*
X143057270Y-81429151D01*
X143230192Y-81506142D01*
X143230197Y-81506144D01*
X143415354Y-81545500D01*
X143415355Y-81545500D01*
X143604644Y-81545500D01*
X143604646Y-81545500D01*
X143789803Y-81506144D01*
X143962730Y-81429151D01*
X144115871Y-81317888D01*
X144242533Y-81177216D01*
X144337179Y-81013284D01*
X144395674Y-80833256D01*
X144415460Y-80645000D01*
X144395674Y-80456744D01*
X144337179Y-80276716D01*
X144242533Y-80112784D01*
X144207330Y-80073687D01*
X144167350Y-80029284D01*
X144137120Y-79966292D01*
X144135500Y-79946312D01*
X144135500Y-74940226D01*
X144155185Y-74873187D01*
X144188374Y-74838654D01*
X144381401Y-74703495D01*
X144548495Y-74536401D01*
X144678425Y-74350842D01*
X144733002Y-74307217D01*
X144802500Y-74300023D01*
X144864855Y-74331546D01*
X144881575Y-74350842D01*
X145011500Y-74536395D01*
X145011505Y-74536401D01*
X145178599Y-74703495D01*
X145371624Y-74838653D01*
X145415248Y-74893228D01*
X145424500Y-74940226D01*
X145424500Y-81216312D01*
X145404815Y-81283351D01*
X145392650Y-81299284D01*
X145317466Y-81382784D01*
X145222821Y-81546715D01*
X145222818Y-81546722D01*
X145178704Y-81682492D01*
X145164326Y-81726744D01*
X145144540Y-81915000D01*
X145164326Y-82103256D01*
X145164327Y-82103259D01*
X145222818Y-82283277D01*
X145222821Y-82283284D01*
X145317467Y-82447216D01*
X145406996Y-82546648D01*
X145444129Y-82587888D01*
X145597265Y-82699148D01*
X145597270Y-82699151D01*
X145770192Y-82776142D01*
X145770197Y-82776144D01*
X145955354Y-82815500D01*
X145955355Y-82815500D01*
X146144644Y-82815500D01*
X146144646Y-82815500D01*
X146329803Y-82776144D01*
X146502730Y-82699151D01*
X146655871Y-82587888D01*
X146782533Y-82447216D01*
X146877179Y-82283284D01*
X146935674Y-82103256D01*
X146955460Y-81915000D01*
X146935674Y-81726744D01*
X146877179Y-81546716D01*
X146782533Y-81382784D01*
X146747330Y-81343687D01*
X146707350Y-81299284D01*
X146677120Y-81236292D01*
X146675500Y-81216312D01*
X146675500Y-74940226D01*
X146695185Y-74873187D01*
X146728374Y-74838654D01*
X146921401Y-74703495D01*
X147088495Y-74536401D01*
X147218425Y-74350842D01*
X147273002Y-74307217D01*
X147342500Y-74300023D01*
X147404855Y-74331546D01*
X147421575Y-74350842D01*
X147551500Y-74536395D01*
X147551505Y-74536401D01*
X147718599Y-74703495D01*
X147911624Y-74838653D01*
X147955248Y-74893228D01*
X147964500Y-74940226D01*
X147964500Y-82486312D01*
X147944815Y-82553351D01*
X147932650Y-82569284D01*
X147857466Y-82652784D01*
X147762821Y-82816715D01*
X147762818Y-82816722D01*
X147704327Y-82996740D01*
X147704326Y-82996744D01*
X147684540Y-83185000D01*
X147704326Y-83373256D01*
X147704327Y-83373259D01*
X147762818Y-83553277D01*
X147762821Y-83553284D01*
X147857467Y-83717216D01*
X147971817Y-83844214D01*
X147984129Y-83857888D01*
X148137265Y-83969148D01*
X148137270Y-83969151D01*
X148310192Y-84046142D01*
X148310197Y-84046144D01*
X148495354Y-84085500D01*
X148495355Y-84085500D01*
X148684644Y-84085500D01*
X148684646Y-84085500D01*
X148869803Y-84046144D01*
X149042730Y-83969151D01*
X149195871Y-83857888D01*
X149322533Y-83717216D01*
X149417179Y-83553284D01*
X149475674Y-83373256D01*
X149495460Y-83185000D01*
X149475674Y-82996744D01*
X149417179Y-82816716D01*
X149322533Y-82652784D01*
X149287330Y-82613687D01*
X149247350Y-82569284D01*
X149217120Y-82506292D01*
X149215500Y-82486312D01*
X149215500Y-74940226D01*
X149235185Y-74873187D01*
X149268374Y-74838654D01*
X149461401Y-74703495D01*
X149628495Y-74536401D01*
X149764035Y-74342830D01*
X149863903Y-74128663D01*
X149925063Y-73900408D01*
X149945659Y-73665000D01*
X149925063Y-73429592D01*
X149863903Y-73201337D01*
X149764035Y-72987171D01*
X149758425Y-72979158D01*
X149628494Y-72793597D01*
X149461402Y-72626506D01*
X149461401Y-72626505D01*
X149275405Y-72496269D01*
X149231781Y-72441692D01*
X149224588Y-72372193D01*
X149256110Y-72309839D01*
X149275405Y-72293119D01*
X149461082Y-72163105D01*
X149628105Y-71996082D01*
X149763600Y-71802578D01*
X149863429Y-71588492D01*
X149863432Y-71588486D01*
X149920636Y-71375000D01*
X149023012Y-71375000D01*
X149055925Y-71317993D01*
X149090000Y-71190826D01*
X149090000Y-71059174D01*
X149055925Y-70932007D01*
X149023012Y-70875000D01*
X149920636Y-70875000D01*
X149920635Y-70874999D01*
X149863432Y-70661513D01*
X149863429Y-70661507D01*
X149763600Y-70447422D01*
X149763599Y-70447420D01*
X149628113Y-70253926D01*
X149628108Y-70253920D01*
X149461082Y-70086894D01*
X149267578Y-69951399D01*
X149053492Y-69851570D01*
X149053486Y-69851567D01*
X148840000Y-69794364D01*
X148840000Y-70691988D01*
X148782993Y-70659075D01*
X148655826Y-70625000D01*
X148524174Y-70625000D01*
X148397007Y-70659075D01*
X148340000Y-70691988D01*
X148340000Y-69794364D01*
X148339999Y-69794364D01*
X148126513Y-69851567D01*
X148126507Y-69851570D01*
X147912422Y-69951399D01*
X147912420Y-69951400D01*
X147718926Y-70086886D01*
X147718920Y-70086891D01*
X147551891Y-70253920D01*
X147551890Y-70253922D01*
X147421575Y-70440031D01*
X147366998Y-70483655D01*
X147297499Y-70490848D01*
X147235145Y-70459326D01*
X147218425Y-70440031D01*
X147088109Y-70253922D01*
X147088108Y-70253920D01*
X146921082Y-70086894D01*
X146727578Y-69951399D01*
X146513492Y-69851570D01*
X146513486Y-69851567D01*
X146300000Y-69794364D01*
X146300000Y-70691988D01*
X146242993Y-70659075D01*
X146115826Y-70625000D01*
X145984174Y-70625000D01*
X145857007Y-70659075D01*
X145800000Y-70691988D01*
X145800000Y-69794364D01*
X145799999Y-69794364D01*
X145586513Y-69851567D01*
X145586507Y-69851570D01*
X145372422Y-69951399D01*
X145372420Y-69951400D01*
X145178926Y-70086886D01*
X145178920Y-70086891D01*
X145011891Y-70253920D01*
X145011890Y-70253922D01*
X144881575Y-70440031D01*
X144826998Y-70483655D01*
X144757499Y-70490848D01*
X144695145Y-70459326D01*
X144678425Y-70440031D01*
X144548109Y-70253922D01*
X144548108Y-70253920D01*
X144381082Y-70086894D01*
X144187578Y-69951399D01*
X143973492Y-69851570D01*
X143973486Y-69851567D01*
X143760000Y-69794364D01*
X143760000Y-70691988D01*
X143702993Y-70659075D01*
X143575826Y-70625000D01*
X143444174Y-70625000D01*
X143317007Y-70659075D01*
X143260000Y-70691988D01*
X143260000Y-69794364D01*
X143259999Y-69794364D01*
X143046513Y-69851567D01*
X143046507Y-69851570D01*
X142832422Y-69951399D01*
X142832420Y-69951400D01*
X142638926Y-70086886D01*
X142638920Y-70086891D01*
X142471891Y-70253920D01*
X142471890Y-70253922D01*
X142341575Y-70440031D01*
X142286998Y-70483655D01*
X142217499Y-70490848D01*
X142155145Y-70459326D01*
X142138425Y-70440031D01*
X142008109Y-70253922D01*
X142008108Y-70253920D01*
X141841082Y-70086894D01*
X141647578Y-69951399D01*
X141433492Y-69851570D01*
X141433486Y-69851567D01*
X141220000Y-69794364D01*
X141220000Y-70691988D01*
X141162993Y-70659075D01*
X141035826Y-70625000D01*
X140904174Y-70625000D01*
X140777007Y-70659075D01*
X140720000Y-70691988D01*
X140720000Y-69794364D01*
X140719999Y-69794364D01*
X140506513Y-69851567D01*
X140506507Y-69851570D01*
X140292422Y-69951399D01*
X140292420Y-69951400D01*
X140098926Y-70086886D01*
X140098920Y-70086891D01*
X139931891Y-70253920D01*
X139931890Y-70253922D01*
X139801575Y-70440031D01*
X139746998Y-70483655D01*
X139677499Y-70490848D01*
X139615145Y-70459326D01*
X139598425Y-70440031D01*
X139468109Y-70253922D01*
X139468108Y-70253920D01*
X139301082Y-70086894D01*
X139107578Y-69951399D01*
X138893492Y-69851570D01*
X138893486Y-69851567D01*
X138680000Y-69794364D01*
X138680000Y-70691988D01*
X138622993Y-70659075D01*
X138495826Y-70625000D01*
X138364174Y-70625000D01*
X138237007Y-70659075D01*
X138180000Y-70691988D01*
X138180000Y-69794364D01*
X138179999Y-69794364D01*
X137966513Y-69851567D01*
X137966507Y-69851570D01*
X137752422Y-69951399D01*
X137752420Y-69951400D01*
X137558926Y-70086886D01*
X137558920Y-70086891D01*
X137391891Y-70253920D01*
X137391890Y-70253922D01*
X137261575Y-70440031D01*
X137206998Y-70483655D01*
X137137499Y-70490848D01*
X137075145Y-70459326D01*
X137058425Y-70440031D01*
X136928109Y-70253922D01*
X136928108Y-70253920D01*
X136761082Y-70086894D01*
X136567578Y-69951399D01*
X136353492Y-69851570D01*
X136353486Y-69851567D01*
X136140000Y-69794364D01*
X136140000Y-70691988D01*
X136082993Y-70659075D01*
X135955826Y-70625000D01*
X135824174Y-70625000D01*
X135697007Y-70659075D01*
X135640000Y-70691988D01*
X135640000Y-69794364D01*
X135639999Y-69794364D01*
X135426513Y-69851567D01*
X135426507Y-69851570D01*
X135212422Y-69951399D01*
X135212420Y-69951400D01*
X135018926Y-70086886D01*
X135018920Y-70086891D01*
X134851891Y-70253920D01*
X134851886Y-70253926D01*
X134716400Y-70447420D01*
X134716399Y-70447422D01*
X134616570Y-70661507D01*
X134616567Y-70661513D01*
X134559364Y-70874999D01*
X134559364Y-70875000D01*
X135456988Y-70875000D01*
X135424075Y-70932007D01*
X135390000Y-71059174D01*
X135390000Y-71190826D01*
X135424075Y-71317993D01*
X135456988Y-71375000D01*
X134559364Y-71375000D01*
X134616567Y-71588486D01*
X134616570Y-71588492D01*
X134716399Y-71802578D01*
X134851894Y-71996082D01*
X134973946Y-72118134D01*
X135007431Y-72179457D01*
X135002447Y-72249149D01*
X134960575Y-72305082D01*
X134929598Y-72321997D01*
X134797671Y-72371202D01*
X134797664Y-72371206D01*
X134682455Y-72457452D01*
X134682452Y-72457455D01*
X134596206Y-72572664D01*
X134596202Y-72572671D01*
X134545908Y-72707517D01*
X134539501Y-72767116D01*
X134539500Y-72767135D01*
X131822032Y-72767135D01*
X131681402Y-72626506D01*
X131681401Y-72626505D01*
X131495405Y-72496269D01*
X131451781Y-72441692D01*
X131444588Y-72372193D01*
X131476110Y-72309839D01*
X131495405Y-72293119D01*
X131681082Y-72163105D01*
X131848105Y-71996082D01*
X131983600Y-71802578D01*
X132083429Y-71588492D01*
X132083432Y-71588486D01*
X132140636Y-71375000D01*
X131243012Y-71375000D01*
X131275925Y-71317993D01*
X131310000Y-71190826D01*
X131310000Y-71059174D01*
X131275925Y-70932007D01*
X131243012Y-70875000D01*
X132140636Y-70875000D01*
X132140635Y-70874999D01*
X132083432Y-70661513D01*
X132083429Y-70661507D01*
X131983600Y-70447422D01*
X131983599Y-70447420D01*
X131848113Y-70253926D01*
X131848108Y-70253920D01*
X131681082Y-70086894D01*
X131487578Y-69951399D01*
X131273492Y-69851570D01*
X131273486Y-69851567D01*
X131060000Y-69794364D01*
X131060000Y-70691988D01*
X131002993Y-70659075D01*
X130875826Y-70625000D01*
X130744174Y-70625000D01*
X130617007Y-70659075D01*
X130560000Y-70691988D01*
X130560000Y-69794364D01*
X130559999Y-69794364D01*
X130346513Y-69851567D01*
X130346507Y-69851570D01*
X130132422Y-69951399D01*
X130132420Y-69951400D01*
X129938926Y-70086886D01*
X129938920Y-70086891D01*
X129771891Y-70253920D01*
X129771890Y-70253922D01*
X129641575Y-70440031D01*
X129586998Y-70483655D01*
X129517499Y-70490848D01*
X129455145Y-70459326D01*
X129438425Y-70440031D01*
X129308109Y-70253922D01*
X129308108Y-70253920D01*
X129141082Y-70086894D01*
X128947578Y-69951399D01*
X128733492Y-69851570D01*
X128733486Y-69851567D01*
X128520000Y-69794364D01*
X128520000Y-70691988D01*
X128462993Y-70659075D01*
X128335826Y-70625000D01*
X128204174Y-70625000D01*
X128077007Y-70659075D01*
X128020000Y-70691988D01*
X128020000Y-69794364D01*
X128019999Y-69794364D01*
X127806513Y-69851567D01*
X127806507Y-69851570D01*
X127592422Y-69951399D01*
X127592420Y-69951400D01*
X127398926Y-70086886D01*
X127398920Y-70086891D01*
X127231891Y-70253920D01*
X127231890Y-70253922D01*
X127101575Y-70440031D01*
X127046998Y-70483655D01*
X126977499Y-70490848D01*
X126915145Y-70459326D01*
X126898425Y-70440031D01*
X126768109Y-70253922D01*
X126768108Y-70253920D01*
X126601082Y-70086894D01*
X126407578Y-69951399D01*
X126193492Y-69851570D01*
X126193486Y-69851567D01*
X125980000Y-69794364D01*
X125980000Y-70691988D01*
X125922993Y-70659075D01*
X125795826Y-70625000D01*
X125664174Y-70625000D01*
X125537007Y-70659075D01*
X125480000Y-70691988D01*
X125480000Y-69794364D01*
X125479999Y-69794364D01*
X125266513Y-69851567D01*
X125266507Y-69851570D01*
X125052422Y-69951399D01*
X125052420Y-69951400D01*
X124858926Y-70086886D01*
X124858920Y-70086891D01*
X124691891Y-70253920D01*
X124691890Y-70253922D01*
X124561575Y-70440031D01*
X124506998Y-70483655D01*
X124437499Y-70490848D01*
X124375145Y-70459326D01*
X124358425Y-70440031D01*
X124228109Y-70253922D01*
X124228108Y-70253920D01*
X124061082Y-70086894D01*
X123867578Y-69951399D01*
X123653492Y-69851570D01*
X123653486Y-69851567D01*
X123440000Y-69794364D01*
X123440000Y-70691988D01*
X123382993Y-70659075D01*
X123255826Y-70625000D01*
X123124174Y-70625000D01*
X122997007Y-70659075D01*
X122940000Y-70691988D01*
X122940000Y-69794364D01*
X122939999Y-69794364D01*
X122726513Y-69851567D01*
X122726507Y-69851570D01*
X122512422Y-69951399D01*
X122512420Y-69951400D01*
X122318926Y-70086886D01*
X122318920Y-70086891D01*
X122151891Y-70253920D01*
X122151890Y-70253922D01*
X122021575Y-70440031D01*
X121966998Y-70483655D01*
X121897499Y-70490848D01*
X121835145Y-70459326D01*
X121818425Y-70440031D01*
X121688109Y-70253922D01*
X121688108Y-70253920D01*
X121521082Y-70086894D01*
X121327578Y-69951399D01*
X121113492Y-69851570D01*
X121113486Y-69851567D01*
X120900000Y-69794364D01*
X120900000Y-70691988D01*
X120842993Y-70659075D01*
X120715826Y-70625000D01*
X120584174Y-70625000D01*
X120457007Y-70659075D01*
X120400000Y-70691988D01*
X120400000Y-69794364D01*
X120399999Y-69794364D01*
X120186513Y-69851567D01*
X120186507Y-69851570D01*
X119972422Y-69951399D01*
X119972420Y-69951400D01*
X119778926Y-70086886D01*
X119778920Y-70086891D01*
X119611891Y-70253920D01*
X119611890Y-70253922D01*
X119481575Y-70440031D01*
X119426998Y-70483655D01*
X119357499Y-70490848D01*
X119295145Y-70459326D01*
X119278425Y-70440031D01*
X119148109Y-70253922D01*
X119148108Y-70253920D01*
X118981082Y-70086894D01*
X118787578Y-69951399D01*
X118573492Y-69851570D01*
X118573486Y-69851567D01*
X118360000Y-69794364D01*
X118360000Y-70691988D01*
X118302993Y-70659075D01*
X118175826Y-70625000D01*
X118044174Y-70625000D01*
X117917007Y-70659075D01*
X117860000Y-70691988D01*
X117860000Y-69794364D01*
X117859999Y-69794364D01*
X117646513Y-69851567D01*
X117646507Y-69851570D01*
X117432422Y-69951399D01*
X117432420Y-69951400D01*
X117238926Y-70086886D01*
X117238920Y-70086891D01*
X117071891Y-70253920D01*
X117071886Y-70253926D01*
X116936400Y-70447420D01*
X116936399Y-70447422D01*
X116836570Y-70661507D01*
X116836567Y-70661513D01*
X116779364Y-70874999D01*
X116779364Y-70875000D01*
X117676988Y-70875000D01*
X117644075Y-70932007D01*
X117610000Y-71059174D01*
X117610000Y-71190826D01*
X117644075Y-71317993D01*
X117676988Y-71375000D01*
X116779364Y-71375000D01*
X116836567Y-71588486D01*
X116836570Y-71588492D01*
X116936399Y-71802578D01*
X117071894Y-71996082D01*
X117193946Y-72118134D01*
X117227431Y-72179457D01*
X117222447Y-72249149D01*
X117180575Y-72305082D01*
X117149598Y-72321997D01*
X117017671Y-72371202D01*
X117017664Y-72371206D01*
X116902455Y-72457452D01*
X116902452Y-72457455D01*
X116816206Y-72572664D01*
X116816202Y-72572671D01*
X116765908Y-72707517D01*
X116759501Y-72767116D01*
X116759500Y-72767135D01*
X111182056Y-72767135D01*
X110770776Y-72355855D01*
X110770774Y-72355852D01*
X110651903Y-72236981D01*
X110651902Y-72236980D01*
X110565090Y-72186860D01*
X110565090Y-72186859D01*
X110565086Y-72186858D01*
X110514971Y-72157923D01*
X110362243Y-72116999D01*
X110204129Y-72116999D01*
X110196533Y-72116999D01*
X110196517Y-72117000D01*
X107974499Y-72117000D01*
X107907460Y-72097315D01*
X107861705Y-72044511D01*
X107850499Y-71993000D01*
X107850499Y-71919629D01*
X107850498Y-71919623D01*
X107850497Y-71919616D01*
X107844091Y-71860017D01*
X107825169Y-71809285D01*
X107793797Y-71725171D01*
X107793793Y-71725164D01*
X107707547Y-71609955D01*
X107707544Y-71609952D01*
X107592335Y-71523706D01*
X107592328Y-71523702D01*
X107457482Y-71473408D01*
X107457483Y-71473408D01*
X107397883Y-71467001D01*
X107397881Y-71467000D01*
X107397873Y-71467000D01*
X107397864Y-71467000D01*
X105802129Y-71467000D01*
X105802123Y-71467001D01*
X105742516Y-71473408D01*
X105607671Y-71523702D01*
X105607664Y-71523706D01*
X105492455Y-71609952D01*
X105492452Y-71609955D01*
X105406206Y-71725164D01*
X105406202Y-71725171D01*
X105355908Y-71860017D01*
X105349501Y-71919616D01*
X105349501Y-71919623D01*
X105349500Y-71919635D01*
X105349500Y-73515370D01*
X105349501Y-73515376D01*
X105355908Y-73574983D01*
X105406202Y-73709828D01*
X105406206Y-73709835D01*
X105492452Y-73825044D01*
X105492455Y-73825047D01*
X105607664Y-73911293D01*
X105607671Y-73911297D01*
X105742517Y-73961591D01*
X105742516Y-73961591D01*
X105749444Y-73962335D01*
X105802127Y-73968000D01*
X105868139Y-73967999D01*
X105935176Y-73987683D01*
X105980932Y-74040486D01*
X105990876Y-74109644D01*
X105961852Y-74173200D01*
X105939262Y-74193574D01*
X105793118Y-74295905D01*
X105638402Y-74450621D01*
X105512900Y-74629857D01*
X105512898Y-74629861D01*
X105420426Y-74828168D01*
X105420422Y-74828177D01*
X105363793Y-75039520D01*
X105363793Y-75039523D01*
X105344723Y-75257500D01*
X92710000Y-75257500D01*
X92710000Y-71326211D01*
X98399500Y-71326211D01*
X98399500Y-71568788D01*
X98431161Y-71809285D01*
X98493947Y-72043604D01*
X98553286Y-72186860D01*
X98586776Y-72267712D01*
X98708064Y-72477789D01*
X98708066Y-72477792D01*
X98708067Y-72477793D01*
X98855733Y-72670236D01*
X98855739Y-72670243D01*
X99027256Y-72841760D01*
X99027262Y-72841765D01*
X99219711Y-72989436D01*
X99429788Y-73110724D01*
X99625269Y-73191695D01*
X99648564Y-73201344D01*
X99653900Y-73203554D01*
X99888211Y-73266338D01*
X100068586Y-73290084D01*
X100128711Y-73298000D01*
X100128712Y-73298000D01*
X100371289Y-73298000D01*
X100419388Y-73291667D01*
X100611789Y-73266338D01*
X100846100Y-73203554D01*
X101070212Y-73110724D01*
X101280289Y-72989436D01*
X101472738Y-72841765D01*
X101644265Y-72670238D01*
X101791936Y-72477789D01*
X101913224Y-72267712D01*
X102006054Y-72043600D01*
X102068838Y-71809289D01*
X102100500Y-71568788D01*
X102100500Y-71326212D01*
X102068838Y-71085711D01*
X102006054Y-70851400D01*
X101913224Y-70627288D01*
X101791936Y-70417211D01*
X101644265Y-70224762D01*
X101644260Y-70224756D01*
X101472743Y-70053239D01*
X101472736Y-70053233D01*
X101280293Y-69905567D01*
X101280292Y-69905566D01*
X101280289Y-69905564D01*
X101070212Y-69784276D01*
X101070205Y-69784273D01*
X100846104Y-69691447D01*
X100611785Y-69628661D01*
X100371289Y-69597000D01*
X100371288Y-69597000D01*
X100128712Y-69597000D01*
X100128711Y-69597000D01*
X99888214Y-69628661D01*
X99653895Y-69691447D01*
X99429794Y-69784273D01*
X99429785Y-69784277D01*
X99219706Y-69905567D01*
X99027263Y-70053233D01*
X99027256Y-70053239D01*
X98855739Y-70224756D01*
X98855733Y-70224763D01*
X98708067Y-70417206D01*
X98586777Y-70627285D01*
X98586773Y-70627294D01*
X98493947Y-70851395D01*
X98431161Y-71085714D01*
X98399500Y-71326211D01*
X92710000Y-71326211D01*
X92710000Y-68704000D01*
X92729685Y-68636961D01*
X92782489Y-68591206D01*
X92834000Y-68580000D01*
X191646000Y-68580000D01*
X191713039Y-68599685D01*
G37*
%TD.AperFunction*%
%TD*%
M02*
