%TF.GenerationSoftware,KiCad,Pcbnew,8.0.2*%
%TF.CreationDate,2025-01-01T18:30:46+01:00*%
%TF.ProjectId,test,74657374-2e6b-4696-9361-645f70636258,rev?*%
%TF.SameCoordinates,Original*%
%TF.FileFunction,Paste,Top*%
%TF.FilePolarity,Positive*%
%FSLAX46Y46*%
G04 Gerber Fmt 4.6, Leading zero omitted, Abs format (unit mm)*
G04 Created by KiCad (PCBNEW 8.0.2) date 2025-01-01 18:30:46*
%MOMM*%
%LPD*%
G01*
G04 APERTURE LIST*
G04 Aperture macros list*
%AMRoundRect*
0 Rectangle with rounded corners*
0 $1 Rounding radius*
0 $2 $3 $4 $5 $6 $7 $8 $9 X,Y pos of 4 corners*
0 Add a 4 corners polygon primitive as box body*
4,1,4,$2,$3,$4,$5,$6,$7,$8,$9,$2,$3,0*
0 Add four circle primitives for the rounded corners*
1,1,$1+$1,$2,$3*
1,1,$1+$1,$4,$5*
1,1,$1+$1,$6,$7*
1,1,$1+$1,$8,$9*
0 Add four rect primitives between the rounded corners*
20,1,$1+$1,$2,$3,$4,$5,0*
20,1,$1+$1,$4,$5,$6,$7,0*
20,1,$1+$1,$6,$7,$8,$9,0*
20,1,$1+$1,$8,$9,$2,$3,0*%
G04 Aperture macros list end*
%ADD10RoundRect,0.250000X0.450000X-0.262500X0.450000X0.262500X-0.450000X0.262500X-0.450000X-0.262500X0*%
%ADD11RoundRect,0.243750X-0.456250X0.243750X-0.456250X-0.243750X0.456250X-0.243750X0.456250X0.243750X0*%
%ADD12RoundRect,0.250000X-0.250000X-0.475000X0.250000X-0.475000X0.250000X0.475000X-0.250000X0.475000X0*%
%ADD13RoundRect,0.250000X0.250000X0.475000X-0.250000X0.475000X-0.250000X-0.475000X0.250000X-0.475000X0*%
%ADD14RoundRect,0.243750X-0.243750X-0.456250X0.243750X-0.456250X0.243750X0.456250X-0.243750X0.456250X0*%
%ADD15RoundRect,0.250000X-0.450000X0.262500X-0.450000X-0.262500X0.450000X-0.262500X0.450000X0.262500X0*%
%ADD16RoundRect,0.250000X0.475000X-0.250000X0.475000X0.250000X-0.475000X0.250000X-0.475000X-0.250000X0*%
%ADD17RoundRect,0.250000X-0.440000X0.305000X-0.440000X-0.305000X0.440000X-0.305000X0.440000X0.305000X0*%
%ADD18RoundRect,0.100000X-0.100000X0.687500X-0.100000X-0.687500X0.100000X-0.687500X0.100000X0.687500X0*%
%ADD19RoundRect,0.100000X-0.637500X-0.100000X0.637500X-0.100000X0.637500X0.100000X-0.637500X0.100000X0*%
%ADD20RoundRect,0.250000X0.262500X0.450000X-0.262500X0.450000X-0.262500X-0.450000X0.262500X-0.450000X0*%
G04 APERTURE END LIST*
D10*
%TO.C,R5*%
X150500000Y-90087500D03*
X150500000Y-91912500D03*
%TD*%
D11*
%TO.C,D11*%
X162560000Y-90062500D03*
X162560000Y-91937500D03*
%TD*%
D12*
%TO.C,C1*%
X141925000Y-97155000D03*
X143825000Y-97155000D03*
%TD*%
D11*
%TO.C,D3*%
X185420000Y-90062500D03*
X185420000Y-91937500D03*
%TD*%
D13*
%TO.C,C5*%
X125450000Y-85000000D03*
X123550000Y-85000000D03*
%TD*%
D11*
%TO.C,D9*%
X167640000Y-90062500D03*
X167640000Y-91937500D03*
%TD*%
%TO.C,D12*%
X160020000Y-90062500D03*
X160020000Y-91937500D03*
%TD*%
D14*
%TO.C,D1*%
X101125000Y-107500000D03*
X103000000Y-107500000D03*
%TD*%
D15*
%TO.C,R1*%
X116205000Y-81995000D03*
X116205000Y-83820000D03*
%TD*%
D11*
%TO.C,D6*%
X177800000Y-90062500D03*
X177800000Y-91937500D03*
%TD*%
%TO.C,D13*%
X157480000Y-90062500D03*
X157480000Y-91937500D03*
%TD*%
D16*
%TO.C,C2*%
X112750000Y-96500000D03*
X112750000Y-94600000D03*
%TD*%
D11*
%TO.C,D7*%
X175260000Y-90062500D03*
X175260000Y-91937500D03*
%TD*%
D10*
%TO.C,R2*%
X116205000Y-88265000D03*
X116205000Y-86440000D03*
%TD*%
D12*
%TO.C,C3*%
X123200000Y-95200000D03*
X125100000Y-95200000D03*
%TD*%
D15*
%TO.C,R4*%
X141605000Y-88652500D03*
X141605000Y-90477500D03*
%TD*%
D17*
%TO.C,U2*%
X137385000Y-90750000D03*
X135665000Y-90750000D03*
X137385000Y-92130000D03*
X135665000Y-92130000D03*
D18*
X139450000Y-88577500D03*
X138800000Y-88577500D03*
X138150000Y-88577500D03*
X137500000Y-88577500D03*
X136850000Y-88577500D03*
X136200000Y-88577500D03*
X135550000Y-88577500D03*
X134900000Y-88577500D03*
X134250000Y-88577500D03*
X133600000Y-88577500D03*
X133600000Y-94302500D03*
X134250000Y-94302500D03*
X134900000Y-94302500D03*
X135550000Y-94302500D03*
X136200000Y-94302500D03*
X136850000Y-94302500D03*
X137500000Y-94302500D03*
X138150000Y-94302500D03*
X138800000Y-94302500D03*
X139450000Y-94302500D03*
%TD*%
D16*
%TO.C,C6*%
X141605000Y-94640000D03*
X141605000Y-92740000D03*
%TD*%
D11*
%TO.C,D10*%
X165100000Y-90062500D03*
X165100000Y-91937500D03*
%TD*%
%TO.C,D5*%
X180340000Y-90062500D03*
X180340000Y-91937500D03*
%TD*%
%TO.C,D4*%
X182880000Y-90062500D03*
X182880000Y-91937500D03*
%TD*%
D12*
%TO.C,C4*%
X123195000Y-93000000D03*
X125095000Y-93000000D03*
%TD*%
D19*
%TO.C,U1*%
X119132500Y-86625000D03*
X119132500Y-87275000D03*
X119132500Y-87925000D03*
X119132500Y-88575000D03*
X119132500Y-89225000D03*
X119132500Y-89875000D03*
X119132500Y-90525000D03*
X119132500Y-91175000D03*
X124857500Y-91175000D03*
X124857500Y-90525000D03*
X124857500Y-89875000D03*
X124857500Y-89225000D03*
X124857500Y-88575000D03*
X124857500Y-87925000D03*
X124857500Y-87275000D03*
X124857500Y-86625000D03*
%TD*%
D11*
%TO.C,D8*%
X170180000Y-90062500D03*
X170180000Y-91937500D03*
%TD*%
%TO.C,D2*%
X187960000Y-90062500D03*
X187960000Y-91937500D03*
%TD*%
D20*
%TO.C,R3*%
X106977500Y-107500000D03*
X105152500Y-107500000D03*
%TD*%
M02*
