%TF.GenerationSoftware,KiCad,Pcbnew,8.0.2*%
%TF.CreationDate,2025-01-01T18:30:46+01:00*%
%TF.ProjectId,test,74657374-2e6b-4696-9361-645f70636258,rev?*%
%TF.SameCoordinates,Original*%
%TF.FileFunction,Soldermask,Bot*%
%TF.FilePolarity,Negative*%
%FSLAX46Y46*%
G04 Gerber Fmt 4.6, Leading zero omitted, Abs format (unit mm)*
G04 Created by KiCad (PCBNEW 8.0.2) date 2025-01-01 18:30:46*
%MOMM*%
%LPD*%
G01*
G04 APERTURE LIST*
%ADD10O,1.700000X1.700000*%
%ADD11R,1.700000X1.700000*%
%ADD12C,3.200000*%
%ADD13R,1.500000X1.500000*%
%ADD14C,1.500000*%
G04 APERTURE END LIST*
D10*
%TO.C,J3*%
X153525000Y-92290000D03*
D11*
X153525000Y-89750000D03*
%TD*%
D12*
%TO.C,J2*%
X100250000Y-86947500D03*
X100250000Y-98377500D03*
D13*
X106600000Y-88217500D03*
D14*
X109140000Y-89487500D03*
X106600000Y-90757500D03*
X109140000Y-92027500D03*
X106600000Y-93297500D03*
X109140000Y-94567500D03*
X106600000Y-95837500D03*
X109140000Y-97107500D03*
%TD*%
D11*
%TO.C,J11*%
X189230000Y-108580000D03*
D10*
X189230000Y-111120000D03*
X186690000Y-108580000D03*
X186690000Y-111120000D03*
X184150000Y-108580000D03*
X184150000Y-111120000D03*
X181610000Y-108580000D03*
X181610000Y-111120000D03*
X179070000Y-108580000D03*
X179070000Y-111120000D03*
X176530000Y-108580000D03*
X176530000Y-111120000D03*
%TD*%
D11*
%TO.C,J5*%
X135890000Y-73665000D03*
D10*
X135890000Y-71125000D03*
X138430000Y-73665000D03*
X138430000Y-71125000D03*
X140970000Y-73665000D03*
X140970000Y-71125000D03*
X143510000Y-73665000D03*
X143510000Y-71125000D03*
X146050000Y-73665000D03*
X146050000Y-71125000D03*
X148590000Y-73665000D03*
X148590000Y-71125000D03*
%TD*%
D12*
%TO.C,J1*%
X100250000Y-71447500D03*
X100250000Y-82877500D03*
D13*
X106600000Y-72717500D03*
D14*
X109140000Y-73987500D03*
X106600000Y-75257500D03*
X109140000Y-76527500D03*
X106600000Y-77797500D03*
X109140000Y-79067500D03*
X106600000Y-80337500D03*
X109140000Y-81607500D03*
%TD*%
D11*
%TO.C,J7*%
X176530000Y-73665000D03*
D10*
X176530000Y-71125000D03*
X179070000Y-73665000D03*
X179070000Y-71125000D03*
X181610000Y-73665000D03*
X181610000Y-71125000D03*
X184150000Y-73665000D03*
X184150000Y-71125000D03*
X186690000Y-73665000D03*
X186690000Y-71125000D03*
X189230000Y-73665000D03*
X189230000Y-71125000D03*
%TD*%
D11*
%TO.C,J6*%
X158750000Y-73665000D03*
D10*
X158750000Y-71125000D03*
X161290000Y-73665000D03*
X161290000Y-71125000D03*
X163830000Y-73665000D03*
X163830000Y-71125000D03*
X166370000Y-73665000D03*
X166370000Y-71125000D03*
X168910000Y-73665000D03*
X168910000Y-71125000D03*
X171450000Y-73665000D03*
X171450000Y-71125000D03*
%TD*%
D11*
%TO.C,J4*%
X118110000Y-73665000D03*
D10*
X118110000Y-71125000D03*
X120650000Y-73665000D03*
X120650000Y-71125000D03*
X123190000Y-73665000D03*
X123190000Y-71125000D03*
X125730000Y-73665000D03*
X125730000Y-71125000D03*
X128270000Y-73665000D03*
X128270000Y-71125000D03*
X130810000Y-73665000D03*
X130810000Y-71125000D03*
%TD*%
D11*
%TO.C,J8*%
X130810000Y-108580000D03*
D10*
X130810000Y-111120000D03*
X128270000Y-108580000D03*
X128270000Y-111120000D03*
X125730000Y-108580000D03*
X125730000Y-111120000D03*
X123190000Y-108580000D03*
X123190000Y-111120000D03*
X120650000Y-108580000D03*
X120650000Y-111120000D03*
X118110000Y-108580000D03*
X118110000Y-111120000D03*
%TD*%
D11*
%TO.C,J10*%
X171450000Y-108580000D03*
D10*
X171450000Y-111120000D03*
X168910000Y-108580000D03*
X168910000Y-111120000D03*
X166370000Y-108580000D03*
X166370000Y-111120000D03*
X163830000Y-108580000D03*
X163830000Y-111120000D03*
X161290000Y-108580000D03*
X161290000Y-111120000D03*
X158750000Y-108580000D03*
X158750000Y-111120000D03*
%TD*%
D11*
%TO.C,J9*%
X148590000Y-108580000D03*
D10*
X148590000Y-111120000D03*
X146050000Y-108580000D03*
X146050000Y-111120000D03*
X143510000Y-108580000D03*
X143510000Y-111120000D03*
X140970000Y-108580000D03*
X140970000Y-111120000D03*
X138430000Y-108580000D03*
X138430000Y-111120000D03*
X135890000Y-108580000D03*
X135890000Y-111120000D03*
%TD*%
M02*
