%TF.GenerationSoftware,KiCad,Pcbnew,8.0.2*%
%TF.CreationDate,2025-01-01T18:30:46+01:00*%
%TF.ProjectId,test,74657374-2e6b-4696-9361-645f70636258,rev?*%
%TF.SameCoordinates,Original*%
%TF.FileFunction,Legend,Top*%
%TF.FilePolarity,Positive*%
%FSLAX46Y46*%
G04 Gerber Fmt 4.6, Leading zero omitted, Abs format (unit mm)*
G04 Created by KiCad (PCBNEW 8.0.2) date 2025-01-01 18:30:46*
%MOMM*%
%LPD*%
G01*
G04 APERTURE LIST*
%ADD10C,0.150000*%
%ADD11C,0.120000*%
G04 APERTURE END LIST*
D10*
X148954819Y-91166666D02*
X148478628Y-91499999D01*
X148954819Y-91738094D02*
X147954819Y-91738094D01*
X147954819Y-91738094D02*
X147954819Y-91357142D01*
X147954819Y-91357142D02*
X148002438Y-91261904D01*
X148002438Y-91261904D02*
X148050057Y-91214285D01*
X148050057Y-91214285D02*
X148145295Y-91166666D01*
X148145295Y-91166666D02*
X148288152Y-91166666D01*
X148288152Y-91166666D02*
X148383390Y-91214285D01*
X148383390Y-91214285D02*
X148431009Y-91261904D01*
X148431009Y-91261904D02*
X148478628Y-91357142D01*
X148478628Y-91357142D02*
X148478628Y-91738094D01*
X147954819Y-90261904D02*
X147954819Y-90738094D01*
X147954819Y-90738094D02*
X148431009Y-90785713D01*
X148431009Y-90785713D02*
X148383390Y-90738094D01*
X148383390Y-90738094D02*
X148335771Y-90642856D01*
X148335771Y-90642856D02*
X148335771Y-90404761D01*
X148335771Y-90404761D02*
X148383390Y-90309523D01*
X148383390Y-90309523D02*
X148431009Y-90261904D01*
X148431009Y-90261904D02*
X148526247Y-90214285D01*
X148526247Y-90214285D02*
X148764342Y-90214285D01*
X148764342Y-90214285D02*
X148859580Y-90261904D01*
X148859580Y-90261904D02*
X148907200Y-90309523D01*
X148907200Y-90309523D02*
X148954819Y-90404761D01*
X148954819Y-90404761D02*
X148954819Y-90642856D01*
X148954819Y-90642856D02*
X148907200Y-90738094D01*
X148907200Y-90738094D02*
X148859580Y-90785713D01*
X153166666Y-86454819D02*
X153166666Y-87169104D01*
X153166666Y-87169104D02*
X153119047Y-87311961D01*
X153119047Y-87311961D02*
X153023809Y-87407200D01*
X153023809Y-87407200D02*
X152880952Y-87454819D01*
X152880952Y-87454819D02*
X152785714Y-87454819D01*
X153547619Y-86454819D02*
X154166666Y-86454819D01*
X154166666Y-86454819D02*
X153833333Y-86835771D01*
X153833333Y-86835771D02*
X153976190Y-86835771D01*
X153976190Y-86835771D02*
X154071428Y-86883390D01*
X154071428Y-86883390D02*
X154119047Y-86931009D01*
X154119047Y-86931009D02*
X154166666Y-87026247D01*
X154166666Y-87026247D02*
X154166666Y-87264342D01*
X154166666Y-87264342D02*
X154119047Y-87359580D01*
X154119047Y-87359580D02*
X154071428Y-87407200D01*
X154071428Y-87407200D02*
X153976190Y-87454819D01*
X153976190Y-87454819D02*
X153690476Y-87454819D01*
X153690476Y-87454819D02*
X153595238Y-87407200D01*
X153595238Y-87407200D02*
X153547619Y-87359580D01*
X163014819Y-88706785D02*
X162014819Y-88706785D01*
X162014819Y-88706785D02*
X162014819Y-88468690D01*
X162014819Y-88468690D02*
X162062438Y-88325833D01*
X162062438Y-88325833D02*
X162157676Y-88230595D01*
X162157676Y-88230595D02*
X162252914Y-88182976D01*
X162252914Y-88182976D02*
X162443390Y-88135357D01*
X162443390Y-88135357D02*
X162586247Y-88135357D01*
X162586247Y-88135357D02*
X162776723Y-88182976D01*
X162776723Y-88182976D02*
X162871961Y-88230595D01*
X162871961Y-88230595D02*
X162967200Y-88325833D01*
X162967200Y-88325833D02*
X163014819Y-88468690D01*
X163014819Y-88468690D02*
X163014819Y-88706785D01*
X163014819Y-87182976D02*
X163014819Y-87754404D01*
X163014819Y-87468690D02*
X162014819Y-87468690D01*
X162014819Y-87468690D02*
X162157676Y-87563928D01*
X162157676Y-87563928D02*
X162252914Y-87659166D01*
X162252914Y-87659166D02*
X162300533Y-87754404D01*
X163014819Y-86230595D02*
X163014819Y-86802023D01*
X163014819Y-86516309D02*
X162014819Y-86516309D01*
X162014819Y-86516309D02*
X162157676Y-86611547D01*
X162157676Y-86611547D02*
X162252914Y-86706785D01*
X162252914Y-86706785D02*
X162300533Y-86802023D01*
X142708333Y-99419580D02*
X142660714Y-99467200D01*
X142660714Y-99467200D02*
X142517857Y-99514819D01*
X142517857Y-99514819D02*
X142422619Y-99514819D01*
X142422619Y-99514819D02*
X142279762Y-99467200D01*
X142279762Y-99467200D02*
X142184524Y-99371961D01*
X142184524Y-99371961D02*
X142136905Y-99276723D01*
X142136905Y-99276723D02*
X142089286Y-99086247D01*
X142089286Y-99086247D02*
X142089286Y-98943390D01*
X142089286Y-98943390D02*
X142136905Y-98752914D01*
X142136905Y-98752914D02*
X142184524Y-98657676D01*
X142184524Y-98657676D02*
X142279762Y-98562438D01*
X142279762Y-98562438D02*
X142422619Y-98514819D01*
X142422619Y-98514819D02*
X142517857Y-98514819D01*
X142517857Y-98514819D02*
X142660714Y-98562438D01*
X142660714Y-98562438D02*
X142708333Y-98610057D01*
X143660714Y-99514819D02*
X143089286Y-99514819D01*
X143375000Y-99514819D02*
X143375000Y-98514819D01*
X143375000Y-98514819D02*
X143279762Y-98657676D01*
X143279762Y-98657676D02*
X143184524Y-98752914D01*
X143184524Y-98752914D02*
X143089286Y-98800533D01*
X111666666Y-89954819D02*
X111666666Y-90669104D01*
X111666666Y-90669104D02*
X111619047Y-90811961D01*
X111619047Y-90811961D02*
X111523809Y-90907200D01*
X111523809Y-90907200D02*
X111380952Y-90954819D01*
X111380952Y-90954819D02*
X111285714Y-90954819D01*
X112095238Y-90050057D02*
X112142857Y-90002438D01*
X112142857Y-90002438D02*
X112238095Y-89954819D01*
X112238095Y-89954819D02*
X112476190Y-89954819D01*
X112476190Y-89954819D02*
X112571428Y-90002438D01*
X112571428Y-90002438D02*
X112619047Y-90050057D01*
X112619047Y-90050057D02*
X112666666Y-90145295D01*
X112666666Y-90145295D02*
X112666666Y-90240533D01*
X112666666Y-90240533D02*
X112619047Y-90383390D01*
X112619047Y-90383390D02*
X112047619Y-90954819D01*
X112047619Y-90954819D02*
X112666666Y-90954819D01*
X185874819Y-88865594D02*
X184874819Y-88865594D01*
X184874819Y-88865594D02*
X184874819Y-88627499D01*
X184874819Y-88627499D02*
X184922438Y-88484642D01*
X184922438Y-88484642D02*
X185017676Y-88389404D01*
X185017676Y-88389404D02*
X185112914Y-88341785D01*
X185112914Y-88341785D02*
X185303390Y-88294166D01*
X185303390Y-88294166D02*
X185446247Y-88294166D01*
X185446247Y-88294166D02*
X185636723Y-88341785D01*
X185636723Y-88341785D02*
X185731961Y-88389404D01*
X185731961Y-88389404D02*
X185827200Y-88484642D01*
X185827200Y-88484642D02*
X185874819Y-88627499D01*
X185874819Y-88627499D02*
X185874819Y-88865594D01*
X184874819Y-87960832D02*
X184874819Y-87341785D01*
X184874819Y-87341785D02*
X185255771Y-87675118D01*
X185255771Y-87675118D02*
X185255771Y-87532261D01*
X185255771Y-87532261D02*
X185303390Y-87437023D01*
X185303390Y-87437023D02*
X185351009Y-87389404D01*
X185351009Y-87389404D02*
X185446247Y-87341785D01*
X185446247Y-87341785D02*
X185684342Y-87341785D01*
X185684342Y-87341785D02*
X185779580Y-87389404D01*
X185779580Y-87389404D02*
X185827200Y-87437023D01*
X185827200Y-87437023D02*
X185874819Y-87532261D01*
X185874819Y-87532261D02*
X185874819Y-87817975D01*
X185874819Y-87817975D02*
X185827200Y-87913213D01*
X185827200Y-87913213D02*
X185779580Y-87960832D01*
X127188333Y-85404580D02*
X127140714Y-85452200D01*
X127140714Y-85452200D02*
X126997857Y-85499819D01*
X126997857Y-85499819D02*
X126902619Y-85499819D01*
X126902619Y-85499819D02*
X126759762Y-85452200D01*
X126759762Y-85452200D02*
X126664524Y-85356961D01*
X126664524Y-85356961D02*
X126616905Y-85261723D01*
X126616905Y-85261723D02*
X126569286Y-85071247D01*
X126569286Y-85071247D02*
X126569286Y-84928390D01*
X126569286Y-84928390D02*
X126616905Y-84737914D01*
X126616905Y-84737914D02*
X126664524Y-84642676D01*
X126664524Y-84642676D02*
X126759762Y-84547438D01*
X126759762Y-84547438D02*
X126902619Y-84499819D01*
X126902619Y-84499819D02*
X126997857Y-84499819D01*
X126997857Y-84499819D02*
X127140714Y-84547438D01*
X127140714Y-84547438D02*
X127188333Y-84595057D01*
X128093095Y-84499819D02*
X127616905Y-84499819D01*
X127616905Y-84499819D02*
X127569286Y-84976009D01*
X127569286Y-84976009D02*
X127616905Y-84928390D01*
X127616905Y-84928390D02*
X127712143Y-84880771D01*
X127712143Y-84880771D02*
X127950238Y-84880771D01*
X127950238Y-84880771D02*
X128045476Y-84928390D01*
X128045476Y-84928390D02*
X128093095Y-84976009D01*
X128093095Y-84976009D02*
X128140714Y-85071247D01*
X128140714Y-85071247D02*
X128140714Y-85309342D01*
X128140714Y-85309342D02*
X128093095Y-85404580D01*
X128093095Y-85404580D02*
X128045476Y-85452200D01*
X128045476Y-85452200D02*
X127950238Y-85499819D01*
X127950238Y-85499819D02*
X127712143Y-85499819D01*
X127712143Y-85499819D02*
X127616905Y-85452200D01*
X127616905Y-85452200D02*
X127569286Y-85404580D01*
X168094819Y-88865594D02*
X167094819Y-88865594D01*
X167094819Y-88865594D02*
X167094819Y-88627499D01*
X167094819Y-88627499D02*
X167142438Y-88484642D01*
X167142438Y-88484642D02*
X167237676Y-88389404D01*
X167237676Y-88389404D02*
X167332914Y-88341785D01*
X167332914Y-88341785D02*
X167523390Y-88294166D01*
X167523390Y-88294166D02*
X167666247Y-88294166D01*
X167666247Y-88294166D02*
X167856723Y-88341785D01*
X167856723Y-88341785D02*
X167951961Y-88389404D01*
X167951961Y-88389404D02*
X168047200Y-88484642D01*
X168047200Y-88484642D02*
X168094819Y-88627499D01*
X168094819Y-88627499D02*
X168094819Y-88865594D01*
X168094819Y-87817975D02*
X168094819Y-87627499D01*
X168094819Y-87627499D02*
X168047200Y-87532261D01*
X168047200Y-87532261D02*
X167999580Y-87484642D01*
X167999580Y-87484642D02*
X167856723Y-87389404D01*
X167856723Y-87389404D02*
X167666247Y-87341785D01*
X167666247Y-87341785D02*
X167285295Y-87341785D01*
X167285295Y-87341785D02*
X167190057Y-87389404D01*
X167190057Y-87389404D02*
X167142438Y-87437023D01*
X167142438Y-87437023D02*
X167094819Y-87532261D01*
X167094819Y-87532261D02*
X167094819Y-87722737D01*
X167094819Y-87722737D02*
X167142438Y-87817975D01*
X167142438Y-87817975D02*
X167190057Y-87865594D01*
X167190057Y-87865594D02*
X167285295Y-87913213D01*
X167285295Y-87913213D02*
X167523390Y-87913213D01*
X167523390Y-87913213D02*
X167618628Y-87865594D01*
X167618628Y-87865594D02*
X167666247Y-87817975D01*
X167666247Y-87817975D02*
X167713866Y-87722737D01*
X167713866Y-87722737D02*
X167713866Y-87532261D01*
X167713866Y-87532261D02*
X167666247Y-87437023D01*
X167666247Y-87437023D02*
X167618628Y-87389404D01*
X167618628Y-87389404D02*
X167523390Y-87341785D01*
X182070476Y-105499819D02*
X182070476Y-106214104D01*
X182070476Y-106214104D02*
X182022857Y-106356961D01*
X182022857Y-106356961D02*
X181927619Y-106452200D01*
X181927619Y-106452200D02*
X181784762Y-106499819D01*
X181784762Y-106499819D02*
X181689524Y-106499819D01*
X183070476Y-106499819D02*
X182499048Y-106499819D01*
X182784762Y-106499819D02*
X182784762Y-105499819D01*
X182784762Y-105499819D02*
X182689524Y-105642676D01*
X182689524Y-105642676D02*
X182594286Y-105737914D01*
X182594286Y-105737914D02*
X182499048Y-105785533D01*
X184022857Y-106499819D02*
X183451429Y-106499819D01*
X183737143Y-106499819D02*
X183737143Y-105499819D01*
X183737143Y-105499819D02*
X183641905Y-105642676D01*
X183641905Y-105642676D02*
X183546667Y-105737914D01*
X183546667Y-105737914D02*
X183451429Y-105785533D01*
X160474819Y-88706785D02*
X159474819Y-88706785D01*
X159474819Y-88706785D02*
X159474819Y-88468690D01*
X159474819Y-88468690D02*
X159522438Y-88325833D01*
X159522438Y-88325833D02*
X159617676Y-88230595D01*
X159617676Y-88230595D02*
X159712914Y-88182976D01*
X159712914Y-88182976D02*
X159903390Y-88135357D01*
X159903390Y-88135357D02*
X160046247Y-88135357D01*
X160046247Y-88135357D02*
X160236723Y-88182976D01*
X160236723Y-88182976D02*
X160331961Y-88230595D01*
X160331961Y-88230595D02*
X160427200Y-88325833D01*
X160427200Y-88325833D02*
X160474819Y-88468690D01*
X160474819Y-88468690D02*
X160474819Y-88706785D01*
X160474819Y-87182976D02*
X160474819Y-87754404D01*
X160474819Y-87468690D02*
X159474819Y-87468690D01*
X159474819Y-87468690D02*
X159617676Y-87563928D01*
X159617676Y-87563928D02*
X159712914Y-87659166D01*
X159712914Y-87659166D02*
X159760533Y-87754404D01*
X159570057Y-86802023D02*
X159522438Y-86754404D01*
X159522438Y-86754404D02*
X159474819Y-86659166D01*
X159474819Y-86659166D02*
X159474819Y-86421071D01*
X159474819Y-86421071D02*
X159522438Y-86325833D01*
X159522438Y-86325833D02*
X159570057Y-86278214D01*
X159570057Y-86278214D02*
X159665295Y-86230595D01*
X159665295Y-86230595D02*
X159760533Y-86230595D01*
X159760533Y-86230595D02*
X159903390Y-86278214D01*
X159903390Y-86278214D02*
X160474819Y-86849642D01*
X160474819Y-86849642D02*
X160474819Y-86230595D01*
X126611191Y-88672200D02*
X126754048Y-88719819D01*
X126754048Y-88719819D02*
X126992143Y-88719819D01*
X126992143Y-88719819D02*
X127087381Y-88672200D01*
X127087381Y-88672200D02*
X127135000Y-88624580D01*
X127135000Y-88624580D02*
X127182619Y-88529342D01*
X127182619Y-88529342D02*
X127182619Y-88434104D01*
X127182619Y-88434104D02*
X127135000Y-88338866D01*
X127135000Y-88338866D02*
X127087381Y-88291247D01*
X127087381Y-88291247D02*
X126992143Y-88243628D01*
X126992143Y-88243628D02*
X126801667Y-88196009D01*
X126801667Y-88196009D02*
X126706429Y-88148390D01*
X126706429Y-88148390D02*
X126658810Y-88100771D01*
X126658810Y-88100771D02*
X126611191Y-88005533D01*
X126611191Y-88005533D02*
X126611191Y-87910295D01*
X126611191Y-87910295D02*
X126658810Y-87815057D01*
X126658810Y-87815057D02*
X126706429Y-87767438D01*
X126706429Y-87767438D02*
X126801667Y-87719819D01*
X126801667Y-87719819D02*
X127039762Y-87719819D01*
X127039762Y-87719819D02*
X127182619Y-87767438D01*
X128182619Y-88624580D02*
X128135000Y-88672200D01*
X128135000Y-88672200D02*
X127992143Y-88719819D01*
X127992143Y-88719819D02*
X127896905Y-88719819D01*
X127896905Y-88719819D02*
X127754048Y-88672200D01*
X127754048Y-88672200D02*
X127658810Y-88576961D01*
X127658810Y-88576961D02*
X127611191Y-88481723D01*
X127611191Y-88481723D02*
X127563572Y-88291247D01*
X127563572Y-88291247D02*
X127563572Y-88148390D01*
X127563572Y-88148390D02*
X127611191Y-87957914D01*
X127611191Y-87957914D02*
X127658810Y-87862676D01*
X127658810Y-87862676D02*
X127754048Y-87767438D01*
X127754048Y-87767438D02*
X127896905Y-87719819D01*
X127896905Y-87719819D02*
X127992143Y-87719819D01*
X127992143Y-87719819D02*
X128135000Y-87767438D01*
X128135000Y-87767438D02*
X128182619Y-87815057D01*
X128611191Y-88719819D02*
X128611191Y-87719819D01*
X101324405Y-106049819D02*
X101324405Y-105049819D01*
X101324405Y-105049819D02*
X101562500Y-105049819D01*
X101562500Y-105049819D02*
X101705357Y-105097438D01*
X101705357Y-105097438D02*
X101800595Y-105192676D01*
X101800595Y-105192676D02*
X101848214Y-105287914D01*
X101848214Y-105287914D02*
X101895833Y-105478390D01*
X101895833Y-105478390D02*
X101895833Y-105621247D01*
X101895833Y-105621247D02*
X101848214Y-105811723D01*
X101848214Y-105811723D02*
X101800595Y-105906961D01*
X101800595Y-105906961D02*
X101705357Y-106002200D01*
X101705357Y-106002200D02*
X101562500Y-106049819D01*
X101562500Y-106049819D02*
X101324405Y-106049819D01*
X102848214Y-106049819D02*
X102276786Y-106049819D01*
X102562500Y-106049819D02*
X102562500Y-105049819D01*
X102562500Y-105049819D02*
X102467262Y-105192676D01*
X102467262Y-105192676D02*
X102372024Y-105287914D01*
X102372024Y-105287914D02*
X102276786Y-105335533D01*
X141906666Y-75654819D02*
X141906666Y-76369104D01*
X141906666Y-76369104D02*
X141859047Y-76511961D01*
X141859047Y-76511961D02*
X141763809Y-76607200D01*
X141763809Y-76607200D02*
X141620952Y-76654819D01*
X141620952Y-76654819D02*
X141525714Y-76654819D01*
X142859047Y-75654819D02*
X142382857Y-75654819D01*
X142382857Y-75654819D02*
X142335238Y-76131009D01*
X142335238Y-76131009D02*
X142382857Y-76083390D01*
X142382857Y-76083390D02*
X142478095Y-76035771D01*
X142478095Y-76035771D02*
X142716190Y-76035771D01*
X142716190Y-76035771D02*
X142811428Y-76083390D01*
X142811428Y-76083390D02*
X142859047Y-76131009D01*
X142859047Y-76131009D02*
X142906666Y-76226247D01*
X142906666Y-76226247D02*
X142906666Y-76464342D01*
X142906666Y-76464342D02*
X142859047Y-76559580D01*
X142859047Y-76559580D02*
X142811428Y-76607200D01*
X142811428Y-76607200D02*
X142716190Y-76654819D01*
X142716190Y-76654819D02*
X142478095Y-76654819D01*
X142478095Y-76654819D02*
X142382857Y-76607200D01*
X142382857Y-76607200D02*
X142335238Y-76559580D01*
X111666666Y-76954819D02*
X111666666Y-77669104D01*
X111666666Y-77669104D02*
X111619047Y-77811961D01*
X111619047Y-77811961D02*
X111523809Y-77907200D01*
X111523809Y-77907200D02*
X111380952Y-77954819D01*
X111380952Y-77954819D02*
X111285714Y-77954819D01*
X112666666Y-77954819D02*
X112095238Y-77954819D01*
X112380952Y-77954819D02*
X112380952Y-76954819D01*
X112380952Y-76954819D02*
X112285714Y-77097676D01*
X112285714Y-77097676D02*
X112190476Y-77192914D01*
X112190476Y-77192914D02*
X112095238Y-77240533D01*
X182546666Y-75654819D02*
X182546666Y-76369104D01*
X182546666Y-76369104D02*
X182499047Y-76511961D01*
X182499047Y-76511961D02*
X182403809Y-76607200D01*
X182403809Y-76607200D02*
X182260952Y-76654819D01*
X182260952Y-76654819D02*
X182165714Y-76654819D01*
X182927619Y-75654819D02*
X183594285Y-75654819D01*
X183594285Y-75654819D02*
X183165714Y-76654819D01*
X114083333Y-83204819D02*
X113750000Y-82728628D01*
X113511905Y-83204819D02*
X113511905Y-82204819D01*
X113511905Y-82204819D02*
X113892857Y-82204819D01*
X113892857Y-82204819D02*
X113988095Y-82252438D01*
X113988095Y-82252438D02*
X114035714Y-82300057D01*
X114035714Y-82300057D02*
X114083333Y-82395295D01*
X114083333Y-82395295D02*
X114083333Y-82538152D01*
X114083333Y-82538152D02*
X114035714Y-82633390D01*
X114035714Y-82633390D02*
X113988095Y-82681009D01*
X113988095Y-82681009D02*
X113892857Y-82728628D01*
X113892857Y-82728628D02*
X113511905Y-82728628D01*
X115035714Y-83204819D02*
X114464286Y-83204819D01*
X114750000Y-83204819D02*
X114750000Y-82204819D01*
X114750000Y-82204819D02*
X114654762Y-82347676D01*
X114654762Y-82347676D02*
X114559524Y-82442914D01*
X114559524Y-82442914D02*
X114464286Y-82490533D01*
X164766666Y-75654819D02*
X164766666Y-76369104D01*
X164766666Y-76369104D02*
X164719047Y-76511961D01*
X164719047Y-76511961D02*
X164623809Y-76607200D01*
X164623809Y-76607200D02*
X164480952Y-76654819D01*
X164480952Y-76654819D02*
X164385714Y-76654819D01*
X165671428Y-75654819D02*
X165480952Y-75654819D01*
X165480952Y-75654819D02*
X165385714Y-75702438D01*
X165385714Y-75702438D02*
X165338095Y-75750057D01*
X165338095Y-75750057D02*
X165242857Y-75892914D01*
X165242857Y-75892914D02*
X165195238Y-76083390D01*
X165195238Y-76083390D02*
X165195238Y-76464342D01*
X165195238Y-76464342D02*
X165242857Y-76559580D01*
X165242857Y-76559580D02*
X165290476Y-76607200D01*
X165290476Y-76607200D02*
X165385714Y-76654819D01*
X165385714Y-76654819D02*
X165576190Y-76654819D01*
X165576190Y-76654819D02*
X165671428Y-76607200D01*
X165671428Y-76607200D02*
X165719047Y-76559580D01*
X165719047Y-76559580D02*
X165766666Y-76464342D01*
X165766666Y-76464342D02*
X165766666Y-76226247D01*
X165766666Y-76226247D02*
X165719047Y-76131009D01*
X165719047Y-76131009D02*
X165671428Y-76083390D01*
X165671428Y-76083390D02*
X165576190Y-76035771D01*
X165576190Y-76035771D02*
X165385714Y-76035771D01*
X165385714Y-76035771D02*
X165290476Y-76083390D01*
X165290476Y-76083390D02*
X165242857Y-76131009D01*
X165242857Y-76131009D02*
X165195238Y-76226247D01*
X124126666Y-75654819D02*
X124126666Y-76369104D01*
X124126666Y-76369104D02*
X124079047Y-76511961D01*
X124079047Y-76511961D02*
X123983809Y-76607200D01*
X123983809Y-76607200D02*
X123840952Y-76654819D01*
X123840952Y-76654819D02*
X123745714Y-76654819D01*
X125031428Y-75988152D02*
X125031428Y-76654819D01*
X124793333Y-75607200D02*
X124555238Y-76321485D01*
X124555238Y-76321485D02*
X125174285Y-76321485D01*
X178254819Y-88865594D02*
X177254819Y-88865594D01*
X177254819Y-88865594D02*
X177254819Y-88627499D01*
X177254819Y-88627499D02*
X177302438Y-88484642D01*
X177302438Y-88484642D02*
X177397676Y-88389404D01*
X177397676Y-88389404D02*
X177492914Y-88341785D01*
X177492914Y-88341785D02*
X177683390Y-88294166D01*
X177683390Y-88294166D02*
X177826247Y-88294166D01*
X177826247Y-88294166D02*
X178016723Y-88341785D01*
X178016723Y-88341785D02*
X178111961Y-88389404D01*
X178111961Y-88389404D02*
X178207200Y-88484642D01*
X178207200Y-88484642D02*
X178254819Y-88627499D01*
X178254819Y-88627499D02*
X178254819Y-88865594D01*
X177254819Y-87437023D02*
X177254819Y-87627499D01*
X177254819Y-87627499D02*
X177302438Y-87722737D01*
X177302438Y-87722737D02*
X177350057Y-87770356D01*
X177350057Y-87770356D02*
X177492914Y-87865594D01*
X177492914Y-87865594D02*
X177683390Y-87913213D01*
X177683390Y-87913213D02*
X178064342Y-87913213D01*
X178064342Y-87913213D02*
X178159580Y-87865594D01*
X178159580Y-87865594D02*
X178207200Y-87817975D01*
X178207200Y-87817975D02*
X178254819Y-87722737D01*
X178254819Y-87722737D02*
X178254819Y-87532261D01*
X178254819Y-87532261D02*
X178207200Y-87437023D01*
X178207200Y-87437023D02*
X178159580Y-87389404D01*
X178159580Y-87389404D02*
X178064342Y-87341785D01*
X178064342Y-87341785D02*
X177826247Y-87341785D01*
X177826247Y-87341785D02*
X177731009Y-87389404D01*
X177731009Y-87389404D02*
X177683390Y-87437023D01*
X177683390Y-87437023D02*
X177635771Y-87532261D01*
X177635771Y-87532261D02*
X177635771Y-87722737D01*
X177635771Y-87722737D02*
X177683390Y-87817975D01*
X177683390Y-87817975D02*
X177731009Y-87865594D01*
X177731009Y-87865594D02*
X177826247Y-87913213D01*
X157934819Y-88706785D02*
X156934819Y-88706785D01*
X156934819Y-88706785D02*
X156934819Y-88468690D01*
X156934819Y-88468690D02*
X156982438Y-88325833D01*
X156982438Y-88325833D02*
X157077676Y-88230595D01*
X157077676Y-88230595D02*
X157172914Y-88182976D01*
X157172914Y-88182976D02*
X157363390Y-88135357D01*
X157363390Y-88135357D02*
X157506247Y-88135357D01*
X157506247Y-88135357D02*
X157696723Y-88182976D01*
X157696723Y-88182976D02*
X157791961Y-88230595D01*
X157791961Y-88230595D02*
X157887200Y-88325833D01*
X157887200Y-88325833D02*
X157934819Y-88468690D01*
X157934819Y-88468690D02*
X157934819Y-88706785D01*
X157934819Y-87182976D02*
X157934819Y-87754404D01*
X157934819Y-87468690D02*
X156934819Y-87468690D01*
X156934819Y-87468690D02*
X157077676Y-87563928D01*
X157077676Y-87563928D02*
X157172914Y-87659166D01*
X157172914Y-87659166D02*
X157220533Y-87754404D01*
X156934819Y-86849642D02*
X156934819Y-86230595D01*
X156934819Y-86230595D02*
X157315771Y-86563928D01*
X157315771Y-86563928D02*
X157315771Y-86421071D01*
X157315771Y-86421071D02*
X157363390Y-86325833D01*
X157363390Y-86325833D02*
X157411009Y-86278214D01*
X157411009Y-86278214D02*
X157506247Y-86230595D01*
X157506247Y-86230595D02*
X157744342Y-86230595D01*
X157744342Y-86230595D02*
X157839580Y-86278214D01*
X157839580Y-86278214D02*
X157887200Y-86325833D01*
X157887200Y-86325833D02*
X157934819Y-86421071D01*
X157934819Y-86421071D02*
X157934819Y-86706785D01*
X157934819Y-86706785D02*
X157887200Y-86802023D01*
X157887200Y-86802023D02*
X157839580Y-86849642D01*
X114833333Y-95859580D02*
X114785714Y-95907200D01*
X114785714Y-95907200D02*
X114642857Y-95954819D01*
X114642857Y-95954819D02*
X114547619Y-95954819D01*
X114547619Y-95954819D02*
X114404762Y-95907200D01*
X114404762Y-95907200D02*
X114309524Y-95811961D01*
X114309524Y-95811961D02*
X114261905Y-95716723D01*
X114261905Y-95716723D02*
X114214286Y-95526247D01*
X114214286Y-95526247D02*
X114214286Y-95383390D01*
X114214286Y-95383390D02*
X114261905Y-95192914D01*
X114261905Y-95192914D02*
X114309524Y-95097676D01*
X114309524Y-95097676D02*
X114404762Y-95002438D01*
X114404762Y-95002438D02*
X114547619Y-94954819D01*
X114547619Y-94954819D02*
X114642857Y-94954819D01*
X114642857Y-94954819D02*
X114785714Y-95002438D01*
X114785714Y-95002438D02*
X114833333Y-95050057D01*
X115214286Y-95050057D02*
X115261905Y-95002438D01*
X115261905Y-95002438D02*
X115357143Y-94954819D01*
X115357143Y-94954819D02*
X115595238Y-94954819D01*
X115595238Y-94954819D02*
X115690476Y-95002438D01*
X115690476Y-95002438D02*
X115738095Y-95050057D01*
X115738095Y-95050057D02*
X115785714Y-95145295D01*
X115785714Y-95145295D02*
X115785714Y-95240533D01*
X115785714Y-95240533D02*
X115738095Y-95383390D01*
X115738095Y-95383390D02*
X115166667Y-95954819D01*
X115166667Y-95954819D02*
X115785714Y-95954819D01*
X175714819Y-88865594D02*
X174714819Y-88865594D01*
X174714819Y-88865594D02*
X174714819Y-88627499D01*
X174714819Y-88627499D02*
X174762438Y-88484642D01*
X174762438Y-88484642D02*
X174857676Y-88389404D01*
X174857676Y-88389404D02*
X174952914Y-88341785D01*
X174952914Y-88341785D02*
X175143390Y-88294166D01*
X175143390Y-88294166D02*
X175286247Y-88294166D01*
X175286247Y-88294166D02*
X175476723Y-88341785D01*
X175476723Y-88341785D02*
X175571961Y-88389404D01*
X175571961Y-88389404D02*
X175667200Y-88484642D01*
X175667200Y-88484642D02*
X175714819Y-88627499D01*
X175714819Y-88627499D02*
X175714819Y-88865594D01*
X174714819Y-87960832D02*
X174714819Y-87294166D01*
X174714819Y-87294166D02*
X175714819Y-87722737D01*
X114083333Y-87704819D02*
X113750000Y-87228628D01*
X113511905Y-87704819D02*
X113511905Y-86704819D01*
X113511905Y-86704819D02*
X113892857Y-86704819D01*
X113892857Y-86704819D02*
X113988095Y-86752438D01*
X113988095Y-86752438D02*
X114035714Y-86800057D01*
X114035714Y-86800057D02*
X114083333Y-86895295D01*
X114083333Y-86895295D02*
X114083333Y-87038152D01*
X114083333Y-87038152D02*
X114035714Y-87133390D01*
X114035714Y-87133390D02*
X113988095Y-87181009D01*
X113988095Y-87181009D02*
X113892857Y-87228628D01*
X113892857Y-87228628D02*
X113511905Y-87228628D01*
X114464286Y-86800057D02*
X114511905Y-86752438D01*
X114511905Y-86752438D02*
X114607143Y-86704819D01*
X114607143Y-86704819D02*
X114845238Y-86704819D01*
X114845238Y-86704819D02*
X114940476Y-86752438D01*
X114940476Y-86752438D02*
X114988095Y-86800057D01*
X114988095Y-86800057D02*
X115035714Y-86895295D01*
X115035714Y-86895295D02*
X115035714Y-86990533D01*
X115035714Y-86990533D02*
X114988095Y-87133390D01*
X114988095Y-87133390D02*
X114416667Y-87704819D01*
X114416667Y-87704819D02*
X115035714Y-87704819D01*
X124126666Y-105499819D02*
X124126666Y-106214104D01*
X124126666Y-106214104D02*
X124079047Y-106356961D01*
X124079047Y-106356961D02*
X123983809Y-106452200D01*
X123983809Y-106452200D02*
X123840952Y-106499819D01*
X123840952Y-106499819D02*
X123745714Y-106499819D01*
X124745714Y-105928390D02*
X124650476Y-105880771D01*
X124650476Y-105880771D02*
X124602857Y-105833152D01*
X124602857Y-105833152D02*
X124555238Y-105737914D01*
X124555238Y-105737914D02*
X124555238Y-105690295D01*
X124555238Y-105690295D02*
X124602857Y-105595057D01*
X124602857Y-105595057D02*
X124650476Y-105547438D01*
X124650476Y-105547438D02*
X124745714Y-105499819D01*
X124745714Y-105499819D02*
X124936190Y-105499819D01*
X124936190Y-105499819D02*
X125031428Y-105547438D01*
X125031428Y-105547438D02*
X125079047Y-105595057D01*
X125079047Y-105595057D02*
X125126666Y-105690295D01*
X125126666Y-105690295D02*
X125126666Y-105737914D01*
X125126666Y-105737914D02*
X125079047Y-105833152D01*
X125079047Y-105833152D02*
X125031428Y-105880771D01*
X125031428Y-105880771D02*
X124936190Y-105928390D01*
X124936190Y-105928390D02*
X124745714Y-105928390D01*
X124745714Y-105928390D02*
X124650476Y-105976009D01*
X124650476Y-105976009D02*
X124602857Y-106023628D01*
X124602857Y-106023628D02*
X124555238Y-106118866D01*
X124555238Y-106118866D02*
X124555238Y-106309342D01*
X124555238Y-106309342D02*
X124602857Y-106404580D01*
X124602857Y-106404580D02*
X124650476Y-106452200D01*
X124650476Y-106452200D02*
X124745714Y-106499819D01*
X124745714Y-106499819D02*
X124936190Y-106499819D01*
X124936190Y-106499819D02*
X125031428Y-106452200D01*
X125031428Y-106452200D02*
X125079047Y-106404580D01*
X125079047Y-106404580D02*
X125126666Y-106309342D01*
X125126666Y-106309342D02*
X125126666Y-106118866D01*
X125126666Y-106118866D02*
X125079047Y-106023628D01*
X125079047Y-106023628D02*
X125031428Y-105976009D01*
X125031428Y-105976009D02*
X124936190Y-105928390D01*
X164290476Y-105499819D02*
X164290476Y-106214104D01*
X164290476Y-106214104D02*
X164242857Y-106356961D01*
X164242857Y-106356961D02*
X164147619Y-106452200D01*
X164147619Y-106452200D02*
X164004762Y-106499819D01*
X164004762Y-106499819D02*
X163909524Y-106499819D01*
X165290476Y-106499819D02*
X164719048Y-106499819D01*
X165004762Y-106499819D02*
X165004762Y-105499819D01*
X165004762Y-105499819D02*
X164909524Y-105642676D01*
X164909524Y-105642676D02*
X164814286Y-105737914D01*
X164814286Y-105737914D02*
X164719048Y-105785533D01*
X165909524Y-105499819D02*
X166004762Y-105499819D01*
X166004762Y-105499819D02*
X166100000Y-105547438D01*
X166100000Y-105547438D02*
X166147619Y-105595057D01*
X166147619Y-105595057D02*
X166195238Y-105690295D01*
X166195238Y-105690295D02*
X166242857Y-105880771D01*
X166242857Y-105880771D02*
X166242857Y-106118866D01*
X166242857Y-106118866D02*
X166195238Y-106309342D01*
X166195238Y-106309342D02*
X166147619Y-106404580D01*
X166147619Y-106404580D02*
X166100000Y-106452200D01*
X166100000Y-106452200D02*
X166004762Y-106499819D01*
X166004762Y-106499819D02*
X165909524Y-106499819D01*
X165909524Y-106499819D02*
X165814286Y-106452200D01*
X165814286Y-106452200D02*
X165766667Y-106404580D01*
X165766667Y-106404580D02*
X165719048Y-106309342D01*
X165719048Y-106309342D02*
X165671429Y-106118866D01*
X165671429Y-106118866D02*
X165671429Y-105880771D01*
X165671429Y-105880771D02*
X165719048Y-105690295D01*
X165719048Y-105690295D02*
X165766667Y-105595057D01*
X165766667Y-105595057D02*
X165814286Y-105547438D01*
X165814286Y-105547438D02*
X165909524Y-105499819D01*
X120833333Y-95559580D02*
X120785714Y-95607200D01*
X120785714Y-95607200D02*
X120642857Y-95654819D01*
X120642857Y-95654819D02*
X120547619Y-95654819D01*
X120547619Y-95654819D02*
X120404762Y-95607200D01*
X120404762Y-95607200D02*
X120309524Y-95511961D01*
X120309524Y-95511961D02*
X120261905Y-95416723D01*
X120261905Y-95416723D02*
X120214286Y-95226247D01*
X120214286Y-95226247D02*
X120214286Y-95083390D01*
X120214286Y-95083390D02*
X120261905Y-94892914D01*
X120261905Y-94892914D02*
X120309524Y-94797676D01*
X120309524Y-94797676D02*
X120404762Y-94702438D01*
X120404762Y-94702438D02*
X120547619Y-94654819D01*
X120547619Y-94654819D02*
X120642857Y-94654819D01*
X120642857Y-94654819D02*
X120785714Y-94702438D01*
X120785714Y-94702438D02*
X120833333Y-94750057D01*
X121166667Y-94654819D02*
X121785714Y-94654819D01*
X121785714Y-94654819D02*
X121452381Y-95035771D01*
X121452381Y-95035771D02*
X121595238Y-95035771D01*
X121595238Y-95035771D02*
X121690476Y-95083390D01*
X121690476Y-95083390D02*
X121738095Y-95131009D01*
X121738095Y-95131009D02*
X121785714Y-95226247D01*
X121785714Y-95226247D02*
X121785714Y-95464342D01*
X121785714Y-95464342D02*
X121738095Y-95559580D01*
X121738095Y-95559580D02*
X121690476Y-95607200D01*
X121690476Y-95607200D02*
X121595238Y-95654819D01*
X121595238Y-95654819D02*
X121309524Y-95654819D01*
X121309524Y-95654819D02*
X121214286Y-95607200D01*
X121214286Y-95607200D02*
X121166667Y-95559580D01*
X143343333Y-89989819D02*
X143010000Y-89513628D01*
X142771905Y-89989819D02*
X142771905Y-88989819D01*
X142771905Y-88989819D02*
X143152857Y-88989819D01*
X143152857Y-88989819D02*
X143248095Y-89037438D01*
X143248095Y-89037438D02*
X143295714Y-89085057D01*
X143295714Y-89085057D02*
X143343333Y-89180295D01*
X143343333Y-89180295D02*
X143343333Y-89323152D01*
X143343333Y-89323152D02*
X143295714Y-89418390D01*
X143295714Y-89418390D02*
X143248095Y-89466009D01*
X143248095Y-89466009D02*
X143152857Y-89513628D01*
X143152857Y-89513628D02*
X142771905Y-89513628D01*
X144200476Y-89323152D02*
X144200476Y-89989819D01*
X143962381Y-88942200D02*
X143724286Y-89656485D01*
X143724286Y-89656485D02*
X144343333Y-89656485D01*
X126611191Y-86767200D02*
X126754048Y-86814819D01*
X126754048Y-86814819D02*
X126992143Y-86814819D01*
X126992143Y-86814819D02*
X127087381Y-86767200D01*
X127087381Y-86767200D02*
X127135000Y-86719580D01*
X127135000Y-86719580D02*
X127182619Y-86624342D01*
X127182619Y-86624342D02*
X127182619Y-86529104D01*
X127182619Y-86529104D02*
X127135000Y-86433866D01*
X127135000Y-86433866D02*
X127087381Y-86386247D01*
X127087381Y-86386247D02*
X126992143Y-86338628D01*
X126992143Y-86338628D02*
X126801667Y-86291009D01*
X126801667Y-86291009D02*
X126706429Y-86243390D01*
X126706429Y-86243390D02*
X126658810Y-86195771D01*
X126658810Y-86195771D02*
X126611191Y-86100533D01*
X126611191Y-86100533D02*
X126611191Y-86005295D01*
X126611191Y-86005295D02*
X126658810Y-85910057D01*
X126658810Y-85910057D02*
X126706429Y-85862438D01*
X126706429Y-85862438D02*
X126801667Y-85814819D01*
X126801667Y-85814819D02*
X127039762Y-85814819D01*
X127039762Y-85814819D02*
X127182619Y-85862438D01*
X127611191Y-86814819D02*
X127611191Y-85814819D01*
X127611191Y-85814819D02*
X127849286Y-85814819D01*
X127849286Y-85814819D02*
X127992143Y-85862438D01*
X127992143Y-85862438D02*
X128087381Y-85957676D01*
X128087381Y-85957676D02*
X128135000Y-86052914D01*
X128135000Y-86052914D02*
X128182619Y-86243390D01*
X128182619Y-86243390D02*
X128182619Y-86386247D01*
X128182619Y-86386247D02*
X128135000Y-86576723D01*
X128135000Y-86576723D02*
X128087381Y-86671961D01*
X128087381Y-86671961D02*
X127992143Y-86767200D01*
X127992143Y-86767200D02*
X127849286Y-86814819D01*
X127849286Y-86814819D02*
X127611191Y-86814819D01*
X128611191Y-86814819D02*
X128611191Y-85814819D01*
X135763095Y-85954819D02*
X135763095Y-86764342D01*
X135763095Y-86764342D02*
X135810714Y-86859580D01*
X135810714Y-86859580D02*
X135858333Y-86907200D01*
X135858333Y-86907200D02*
X135953571Y-86954819D01*
X135953571Y-86954819D02*
X136144047Y-86954819D01*
X136144047Y-86954819D02*
X136239285Y-86907200D01*
X136239285Y-86907200D02*
X136286904Y-86859580D01*
X136286904Y-86859580D02*
X136334523Y-86764342D01*
X136334523Y-86764342D02*
X136334523Y-85954819D01*
X136763095Y-86050057D02*
X136810714Y-86002438D01*
X136810714Y-86002438D02*
X136905952Y-85954819D01*
X136905952Y-85954819D02*
X137144047Y-85954819D01*
X137144047Y-85954819D02*
X137239285Y-86002438D01*
X137239285Y-86002438D02*
X137286904Y-86050057D01*
X137286904Y-86050057D02*
X137334523Y-86145295D01*
X137334523Y-86145295D02*
X137334523Y-86240533D01*
X137334523Y-86240533D02*
X137286904Y-86383390D01*
X137286904Y-86383390D02*
X136715476Y-86954819D01*
X136715476Y-86954819D02*
X137334523Y-86954819D01*
X132493333Y-83954819D02*
X133064761Y-83954819D01*
X132779047Y-84954819D02*
X132779047Y-83954819D01*
X133874285Y-84954819D02*
X133398095Y-84954819D01*
X133398095Y-84954819D02*
X133398095Y-83954819D01*
X134779047Y-84859580D02*
X134731428Y-84907200D01*
X134731428Y-84907200D02*
X134588571Y-84954819D01*
X134588571Y-84954819D02*
X134493333Y-84954819D01*
X134493333Y-84954819D02*
X134350476Y-84907200D01*
X134350476Y-84907200D02*
X134255238Y-84811961D01*
X134255238Y-84811961D02*
X134207619Y-84716723D01*
X134207619Y-84716723D02*
X134160000Y-84526247D01*
X134160000Y-84526247D02*
X134160000Y-84383390D01*
X134160000Y-84383390D02*
X134207619Y-84192914D01*
X134207619Y-84192914D02*
X134255238Y-84097676D01*
X134255238Y-84097676D02*
X134350476Y-84002438D01*
X134350476Y-84002438D02*
X134493333Y-83954819D01*
X134493333Y-83954819D02*
X134588571Y-83954819D01*
X134588571Y-83954819D02*
X134731428Y-84002438D01*
X134731428Y-84002438D02*
X134779047Y-84050057D01*
X135683809Y-83954819D02*
X135207619Y-83954819D01*
X135207619Y-83954819D02*
X135160000Y-84431009D01*
X135160000Y-84431009D02*
X135207619Y-84383390D01*
X135207619Y-84383390D02*
X135302857Y-84335771D01*
X135302857Y-84335771D02*
X135540952Y-84335771D01*
X135540952Y-84335771D02*
X135636190Y-84383390D01*
X135636190Y-84383390D02*
X135683809Y-84431009D01*
X135683809Y-84431009D02*
X135731428Y-84526247D01*
X135731428Y-84526247D02*
X135731428Y-84764342D01*
X135731428Y-84764342D02*
X135683809Y-84859580D01*
X135683809Y-84859580D02*
X135636190Y-84907200D01*
X135636190Y-84907200D02*
X135540952Y-84954819D01*
X135540952Y-84954819D02*
X135302857Y-84954819D01*
X135302857Y-84954819D02*
X135207619Y-84907200D01*
X135207619Y-84907200D02*
X135160000Y-84859580D01*
X136207619Y-84954819D02*
X136398095Y-84954819D01*
X136398095Y-84954819D02*
X136493333Y-84907200D01*
X136493333Y-84907200D02*
X136540952Y-84859580D01*
X136540952Y-84859580D02*
X136636190Y-84716723D01*
X136636190Y-84716723D02*
X136683809Y-84526247D01*
X136683809Y-84526247D02*
X136683809Y-84145295D01*
X136683809Y-84145295D02*
X136636190Y-84050057D01*
X136636190Y-84050057D02*
X136588571Y-84002438D01*
X136588571Y-84002438D02*
X136493333Y-83954819D01*
X136493333Y-83954819D02*
X136302857Y-83954819D01*
X136302857Y-83954819D02*
X136207619Y-84002438D01*
X136207619Y-84002438D02*
X136160000Y-84050057D01*
X136160000Y-84050057D02*
X136112381Y-84145295D01*
X136112381Y-84145295D02*
X136112381Y-84383390D01*
X136112381Y-84383390D02*
X136160000Y-84478628D01*
X136160000Y-84478628D02*
X136207619Y-84526247D01*
X136207619Y-84526247D02*
X136302857Y-84573866D01*
X136302857Y-84573866D02*
X136493333Y-84573866D01*
X136493333Y-84573866D02*
X136588571Y-84526247D01*
X136588571Y-84526247D02*
X136636190Y-84478628D01*
X136636190Y-84478628D02*
X136683809Y-84383390D01*
X137017143Y-83954819D02*
X137683809Y-83954819D01*
X137683809Y-83954819D02*
X137255238Y-84954819D01*
X138588571Y-84954819D02*
X138017143Y-84954819D01*
X138302857Y-84954819D02*
X138302857Y-83954819D01*
X138302857Y-83954819D02*
X138207619Y-84097676D01*
X138207619Y-84097676D02*
X138112381Y-84192914D01*
X138112381Y-84192914D02*
X138017143Y-84240533D01*
X139017143Y-84954819D02*
X139017143Y-83954819D01*
X139017143Y-83954819D02*
X139398095Y-83954819D01*
X139398095Y-83954819D02*
X139493333Y-84002438D01*
X139493333Y-84002438D02*
X139540952Y-84050057D01*
X139540952Y-84050057D02*
X139588571Y-84145295D01*
X139588571Y-84145295D02*
X139588571Y-84288152D01*
X139588571Y-84288152D02*
X139540952Y-84383390D01*
X139540952Y-84383390D02*
X139493333Y-84431009D01*
X139493333Y-84431009D02*
X139398095Y-84478628D01*
X139398095Y-84478628D02*
X139017143Y-84478628D01*
X139921905Y-83954819D02*
X140160000Y-84954819D01*
X140160000Y-84954819D02*
X140350476Y-84240533D01*
X140350476Y-84240533D02*
X140540952Y-84954819D01*
X140540952Y-84954819D02*
X140779048Y-83954819D01*
X141160000Y-84954819D02*
X141160000Y-83954819D01*
X141160000Y-83954819D02*
X141540952Y-83954819D01*
X141540952Y-83954819D02*
X141636190Y-84002438D01*
X141636190Y-84002438D02*
X141683809Y-84050057D01*
X141683809Y-84050057D02*
X141731428Y-84145295D01*
X141731428Y-84145295D02*
X141731428Y-84288152D01*
X141731428Y-84288152D02*
X141683809Y-84383390D01*
X141683809Y-84383390D02*
X141636190Y-84431009D01*
X141636190Y-84431009D02*
X141540952Y-84478628D01*
X141540952Y-84478628D02*
X141160000Y-84478628D01*
X143343333Y-93704580D02*
X143295714Y-93752200D01*
X143295714Y-93752200D02*
X143152857Y-93799819D01*
X143152857Y-93799819D02*
X143057619Y-93799819D01*
X143057619Y-93799819D02*
X142914762Y-93752200D01*
X142914762Y-93752200D02*
X142819524Y-93656961D01*
X142819524Y-93656961D02*
X142771905Y-93561723D01*
X142771905Y-93561723D02*
X142724286Y-93371247D01*
X142724286Y-93371247D02*
X142724286Y-93228390D01*
X142724286Y-93228390D02*
X142771905Y-93037914D01*
X142771905Y-93037914D02*
X142819524Y-92942676D01*
X142819524Y-92942676D02*
X142914762Y-92847438D01*
X142914762Y-92847438D02*
X143057619Y-92799819D01*
X143057619Y-92799819D02*
X143152857Y-92799819D01*
X143152857Y-92799819D02*
X143295714Y-92847438D01*
X143295714Y-92847438D02*
X143343333Y-92895057D01*
X144200476Y-92799819D02*
X144010000Y-92799819D01*
X144010000Y-92799819D02*
X143914762Y-92847438D01*
X143914762Y-92847438D02*
X143867143Y-92895057D01*
X143867143Y-92895057D02*
X143771905Y-93037914D01*
X143771905Y-93037914D02*
X143724286Y-93228390D01*
X143724286Y-93228390D02*
X143724286Y-93609342D01*
X143724286Y-93609342D02*
X143771905Y-93704580D01*
X143771905Y-93704580D02*
X143819524Y-93752200D01*
X143819524Y-93752200D02*
X143914762Y-93799819D01*
X143914762Y-93799819D02*
X144105238Y-93799819D01*
X144105238Y-93799819D02*
X144200476Y-93752200D01*
X144200476Y-93752200D02*
X144248095Y-93704580D01*
X144248095Y-93704580D02*
X144295714Y-93609342D01*
X144295714Y-93609342D02*
X144295714Y-93371247D01*
X144295714Y-93371247D02*
X144248095Y-93276009D01*
X144248095Y-93276009D02*
X144200476Y-93228390D01*
X144200476Y-93228390D02*
X144105238Y-93180771D01*
X144105238Y-93180771D02*
X143914762Y-93180771D01*
X143914762Y-93180771D02*
X143819524Y-93228390D01*
X143819524Y-93228390D02*
X143771905Y-93276009D01*
X143771905Y-93276009D02*
X143724286Y-93371247D01*
X165554819Y-88706785D02*
X164554819Y-88706785D01*
X164554819Y-88706785D02*
X164554819Y-88468690D01*
X164554819Y-88468690D02*
X164602438Y-88325833D01*
X164602438Y-88325833D02*
X164697676Y-88230595D01*
X164697676Y-88230595D02*
X164792914Y-88182976D01*
X164792914Y-88182976D02*
X164983390Y-88135357D01*
X164983390Y-88135357D02*
X165126247Y-88135357D01*
X165126247Y-88135357D02*
X165316723Y-88182976D01*
X165316723Y-88182976D02*
X165411961Y-88230595D01*
X165411961Y-88230595D02*
X165507200Y-88325833D01*
X165507200Y-88325833D02*
X165554819Y-88468690D01*
X165554819Y-88468690D02*
X165554819Y-88706785D01*
X165554819Y-87182976D02*
X165554819Y-87754404D01*
X165554819Y-87468690D02*
X164554819Y-87468690D01*
X164554819Y-87468690D02*
X164697676Y-87563928D01*
X164697676Y-87563928D02*
X164792914Y-87659166D01*
X164792914Y-87659166D02*
X164840533Y-87754404D01*
X164554819Y-86563928D02*
X164554819Y-86468690D01*
X164554819Y-86468690D02*
X164602438Y-86373452D01*
X164602438Y-86373452D02*
X164650057Y-86325833D01*
X164650057Y-86325833D02*
X164745295Y-86278214D01*
X164745295Y-86278214D02*
X164935771Y-86230595D01*
X164935771Y-86230595D02*
X165173866Y-86230595D01*
X165173866Y-86230595D02*
X165364342Y-86278214D01*
X165364342Y-86278214D02*
X165459580Y-86325833D01*
X165459580Y-86325833D02*
X165507200Y-86373452D01*
X165507200Y-86373452D02*
X165554819Y-86468690D01*
X165554819Y-86468690D02*
X165554819Y-86563928D01*
X165554819Y-86563928D02*
X165507200Y-86659166D01*
X165507200Y-86659166D02*
X165459580Y-86706785D01*
X165459580Y-86706785D02*
X165364342Y-86754404D01*
X165364342Y-86754404D02*
X165173866Y-86802023D01*
X165173866Y-86802023D02*
X164935771Y-86802023D01*
X164935771Y-86802023D02*
X164745295Y-86754404D01*
X164745295Y-86754404D02*
X164650057Y-86706785D01*
X164650057Y-86706785D02*
X164602438Y-86659166D01*
X164602438Y-86659166D02*
X164554819Y-86563928D01*
X180794819Y-88865594D02*
X179794819Y-88865594D01*
X179794819Y-88865594D02*
X179794819Y-88627499D01*
X179794819Y-88627499D02*
X179842438Y-88484642D01*
X179842438Y-88484642D02*
X179937676Y-88389404D01*
X179937676Y-88389404D02*
X180032914Y-88341785D01*
X180032914Y-88341785D02*
X180223390Y-88294166D01*
X180223390Y-88294166D02*
X180366247Y-88294166D01*
X180366247Y-88294166D02*
X180556723Y-88341785D01*
X180556723Y-88341785D02*
X180651961Y-88389404D01*
X180651961Y-88389404D02*
X180747200Y-88484642D01*
X180747200Y-88484642D02*
X180794819Y-88627499D01*
X180794819Y-88627499D02*
X180794819Y-88865594D01*
X179794819Y-87389404D02*
X179794819Y-87865594D01*
X179794819Y-87865594D02*
X180271009Y-87913213D01*
X180271009Y-87913213D02*
X180223390Y-87865594D01*
X180223390Y-87865594D02*
X180175771Y-87770356D01*
X180175771Y-87770356D02*
X180175771Y-87532261D01*
X180175771Y-87532261D02*
X180223390Y-87437023D01*
X180223390Y-87437023D02*
X180271009Y-87389404D01*
X180271009Y-87389404D02*
X180366247Y-87341785D01*
X180366247Y-87341785D02*
X180604342Y-87341785D01*
X180604342Y-87341785D02*
X180699580Y-87389404D01*
X180699580Y-87389404D02*
X180747200Y-87437023D01*
X180747200Y-87437023D02*
X180794819Y-87532261D01*
X180794819Y-87532261D02*
X180794819Y-87770356D01*
X180794819Y-87770356D02*
X180747200Y-87865594D01*
X180747200Y-87865594D02*
X180699580Y-87913213D01*
X126325476Y-93117200D02*
X126468333Y-93164819D01*
X126468333Y-93164819D02*
X126706428Y-93164819D01*
X126706428Y-93164819D02*
X126801666Y-93117200D01*
X126801666Y-93117200D02*
X126849285Y-93069580D01*
X126849285Y-93069580D02*
X126896904Y-92974342D01*
X126896904Y-92974342D02*
X126896904Y-92879104D01*
X126896904Y-92879104D02*
X126849285Y-92783866D01*
X126849285Y-92783866D02*
X126801666Y-92736247D01*
X126801666Y-92736247D02*
X126706428Y-92688628D01*
X126706428Y-92688628D02*
X126515952Y-92641009D01*
X126515952Y-92641009D02*
X126420714Y-92593390D01*
X126420714Y-92593390D02*
X126373095Y-92545771D01*
X126373095Y-92545771D02*
X126325476Y-92450533D01*
X126325476Y-92450533D02*
X126325476Y-92355295D01*
X126325476Y-92355295D02*
X126373095Y-92260057D01*
X126373095Y-92260057D02*
X126420714Y-92212438D01*
X126420714Y-92212438D02*
X126515952Y-92164819D01*
X126515952Y-92164819D02*
X126754047Y-92164819D01*
X126754047Y-92164819D02*
X126896904Y-92212438D01*
X127896904Y-93069580D02*
X127849285Y-93117200D01*
X127849285Y-93117200D02*
X127706428Y-93164819D01*
X127706428Y-93164819D02*
X127611190Y-93164819D01*
X127611190Y-93164819D02*
X127468333Y-93117200D01*
X127468333Y-93117200D02*
X127373095Y-93021961D01*
X127373095Y-93021961D02*
X127325476Y-92926723D01*
X127325476Y-92926723D02*
X127277857Y-92736247D01*
X127277857Y-92736247D02*
X127277857Y-92593390D01*
X127277857Y-92593390D02*
X127325476Y-92402914D01*
X127325476Y-92402914D02*
X127373095Y-92307676D01*
X127373095Y-92307676D02*
X127468333Y-92212438D01*
X127468333Y-92212438D02*
X127611190Y-92164819D01*
X127611190Y-92164819D02*
X127706428Y-92164819D01*
X127706428Y-92164819D02*
X127849285Y-92212438D01*
X127849285Y-92212438D02*
X127896904Y-92260057D01*
X128515952Y-92164819D02*
X128706428Y-92164819D01*
X128706428Y-92164819D02*
X128801666Y-92212438D01*
X128801666Y-92212438D02*
X128896904Y-92307676D01*
X128896904Y-92307676D02*
X128944523Y-92498152D01*
X128944523Y-92498152D02*
X128944523Y-92831485D01*
X128944523Y-92831485D02*
X128896904Y-93021961D01*
X128896904Y-93021961D02*
X128801666Y-93117200D01*
X128801666Y-93117200D02*
X128706428Y-93164819D01*
X128706428Y-93164819D02*
X128515952Y-93164819D01*
X128515952Y-93164819D02*
X128420714Y-93117200D01*
X128420714Y-93117200D02*
X128325476Y-93021961D01*
X128325476Y-93021961D02*
X128277857Y-92831485D01*
X128277857Y-92831485D02*
X128277857Y-92498152D01*
X128277857Y-92498152D02*
X128325476Y-92307676D01*
X128325476Y-92307676D02*
X128420714Y-92212438D01*
X128420714Y-92212438D02*
X128515952Y-92164819D01*
X183334819Y-88865594D02*
X182334819Y-88865594D01*
X182334819Y-88865594D02*
X182334819Y-88627499D01*
X182334819Y-88627499D02*
X182382438Y-88484642D01*
X182382438Y-88484642D02*
X182477676Y-88389404D01*
X182477676Y-88389404D02*
X182572914Y-88341785D01*
X182572914Y-88341785D02*
X182763390Y-88294166D01*
X182763390Y-88294166D02*
X182906247Y-88294166D01*
X182906247Y-88294166D02*
X183096723Y-88341785D01*
X183096723Y-88341785D02*
X183191961Y-88389404D01*
X183191961Y-88389404D02*
X183287200Y-88484642D01*
X183287200Y-88484642D02*
X183334819Y-88627499D01*
X183334819Y-88627499D02*
X183334819Y-88865594D01*
X182668152Y-87437023D02*
X183334819Y-87437023D01*
X182287200Y-87675118D02*
X183001485Y-87913213D01*
X183001485Y-87913213D02*
X183001485Y-87294166D01*
X126325476Y-91212200D02*
X126468333Y-91259819D01*
X126468333Y-91259819D02*
X126706428Y-91259819D01*
X126706428Y-91259819D02*
X126801666Y-91212200D01*
X126801666Y-91212200D02*
X126849285Y-91164580D01*
X126849285Y-91164580D02*
X126896904Y-91069342D01*
X126896904Y-91069342D02*
X126896904Y-90974104D01*
X126896904Y-90974104D02*
X126849285Y-90878866D01*
X126849285Y-90878866D02*
X126801666Y-90831247D01*
X126801666Y-90831247D02*
X126706428Y-90783628D01*
X126706428Y-90783628D02*
X126515952Y-90736009D01*
X126515952Y-90736009D02*
X126420714Y-90688390D01*
X126420714Y-90688390D02*
X126373095Y-90640771D01*
X126373095Y-90640771D02*
X126325476Y-90545533D01*
X126325476Y-90545533D02*
X126325476Y-90450295D01*
X126325476Y-90450295D02*
X126373095Y-90355057D01*
X126373095Y-90355057D02*
X126420714Y-90307438D01*
X126420714Y-90307438D02*
X126515952Y-90259819D01*
X126515952Y-90259819D02*
X126754047Y-90259819D01*
X126754047Y-90259819D02*
X126896904Y-90307438D01*
X127325476Y-91259819D02*
X127325476Y-90259819D01*
X127325476Y-90259819D02*
X127563571Y-90259819D01*
X127563571Y-90259819D02*
X127706428Y-90307438D01*
X127706428Y-90307438D02*
X127801666Y-90402676D01*
X127801666Y-90402676D02*
X127849285Y-90497914D01*
X127849285Y-90497914D02*
X127896904Y-90688390D01*
X127896904Y-90688390D02*
X127896904Y-90831247D01*
X127896904Y-90831247D02*
X127849285Y-91021723D01*
X127849285Y-91021723D02*
X127801666Y-91116961D01*
X127801666Y-91116961D02*
X127706428Y-91212200D01*
X127706428Y-91212200D02*
X127563571Y-91259819D01*
X127563571Y-91259819D02*
X127325476Y-91259819D01*
X128515952Y-90259819D02*
X128706428Y-90259819D01*
X128706428Y-90259819D02*
X128801666Y-90307438D01*
X128801666Y-90307438D02*
X128896904Y-90402676D01*
X128896904Y-90402676D02*
X128944523Y-90593152D01*
X128944523Y-90593152D02*
X128944523Y-90926485D01*
X128944523Y-90926485D02*
X128896904Y-91116961D01*
X128896904Y-91116961D02*
X128801666Y-91212200D01*
X128801666Y-91212200D02*
X128706428Y-91259819D01*
X128706428Y-91259819D02*
X128515952Y-91259819D01*
X128515952Y-91259819D02*
X128420714Y-91212200D01*
X128420714Y-91212200D02*
X128325476Y-91116961D01*
X128325476Y-91116961D02*
X128277857Y-90926485D01*
X128277857Y-90926485D02*
X128277857Y-90593152D01*
X128277857Y-90593152D02*
X128325476Y-90402676D01*
X128325476Y-90402676D02*
X128420714Y-90307438D01*
X128420714Y-90307438D02*
X128515952Y-90259819D01*
X120833333Y-93359580D02*
X120785714Y-93407200D01*
X120785714Y-93407200D02*
X120642857Y-93454819D01*
X120642857Y-93454819D02*
X120547619Y-93454819D01*
X120547619Y-93454819D02*
X120404762Y-93407200D01*
X120404762Y-93407200D02*
X120309524Y-93311961D01*
X120309524Y-93311961D02*
X120261905Y-93216723D01*
X120261905Y-93216723D02*
X120214286Y-93026247D01*
X120214286Y-93026247D02*
X120214286Y-92883390D01*
X120214286Y-92883390D02*
X120261905Y-92692914D01*
X120261905Y-92692914D02*
X120309524Y-92597676D01*
X120309524Y-92597676D02*
X120404762Y-92502438D01*
X120404762Y-92502438D02*
X120547619Y-92454819D01*
X120547619Y-92454819D02*
X120642857Y-92454819D01*
X120642857Y-92454819D02*
X120785714Y-92502438D01*
X120785714Y-92502438D02*
X120833333Y-92550057D01*
X121690476Y-92788152D02*
X121690476Y-93454819D01*
X121452381Y-92407200D02*
X121214286Y-93121485D01*
X121214286Y-93121485D02*
X121833333Y-93121485D01*
X141906666Y-105499819D02*
X141906666Y-106214104D01*
X141906666Y-106214104D02*
X141859047Y-106356961D01*
X141859047Y-106356961D02*
X141763809Y-106452200D01*
X141763809Y-106452200D02*
X141620952Y-106499819D01*
X141620952Y-106499819D02*
X141525714Y-106499819D01*
X142430476Y-106499819D02*
X142620952Y-106499819D01*
X142620952Y-106499819D02*
X142716190Y-106452200D01*
X142716190Y-106452200D02*
X142763809Y-106404580D01*
X142763809Y-106404580D02*
X142859047Y-106261723D01*
X142859047Y-106261723D02*
X142906666Y-106071247D01*
X142906666Y-106071247D02*
X142906666Y-105690295D01*
X142906666Y-105690295D02*
X142859047Y-105595057D01*
X142859047Y-105595057D02*
X142811428Y-105547438D01*
X142811428Y-105547438D02*
X142716190Y-105499819D01*
X142716190Y-105499819D02*
X142525714Y-105499819D01*
X142525714Y-105499819D02*
X142430476Y-105547438D01*
X142430476Y-105547438D02*
X142382857Y-105595057D01*
X142382857Y-105595057D02*
X142335238Y-105690295D01*
X142335238Y-105690295D02*
X142335238Y-105928390D01*
X142335238Y-105928390D02*
X142382857Y-106023628D01*
X142382857Y-106023628D02*
X142430476Y-106071247D01*
X142430476Y-106071247D02*
X142525714Y-106118866D01*
X142525714Y-106118866D02*
X142716190Y-106118866D01*
X142716190Y-106118866D02*
X142811428Y-106071247D01*
X142811428Y-106071247D02*
X142859047Y-106023628D01*
X142859047Y-106023628D02*
X142906666Y-105928390D01*
X120238095Y-83954819D02*
X120238095Y-84764342D01*
X120238095Y-84764342D02*
X120285714Y-84859580D01*
X120285714Y-84859580D02*
X120333333Y-84907200D01*
X120333333Y-84907200D02*
X120428571Y-84954819D01*
X120428571Y-84954819D02*
X120619047Y-84954819D01*
X120619047Y-84954819D02*
X120714285Y-84907200D01*
X120714285Y-84907200D02*
X120761904Y-84859580D01*
X120761904Y-84859580D02*
X120809523Y-84764342D01*
X120809523Y-84764342D02*
X120809523Y-83954819D01*
X121809523Y-84954819D02*
X121238095Y-84954819D01*
X121523809Y-84954819D02*
X121523809Y-83954819D01*
X121523809Y-83954819D02*
X121428571Y-84097676D01*
X121428571Y-84097676D02*
X121333333Y-84192914D01*
X121333333Y-84192914D02*
X121238095Y-84240533D01*
X118000000Y-82907200D02*
X118142857Y-82954819D01*
X118142857Y-82954819D02*
X118380952Y-82954819D01*
X118380952Y-82954819D02*
X118476190Y-82907200D01*
X118476190Y-82907200D02*
X118523809Y-82859580D01*
X118523809Y-82859580D02*
X118571428Y-82764342D01*
X118571428Y-82764342D02*
X118571428Y-82669104D01*
X118571428Y-82669104D02*
X118523809Y-82573866D01*
X118523809Y-82573866D02*
X118476190Y-82526247D01*
X118476190Y-82526247D02*
X118380952Y-82478628D01*
X118380952Y-82478628D02*
X118190476Y-82431009D01*
X118190476Y-82431009D02*
X118095238Y-82383390D01*
X118095238Y-82383390D02*
X118047619Y-82335771D01*
X118047619Y-82335771D02*
X118000000Y-82240533D01*
X118000000Y-82240533D02*
X118000000Y-82145295D01*
X118000000Y-82145295D02*
X118047619Y-82050057D01*
X118047619Y-82050057D02*
X118095238Y-82002438D01*
X118095238Y-82002438D02*
X118190476Y-81954819D01*
X118190476Y-81954819D02*
X118428571Y-81954819D01*
X118428571Y-81954819D02*
X118571428Y-82002438D01*
X119000000Y-82954819D02*
X119000000Y-81954819D01*
X119000000Y-81954819D02*
X119571428Y-82954819D01*
X119571428Y-82954819D02*
X119571428Y-81954819D01*
X120476190Y-81954819D02*
X120285714Y-81954819D01*
X120285714Y-81954819D02*
X120190476Y-82002438D01*
X120190476Y-82002438D02*
X120142857Y-82050057D01*
X120142857Y-82050057D02*
X120047619Y-82192914D01*
X120047619Y-82192914D02*
X120000000Y-82383390D01*
X120000000Y-82383390D02*
X120000000Y-82764342D01*
X120000000Y-82764342D02*
X120047619Y-82859580D01*
X120047619Y-82859580D02*
X120095238Y-82907200D01*
X120095238Y-82907200D02*
X120190476Y-82954819D01*
X120190476Y-82954819D02*
X120380952Y-82954819D01*
X120380952Y-82954819D02*
X120476190Y-82907200D01*
X120476190Y-82907200D02*
X120523809Y-82859580D01*
X120523809Y-82859580D02*
X120571428Y-82764342D01*
X120571428Y-82764342D02*
X120571428Y-82526247D01*
X120571428Y-82526247D02*
X120523809Y-82431009D01*
X120523809Y-82431009D02*
X120476190Y-82383390D01*
X120476190Y-82383390D02*
X120380952Y-82335771D01*
X120380952Y-82335771D02*
X120190476Y-82335771D01*
X120190476Y-82335771D02*
X120095238Y-82383390D01*
X120095238Y-82383390D02*
X120047619Y-82431009D01*
X120047619Y-82431009D02*
X120000000Y-82526247D01*
X121476190Y-81954819D02*
X121000000Y-81954819D01*
X121000000Y-81954819D02*
X120952381Y-82431009D01*
X120952381Y-82431009D02*
X121000000Y-82383390D01*
X121000000Y-82383390D02*
X121095238Y-82335771D01*
X121095238Y-82335771D02*
X121333333Y-82335771D01*
X121333333Y-82335771D02*
X121428571Y-82383390D01*
X121428571Y-82383390D02*
X121476190Y-82431009D01*
X121476190Y-82431009D02*
X121523809Y-82526247D01*
X121523809Y-82526247D02*
X121523809Y-82764342D01*
X121523809Y-82764342D02*
X121476190Y-82859580D01*
X121476190Y-82859580D02*
X121428571Y-82907200D01*
X121428571Y-82907200D02*
X121333333Y-82954819D01*
X121333333Y-82954819D02*
X121095238Y-82954819D01*
X121095238Y-82954819D02*
X121000000Y-82907200D01*
X121000000Y-82907200D02*
X120952381Y-82859580D01*
X122428571Y-82954819D02*
X121952381Y-82954819D01*
X121952381Y-82954819D02*
X121952381Y-81954819D01*
X122619048Y-81954819D02*
X122952381Y-82954819D01*
X122952381Y-82954819D02*
X123285714Y-81954819D01*
X123619048Y-82954819D02*
X123619048Y-81954819D01*
X123619048Y-81954819D02*
X123857143Y-81954819D01*
X123857143Y-81954819D02*
X124000000Y-82002438D01*
X124000000Y-82002438D02*
X124095238Y-82097676D01*
X124095238Y-82097676D02*
X124142857Y-82192914D01*
X124142857Y-82192914D02*
X124190476Y-82383390D01*
X124190476Y-82383390D02*
X124190476Y-82526247D01*
X124190476Y-82526247D02*
X124142857Y-82716723D01*
X124142857Y-82716723D02*
X124095238Y-82811961D01*
X124095238Y-82811961D02*
X124000000Y-82907200D01*
X124000000Y-82907200D02*
X123857143Y-82954819D01*
X123857143Y-82954819D02*
X123619048Y-82954819D01*
X124571429Y-82907200D02*
X124714286Y-82954819D01*
X124714286Y-82954819D02*
X124952381Y-82954819D01*
X124952381Y-82954819D02*
X125047619Y-82907200D01*
X125047619Y-82907200D02*
X125095238Y-82859580D01*
X125095238Y-82859580D02*
X125142857Y-82764342D01*
X125142857Y-82764342D02*
X125142857Y-82669104D01*
X125142857Y-82669104D02*
X125095238Y-82573866D01*
X125095238Y-82573866D02*
X125047619Y-82526247D01*
X125047619Y-82526247D02*
X124952381Y-82478628D01*
X124952381Y-82478628D02*
X124761905Y-82431009D01*
X124761905Y-82431009D02*
X124666667Y-82383390D01*
X124666667Y-82383390D02*
X124619048Y-82335771D01*
X124619048Y-82335771D02*
X124571429Y-82240533D01*
X124571429Y-82240533D02*
X124571429Y-82145295D01*
X124571429Y-82145295D02*
X124619048Y-82050057D01*
X124619048Y-82050057D02*
X124666667Y-82002438D01*
X124666667Y-82002438D02*
X124761905Y-81954819D01*
X124761905Y-81954819D02*
X125000000Y-81954819D01*
X125000000Y-81954819D02*
X125142857Y-82002438D01*
X125761905Y-81954819D02*
X125857143Y-81954819D01*
X125857143Y-81954819D02*
X125952381Y-82002438D01*
X125952381Y-82002438D02*
X126000000Y-82050057D01*
X126000000Y-82050057D02*
X126047619Y-82145295D01*
X126047619Y-82145295D02*
X126095238Y-82335771D01*
X126095238Y-82335771D02*
X126095238Y-82573866D01*
X126095238Y-82573866D02*
X126047619Y-82764342D01*
X126047619Y-82764342D02*
X126000000Y-82859580D01*
X126000000Y-82859580D02*
X125952381Y-82907200D01*
X125952381Y-82907200D02*
X125857143Y-82954819D01*
X125857143Y-82954819D02*
X125761905Y-82954819D01*
X125761905Y-82954819D02*
X125666667Y-82907200D01*
X125666667Y-82907200D02*
X125619048Y-82859580D01*
X125619048Y-82859580D02*
X125571429Y-82764342D01*
X125571429Y-82764342D02*
X125523810Y-82573866D01*
X125523810Y-82573866D02*
X125523810Y-82335771D01*
X125523810Y-82335771D02*
X125571429Y-82145295D01*
X125571429Y-82145295D02*
X125619048Y-82050057D01*
X125619048Y-82050057D02*
X125666667Y-82002438D01*
X125666667Y-82002438D02*
X125761905Y-81954819D01*
X126952381Y-82288152D02*
X126952381Y-82954819D01*
X126714286Y-81907200D02*
X126476191Y-82621485D01*
X126476191Y-82621485D02*
X127095238Y-82621485D01*
X127523810Y-82954819D02*
X127714286Y-82954819D01*
X127714286Y-82954819D02*
X127809524Y-82907200D01*
X127809524Y-82907200D02*
X127857143Y-82859580D01*
X127857143Y-82859580D02*
X127952381Y-82716723D01*
X127952381Y-82716723D02*
X128000000Y-82526247D01*
X128000000Y-82526247D02*
X128000000Y-82145295D01*
X128000000Y-82145295D02*
X127952381Y-82050057D01*
X127952381Y-82050057D02*
X127904762Y-82002438D01*
X127904762Y-82002438D02*
X127809524Y-81954819D01*
X127809524Y-81954819D02*
X127619048Y-81954819D01*
X127619048Y-81954819D02*
X127523810Y-82002438D01*
X127523810Y-82002438D02*
X127476191Y-82050057D01*
X127476191Y-82050057D02*
X127428572Y-82145295D01*
X127428572Y-82145295D02*
X127428572Y-82383390D01*
X127428572Y-82383390D02*
X127476191Y-82478628D01*
X127476191Y-82478628D02*
X127523810Y-82526247D01*
X127523810Y-82526247D02*
X127619048Y-82573866D01*
X127619048Y-82573866D02*
X127809524Y-82573866D01*
X127809524Y-82573866D02*
X127904762Y-82526247D01*
X127904762Y-82526247D02*
X127952381Y-82478628D01*
X127952381Y-82478628D02*
X128000000Y-82383390D01*
X170634819Y-88865594D02*
X169634819Y-88865594D01*
X169634819Y-88865594D02*
X169634819Y-88627499D01*
X169634819Y-88627499D02*
X169682438Y-88484642D01*
X169682438Y-88484642D02*
X169777676Y-88389404D01*
X169777676Y-88389404D02*
X169872914Y-88341785D01*
X169872914Y-88341785D02*
X170063390Y-88294166D01*
X170063390Y-88294166D02*
X170206247Y-88294166D01*
X170206247Y-88294166D02*
X170396723Y-88341785D01*
X170396723Y-88341785D02*
X170491961Y-88389404D01*
X170491961Y-88389404D02*
X170587200Y-88484642D01*
X170587200Y-88484642D02*
X170634819Y-88627499D01*
X170634819Y-88627499D02*
X170634819Y-88865594D01*
X170063390Y-87722737D02*
X170015771Y-87817975D01*
X170015771Y-87817975D02*
X169968152Y-87865594D01*
X169968152Y-87865594D02*
X169872914Y-87913213D01*
X169872914Y-87913213D02*
X169825295Y-87913213D01*
X169825295Y-87913213D02*
X169730057Y-87865594D01*
X169730057Y-87865594D02*
X169682438Y-87817975D01*
X169682438Y-87817975D02*
X169634819Y-87722737D01*
X169634819Y-87722737D02*
X169634819Y-87532261D01*
X169634819Y-87532261D02*
X169682438Y-87437023D01*
X169682438Y-87437023D02*
X169730057Y-87389404D01*
X169730057Y-87389404D02*
X169825295Y-87341785D01*
X169825295Y-87341785D02*
X169872914Y-87341785D01*
X169872914Y-87341785D02*
X169968152Y-87389404D01*
X169968152Y-87389404D02*
X170015771Y-87437023D01*
X170015771Y-87437023D02*
X170063390Y-87532261D01*
X170063390Y-87532261D02*
X170063390Y-87722737D01*
X170063390Y-87722737D02*
X170111009Y-87817975D01*
X170111009Y-87817975D02*
X170158628Y-87865594D01*
X170158628Y-87865594D02*
X170253866Y-87913213D01*
X170253866Y-87913213D02*
X170444342Y-87913213D01*
X170444342Y-87913213D02*
X170539580Y-87865594D01*
X170539580Y-87865594D02*
X170587200Y-87817975D01*
X170587200Y-87817975D02*
X170634819Y-87722737D01*
X170634819Y-87722737D02*
X170634819Y-87532261D01*
X170634819Y-87532261D02*
X170587200Y-87437023D01*
X170587200Y-87437023D02*
X170539580Y-87389404D01*
X170539580Y-87389404D02*
X170444342Y-87341785D01*
X170444342Y-87341785D02*
X170253866Y-87341785D01*
X170253866Y-87341785D02*
X170158628Y-87389404D01*
X170158628Y-87389404D02*
X170111009Y-87437023D01*
X170111009Y-87437023D02*
X170063390Y-87532261D01*
X188414819Y-88865594D02*
X187414819Y-88865594D01*
X187414819Y-88865594D02*
X187414819Y-88627499D01*
X187414819Y-88627499D02*
X187462438Y-88484642D01*
X187462438Y-88484642D02*
X187557676Y-88389404D01*
X187557676Y-88389404D02*
X187652914Y-88341785D01*
X187652914Y-88341785D02*
X187843390Y-88294166D01*
X187843390Y-88294166D02*
X187986247Y-88294166D01*
X187986247Y-88294166D02*
X188176723Y-88341785D01*
X188176723Y-88341785D02*
X188271961Y-88389404D01*
X188271961Y-88389404D02*
X188367200Y-88484642D01*
X188367200Y-88484642D02*
X188414819Y-88627499D01*
X188414819Y-88627499D02*
X188414819Y-88865594D01*
X187510057Y-87913213D02*
X187462438Y-87865594D01*
X187462438Y-87865594D02*
X187414819Y-87770356D01*
X187414819Y-87770356D02*
X187414819Y-87532261D01*
X187414819Y-87532261D02*
X187462438Y-87437023D01*
X187462438Y-87437023D02*
X187510057Y-87389404D01*
X187510057Y-87389404D02*
X187605295Y-87341785D01*
X187605295Y-87341785D02*
X187700533Y-87341785D01*
X187700533Y-87341785D02*
X187843390Y-87389404D01*
X187843390Y-87389404D02*
X188414819Y-87960832D01*
X188414819Y-87960832D02*
X188414819Y-87341785D01*
X105540833Y-106049819D02*
X105207500Y-105573628D01*
X104969405Y-106049819D02*
X104969405Y-105049819D01*
X104969405Y-105049819D02*
X105350357Y-105049819D01*
X105350357Y-105049819D02*
X105445595Y-105097438D01*
X105445595Y-105097438D02*
X105493214Y-105145057D01*
X105493214Y-105145057D02*
X105540833Y-105240295D01*
X105540833Y-105240295D02*
X105540833Y-105383152D01*
X105540833Y-105383152D02*
X105493214Y-105478390D01*
X105493214Y-105478390D02*
X105445595Y-105526009D01*
X105445595Y-105526009D02*
X105350357Y-105573628D01*
X105350357Y-105573628D02*
X104969405Y-105573628D01*
X105874167Y-105049819D02*
X106493214Y-105049819D01*
X106493214Y-105049819D02*
X106159881Y-105430771D01*
X106159881Y-105430771D02*
X106302738Y-105430771D01*
X106302738Y-105430771D02*
X106397976Y-105478390D01*
X106397976Y-105478390D02*
X106445595Y-105526009D01*
X106445595Y-105526009D02*
X106493214Y-105621247D01*
X106493214Y-105621247D02*
X106493214Y-105859342D01*
X106493214Y-105859342D02*
X106445595Y-105954580D01*
X106445595Y-105954580D02*
X106397976Y-106002200D01*
X106397976Y-106002200D02*
X106302738Y-106049819D01*
X106302738Y-106049819D02*
X106017024Y-106049819D01*
X106017024Y-106049819D02*
X105921786Y-106002200D01*
X105921786Y-106002200D02*
X105874167Y-105954580D01*
D11*
%TO.C,R5*%
X151235000Y-91227064D02*
X151235000Y-90772936D01*
X149765000Y-91227064D02*
X149765000Y-90772936D01*
%TO.C,J3*%
X154855000Y-91020000D02*
X154855000Y-93620000D01*
X154855000Y-88420000D02*
X154855000Y-89750000D01*
X153525000Y-88420000D02*
X154855000Y-88420000D01*
X152195000Y-93620000D02*
X154855000Y-93620000D01*
X152195000Y-91020000D02*
X154855000Y-91020000D01*
X152195000Y-91020000D02*
X152195000Y-93620000D01*
%TO.C,D11*%
X161600000Y-89315000D02*
X161600000Y-92000000D01*
X163520000Y-89315000D02*
X161600000Y-89315000D01*
X163520000Y-92000000D02*
X163520000Y-89315000D01*
%TO.C,C1*%
X142613748Y-96420000D02*
X143136252Y-96420000D01*
X142613748Y-97890000D02*
X143136252Y-97890000D01*
%TO.C,J2*%
X92520000Y-84902500D02*
X92520000Y-100422500D01*
X106100000Y-84217500D02*
X106600000Y-84717500D01*
X106600000Y-84717500D02*
X107100000Y-84217500D01*
X107100000Y-84217500D02*
X106100000Y-84217500D01*
X110480000Y-84902500D02*
X92520000Y-84902500D01*
X110480000Y-100422500D02*
X92520000Y-100422500D01*
X110480000Y-100422500D02*
X110480000Y-84902500D01*
%TO.C,D3*%
X184460000Y-89315000D02*
X184460000Y-92000000D01*
X186380000Y-89315000D02*
X184460000Y-89315000D01*
X186380000Y-92000000D02*
X186380000Y-89315000D01*
%TO.C,C5*%
X124761252Y-84265000D02*
X124238748Y-84265000D01*
X124761252Y-85735000D02*
X124238748Y-85735000D01*
%TO.C,D9*%
X166680000Y-89315000D02*
X166680000Y-92000000D01*
X168600000Y-89315000D02*
X166680000Y-89315000D01*
X168600000Y-92000000D02*
X168600000Y-89315000D01*
%TO.C,J11*%
X175200000Y-107250000D02*
X175200000Y-112450000D01*
X187960000Y-107250000D02*
X175200000Y-107250000D01*
X187960000Y-107250000D02*
X187960000Y-109850000D01*
X187960000Y-109850000D02*
X190560000Y-109850000D01*
X189230000Y-107250000D02*
X190560000Y-107250000D01*
X190560000Y-107250000D02*
X190560000Y-108580000D01*
X190560000Y-109850000D02*
X190560000Y-112450000D01*
X190560000Y-112450000D02*
X175200000Y-112450000D01*
%TO.C,D12*%
X159060000Y-89315000D02*
X159060000Y-92000000D01*
X160980000Y-89315000D02*
X159060000Y-89315000D01*
X160980000Y-92000000D02*
X160980000Y-89315000D01*
%TO.C,SCI*%
X130875000Y-88265000D02*
G75*
G02*
X129475000Y-88265000I-700000J0D01*
G01*
X129475000Y-88265000D02*
G75*
G02*
X130875000Y-88265000I700000J0D01*
G01*
%TO.C,D1*%
X100377500Y-106540000D02*
X100377500Y-108460000D01*
X100377500Y-108460000D02*
X103062500Y-108460000D01*
X103062500Y-106540000D02*
X100377500Y-106540000D01*
%TO.C,J5*%
X134560000Y-69795000D02*
X149920000Y-69795000D01*
X134560000Y-72395000D02*
X134560000Y-69795000D01*
X134560000Y-74995000D02*
X134560000Y-73665000D01*
X135890000Y-74995000D02*
X134560000Y-74995000D01*
X137160000Y-72395000D02*
X134560000Y-72395000D01*
X137160000Y-74995000D02*
X137160000Y-72395000D01*
X137160000Y-74995000D02*
X149920000Y-74995000D01*
X149920000Y-74995000D02*
X149920000Y-69795000D01*
%TO.C,J1*%
X92520000Y-69402500D02*
X92520000Y-84922500D01*
X106100000Y-68717500D02*
X106600000Y-69217500D01*
X106600000Y-69217500D02*
X107100000Y-68717500D01*
X107100000Y-68717500D02*
X106100000Y-68717500D01*
X110480000Y-69402500D02*
X92520000Y-69402500D01*
X110480000Y-84922500D02*
X92520000Y-84922500D01*
X110480000Y-84922500D02*
X110480000Y-69402500D01*
%TO.C,J7*%
X175200000Y-69795000D02*
X190560000Y-69795000D01*
X175200000Y-72395000D02*
X175200000Y-69795000D01*
X175200000Y-74995000D02*
X175200000Y-73665000D01*
X176530000Y-74995000D02*
X175200000Y-74995000D01*
X177800000Y-72395000D02*
X175200000Y-72395000D01*
X177800000Y-74995000D02*
X177800000Y-72395000D01*
X177800000Y-74995000D02*
X190560000Y-74995000D01*
X190560000Y-74995000D02*
X190560000Y-69795000D01*
%TO.C,R1*%
X115470000Y-82680436D02*
X115470000Y-83134564D01*
X116940000Y-82680436D02*
X116940000Y-83134564D01*
%TO.C,J6*%
X157420000Y-69795000D02*
X172780000Y-69795000D01*
X157420000Y-72395000D02*
X157420000Y-69795000D01*
X157420000Y-74995000D02*
X157420000Y-73665000D01*
X158750000Y-74995000D02*
X157420000Y-74995000D01*
X160020000Y-72395000D02*
X157420000Y-72395000D01*
X160020000Y-74995000D02*
X160020000Y-72395000D01*
X160020000Y-74995000D02*
X172780000Y-74995000D01*
X172780000Y-74995000D02*
X172780000Y-69795000D01*
%TO.C,J4*%
X116780000Y-69795000D02*
X132140000Y-69795000D01*
X116780000Y-72395000D02*
X116780000Y-69795000D01*
X116780000Y-74995000D02*
X116780000Y-73665000D01*
X118110000Y-74995000D02*
X116780000Y-74995000D01*
X119380000Y-72395000D02*
X116780000Y-72395000D01*
X119380000Y-74995000D02*
X119380000Y-72395000D01*
X119380000Y-74995000D02*
X132140000Y-74995000D01*
X132140000Y-74995000D02*
X132140000Y-69795000D01*
%TO.C,D6*%
X176840000Y-89315000D02*
X176840000Y-92000000D01*
X178760000Y-89315000D02*
X176840000Y-89315000D01*
X178760000Y-92000000D02*
X178760000Y-89315000D01*
%TO.C,D13*%
X156520000Y-89315000D02*
X156520000Y-92000000D01*
X158440000Y-89315000D02*
X156520000Y-89315000D01*
X158440000Y-92000000D02*
X158440000Y-89315000D01*
%TO.C,C2*%
X112015000Y-95811252D02*
X112015000Y-95288748D01*
X113485000Y-95811252D02*
X113485000Y-95288748D01*
%TO.C,D7*%
X174300000Y-89315000D02*
X174300000Y-92000000D01*
X176220000Y-89315000D02*
X174300000Y-89315000D01*
X176220000Y-92000000D02*
X176220000Y-89315000D01*
%TO.C,R2*%
X115470000Y-87579564D02*
X115470000Y-87125436D01*
X116940000Y-87579564D02*
X116940000Y-87125436D01*
%TO.C,J8*%
X116780000Y-107250000D02*
X116780000Y-112450000D01*
X129540000Y-107250000D02*
X116780000Y-107250000D01*
X129540000Y-107250000D02*
X129540000Y-109850000D01*
X129540000Y-109850000D02*
X132140000Y-109850000D01*
X130810000Y-107250000D02*
X132140000Y-107250000D01*
X132140000Y-107250000D02*
X132140000Y-108580000D01*
X132140000Y-109850000D02*
X132140000Y-112450000D01*
X132140000Y-112450000D02*
X116780000Y-112450000D01*
%TO.C,J10*%
X157420000Y-107250000D02*
X157420000Y-112450000D01*
X170180000Y-107250000D02*
X157420000Y-107250000D01*
X170180000Y-107250000D02*
X170180000Y-109850000D01*
X170180000Y-109850000D02*
X172780000Y-109850000D01*
X171450000Y-107250000D02*
X172780000Y-107250000D01*
X172780000Y-107250000D02*
X172780000Y-108580000D01*
X172780000Y-109850000D02*
X172780000Y-112450000D01*
X172780000Y-112450000D02*
X157420000Y-112450000D01*
%TO.C,C3*%
X123888748Y-95935000D02*
X124411252Y-95935000D01*
X123888748Y-94465000D02*
X124411252Y-94465000D01*
%TO.C,R4*%
X140870000Y-89337936D02*
X140870000Y-89792064D01*
X142340000Y-89337936D02*
X142340000Y-89792064D01*
%TO.C,SDI*%
X130875000Y-86360000D02*
G75*
G02*
X129475000Y-86360000I-700000J0D01*
G01*
X129475000Y-86360000D02*
G75*
G02*
X130875000Y-86360000I700000J0D01*
G01*
%TO.C,U2*%
X133015000Y-91440000D02*
X133015000Y-89240000D01*
X133015000Y-91440000D02*
X133015000Y-93640000D01*
X140035000Y-91440000D02*
X140035000Y-87790000D01*
X140035000Y-91440000D02*
X140035000Y-93640000D01*
%TO.C,C6*%
X140870000Y-93951252D02*
X140870000Y-93428748D01*
X142340000Y-93951252D02*
X142340000Y-93428748D01*
%TO.C,D10*%
X164140000Y-89315000D02*
X164140000Y-92000000D01*
X166060000Y-89315000D02*
X164140000Y-89315000D01*
X166060000Y-92000000D02*
X166060000Y-89315000D01*
%TO.C,D5*%
X179380000Y-89315000D02*
X179380000Y-92000000D01*
X181300000Y-89315000D02*
X179380000Y-89315000D01*
X181300000Y-92000000D02*
X181300000Y-89315000D01*
%TO.C,SCO*%
X130875000Y-92710000D02*
G75*
G02*
X129475000Y-92710000I-700000J0D01*
G01*
X129475000Y-92710000D02*
G75*
G02*
X130875000Y-92710000I700000J0D01*
G01*
%TO.C,D4*%
X181920000Y-89315000D02*
X181920000Y-92000000D01*
X183840000Y-89315000D02*
X181920000Y-89315000D01*
X183840000Y-92000000D02*
X183840000Y-89315000D01*
%TO.C,SDO*%
X130875000Y-90805000D02*
G75*
G02*
X129475000Y-90805000I-700000J0D01*
G01*
X129475000Y-90805000D02*
G75*
G02*
X130875000Y-90805000I700000J0D01*
G01*
%TO.C,C4*%
X123883748Y-92265000D02*
X124406252Y-92265000D01*
X123883748Y-93735000D02*
X124406252Y-93735000D01*
%TO.C,J9*%
X134560000Y-107250000D02*
X134560000Y-112450000D01*
X147320000Y-107250000D02*
X134560000Y-107250000D01*
X147320000Y-107250000D02*
X147320000Y-109850000D01*
X147320000Y-109850000D02*
X149920000Y-109850000D01*
X148590000Y-107250000D02*
X149920000Y-107250000D01*
X149920000Y-107250000D02*
X149920000Y-108580000D01*
X149920000Y-109850000D02*
X149920000Y-112450000D01*
X149920000Y-112450000D02*
X134560000Y-112450000D01*
%TO.C,U1*%
X121995000Y-86165000D02*
X118395000Y-86165000D01*
X121995000Y-86165000D02*
X124195000Y-86165000D01*
X121995000Y-91635000D02*
X119795000Y-91635000D01*
X121995000Y-91635000D02*
X124195000Y-91635000D01*
%TO.C,D8*%
X169220000Y-89315000D02*
X169220000Y-92000000D01*
X171140000Y-89315000D02*
X169220000Y-89315000D01*
X171140000Y-92000000D02*
X171140000Y-89315000D01*
%TO.C,D2*%
X187000000Y-89315000D02*
X187000000Y-92000000D01*
X188920000Y-89315000D02*
X187000000Y-89315000D01*
X188920000Y-92000000D02*
X188920000Y-89315000D01*
%TO.C,R3*%
X106292064Y-106765000D02*
X105837936Y-106765000D01*
X106292064Y-108235000D02*
X105837936Y-108235000D01*
%TD*%
M02*
