%TF.GenerationSoftware,KiCad,Pcbnew,8.0.2*%
%TF.CreationDate,2025-01-02T13:01:11+01:00*%
%TF.ProjectId,test,74657374-2e6b-4696-9361-645f70636258,rev?*%
%TF.SameCoordinates,Original*%
%TF.FileFunction,Legend,Top*%
%TF.FilePolarity,Positive*%
%FSLAX46Y46*%
G04 Gerber Fmt 4.6, Leading zero omitted, Abs format (unit mm)*
G04 Created by KiCad (PCBNEW 8.0.2) date 2025-01-02 13:01:11*
%MOMM*%
%LPD*%
G01*
G04 APERTURE LIST*
%ADD10C,0.150000*%
%ADD11C,0.120000*%
G04 APERTURE END LIST*
D10*
X163014819Y-88706785D02*
X162014819Y-88706785D01*
X162014819Y-88706785D02*
X162014819Y-88468690D01*
X162014819Y-88468690D02*
X162062438Y-88325833D01*
X162062438Y-88325833D02*
X162157676Y-88230595D01*
X162157676Y-88230595D02*
X162252914Y-88182976D01*
X162252914Y-88182976D02*
X162443390Y-88135357D01*
X162443390Y-88135357D02*
X162586247Y-88135357D01*
X162586247Y-88135357D02*
X162776723Y-88182976D01*
X162776723Y-88182976D02*
X162871961Y-88230595D01*
X162871961Y-88230595D02*
X162967200Y-88325833D01*
X162967200Y-88325833D02*
X163014819Y-88468690D01*
X163014819Y-88468690D02*
X163014819Y-88706785D01*
X163014819Y-87182976D02*
X163014819Y-87754404D01*
X163014819Y-87468690D02*
X162014819Y-87468690D01*
X162014819Y-87468690D02*
X162157676Y-87563928D01*
X162157676Y-87563928D02*
X162252914Y-87659166D01*
X162252914Y-87659166D02*
X162300533Y-87754404D01*
X163014819Y-86230595D02*
X163014819Y-86802023D01*
X163014819Y-86516309D02*
X162014819Y-86516309D01*
X162014819Y-86516309D02*
X162157676Y-86611547D01*
X162157676Y-86611547D02*
X162252914Y-86706785D01*
X162252914Y-86706785D02*
X162300533Y-86802023D01*
X139833333Y-97609580D02*
X139785714Y-97657200D01*
X139785714Y-97657200D02*
X139642857Y-97704819D01*
X139642857Y-97704819D02*
X139547619Y-97704819D01*
X139547619Y-97704819D02*
X139404762Y-97657200D01*
X139404762Y-97657200D02*
X139309524Y-97561961D01*
X139309524Y-97561961D02*
X139261905Y-97466723D01*
X139261905Y-97466723D02*
X139214286Y-97276247D01*
X139214286Y-97276247D02*
X139214286Y-97133390D01*
X139214286Y-97133390D02*
X139261905Y-96942914D01*
X139261905Y-96942914D02*
X139309524Y-96847676D01*
X139309524Y-96847676D02*
X139404762Y-96752438D01*
X139404762Y-96752438D02*
X139547619Y-96704819D01*
X139547619Y-96704819D02*
X139642857Y-96704819D01*
X139642857Y-96704819D02*
X139785714Y-96752438D01*
X139785714Y-96752438D02*
X139833333Y-96800057D01*
X140166667Y-96704819D02*
X140785714Y-96704819D01*
X140785714Y-96704819D02*
X140452381Y-97085771D01*
X140452381Y-97085771D02*
X140595238Y-97085771D01*
X140595238Y-97085771D02*
X140690476Y-97133390D01*
X140690476Y-97133390D02*
X140738095Y-97181009D01*
X140738095Y-97181009D02*
X140785714Y-97276247D01*
X140785714Y-97276247D02*
X140785714Y-97514342D01*
X140785714Y-97514342D02*
X140738095Y-97609580D01*
X140738095Y-97609580D02*
X140690476Y-97657200D01*
X140690476Y-97657200D02*
X140595238Y-97704819D01*
X140595238Y-97704819D02*
X140309524Y-97704819D01*
X140309524Y-97704819D02*
X140214286Y-97657200D01*
X140214286Y-97657200D02*
X140166667Y-97609580D01*
X111666666Y-89954819D02*
X111666666Y-90669104D01*
X111666666Y-90669104D02*
X111619047Y-90811961D01*
X111619047Y-90811961D02*
X111523809Y-90907200D01*
X111523809Y-90907200D02*
X111380952Y-90954819D01*
X111380952Y-90954819D02*
X111285714Y-90954819D01*
X112095238Y-90050057D02*
X112142857Y-90002438D01*
X112142857Y-90002438D02*
X112238095Y-89954819D01*
X112238095Y-89954819D02*
X112476190Y-89954819D01*
X112476190Y-89954819D02*
X112571428Y-90002438D01*
X112571428Y-90002438D02*
X112619047Y-90050057D01*
X112619047Y-90050057D02*
X112666666Y-90145295D01*
X112666666Y-90145295D02*
X112666666Y-90240533D01*
X112666666Y-90240533D02*
X112619047Y-90383390D01*
X112619047Y-90383390D02*
X112047619Y-90954819D01*
X112047619Y-90954819D02*
X112666666Y-90954819D01*
X185874819Y-88865594D02*
X184874819Y-88865594D01*
X184874819Y-88865594D02*
X184874819Y-88627499D01*
X184874819Y-88627499D02*
X184922438Y-88484642D01*
X184922438Y-88484642D02*
X185017676Y-88389404D01*
X185017676Y-88389404D02*
X185112914Y-88341785D01*
X185112914Y-88341785D02*
X185303390Y-88294166D01*
X185303390Y-88294166D02*
X185446247Y-88294166D01*
X185446247Y-88294166D02*
X185636723Y-88341785D01*
X185636723Y-88341785D02*
X185731961Y-88389404D01*
X185731961Y-88389404D02*
X185827200Y-88484642D01*
X185827200Y-88484642D02*
X185874819Y-88627499D01*
X185874819Y-88627499D02*
X185874819Y-88865594D01*
X184874819Y-87960832D02*
X184874819Y-87341785D01*
X184874819Y-87341785D02*
X185255771Y-87675118D01*
X185255771Y-87675118D02*
X185255771Y-87532261D01*
X185255771Y-87532261D02*
X185303390Y-87437023D01*
X185303390Y-87437023D02*
X185351009Y-87389404D01*
X185351009Y-87389404D02*
X185446247Y-87341785D01*
X185446247Y-87341785D02*
X185684342Y-87341785D01*
X185684342Y-87341785D02*
X185779580Y-87389404D01*
X185779580Y-87389404D02*
X185827200Y-87437023D01*
X185827200Y-87437023D02*
X185874819Y-87532261D01*
X185874819Y-87532261D02*
X185874819Y-87817975D01*
X185874819Y-87817975D02*
X185827200Y-87913213D01*
X185827200Y-87913213D02*
X185779580Y-87960832D01*
X121333333Y-85359580D02*
X121285714Y-85407200D01*
X121285714Y-85407200D02*
X121142857Y-85454819D01*
X121142857Y-85454819D02*
X121047619Y-85454819D01*
X121047619Y-85454819D02*
X120904762Y-85407200D01*
X120904762Y-85407200D02*
X120809524Y-85311961D01*
X120809524Y-85311961D02*
X120761905Y-85216723D01*
X120761905Y-85216723D02*
X120714286Y-85026247D01*
X120714286Y-85026247D02*
X120714286Y-84883390D01*
X120714286Y-84883390D02*
X120761905Y-84692914D01*
X120761905Y-84692914D02*
X120809524Y-84597676D01*
X120809524Y-84597676D02*
X120904762Y-84502438D01*
X120904762Y-84502438D02*
X121047619Y-84454819D01*
X121047619Y-84454819D02*
X121142857Y-84454819D01*
X121142857Y-84454819D02*
X121285714Y-84502438D01*
X121285714Y-84502438D02*
X121333333Y-84550057D01*
X122238095Y-84454819D02*
X121761905Y-84454819D01*
X121761905Y-84454819D02*
X121714286Y-84931009D01*
X121714286Y-84931009D02*
X121761905Y-84883390D01*
X121761905Y-84883390D02*
X121857143Y-84835771D01*
X121857143Y-84835771D02*
X122095238Y-84835771D01*
X122095238Y-84835771D02*
X122190476Y-84883390D01*
X122190476Y-84883390D02*
X122238095Y-84931009D01*
X122238095Y-84931009D02*
X122285714Y-85026247D01*
X122285714Y-85026247D02*
X122285714Y-85264342D01*
X122285714Y-85264342D02*
X122238095Y-85359580D01*
X122238095Y-85359580D02*
X122190476Y-85407200D01*
X122190476Y-85407200D02*
X122095238Y-85454819D01*
X122095238Y-85454819D02*
X121857143Y-85454819D01*
X121857143Y-85454819D02*
X121761905Y-85407200D01*
X121761905Y-85407200D02*
X121714286Y-85359580D01*
X168094819Y-88865594D02*
X167094819Y-88865594D01*
X167094819Y-88865594D02*
X167094819Y-88627499D01*
X167094819Y-88627499D02*
X167142438Y-88484642D01*
X167142438Y-88484642D02*
X167237676Y-88389404D01*
X167237676Y-88389404D02*
X167332914Y-88341785D01*
X167332914Y-88341785D02*
X167523390Y-88294166D01*
X167523390Y-88294166D02*
X167666247Y-88294166D01*
X167666247Y-88294166D02*
X167856723Y-88341785D01*
X167856723Y-88341785D02*
X167951961Y-88389404D01*
X167951961Y-88389404D02*
X168047200Y-88484642D01*
X168047200Y-88484642D02*
X168094819Y-88627499D01*
X168094819Y-88627499D02*
X168094819Y-88865594D01*
X168094819Y-87817975D02*
X168094819Y-87627499D01*
X168094819Y-87627499D02*
X168047200Y-87532261D01*
X168047200Y-87532261D02*
X167999580Y-87484642D01*
X167999580Y-87484642D02*
X167856723Y-87389404D01*
X167856723Y-87389404D02*
X167666247Y-87341785D01*
X167666247Y-87341785D02*
X167285295Y-87341785D01*
X167285295Y-87341785D02*
X167190057Y-87389404D01*
X167190057Y-87389404D02*
X167142438Y-87437023D01*
X167142438Y-87437023D02*
X167094819Y-87532261D01*
X167094819Y-87532261D02*
X167094819Y-87722737D01*
X167094819Y-87722737D02*
X167142438Y-87817975D01*
X167142438Y-87817975D02*
X167190057Y-87865594D01*
X167190057Y-87865594D02*
X167285295Y-87913213D01*
X167285295Y-87913213D02*
X167523390Y-87913213D01*
X167523390Y-87913213D02*
X167618628Y-87865594D01*
X167618628Y-87865594D02*
X167666247Y-87817975D01*
X167666247Y-87817975D02*
X167713866Y-87722737D01*
X167713866Y-87722737D02*
X167713866Y-87532261D01*
X167713866Y-87532261D02*
X167666247Y-87437023D01*
X167666247Y-87437023D02*
X167618628Y-87389404D01*
X167618628Y-87389404D02*
X167523390Y-87341785D01*
X153166666Y-86454819D02*
X153166666Y-87169104D01*
X153166666Y-87169104D02*
X153119047Y-87311961D01*
X153119047Y-87311961D02*
X153023809Y-87407200D01*
X153023809Y-87407200D02*
X152880952Y-87454819D01*
X152880952Y-87454819D02*
X152785714Y-87454819D01*
X153547619Y-86454819D02*
X154166666Y-86454819D01*
X154166666Y-86454819D02*
X153833333Y-86835771D01*
X153833333Y-86835771D02*
X153976190Y-86835771D01*
X153976190Y-86835771D02*
X154071428Y-86883390D01*
X154071428Y-86883390D02*
X154119047Y-86931009D01*
X154119047Y-86931009D02*
X154166666Y-87026247D01*
X154166666Y-87026247D02*
X154166666Y-87264342D01*
X154166666Y-87264342D02*
X154119047Y-87359580D01*
X154119047Y-87359580D02*
X154071428Y-87407200D01*
X154071428Y-87407200D02*
X153976190Y-87454819D01*
X153976190Y-87454819D02*
X153690476Y-87454819D01*
X153690476Y-87454819D02*
X153595238Y-87407200D01*
X153595238Y-87407200D02*
X153547619Y-87359580D01*
X182070476Y-105499819D02*
X182070476Y-106214104D01*
X182070476Y-106214104D02*
X182022857Y-106356961D01*
X182022857Y-106356961D02*
X181927619Y-106452200D01*
X181927619Y-106452200D02*
X181784762Y-106499819D01*
X181784762Y-106499819D02*
X181689524Y-106499819D01*
X183070476Y-106499819D02*
X182499048Y-106499819D01*
X182784762Y-106499819D02*
X182784762Y-105499819D01*
X182784762Y-105499819D02*
X182689524Y-105642676D01*
X182689524Y-105642676D02*
X182594286Y-105737914D01*
X182594286Y-105737914D02*
X182499048Y-105785533D01*
X184022857Y-106499819D02*
X183451429Y-106499819D01*
X183737143Y-106499819D02*
X183737143Y-105499819D01*
X183737143Y-105499819D02*
X183641905Y-105642676D01*
X183641905Y-105642676D02*
X183546667Y-105737914D01*
X183546667Y-105737914D02*
X183451429Y-105785533D01*
X160474819Y-88706785D02*
X159474819Y-88706785D01*
X159474819Y-88706785D02*
X159474819Y-88468690D01*
X159474819Y-88468690D02*
X159522438Y-88325833D01*
X159522438Y-88325833D02*
X159617676Y-88230595D01*
X159617676Y-88230595D02*
X159712914Y-88182976D01*
X159712914Y-88182976D02*
X159903390Y-88135357D01*
X159903390Y-88135357D02*
X160046247Y-88135357D01*
X160046247Y-88135357D02*
X160236723Y-88182976D01*
X160236723Y-88182976D02*
X160331961Y-88230595D01*
X160331961Y-88230595D02*
X160427200Y-88325833D01*
X160427200Y-88325833D02*
X160474819Y-88468690D01*
X160474819Y-88468690D02*
X160474819Y-88706785D01*
X160474819Y-87182976D02*
X160474819Y-87754404D01*
X160474819Y-87468690D02*
X159474819Y-87468690D01*
X159474819Y-87468690D02*
X159617676Y-87563928D01*
X159617676Y-87563928D02*
X159712914Y-87659166D01*
X159712914Y-87659166D02*
X159760533Y-87754404D01*
X159570057Y-86802023D02*
X159522438Y-86754404D01*
X159522438Y-86754404D02*
X159474819Y-86659166D01*
X159474819Y-86659166D02*
X159474819Y-86421071D01*
X159474819Y-86421071D02*
X159522438Y-86325833D01*
X159522438Y-86325833D02*
X159570057Y-86278214D01*
X159570057Y-86278214D02*
X159665295Y-86230595D01*
X159665295Y-86230595D02*
X159760533Y-86230595D01*
X159760533Y-86230595D02*
X159903390Y-86278214D01*
X159903390Y-86278214D02*
X160474819Y-86849642D01*
X160474819Y-86849642D02*
X160474819Y-86230595D01*
X126611191Y-88672200D02*
X126754048Y-88719819D01*
X126754048Y-88719819D02*
X126992143Y-88719819D01*
X126992143Y-88719819D02*
X127087381Y-88672200D01*
X127087381Y-88672200D02*
X127135000Y-88624580D01*
X127135000Y-88624580D02*
X127182619Y-88529342D01*
X127182619Y-88529342D02*
X127182619Y-88434104D01*
X127182619Y-88434104D02*
X127135000Y-88338866D01*
X127135000Y-88338866D02*
X127087381Y-88291247D01*
X127087381Y-88291247D02*
X126992143Y-88243628D01*
X126992143Y-88243628D02*
X126801667Y-88196009D01*
X126801667Y-88196009D02*
X126706429Y-88148390D01*
X126706429Y-88148390D02*
X126658810Y-88100771D01*
X126658810Y-88100771D02*
X126611191Y-88005533D01*
X126611191Y-88005533D02*
X126611191Y-87910295D01*
X126611191Y-87910295D02*
X126658810Y-87815057D01*
X126658810Y-87815057D02*
X126706429Y-87767438D01*
X126706429Y-87767438D02*
X126801667Y-87719819D01*
X126801667Y-87719819D02*
X127039762Y-87719819D01*
X127039762Y-87719819D02*
X127182619Y-87767438D01*
X128182619Y-88624580D02*
X128135000Y-88672200D01*
X128135000Y-88672200D02*
X127992143Y-88719819D01*
X127992143Y-88719819D02*
X127896905Y-88719819D01*
X127896905Y-88719819D02*
X127754048Y-88672200D01*
X127754048Y-88672200D02*
X127658810Y-88576961D01*
X127658810Y-88576961D02*
X127611191Y-88481723D01*
X127611191Y-88481723D02*
X127563572Y-88291247D01*
X127563572Y-88291247D02*
X127563572Y-88148390D01*
X127563572Y-88148390D02*
X127611191Y-87957914D01*
X127611191Y-87957914D02*
X127658810Y-87862676D01*
X127658810Y-87862676D02*
X127754048Y-87767438D01*
X127754048Y-87767438D02*
X127896905Y-87719819D01*
X127896905Y-87719819D02*
X127992143Y-87719819D01*
X127992143Y-87719819D02*
X128135000Y-87767438D01*
X128135000Y-87767438D02*
X128182619Y-87815057D01*
X128611191Y-88719819D02*
X128611191Y-87719819D01*
X101324405Y-106049819D02*
X101324405Y-105049819D01*
X101324405Y-105049819D02*
X101562500Y-105049819D01*
X101562500Y-105049819D02*
X101705357Y-105097438D01*
X101705357Y-105097438D02*
X101800595Y-105192676D01*
X101800595Y-105192676D02*
X101848214Y-105287914D01*
X101848214Y-105287914D02*
X101895833Y-105478390D01*
X101895833Y-105478390D02*
X101895833Y-105621247D01*
X101895833Y-105621247D02*
X101848214Y-105811723D01*
X101848214Y-105811723D02*
X101800595Y-105906961D01*
X101800595Y-105906961D02*
X101705357Y-106002200D01*
X101705357Y-106002200D02*
X101562500Y-106049819D01*
X101562500Y-106049819D02*
X101324405Y-106049819D01*
X102848214Y-106049819D02*
X102276786Y-106049819D01*
X102562500Y-106049819D02*
X102562500Y-105049819D01*
X102562500Y-105049819D02*
X102467262Y-105192676D01*
X102467262Y-105192676D02*
X102372024Y-105287914D01*
X102372024Y-105287914D02*
X102276786Y-105335533D01*
X141906666Y-75654819D02*
X141906666Y-76369104D01*
X141906666Y-76369104D02*
X141859047Y-76511961D01*
X141859047Y-76511961D02*
X141763809Y-76607200D01*
X141763809Y-76607200D02*
X141620952Y-76654819D01*
X141620952Y-76654819D02*
X141525714Y-76654819D01*
X142859047Y-75654819D02*
X142382857Y-75654819D01*
X142382857Y-75654819D02*
X142335238Y-76131009D01*
X142335238Y-76131009D02*
X142382857Y-76083390D01*
X142382857Y-76083390D02*
X142478095Y-76035771D01*
X142478095Y-76035771D02*
X142716190Y-76035771D01*
X142716190Y-76035771D02*
X142811428Y-76083390D01*
X142811428Y-76083390D02*
X142859047Y-76131009D01*
X142859047Y-76131009D02*
X142906666Y-76226247D01*
X142906666Y-76226247D02*
X142906666Y-76464342D01*
X142906666Y-76464342D02*
X142859047Y-76559580D01*
X142859047Y-76559580D02*
X142811428Y-76607200D01*
X142811428Y-76607200D02*
X142716190Y-76654819D01*
X142716190Y-76654819D02*
X142478095Y-76654819D01*
X142478095Y-76654819D02*
X142382857Y-76607200D01*
X142382857Y-76607200D02*
X142335238Y-76559580D01*
X111666666Y-76954819D02*
X111666666Y-77669104D01*
X111666666Y-77669104D02*
X111619047Y-77811961D01*
X111619047Y-77811961D02*
X111523809Y-77907200D01*
X111523809Y-77907200D02*
X111380952Y-77954819D01*
X111380952Y-77954819D02*
X111285714Y-77954819D01*
X112666666Y-77954819D02*
X112095238Y-77954819D01*
X112380952Y-77954819D02*
X112380952Y-76954819D01*
X112380952Y-76954819D02*
X112285714Y-77097676D01*
X112285714Y-77097676D02*
X112190476Y-77192914D01*
X112190476Y-77192914D02*
X112095238Y-77240533D01*
X182546666Y-75654819D02*
X182546666Y-76369104D01*
X182546666Y-76369104D02*
X182499047Y-76511961D01*
X182499047Y-76511961D02*
X182403809Y-76607200D01*
X182403809Y-76607200D02*
X182260952Y-76654819D01*
X182260952Y-76654819D02*
X182165714Y-76654819D01*
X182927619Y-75654819D02*
X183594285Y-75654819D01*
X183594285Y-75654819D02*
X183165714Y-76654819D01*
X114083333Y-83204819D02*
X113750000Y-82728628D01*
X113511905Y-83204819D02*
X113511905Y-82204819D01*
X113511905Y-82204819D02*
X113892857Y-82204819D01*
X113892857Y-82204819D02*
X113988095Y-82252438D01*
X113988095Y-82252438D02*
X114035714Y-82300057D01*
X114035714Y-82300057D02*
X114083333Y-82395295D01*
X114083333Y-82395295D02*
X114083333Y-82538152D01*
X114083333Y-82538152D02*
X114035714Y-82633390D01*
X114035714Y-82633390D02*
X113988095Y-82681009D01*
X113988095Y-82681009D02*
X113892857Y-82728628D01*
X113892857Y-82728628D02*
X113511905Y-82728628D01*
X115035714Y-83204819D02*
X114464286Y-83204819D01*
X114750000Y-83204819D02*
X114750000Y-82204819D01*
X114750000Y-82204819D02*
X114654762Y-82347676D01*
X114654762Y-82347676D02*
X114559524Y-82442914D01*
X114559524Y-82442914D02*
X114464286Y-82490533D01*
X164766666Y-75654819D02*
X164766666Y-76369104D01*
X164766666Y-76369104D02*
X164719047Y-76511961D01*
X164719047Y-76511961D02*
X164623809Y-76607200D01*
X164623809Y-76607200D02*
X164480952Y-76654819D01*
X164480952Y-76654819D02*
X164385714Y-76654819D01*
X165671428Y-75654819D02*
X165480952Y-75654819D01*
X165480952Y-75654819D02*
X165385714Y-75702438D01*
X165385714Y-75702438D02*
X165338095Y-75750057D01*
X165338095Y-75750057D02*
X165242857Y-75892914D01*
X165242857Y-75892914D02*
X165195238Y-76083390D01*
X165195238Y-76083390D02*
X165195238Y-76464342D01*
X165195238Y-76464342D02*
X165242857Y-76559580D01*
X165242857Y-76559580D02*
X165290476Y-76607200D01*
X165290476Y-76607200D02*
X165385714Y-76654819D01*
X165385714Y-76654819D02*
X165576190Y-76654819D01*
X165576190Y-76654819D02*
X165671428Y-76607200D01*
X165671428Y-76607200D02*
X165719047Y-76559580D01*
X165719047Y-76559580D02*
X165766666Y-76464342D01*
X165766666Y-76464342D02*
X165766666Y-76226247D01*
X165766666Y-76226247D02*
X165719047Y-76131009D01*
X165719047Y-76131009D02*
X165671428Y-76083390D01*
X165671428Y-76083390D02*
X165576190Y-76035771D01*
X165576190Y-76035771D02*
X165385714Y-76035771D01*
X165385714Y-76035771D02*
X165290476Y-76083390D01*
X165290476Y-76083390D02*
X165242857Y-76131009D01*
X165242857Y-76131009D02*
X165195238Y-76226247D01*
X124126666Y-75654819D02*
X124126666Y-76369104D01*
X124126666Y-76369104D02*
X124079047Y-76511961D01*
X124079047Y-76511961D02*
X123983809Y-76607200D01*
X123983809Y-76607200D02*
X123840952Y-76654819D01*
X123840952Y-76654819D02*
X123745714Y-76654819D01*
X125031428Y-75988152D02*
X125031428Y-76654819D01*
X124793333Y-75607200D02*
X124555238Y-76321485D01*
X124555238Y-76321485D02*
X125174285Y-76321485D01*
X178254819Y-88865594D02*
X177254819Y-88865594D01*
X177254819Y-88865594D02*
X177254819Y-88627499D01*
X177254819Y-88627499D02*
X177302438Y-88484642D01*
X177302438Y-88484642D02*
X177397676Y-88389404D01*
X177397676Y-88389404D02*
X177492914Y-88341785D01*
X177492914Y-88341785D02*
X177683390Y-88294166D01*
X177683390Y-88294166D02*
X177826247Y-88294166D01*
X177826247Y-88294166D02*
X178016723Y-88341785D01*
X178016723Y-88341785D02*
X178111961Y-88389404D01*
X178111961Y-88389404D02*
X178207200Y-88484642D01*
X178207200Y-88484642D02*
X178254819Y-88627499D01*
X178254819Y-88627499D02*
X178254819Y-88865594D01*
X177254819Y-87437023D02*
X177254819Y-87627499D01*
X177254819Y-87627499D02*
X177302438Y-87722737D01*
X177302438Y-87722737D02*
X177350057Y-87770356D01*
X177350057Y-87770356D02*
X177492914Y-87865594D01*
X177492914Y-87865594D02*
X177683390Y-87913213D01*
X177683390Y-87913213D02*
X178064342Y-87913213D01*
X178064342Y-87913213D02*
X178159580Y-87865594D01*
X178159580Y-87865594D02*
X178207200Y-87817975D01*
X178207200Y-87817975D02*
X178254819Y-87722737D01*
X178254819Y-87722737D02*
X178254819Y-87532261D01*
X178254819Y-87532261D02*
X178207200Y-87437023D01*
X178207200Y-87437023D02*
X178159580Y-87389404D01*
X178159580Y-87389404D02*
X178064342Y-87341785D01*
X178064342Y-87341785D02*
X177826247Y-87341785D01*
X177826247Y-87341785D02*
X177731009Y-87389404D01*
X177731009Y-87389404D02*
X177683390Y-87437023D01*
X177683390Y-87437023D02*
X177635771Y-87532261D01*
X177635771Y-87532261D02*
X177635771Y-87722737D01*
X177635771Y-87722737D02*
X177683390Y-87817975D01*
X177683390Y-87817975D02*
X177731009Y-87865594D01*
X177731009Y-87865594D02*
X177826247Y-87913213D01*
X157934819Y-88706785D02*
X156934819Y-88706785D01*
X156934819Y-88706785D02*
X156934819Y-88468690D01*
X156934819Y-88468690D02*
X156982438Y-88325833D01*
X156982438Y-88325833D02*
X157077676Y-88230595D01*
X157077676Y-88230595D02*
X157172914Y-88182976D01*
X157172914Y-88182976D02*
X157363390Y-88135357D01*
X157363390Y-88135357D02*
X157506247Y-88135357D01*
X157506247Y-88135357D02*
X157696723Y-88182976D01*
X157696723Y-88182976D02*
X157791961Y-88230595D01*
X157791961Y-88230595D02*
X157887200Y-88325833D01*
X157887200Y-88325833D02*
X157934819Y-88468690D01*
X157934819Y-88468690D02*
X157934819Y-88706785D01*
X157934819Y-87182976D02*
X157934819Y-87754404D01*
X157934819Y-87468690D02*
X156934819Y-87468690D01*
X156934819Y-87468690D02*
X157077676Y-87563928D01*
X157077676Y-87563928D02*
X157172914Y-87659166D01*
X157172914Y-87659166D02*
X157220533Y-87754404D01*
X156934819Y-86849642D02*
X156934819Y-86230595D01*
X156934819Y-86230595D02*
X157315771Y-86563928D01*
X157315771Y-86563928D02*
X157315771Y-86421071D01*
X157315771Y-86421071D02*
X157363390Y-86325833D01*
X157363390Y-86325833D02*
X157411009Y-86278214D01*
X157411009Y-86278214D02*
X157506247Y-86230595D01*
X157506247Y-86230595D02*
X157744342Y-86230595D01*
X157744342Y-86230595D02*
X157839580Y-86278214D01*
X157839580Y-86278214D02*
X157887200Y-86325833D01*
X157887200Y-86325833D02*
X157934819Y-86421071D01*
X157934819Y-86421071D02*
X157934819Y-86706785D01*
X157934819Y-86706785D02*
X157887200Y-86802023D01*
X157887200Y-86802023D02*
X157839580Y-86849642D01*
X117583333Y-93109580D02*
X117535714Y-93157200D01*
X117535714Y-93157200D02*
X117392857Y-93204819D01*
X117392857Y-93204819D02*
X117297619Y-93204819D01*
X117297619Y-93204819D02*
X117154762Y-93157200D01*
X117154762Y-93157200D02*
X117059524Y-93061961D01*
X117059524Y-93061961D02*
X117011905Y-92966723D01*
X117011905Y-92966723D02*
X116964286Y-92776247D01*
X116964286Y-92776247D02*
X116964286Y-92633390D01*
X116964286Y-92633390D02*
X117011905Y-92442914D01*
X117011905Y-92442914D02*
X117059524Y-92347676D01*
X117059524Y-92347676D02*
X117154762Y-92252438D01*
X117154762Y-92252438D02*
X117297619Y-92204819D01*
X117297619Y-92204819D02*
X117392857Y-92204819D01*
X117392857Y-92204819D02*
X117535714Y-92252438D01*
X117535714Y-92252438D02*
X117583333Y-92300057D01*
X118535714Y-93204819D02*
X117964286Y-93204819D01*
X118250000Y-93204819D02*
X118250000Y-92204819D01*
X118250000Y-92204819D02*
X118154762Y-92347676D01*
X118154762Y-92347676D02*
X118059524Y-92442914D01*
X118059524Y-92442914D02*
X117964286Y-92490533D01*
X175714819Y-88865594D02*
X174714819Y-88865594D01*
X174714819Y-88865594D02*
X174714819Y-88627499D01*
X174714819Y-88627499D02*
X174762438Y-88484642D01*
X174762438Y-88484642D02*
X174857676Y-88389404D01*
X174857676Y-88389404D02*
X174952914Y-88341785D01*
X174952914Y-88341785D02*
X175143390Y-88294166D01*
X175143390Y-88294166D02*
X175286247Y-88294166D01*
X175286247Y-88294166D02*
X175476723Y-88341785D01*
X175476723Y-88341785D02*
X175571961Y-88389404D01*
X175571961Y-88389404D02*
X175667200Y-88484642D01*
X175667200Y-88484642D02*
X175714819Y-88627499D01*
X175714819Y-88627499D02*
X175714819Y-88865594D01*
X174714819Y-87960832D02*
X174714819Y-87294166D01*
X174714819Y-87294166D02*
X175714819Y-87722737D01*
X114083333Y-87704819D02*
X113750000Y-87228628D01*
X113511905Y-87704819D02*
X113511905Y-86704819D01*
X113511905Y-86704819D02*
X113892857Y-86704819D01*
X113892857Y-86704819D02*
X113988095Y-86752438D01*
X113988095Y-86752438D02*
X114035714Y-86800057D01*
X114035714Y-86800057D02*
X114083333Y-86895295D01*
X114083333Y-86895295D02*
X114083333Y-87038152D01*
X114083333Y-87038152D02*
X114035714Y-87133390D01*
X114035714Y-87133390D02*
X113988095Y-87181009D01*
X113988095Y-87181009D02*
X113892857Y-87228628D01*
X113892857Y-87228628D02*
X113511905Y-87228628D01*
X114464286Y-86800057D02*
X114511905Y-86752438D01*
X114511905Y-86752438D02*
X114607143Y-86704819D01*
X114607143Y-86704819D02*
X114845238Y-86704819D01*
X114845238Y-86704819D02*
X114940476Y-86752438D01*
X114940476Y-86752438D02*
X114988095Y-86800057D01*
X114988095Y-86800057D02*
X115035714Y-86895295D01*
X115035714Y-86895295D02*
X115035714Y-86990533D01*
X115035714Y-86990533D02*
X114988095Y-87133390D01*
X114988095Y-87133390D02*
X114416667Y-87704819D01*
X114416667Y-87704819D02*
X115035714Y-87704819D01*
X124126666Y-105499819D02*
X124126666Y-106214104D01*
X124126666Y-106214104D02*
X124079047Y-106356961D01*
X124079047Y-106356961D02*
X123983809Y-106452200D01*
X123983809Y-106452200D02*
X123840952Y-106499819D01*
X123840952Y-106499819D02*
X123745714Y-106499819D01*
X124745714Y-105928390D02*
X124650476Y-105880771D01*
X124650476Y-105880771D02*
X124602857Y-105833152D01*
X124602857Y-105833152D02*
X124555238Y-105737914D01*
X124555238Y-105737914D02*
X124555238Y-105690295D01*
X124555238Y-105690295D02*
X124602857Y-105595057D01*
X124602857Y-105595057D02*
X124650476Y-105547438D01*
X124650476Y-105547438D02*
X124745714Y-105499819D01*
X124745714Y-105499819D02*
X124936190Y-105499819D01*
X124936190Y-105499819D02*
X125031428Y-105547438D01*
X125031428Y-105547438D02*
X125079047Y-105595057D01*
X125079047Y-105595057D02*
X125126666Y-105690295D01*
X125126666Y-105690295D02*
X125126666Y-105737914D01*
X125126666Y-105737914D02*
X125079047Y-105833152D01*
X125079047Y-105833152D02*
X125031428Y-105880771D01*
X125031428Y-105880771D02*
X124936190Y-105928390D01*
X124936190Y-105928390D02*
X124745714Y-105928390D01*
X124745714Y-105928390D02*
X124650476Y-105976009D01*
X124650476Y-105976009D02*
X124602857Y-106023628D01*
X124602857Y-106023628D02*
X124555238Y-106118866D01*
X124555238Y-106118866D02*
X124555238Y-106309342D01*
X124555238Y-106309342D02*
X124602857Y-106404580D01*
X124602857Y-106404580D02*
X124650476Y-106452200D01*
X124650476Y-106452200D02*
X124745714Y-106499819D01*
X124745714Y-106499819D02*
X124936190Y-106499819D01*
X124936190Y-106499819D02*
X125031428Y-106452200D01*
X125031428Y-106452200D02*
X125079047Y-106404580D01*
X125079047Y-106404580D02*
X125126666Y-106309342D01*
X125126666Y-106309342D02*
X125126666Y-106118866D01*
X125126666Y-106118866D02*
X125079047Y-106023628D01*
X125079047Y-106023628D02*
X125031428Y-105976009D01*
X125031428Y-105976009D02*
X124936190Y-105928390D01*
X164290476Y-105499819D02*
X164290476Y-106214104D01*
X164290476Y-106214104D02*
X164242857Y-106356961D01*
X164242857Y-106356961D02*
X164147619Y-106452200D01*
X164147619Y-106452200D02*
X164004762Y-106499819D01*
X164004762Y-106499819D02*
X163909524Y-106499819D01*
X165290476Y-106499819D02*
X164719048Y-106499819D01*
X165004762Y-106499819D02*
X165004762Y-105499819D01*
X165004762Y-105499819D02*
X164909524Y-105642676D01*
X164909524Y-105642676D02*
X164814286Y-105737914D01*
X164814286Y-105737914D02*
X164719048Y-105785533D01*
X165909524Y-105499819D02*
X166004762Y-105499819D01*
X166004762Y-105499819D02*
X166100000Y-105547438D01*
X166100000Y-105547438D02*
X166147619Y-105595057D01*
X166147619Y-105595057D02*
X166195238Y-105690295D01*
X166195238Y-105690295D02*
X166242857Y-105880771D01*
X166242857Y-105880771D02*
X166242857Y-106118866D01*
X166242857Y-106118866D02*
X166195238Y-106309342D01*
X166195238Y-106309342D02*
X166147619Y-106404580D01*
X166147619Y-106404580D02*
X166100000Y-106452200D01*
X166100000Y-106452200D02*
X166004762Y-106499819D01*
X166004762Y-106499819D02*
X165909524Y-106499819D01*
X165909524Y-106499819D02*
X165814286Y-106452200D01*
X165814286Y-106452200D02*
X165766667Y-106404580D01*
X165766667Y-106404580D02*
X165719048Y-106309342D01*
X165719048Y-106309342D02*
X165671429Y-106118866D01*
X165671429Y-106118866D02*
X165671429Y-105880771D01*
X165671429Y-105880771D02*
X165719048Y-105690295D01*
X165719048Y-105690295D02*
X165766667Y-105595057D01*
X165766667Y-105595057D02*
X165814286Y-105547438D01*
X165814286Y-105547438D02*
X165909524Y-105499819D01*
X122583333Y-96109580D02*
X122535714Y-96157200D01*
X122535714Y-96157200D02*
X122392857Y-96204819D01*
X122392857Y-96204819D02*
X122297619Y-96204819D01*
X122297619Y-96204819D02*
X122154762Y-96157200D01*
X122154762Y-96157200D02*
X122059524Y-96061961D01*
X122059524Y-96061961D02*
X122011905Y-95966723D01*
X122011905Y-95966723D02*
X121964286Y-95776247D01*
X121964286Y-95776247D02*
X121964286Y-95633390D01*
X121964286Y-95633390D02*
X122011905Y-95442914D01*
X122011905Y-95442914D02*
X122059524Y-95347676D01*
X122059524Y-95347676D02*
X122154762Y-95252438D01*
X122154762Y-95252438D02*
X122297619Y-95204819D01*
X122297619Y-95204819D02*
X122392857Y-95204819D01*
X122392857Y-95204819D02*
X122535714Y-95252438D01*
X122535714Y-95252438D02*
X122583333Y-95300057D01*
X122964286Y-95300057D02*
X123011905Y-95252438D01*
X123011905Y-95252438D02*
X123107143Y-95204819D01*
X123107143Y-95204819D02*
X123345238Y-95204819D01*
X123345238Y-95204819D02*
X123440476Y-95252438D01*
X123440476Y-95252438D02*
X123488095Y-95300057D01*
X123488095Y-95300057D02*
X123535714Y-95395295D01*
X123535714Y-95395295D02*
X123535714Y-95490533D01*
X123535714Y-95490533D02*
X123488095Y-95633390D01*
X123488095Y-95633390D02*
X122916667Y-96204819D01*
X122916667Y-96204819D02*
X123535714Y-96204819D01*
X143583333Y-89989819D02*
X143250000Y-89513628D01*
X143011905Y-89989819D02*
X143011905Y-88989819D01*
X143011905Y-88989819D02*
X143392857Y-88989819D01*
X143392857Y-88989819D02*
X143488095Y-89037438D01*
X143488095Y-89037438D02*
X143535714Y-89085057D01*
X143535714Y-89085057D02*
X143583333Y-89180295D01*
X143583333Y-89180295D02*
X143583333Y-89323152D01*
X143583333Y-89323152D02*
X143535714Y-89418390D01*
X143535714Y-89418390D02*
X143488095Y-89466009D01*
X143488095Y-89466009D02*
X143392857Y-89513628D01*
X143392857Y-89513628D02*
X143011905Y-89513628D01*
X144440476Y-89323152D02*
X144440476Y-89989819D01*
X144202381Y-88942200D02*
X143964286Y-89656485D01*
X143964286Y-89656485D02*
X144583333Y-89656485D01*
X126611191Y-86767200D02*
X126754048Y-86814819D01*
X126754048Y-86814819D02*
X126992143Y-86814819D01*
X126992143Y-86814819D02*
X127087381Y-86767200D01*
X127087381Y-86767200D02*
X127135000Y-86719580D01*
X127135000Y-86719580D02*
X127182619Y-86624342D01*
X127182619Y-86624342D02*
X127182619Y-86529104D01*
X127182619Y-86529104D02*
X127135000Y-86433866D01*
X127135000Y-86433866D02*
X127087381Y-86386247D01*
X127087381Y-86386247D02*
X126992143Y-86338628D01*
X126992143Y-86338628D02*
X126801667Y-86291009D01*
X126801667Y-86291009D02*
X126706429Y-86243390D01*
X126706429Y-86243390D02*
X126658810Y-86195771D01*
X126658810Y-86195771D02*
X126611191Y-86100533D01*
X126611191Y-86100533D02*
X126611191Y-86005295D01*
X126611191Y-86005295D02*
X126658810Y-85910057D01*
X126658810Y-85910057D02*
X126706429Y-85862438D01*
X126706429Y-85862438D02*
X126801667Y-85814819D01*
X126801667Y-85814819D02*
X127039762Y-85814819D01*
X127039762Y-85814819D02*
X127182619Y-85862438D01*
X127611191Y-86814819D02*
X127611191Y-85814819D01*
X127611191Y-85814819D02*
X127849286Y-85814819D01*
X127849286Y-85814819D02*
X127992143Y-85862438D01*
X127992143Y-85862438D02*
X128087381Y-85957676D01*
X128087381Y-85957676D02*
X128135000Y-86052914D01*
X128135000Y-86052914D02*
X128182619Y-86243390D01*
X128182619Y-86243390D02*
X128182619Y-86386247D01*
X128182619Y-86386247D02*
X128135000Y-86576723D01*
X128135000Y-86576723D02*
X128087381Y-86671961D01*
X128087381Y-86671961D02*
X127992143Y-86767200D01*
X127992143Y-86767200D02*
X127849286Y-86814819D01*
X127849286Y-86814819D02*
X127611191Y-86814819D01*
X128611191Y-86814819D02*
X128611191Y-85814819D01*
X111488095Y-95204819D02*
X111488095Y-96014342D01*
X111488095Y-96014342D02*
X111535714Y-96109580D01*
X111535714Y-96109580D02*
X111583333Y-96157200D01*
X111583333Y-96157200D02*
X111678571Y-96204819D01*
X111678571Y-96204819D02*
X111869047Y-96204819D01*
X111869047Y-96204819D02*
X111964285Y-96157200D01*
X111964285Y-96157200D02*
X112011904Y-96109580D01*
X112011904Y-96109580D02*
X112059523Y-96014342D01*
X112059523Y-96014342D02*
X112059523Y-95204819D01*
X113059523Y-96204819D02*
X112488095Y-96204819D01*
X112773809Y-96204819D02*
X112773809Y-95204819D01*
X112773809Y-95204819D02*
X112678571Y-95347676D01*
X112678571Y-95347676D02*
X112583333Y-95442914D01*
X112583333Y-95442914D02*
X112488095Y-95490533D01*
X135763095Y-85954819D02*
X135763095Y-86764342D01*
X135763095Y-86764342D02*
X135810714Y-86859580D01*
X135810714Y-86859580D02*
X135858333Y-86907200D01*
X135858333Y-86907200D02*
X135953571Y-86954819D01*
X135953571Y-86954819D02*
X136144047Y-86954819D01*
X136144047Y-86954819D02*
X136239285Y-86907200D01*
X136239285Y-86907200D02*
X136286904Y-86859580D01*
X136286904Y-86859580D02*
X136334523Y-86764342D01*
X136334523Y-86764342D02*
X136334523Y-85954819D01*
X136715476Y-85954819D02*
X137334523Y-85954819D01*
X137334523Y-85954819D02*
X137001190Y-86335771D01*
X137001190Y-86335771D02*
X137144047Y-86335771D01*
X137144047Y-86335771D02*
X137239285Y-86383390D01*
X137239285Y-86383390D02*
X137286904Y-86431009D01*
X137286904Y-86431009D02*
X137334523Y-86526247D01*
X137334523Y-86526247D02*
X137334523Y-86764342D01*
X137334523Y-86764342D02*
X137286904Y-86859580D01*
X137286904Y-86859580D02*
X137239285Y-86907200D01*
X137239285Y-86907200D02*
X137144047Y-86954819D01*
X137144047Y-86954819D02*
X136858333Y-86954819D01*
X136858333Y-86954819D02*
X136763095Y-86907200D01*
X136763095Y-86907200D02*
X136715476Y-86859580D01*
X132333333Y-84454819D02*
X132904761Y-84454819D01*
X132619047Y-85454819D02*
X132619047Y-84454819D01*
X133714285Y-85454819D02*
X133238095Y-85454819D01*
X133238095Y-85454819D02*
X133238095Y-84454819D01*
X134619047Y-85359580D02*
X134571428Y-85407200D01*
X134571428Y-85407200D02*
X134428571Y-85454819D01*
X134428571Y-85454819D02*
X134333333Y-85454819D01*
X134333333Y-85454819D02*
X134190476Y-85407200D01*
X134190476Y-85407200D02*
X134095238Y-85311961D01*
X134095238Y-85311961D02*
X134047619Y-85216723D01*
X134047619Y-85216723D02*
X134000000Y-85026247D01*
X134000000Y-85026247D02*
X134000000Y-84883390D01*
X134000000Y-84883390D02*
X134047619Y-84692914D01*
X134047619Y-84692914D02*
X134095238Y-84597676D01*
X134095238Y-84597676D02*
X134190476Y-84502438D01*
X134190476Y-84502438D02*
X134333333Y-84454819D01*
X134333333Y-84454819D02*
X134428571Y-84454819D01*
X134428571Y-84454819D02*
X134571428Y-84502438D01*
X134571428Y-84502438D02*
X134619047Y-84550057D01*
X135523809Y-84454819D02*
X135047619Y-84454819D01*
X135047619Y-84454819D02*
X135000000Y-84931009D01*
X135000000Y-84931009D02*
X135047619Y-84883390D01*
X135047619Y-84883390D02*
X135142857Y-84835771D01*
X135142857Y-84835771D02*
X135380952Y-84835771D01*
X135380952Y-84835771D02*
X135476190Y-84883390D01*
X135476190Y-84883390D02*
X135523809Y-84931009D01*
X135523809Y-84931009D02*
X135571428Y-85026247D01*
X135571428Y-85026247D02*
X135571428Y-85264342D01*
X135571428Y-85264342D02*
X135523809Y-85359580D01*
X135523809Y-85359580D02*
X135476190Y-85407200D01*
X135476190Y-85407200D02*
X135380952Y-85454819D01*
X135380952Y-85454819D02*
X135142857Y-85454819D01*
X135142857Y-85454819D02*
X135047619Y-85407200D01*
X135047619Y-85407200D02*
X135000000Y-85359580D01*
X136047619Y-85454819D02*
X136238095Y-85454819D01*
X136238095Y-85454819D02*
X136333333Y-85407200D01*
X136333333Y-85407200D02*
X136380952Y-85359580D01*
X136380952Y-85359580D02*
X136476190Y-85216723D01*
X136476190Y-85216723D02*
X136523809Y-85026247D01*
X136523809Y-85026247D02*
X136523809Y-84645295D01*
X136523809Y-84645295D02*
X136476190Y-84550057D01*
X136476190Y-84550057D02*
X136428571Y-84502438D01*
X136428571Y-84502438D02*
X136333333Y-84454819D01*
X136333333Y-84454819D02*
X136142857Y-84454819D01*
X136142857Y-84454819D02*
X136047619Y-84502438D01*
X136047619Y-84502438D02*
X136000000Y-84550057D01*
X136000000Y-84550057D02*
X135952381Y-84645295D01*
X135952381Y-84645295D02*
X135952381Y-84883390D01*
X135952381Y-84883390D02*
X136000000Y-84978628D01*
X136000000Y-84978628D02*
X136047619Y-85026247D01*
X136047619Y-85026247D02*
X136142857Y-85073866D01*
X136142857Y-85073866D02*
X136333333Y-85073866D01*
X136333333Y-85073866D02*
X136428571Y-85026247D01*
X136428571Y-85026247D02*
X136476190Y-84978628D01*
X136476190Y-84978628D02*
X136523809Y-84883390D01*
X136857143Y-84454819D02*
X137523809Y-84454819D01*
X137523809Y-84454819D02*
X137095238Y-85454819D01*
X138428571Y-85454819D02*
X137857143Y-85454819D01*
X138142857Y-85454819D02*
X138142857Y-84454819D01*
X138142857Y-84454819D02*
X138047619Y-84597676D01*
X138047619Y-84597676D02*
X137952381Y-84692914D01*
X137952381Y-84692914D02*
X137857143Y-84740533D01*
X138857143Y-85454819D02*
X138857143Y-84454819D01*
X138857143Y-84454819D02*
X139238095Y-84454819D01*
X139238095Y-84454819D02*
X139333333Y-84502438D01*
X139333333Y-84502438D02*
X139380952Y-84550057D01*
X139380952Y-84550057D02*
X139428571Y-84645295D01*
X139428571Y-84645295D02*
X139428571Y-84788152D01*
X139428571Y-84788152D02*
X139380952Y-84883390D01*
X139380952Y-84883390D02*
X139333333Y-84931009D01*
X139333333Y-84931009D02*
X139238095Y-84978628D01*
X139238095Y-84978628D02*
X138857143Y-84978628D01*
X139761905Y-84454819D02*
X140000000Y-85454819D01*
X140000000Y-85454819D02*
X140190476Y-84740533D01*
X140190476Y-84740533D02*
X140380952Y-85454819D01*
X140380952Y-85454819D02*
X140619048Y-84454819D01*
X141000000Y-85454819D02*
X141000000Y-84454819D01*
X141000000Y-84454819D02*
X141380952Y-84454819D01*
X141380952Y-84454819D02*
X141476190Y-84502438D01*
X141476190Y-84502438D02*
X141523809Y-84550057D01*
X141523809Y-84550057D02*
X141571428Y-84645295D01*
X141571428Y-84645295D02*
X141571428Y-84788152D01*
X141571428Y-84788152D02*
X141523809Y-84883390D01*
X141523809Y-84883390D02*
X141476190Y-84931009D01*
X141476190Y-84931009D02*
X141380952Y-84978628D01*
X141380952Y-84978628D02*
X141000000Y-84978628D01*
X143583333Y-93859580D02*
X143535714Y-93907200D01*
X143535714Y-93907200D02*
X143392857Y-93954819D01*
X143392857Y-93954819D02*
X143297619Y-93954819D01*
X143297619Y-93954819D02*
X143154762Y-93907200D01*
X143154762Y-93907200D02*
X143059524Y-93811961D01*
X143059524Y-93811961D02*
X143011905Y-93716723D01*
X143011905Y-93716723D02*
X142964286Y-93526247D01*
X142964286Y-93526247D02*
X142964286Y-93383390D01*
X142964286Y-93383390D02*
X143011905Y-93192914D01*
X143011905Y-93192914D02*
X143059524Y-93097676D01*
X143059524Y-93097676D02*
X143154762Y-93002438D01*
X143154762Y-93002438D02*
X143297619Y-92954819D01*
X143297619Y-92954819D02*
X143392857Y-92954819D01*
X143392857Y-92954819D02*
X143535714Y-93002438D01*
X143535714Y-93002438D02*
X143583333Y-93050057D01*
X144440476Y-92954819D02*
X144250000Y-92954819D01*
X144250000Y-92954819D02*
X144154762Y-93002438D01*
X144154762Y-93002438D02*
X144107143Y-93050057D01*
X144107143Y-93050057D02*
X144011905Y-93192914D01*
X144011905Y-93192914D02*
X143964286Y-93383390D01*
X143964286Y-93383390D02*
X143964286Y-93764342D01*
X143964286Y-93764342D02*
X144011905Y-93859580D01*
X144011905Y-93859580D02*
X144059524Y-93907200D01*
X144059524Y-93907200D02*
X144154762Y-93954819D01*
X144154762Y-93954819D02*
X144345238Y-93954819D01*
X144345238Y-93954819D02*
X144440476Y-93907200D01*
X144440476Y-93907200D02*
X144488095Y-93859580D01*
X144488095Y-93859580D02*
X144535714Y-93764342D01*
X144535714Y-93764342D02*
X144535714Y-93526247D01*
X144535714Y-93526247D02*
X144488095Y-93431009D01*
X144488095Y-93431009D02*
X144440476Y-93383390D01*
X144440476Y-93383390D02*
X144345238Y-93335771D01*
X144345238Y-93335771D02*
X144154762Y-93335771D01*
X144154762Y-93335771D02*
X144059524Y-93383390D01*
X144059524Y-93383390D02*
X144011905Y-93431009D01*
X144011905Y-93431009D02*
X143964286Y-93526247D01*
X165554819Y-88706785D02*
X164554819Y-88706785D01*
X164554819Y-88706785D02*
X164554819Y-88468690D01*
X164554819Y-88468690D02*
X164602438Y-88325833D01*
X164602438Y-88325833D02*
X164697676Y-88230595D01*
X164697676Y-88230595D02*
X164792914Y-88182976D01*
X164792914Y-88182976D02*
X164983390Y-88135357D01*
X164983390Y-88135357D02*
X165126247Y-88135357D01*
X165126247Y-88135357D02*
X165316723Y-88182976D01*
X165316723Y-88182976D02*
X165411961Y-88230595D01*
X165411961Y-88230595D02*
X165507200Y-88325833D01*
X165507200Y-88325833D02*
X165554819Y-88468690D01*
X165554819Y-88468690D02*
X165554819Y-88706785D01*
X165554819Y-87182976D02*
X165554819Y-87754404D01*
X165554819Y-87468690D02*
X164554819Y-87468690D01*
X164554819Y-87468690D02*
X164697676Y-87563928D01*
X164697676Y-87563928D02*
X164792914Y-87659166D01*
X164792914Y-87659166D02*
X164840533Y-87754404D01*
X164554819Y-86563928D02*
X164554819Y-86468690D01*
X164554819Y-86468690D02*
X164602438Y-86373452D01*
X164602438Y-86373452D02*
X164650057Y-86325833D01*
X164650057Y-86325833D02*
X164745295Y-86278214D01*
X164745295Y-86278214D02*
X164935771Y-86230595D01*
X164935771Y-86230595D02*
X165173866Y-86230595D01*
X165173866Y-86230595D02*
X165364342Y-86278214D01*
X165364342Y-86278214D02*
X165459580Y-86325833D01*
X165459580Y-86325833D02*
X165507200Y-86373452D01*
X165507200Y-86373452D02*
X165554819Y-86468690D01*
X165554819Y-86468690D02*
X165554819Y-86563928D01*
X165554819Y-86563928D02*
X165507200Y-86659166D01*
X165507200Y-86659166D02*
X165459580Y-86706785D01*
X165459580Y-86706785D02*
X165364342Y-86754404D01*
X165364342Y-86754404D02*
X165173866Y-86802023D01*
X165173866Y-86802023D02*
X164935771Y-86802023D01*
X164935771Y-86802023D02*
X164745295Y-86754404D01*
X164745295Y-86754404D02*
X164650057Y-86706785D01*
X164650057Y-86706785D02*
X164602438Y-86659166D01*
X164602438Y-86659166D02*
X164554819Y-86563928D01*
X180794819Y-88865594D02*
X179794819Y-88865594D01*
X179794819Y-88865594D02*
X179794819Y-88627499D01*
X179794819Y-88627499D02*
X179842438Y-88484642D01*
X179842438Y-88484642D02*
X179937676Y-88389404D01*
X179937676Y-88389404D02*
X180032914Y-88341785D01*
X180032914Y-88341785D02*
X180223390Y-88294166D01*
X180223390Y-88294166D02*
X180366247Y-88294166D01*
X180366247Y-88294166D02*
X180556723Y-88341785D01*
X180556723Y-88341785D02*
X180651961Y-88389404D01*
X180651961Y-88389404D02*
X180747200Y-88484642D01*
X180747200Y-88484642D02*
X180794819Y-88627499D01*
X180794819Y-88627499D02*
X180794819Y-88865594D01*
X179794819Y-87389404D02*
X179794819Y-87865594D01*
X179794819Y-87865594D02*
X180271009Y-87913213D01*
X180271009Y-87913213D02*
X180223390Y-87865594D01*
X180223390Y-87865594D02*
X180175771Y-87770356D01*
X180175771Y-87770356D02*
X180175771Y-87532261D01*
X180175771Y-87532261D02*
X180223390Y-87437023D01*
X180223390Y-87437023D02*
X180271009Y-87389404D01*
X180271009Y-87389404D02*
X180366247Y-87341785D01*
X180366247Y-87341785D02*
X180604342Y-87341785D01*
X180604342Y-87341785D02*
X180699580Y-87389404D01*
X180699580Y-87389404D02*
X180747200Y-87437023D01*
X180747200Y-87437023D02*
X180794819Y-87532261D01*
X180794819Y-87532261D02*
X180794819Y-87770356D01*
X180794819Y-87770356D02*
X180747200Y-87865594D01*
X180747200Y-87865594D02*
X180699580Y-87913213D01*
X126325476Y-93117200D02*
X126468333Y-93164819D01*
X126468333Y-93164819D02*
X126706428Y-93164819D01*
X126706428Y-93164819D02*
X126801666Y-93117200D01*
X126801666Y-93117200D02*
X126849285Y-93069580D01*
X126849285Y-93069580D02*
X126896904Y-92974342D01*
X126896904Y-92974342D02*
X126896904Y-92879104D01*
X126896904Y-92879104D02*
X126849285Y-92783866D01*
X126849285Y-92783866D02*
X126801666Y-92736247D01*
X126801666Y-92736247D02*
X126706428Y-92688628D01*
X126706428Y-92688628D02*
X126515952Y-92641009D01*
X126515952Y-92641009D02*
X126420714Y-92593390D01*
X126420714Y-92593390D02*
X126373095Y-92545771D01*
X126373095Y-92545771D02*
X126325476Y-92450533D01*
X126325476Y-92450533D02*
X126325476Y-92355295D01*
X126325476Y-92355295D02*
X126373095Y-92260057D01*
X126373095Y-92260057D02*
X126420714Y-92212438D01*
X126420714Y-92212438D02*
X126515952Y-92164819D01*
X126515952Y-92164819D02*
X126754047Y-92164819D01*
X126754047Y-92164819D02*
X126896904Y-92212438D01*
X127896904Y-93069580D02*
X127849285Y-93117200D01*
X127849285Y-93117200D02*
X127706428Y-93164819D01*
X127706428Y-93164819D02*
X127611190Y-93164819D01*
X127611190Y-93164819D02*
X127468333Y-93117200D01*
X127468333Y-93117200D02*
X127373095Y-93021961D01*
X127373095Y-93021961D02*
X127325476Y-92926723D01*
X127325476Y-92926723D02*
X127277857Y-92736247D01*
X127277857Y-92736247D02*
X127277857Y-92593390D01*
X127277857Y-92593390D02*
X127325476Y-92402914D01*
X127325476Y-92402914D02*
X127373095Y-92307676D01*
X127373095Y-92307676D02*
X127468333Y-92212438D01*
X127468333Y-92212438D02*
X127611190Y-92164819D01*
X127611190Y-92164819D02*
X127706428Y-92164819D01*
X127706428Y-92164819D02*
X127849285Y-92212438D01*
X127849285Y-92212438D02*
X127896904Y-92260057D01*
X128515952Y-92164819D02*
X128706428Y-92164819D01*
X128706428Y-92164819D02*
X128801666Y-92212438D01*
X128801666Y-92212438D02*
X128896904Y-92307676D01*
X128896904Y-92307676D02*
X128944523Y-92498152D01*
X128944523Y-92498152D02*
X128944523Y-92831485D01*
X128944523Y-92831485D02*
X128896904Y-93021961D01*
X128896904Y-93021961D02*
X128801666Y-93117200D01*
X128801666Y-93117200D02*
X128706428Y-93164819D01*
X128706428Y-93164819D02*
X128515952Y-93164819D01*
X128515952Y-93164819D02*
X128420714Y-93117200D01*
X128420714Y-93117200D02*
X128325476Y-93021961D01*
X128325476Y-93021961D02*
X128277857Y-92831485D01*
X128277857Y-92831485D02*
X128277857Y-92498152D01*
X128277857Y-92498152D02*
X128325476Y-92307676D01*
X128325476Y-92307676D02*
X128420714Y-92212438D01*
X128420714Y-92212438D02*
X128515952Y-92164819D01*
X183334819Y-88865594D02*
X182334819Y-88865594D01*
X182334819Y-88865594D02*
X182334819Y-88627499D01*
X182334819Y-88627499D02*
X182382438Y-88484642D01*
X182382438Y-88484642D02*
X182477676Y-88389404D01*
X182477676Y-88389404D02*
X182572914Y-88341785D01*
X182572914Y-88341785D02*
X182763390Y-88294166D01*
X182763390Y-88294166D02*
X182906247Y-88294166D01*
X182906247Y-88294166D02*
X183096723Y-88341785D01*
X183096723Y-88341785D02*
X183191961Y-88389404D01*
X183191961Y-88389404D02*
X183287200Y-88484642D01*
X183287200Y-88484642D02*
X183334819Y-88627499D01*
X183334819Y-88627499D02*
X183334819Y-88865594D01*
X182668152Y-87437023D02*
X183334819Y-87437023D01*
X182287200Y-87675118D02*
X183001485Y-87913213D01*
X183001485Y-87913213D02*
X183001485Y-87294166D01*
X126325476Y-91212200D02*
X126468333Y-91259819D01*
X126468333Y-91259819D02*
X126706428Y-91259819D01*
X126706428Y-91259819D02*
X126801666Y-91212200D01*
X126801666Y-91212200D02*
X126849285Y-91164580D01*
X126849285Y-91164580D02*
X126896904Y-91069342D01*
X126896904Y-91069342D02*
X126896904Y-90974104D01*
X126896904Y-90974104D02*
X126849285Y-90878866D01*
X126849285Y-90878866D02*
X126801666Y-90831247D01*
X126801666Y-90831247D02*
X126706428Y-90783628D01*
X126706428Y-90783628D02*
X126515952Y-90736009D01*
X126515952Y-90736009D02*
X126420714Y-90688390D01*
X126420714Y-90688390D02*
X126373095Y-90640771D01*
X126373095Y-90640771D02*
X126325476Y-90545533D01*
X126325476Y-90545533D02*
X126325476Y-90450295D01*
X126325476Y-90450295D02*
X126373095Y-90355057D01*
X126373095Y-90355057D02*
X126420714Y-90307438D01*
X126420714Y-90307438D02*
X126515952Y-90259819D01*
X126515952Y-90259819D02*
X126754047Y-90259819D01*
X126754047Y-90259819D02*
X126896904Y-90307438D01*
X127325476Y-91259819D02*
X127325476Y-90259819D01*
X127325476Y-90259819D02*
X127563571Y-90259819D01*
X127563571Y-90259819D02*
X127706428Y-90307438D01*
X127706428Y-90307438D02*
X127801666Y-90402676D01*
X127801666Y-90402676D02*
X127849285Y-90497914D01*
X127849285Y-90497914D02*
X127896904Y-90688390D01*
X127896904Y-90688390D02*
X127896904Y-90831247D01*
X127896904Y-90831247D02*
X127849285Y-91021723D01*
X127849285Y-91021723D02*
X127801666Y-91116961D01*
X127801666Y-91116961D02*
X127706428Y-91212200D01*
X127706428Y-91212200D02*
X127563571Y-91259819D01*
X127563571Y-91259819D02*
X127325476Y-91259819D01*
X128515952Y-90259819D02*
X128706428Y-90259819D01*
X128706428Y-90259819D02*
X128801666Y-90307438D01*
X128801666Y-90307438D02*
X128896904Y-90402676D01*
X128896904Y-90402676D02*
X128944523Y-90593152D01*
X128944523Y-90593152D02*
X128944523Y-90926485D01*
X128944523Y-90926485D02*
X128896904Y-91116961D01*
X128896904Y-91116961D02*
X128801666Y-91212200D01*
X128801666Y-91212200D02*
X128706428Y-91259819D01*
X128706428Y-91259819D02*
X128515952Y-91259819D01*
X128515952Y-91259819D02*
X128420714Y-91212200D01*
X128420714Y-91212200D02*
X128325476Y-91116961D01*
X128325476Y-91116961D02*
X128277857Y-90926485D01*
X128277857Y-90926485D02*
X128277857Y-90593152D01*
X128277857Y-90593152D02*
X128325476Y-90402676D01*
X128325476Y-90402676D02*
X128420714Y-90307438D01*
X128420714Y-90307438D02*
X128515952Y-90259819D01*
X120833333Y-93359580D02*
X120785714Y-93407200D01*
X120785714Y-93407200D02*
X120642857Y-93454819D01*
X120642857Y-93454819D02*
X120547619Y-93454819D01*
X120547619Y-93454819D02*
X120404762Y-93407200D01*
X120404762Y-93407200D02*
X120309524Y-93311961D01*
X120309524Y-93311961D02*
X120261905Y-93216723D01*
X120261905Y-93216723D02*
X120214286Y-93026247D01*
X120214286Y-93026247D02*
X120214286Y-92883390D01*
X120214286Y-92883390D02*
X120261905Y-92692914D01*
X120261905Y-92692914D02*
X120309524Y-92597676D01*
X120309524Y-92597676D02*
X120404762Y-92502438D01*
X120404762Y-92502438D02*
X120547619Y-92454819D01*
X120547619Y-92454819D02*
X120642857Y-92454819D01*
X120642857Y-92454819D02*
X120785714Y-92502438D01*
X120785714Y-92502438D02*
X120833333Y-92550057D01*
X121690476Y-92788152D02*
X121690476Y-93454819D01*
X121452381Y-92407200D02*
X121214286Y-93121485D01*
X121214286Y-93121485D02*
X121833333Y-93121485D01*
X141906666Y-105499819D02*
X141906666Y-106214104D01*
X141906666Y-106214104D02*
X141859047Y-106356961D01*
X141859047Y-106356961D02*
X141763809Y-106452200D01*
X141763809Y-106452200D02*
X141620952Y-106499819D01*
X141620952Y-106499819D02*
X141525714Y-106499819D01*
X142430476Y-106499819D02*
X142620952Y-106499819D01*
X142620952Y-106499819D02*
X142716190Y-106452200D01*
X142716190Y-106452200D02*
X142763809Y-106404580D01*
X142763809Y-106404580D02*
X142859047Y-106261723D01*
X142859047Y-106261723D02*
X142906666Y-106071247D01*
X142906666Y-106071247D02*
X142906666Y-105690295D01*
X142906666Y-105690295D02*
X142859047Y-105595057D01*
X142859047Y-105595057D02*
X142811428Y-105547438D01*
X142811428Y-105547438D02*
X142716190Y-105499819D01*
X142716190Y-105499819D02*
X142525714Y-105499819D01*
X142525714Y-105499819D02*
X142430476Y-105547438D01*
X142430476Y-105547438D02*
X142382857Y-105595057D01*
X142382857Y-105595057D02*
X142335238Y-105690295D01*
X142335238Y-105690295D02*
X142335238Y-105928390D01*
X142335238Y-105928390D02*
X142382857Y-106023628D01*
X142382857Y-106023628D02*
X142430476Y-106071247D01*
X142430476Y-106071247D02*
X142525714Y-106118866D01*
X142525714Y-106118866D02*
X142716190Y-106118866D01*
X142716190Y-106118866D02*
X142811428Y-106071247D01*
X142811428Y-106071247D02*
X142859047Y-106023628D01*
X142859047Y-106023628D02*
X142906666Y-105928390D01*
X118238095Y-84204819D02*
X118238095Y-85014342D01*
X118238095Y-85014342D02*
X118285714Y-85109580D01*
X118285714Y-85109580D02*
X118333333Y-85157200D01*
X118333333Y-85157200D02*
X118428571Y-85204819D01*
X118428571Y-85204819D02*
X118619047Y-85204819D01*
X118619047Y-85204819D02*
X118714285Y-85157200D01*
X118714285Y-85157200D02*
X118761904Y-85109580D01*
X118761904Y-85109580D02*
X118809523Y-85014342D01*
X118809523Y-85014342D02*
X118809523Y-84204819D01*
X119238095Y-84300057D02*
X119285714Y-84252438D01*
X119285714Y-84252438D02*
X119380952Y-84204819D01*
X119380952Y-84204819D02*
X119619047Y-84204819D01*
X119619047Y-84204819D02*
X119714285Y-84252438D01*
X119714285Y-84252438D02*
X119761904Y-84300057D01*
X119761904Y-84300057D02*
X119809523Y-84395295D01*
X119809523Y-84395295D02*
X119809523Y-84490533D01*
X119809523Y-84490533D02*
X119761904Y-84633390D01*
X119761904Y-84633390D02*
X119190476Y-85204819D01*
X119190476Y-85204819D02*
X119809523Y-85204819D01*
X118250000Y-83657200D02*
X118392857Y-83704819D01*
X118392857Y-83704819D02*
X118630952Y-83704819D01*
X118630952Y-83704819D02*
X118726190Y-83657200D01*
X118726190Y-83657200D02*
X118773809Y-83609580D01*
X118773809Y-83609580D02*
X118821428Y-83514342D01*
X118821428Y-83514342D02*
X118821428Y-83419104D01*
X118821428Y-83419104D02*
X118773809Y-83323866D01*
X118773809Y-83323866D02*
X118726190Y-83276247D01*
X118726190Y-83276247D02*
X118630952Y-83228628D01*
X118630952Y-83228628D02*
X118440476Y-83181009D01*
X118440476Y-83181009D02*
X118345238Y-83133390D01*
X118345238Y-83133390D02*
X118297619Y-83085771D01*
X118297619Y-83085771D02*
X118250000Y-82990533D01*
X118250000Y-82990533D02*
X118250000Y-82895295D01*
X118250000Y-82895295D02*
X118297619Y-82800057D01*
X118297619Y-82800057D02*
X118345238Y-82752438D01*
X118345238Y-82752438D02*
X118440476Y-82704819D01*
X118440476Y-82704819D02*
X118678571Y-82704819D01*
X118678571Y-82704819D02*
X118821428Y-82752438D01*
X119250000Y-83704819D02*
X119250000Y-82704819D01*
X119250000Y-82704819D02*
X119821428Y-83704819D01*
X119821428Y-83704819D02*
X119821428Y-82704819D01*
X120726190Y-82704819D02*
X120535714Y-82704819D01*
X120535714Y-82704819D02*
X120440476Y-82752438D01*
X120440476Y-82752438D02*
X120392857Y-82800057D01*
X120392857Y-82800057D02*
X120297619Y-82942914D01*
X120297619Y-82942914D02*
X120250000Y-83133390D01*
X120250000Y-83133390D02*
X120250000Y-83514342D01*
X120250000Y-83514342D02*
X120297619Y-83609580D01*
X120297619Y-83609580D02*
X120345238Y-83657200D01*
X120345238Y-83657200D02*
X120440476Y-83704819D01*
X120440476Y-83704819D02*
X120630952Y-83704819D01*
X120630952Y-83704819D02*
X120726190Y-83657200D01*
X120726190Y-83657200D02*
X120773809Y-83609580D01*
X120773809Y-83609580D02*
X120821428Y-83514342D01*
X120821428Y-83514342D02*
X120821428Y-83276247D01*
X120821428Y-83276247D02*
X120773809Y-83181009D01*
X120773809Y-83181009D02*
X120726190Y-83133390D01*
X120726190Y-83133390D02*
X120630952Y-83085771D01*
X120630952Y-83085771D02*
X120440476Y-83085771D01*
X120440476Y-83085771D02*
X120345238Y-83133390D01*
X120345238Y-83133390D02*
X120297619Y-83181009D01*
X120297619Y-83181009D02*
X120250000Y-83276247D01*
X121726190Y-82704819D02*
X121250000Y-82704819D01*
X121250000Y-82704819D02*
X121202381Y-83181009D01*
X121202381Y-83181009D02*
X121250000Y-83133390D01*
X121250000Y-83133390D02*
X121345238Y-83085771D01*
X121345238Y-83085771D02*
X121583333Y-83085771D01*
X121583333Y-83085771D02*
X121678571Y-83133390D01*
X121678571Y-83133390D02*
X121726190Y-83181009D01*
X121726190Y-83181009D02*
X121773809Y-83276247D01*
X121773809Y-83276247D02*
X121773809Y-83514342D01*
X121773809Y-83514342D02*
X121726190Y-83609580D01*
X121726190Y-83609580D02*
X121678571Y-83657200D01*
X121678571Y-83657200D02*
X121583333Y-83704819D01*
X121583333Y-83704819D02*
X121345238Y-83704819D01*
X121345238Y-83704819D02*
X121250000Y-83657200D01*
X121250000Y-83657200D02*
X121202381Y-83609580D01*
X122678571Y-83704819D02*
X122202381Y-83704819D01*
X122202381Y-83704819D02*
X122202381Y-82704819D01*
X122869048Y-82704819D02*
X123202381Y-83704819D01*
X123202381Y-83704819D02*
X123535714Y-82704819D01*
X123869048Y-83704819D02*
X123869048Y-82704819D01*
X123869048Y-82704819D02*
X124107143Y-82704819D01*
X124107143Y-82704819D02*
X124250000Y-82752438D01*
X124250000Y-82752438D02*
X124345238Y-82847676D01*
X124345238Y-82847676D02*
X124392857Y-82942914D01*
X124392857Y-82942914D02*
X124440476Y-83133390D01*
X124440476Y-83133390D02*
X124440476Y-83276247D01*
X124440476Y-83276247D02*
X124392857Y-83466723D01*
X124392857Y-83466723D02*
X124345238Y-83561961D01*
X124345238Y-83561961D02*
X124250000Y-83657200D01*
X124250000Y-83657200D02*
X124107143Y-83704819D01*
X124107143Y-83704819D02*
X123869048Y-83704819D01*
X124821429Y-83657200D02*
X124964286Y-83704819D01*
X124964286Y-83704819D02*
X125202381Y-83704819D01*
X125202381Y-83704819D02*
X125297619Y-83657200D01*
X125297619Y-83657200D02*
X125345238Y-83609580D01*
X125345238Y-83609580D02*
X125392857Y-83514342D01*
X125392857Y-83514342D02*
X125392857Y-83419104D01*
X125392857Y-83419104D02*
X125345238Y-83323866D01*
X125345238Y-83323866D02*
X125297619Y-83276247D01*
X125297619Y-83276247D02*
X125202381Y-83228628D01*
X125202381Y-83228628D02*
X125011905Y-83181009D01*
X125011905Y-83181009D02*
X124916667Y-83133390D01*
X124916667Y-83133390D02*
X124869048Y-83085771D01*
X124869048Y-83085771D02*
X124821429Y-82990533D01*
X124821429Y-82990533D02*
X124821429Y-82895295D01*
X124821429Y-82895295D02*
X124869048Y-82800057D01*
X124869048Y-82800057D02*
X124916667Y-82752438D01*
X124916667Y-82752438D02*
X125011905Y-82704819D01*
X125011905Y-82704819D02*
X125250000Y-82704819D01*
X125250000Y-82704819D02*
X125392857Y-82752438D01*
X126011905Y-82704819D02*
X126107143Y-82704819D01*
X126107143Y-82704819D02*
X126202381Y-82752438D01*
X126202381Y-82752438D02*
X126250000Y-82800057D01*
X126250000Y-82800057D02*
X126297619Y-82895295D01*
X126297619Y-82895295D02*
X126345238Y-83085771D01*
X126345238Y-83085771D02*
X126345238Y-83323866D01*
X126345238Y-83323866D02*
X126297619Y-83514342D01*
X126297619Y-83514342D02*
X126250000Y-83609580D01*
X126250000Y-83609580D02*
X126202381Y-83657200D01*
X126202381Y-83657200D02*
X126107143Y-83704819D01*
X126107143Y-83704819D02*
X126011905Y-83704819D01*
X126011905Y-83704819D02*
X125916667Y-83657200D01*
X125916667Y-83657200D02*
X125869048Y-83609580D01*
X125869048Y-83609580D02*
X125821429Y-83514342D01*
X125821429Y-83514342D02*
X125773810Y-83323866D01*
X125773810Y-83323866D02*
X125773810Y-83085771D01*
X125773810Y-83085771D02*
X125821429Y-82895295D01*
X125821429Y-82895295D02*
X125869048Y-82800057D01*
X125869048Y-82800057D02*
X125916667Y-82752438D01*
X125916667Y-82752438D02*
X126011905Y-82704819D01*
X127202381Y-83038152D02*
X127202381Y-83704819D01*
X126964286Y-82657200D02*
X126726191Y-83371485D01*
X126726191Y-83371485D02*
X127345238Y-83371485D01*
X127773810Y-83704819D02*
X127964286Y-83704819D01*
X127964286Y-83704819D02*
X128059524Y-83657200D01*
X128059524Y-83657200D02*
X128107143Y-83609580D01*
X128107143Y-83609580D02*
X128202381Y-83466723D01*
X128202381Y-83466723D02*
X128250000Y-83276247D01*
X128250000Y-83276247D02*
X128250000Y-82895295D01*
X128250000Y-82895295D02*
X128202381Y-82800057D01*
X128202381Y-82800057D02*
X128154762Y-82752438D01*
X128154762Y-82752438D02*
X128059524Y-82704819D01*
X128059524Y-82704819D02*
X127869048Y-82704819D01*
X127869048Y-82704819D02*
X127773810Y-82752438D01*
X127773810Y-82752438D02*
X127726191Y-82800057D01*
X127726191Y-82800057D02*
X127678572Y-82895295D01*
X127678572Y-82895295D02*
X127678572Y-83133390D01*
X127678572Y-83133390D02*
X127726191Y-83228628D01*
X127726191Y-83228628D02*
X127773810Y-83276247D01*
X127773810Y-83276247D02*
X127869048Y-83323866D01*
X127869048Y-83323866D02*
X128059524Y-83323866D01*
X128059524Y-83323866D02*
X128154762Y-83276247D01*
X128154762Y-83276247D02*
X128202381Y-83228628D01*
X128202381Y-83228628D02*
X128250000Y-83133390D01*
X170634819Y-88865594D02*
X169634819Y-88865594D01*
X169634819Y-88865594D02*
X169634819Y-88627499D01*
X169634819Y-88627499D02*
X169682438Y-88484642D01*
X169682438Y-88484642D02*
X169777676Y-88389404D01*
X169777676Y-88389404D02*
X169872914Y-88341785D01*
X169872914Y-88341785D02*
X170063390Y-88294166D01*
X170063390Y-88294166D02*
X170206247Y-88294166D01*
X170206247Y-88294166D02*
X170396723Y-88341785D01*
X170396723Y-88341785D02*
X170491961Y-88389404D01*
X170491961Y-88389404D02*
X170587200Y-88484642D01*
X170587200Y-88484642D02*
X170634819Y-88627499D01*
X170634819Y-88627499D02*
X170634819Y-88865594D01*
X170063390Y-87722737D02*
X170015771Y-87817975D01*
X170015771Y-87817975D02*
X169968152Y-87865594D01*
X169968152Y-87865594D02*
X169872914Y-87913213D01*
X169872914Y-87913213D02*
X169825295Y-87913213D01*
X169825295Y-87913213D02*
X169730057Y-87865594D01*
X169730057Y-87865594D02*
X169682438Y-87817975D01*
X169682438Y-87817975D02*
X169634819Y-87722737D01*
X169634819Y-87722737D02*
X169634819Y-87532261D01*
X169634819Y-87532261D02*
X169682438Y-87437023D01*
X169682438Y-87437023D02*
X169730057Y-87389404D01*
X169730057Y-87389404D02*
X169825295Y-87341785D01*
X169825295Y-87341785D02*
X169872914Y-87341785D01*
X169872914Y-87341785D02*
X169968152Y-87389404D01*
X169968152Y-87389404D02*
X170015771Y-87437023D01*
X170015771Y-87437023D02*
X170063390Y-87532261D01*
X170063390Y-87532261D02*
X170063390Y-87722737D01*
X170063390Y-87722737D02*
X170111009Y-87817975D01*
X170111009Y-87817975D02*
X170158628Y-87865594D01*
X170158628Y-87865594D02*
X170253866Y-87913213D01*
X170253866Y-87913213D02*
X170444342Y-87913213D01*
X170444342Y-87913213D02*
X170539580Y-87865594D01*
X170539580Y-87865594D02*
X170587200Y-87817975D01*
X170587200Y-87817975D02*
X170634819Y-87722737D01*
X170634819Y-87722737D02*
X170634819Y-87532261D01*
X170634819Y-87532261D02*
X170587200Y-87437023D01*
X170587200Y-87437023D02*
X170539580Y-87389404D01*
X170539580Y-87389404D02*
X170444342Y-87341785D01*
X170444342Y-87341785D02*
X170253866Y-87341785D01*
X170253866Y-87341785D02*
X170158628Y-87389404D01*
X170158628Y-87389404D02*
X170111009Y-87437023D01*
X170111009Y-87437023D02*
X170063390Y-87532261D01*
X188414819Y-88865594D02*
X187414819Y-88865594D01*
X187414819Y-88865594D02*
X187414819Y-88627499D01*
X187414819Y-88627499D02*
X187462438Y-88484642D01*
X187462438Y-88484642D02*
X187557676Y-88389404D01*
X187557676Y-88389404D02*
X187652914Y-88341785D01*
X187652914Y-88341785D02*
X187843390Y-88294166D01*
X187843390Y-88294166D02*
X187986247Y-88294166D01*
X187986247Y-88294166D02*
X188176723Y-88341785D01*
X188176723Y-88341785D02*
X188271961Y-88389404D01*
X188271961Y-88389404D02*
X188367200Y-88484642D01*
X188367200Y-88484642D02*
X188414819Y-88627499D01*
X188414819Y-88627499D02*
X188414819Y-88865594D01*
X187510057Y-87913213D02*
X187462438Y-87865594D01*
X187462438Y-87865594D02*
X187414819Y-87770356D01*
X187414819Y-87770356D02*
X187414819Y-87532261D01*
X187414819Y-87532261D02*
X187462438Y-87437023D01*
X187462438Y-87437023D02*
X187510057Y-87389404D01*
X187510057Y-87389404D02*
X187605295Y-87341785D01*
X187605295Y-87341785D02*
X187700533Y-87341785D01*
X187700533Y-87341785D02*
X187843390Y-87389404D01*
X187843390Y-87389404D02*
X188414819Y-87960832D01*
X188414819Y-87960832D02*
X188414819Y-87341785D01*
X105540833Y-106049819D02*
X105207500Y-105573628D01*
X104969405Y-106049819D02*
X104969405Y-105049819D01*
X104969405Y-105049819D02*
X105350357Y-105049819D01*
X105350357Y-105049819D02*
X105445595Y-105097438D01*
X105445595Y-105097438D02*
X105493214Y-105145057D01*
X105493214Y-105145057D02*
X105540833Y-105240295D01*
X105540833Y-105240295D02*
X105540833Y-105383152D01*
X105540833Y-105383152D02*
X105493214Y-105478390D01*
X105493214Y-105478390D02*
X105445595Y-105526009D01*
X105445595Y-105526009D02*
X105350357Y-105573628D01*
X105350357Y-105573628D02*
X104969405Y-105573628D01*
X105874167Y-105049819D02*
X106493214Y-105049819D01*
X106493214Y-105049819D02*
X106159881Y-105430771D01*
X106159881Y-105430771D02*
X106302738Y-105430771D01*
X106302738Y-105430771D02*
X106397976Y-105478390D01*
X106397976Y-105478390D02*
X106445595Y-105526009D01*
X106445595Y-105526009D02*
X106493214Y-105621247D01*
X106493214Y-105621247D02*
X106493214Y-105859342D01*
X106493214Y-105859342D02*
X106445595Y-105954580D01*
X106445595Y-105954580D02*
X106397976Y-106002200D01*
X106397976Y-106002200D02*
X106302738Y-106049819D01*
X106302738Y-106049819D02*
X106017024Y-106049819D01*
X106017024Y-106049819D02*
X105921786Y-106002200D01*
X105921786Y-106002200D02*
X105874167Y-105954580D01*
X148083333Y-91454819D02*
X147750000Y-90978628D01*
X147511905Y-91454819D02*
X147511905Y-90454819D01*
X147511905Y-90454819D02*
X147892857Y-90454819D01*
X147892857Y-90454819D02*
X147988095Y-90502438D01*
X147988095Y-90502438D02*
X148035714Y-90550057D01*
X148035714Y-90550057D02*
X148083333Y-90645295D01*
X148083333Y-90645295D02*
X148083333Y-90788152D01*
X148083333Y-90788152D02*
X148035714Y-90883390D01*
X148035714Y-90883390D02*
X147988095Y-90931009D01*
X147988095Y-90931009D02*
X147892857Y-90978628D01*
X147892857Y-90978628D02*
X147511905Y-90978628D01*
X148988095Y-90454819D02*
X148511905Y-90454819D01*
X148511905Y-90454819D02*
X148464286Y-90931009D01*
X148464286Y-90931009D02*
X148511905Y-90883390D01*
X148511905Y-90883390D02*
X148607143Y-90835771D01*
X148607143Y-90835771D02*
X148845238Y-90835771D01*
X148845238Y-90835771D02*
X148940476Y-90883390D01*
X148940476Y-90883390D02*
X148988095Y-90931009D01*
X148988095Y-90931009D02*
X149035714Y-91026247D01*
X149035714Y-91026247D02*
X149035714Y-91264342D01*
X149035714Y-91264342D02*
X148988095Y-91359580D01*
X148988095Y-91359580D02*
X148940476Y-91407200D01*
X148940476Y-91407200D02*
X148845238Y-91454819D01*
X148845238Y-91454819D02*
X148607143Y-91454819D01*
X148607143Y-91454819D02*
X148511905Y-91407200D01*
X148511905Y-91407200D02*
X148464286Y-91359580D01*
D11*
%TO.C,D11*%
X161600000Y-89315000D02*
X161600000Y-92000000D01*
X163520000Y-89315000D02*
X161600000Y-89315000D01*
X163520000Y-92000000D02*
X163520000Y-89315000D01*
%TO.C,C3*%
X142613748Y-96420000D02*
X143136252Y-96420000D01*
X142613748Y-97890000D02*
X143136252Y-97890000D01*
%TO.C,J2*%
X92520000Y-84902500D02*
X92520000Y-100422500D01*
X106100000Y-84217500D02*
X106600000Y-84717500D01*
X106600000Y-84717500D02*
X107100000Y-84217500D01*
X107100000Y-84217500D02*
X106100000Y-84217500D01*
X110480000Y-84902500D02*
X92520000Y-84902500D01*
X110480000Y-100422500D02*
X92520000Y-100422500D01*
X110480000Y-100422500D02*
X110480000Y-84902500D01*
%TO.C,D3*%
X184460000Y-89315000D02*
X184460000Y-92000000D01*
X186380000Y-89315000D02*
X184460000Y-89315000D01*
X186380000Y-92000000D02*
X186380000Y-89315000D01*
%TO.C,C5*%
X124761252Y-84265000D02*
X124238748Y-84265000D01*
X124761252Y-85735000D02*
X124238748Y-85735000D01*
%TO.C,D9*%
X166680000Y-89315000D02*
X166680000Y-92000000D01*
X168600000Y-89315000D02*
X166680000Y-89315000D01*
X168600000Y-92000000D02*
X168600000Y-89315000D01*
%TO.C,J3*%
X152195000Y-91020000D02*
X152195000Y-93620000D01*
X152195000Y-91020000D02*
X154855000Y-91020000D01*
X152195000Y-93620000D02*
X154855000Y-93620000D01*
X153525000Y-88420000D02*
X154855000Y-88420000D01*
X154855000Y-88420000D02*
X154855000Y-89750000D01*
X154855000Y-91020000D02*
X154855000Y-93620000D01*
%TO.C,J11*%
X175200000Y-107250000D02*
X175200000Y-112450000D01*
X187960000Y-107250000D02*
X175200000Y-107250000D01*
X187960000Y-107250000D02*
X187960000Y-109850000D01*
X187960000Y-109850000D02*
X190560000Y-109850000D01*
X189230000Y-107250000D02*
X190560000Y-107250000D01*
X190560000Y-107250000D02*
X190560000Y-108580000D01*
X190560000Y-109850000D02*
X190560000Y-112450000D01*
X190560000Y-112450000D02*
X175200000Y-112450000D01*
%TO.C,D12*%
X159060000Y-89315000D02*
X159060000Y-92000000D01*
X160980000Y-89315000D02*
X159060000Y-89315000D01*
X160980000Y-92000000D02*
X160980000Y-89315000D01*
%TO.C,SCI*%
X130875000Y-88265000D02*
G75*
G02*
X129475000Y-88265000I-700000J0D01*
G01*
X129475000Y-88265000D02*
G75*
G02*
X130875000Y-88265000I700000J0D01*
G01*
%TO.C,D1*%
X100377500Y-106540000D02*
X100377500Y-108460000D01*
X100377500Y-108460000D02*
X103062500Y-108460000D01*
X103062500Y-106540000D02*
X100377500Y-106540000D01*
%TO.C,J5*%
X134560000Y-69795000D02*
X149920000Y-69795000D01*
X134560000Y-72395000D02*
X134560000Y-69795000D01*
X134560000Y-74995000D02*
X134560000Y-73665000D01*
X135890000Y-74995000D02*
X134560000Y-74995000D01*
X137160000Y-72395000D02*
X134560000Y-72395000D01*
X137160000Y-74995000D02*
X137160000Y-72395000D01*
X137160000Y-74995000D02*
X149920000Y-74995000D01*
X149920000Y-74995000D02*
X149920000Y-69795000D01*
%TO.C,J1*%
X92520000Y-69402500D02*
X92520000Y-84922500D01*
X106100000Y-68717500D02*
X106600000Y-69217500D01*
X106600000Y-69217500D02*
X107100000Y-68717500D01*
X107100000Y-68717500D02*
X106100000Y-68717500D01*
X110480000Y-69402500D02*
X92520000Y-69402500D01*
X110480000Y-84922500D02*
X92520000Y-84922500D01*
X110480000Y-84922500D02*
X110480000Y-69402500D01*
%TO.C,J7*%
X175200000Y-69795000D02*
X190560000Y-69795000D01*
X175200000Y-72395000D02*
X175200000Y-69795000D01*
X175200000Y-74995000D02*
X175200000Y-73665000D01*
X176530000Y-74995000D02*
X175200000Y-74995000D01*
X177800000Y-72395000D02*
X175200000Y-72395000D01*
X177800000Y-74995000D02*
X177800000Y-72395000D01*
X177800000Y-74995000D02*
X190560000Y-74995000D01*
X190560000Y-74995000D02*
X190560000Y-69795000D01*
%TO.C,R1*%
X115470000Y-82680436D02*
X115470000Y-83134564D01*
X116940000Y-82680436D02*
X116940000Y-83134564D01*
%TO.C,J6*%
X157420000Y-69795000D02*
X172780000Y-69795000D01*
X157420000Y-72395000D02*
X157420000Y-69795000D01*
X157420000Y-74995000D02*
X157420000Y-73665000D01*
X158750000Y-74995000D02*
X157420000Y-74995000D01*
X160020000Y-72395000D02*
X157420000Y-72395000D01*
X160020000Y-74995000D02*
X160020000Y-72395000D01*
X160020000Y-74995000D02*
X172780000Y-74995000D01*
X172780000Y-74995000D02*
X172780000Y-69795000D01*
%TO.C,J4*%
X116780000Y-69795000D02*
X132140000Y-69795000D01*
X116780000Y-72395000D02*
X116780000Y-69795000D01*
X116780000Y-74995000D02*
X116780000Y-73665000D01*
X118110000Y-74995000D02*
X116780000Y-74995000D01*
X119380000Y-72395000D02*
X116780000Y-72395000D01*
X119380000Y-74995000D02*
X119380000Y-72395000D01*
X119380000Y-74995000D02*
X132140000Y-74995000D01*
X132140000Y-74995000D02*
X132140000Y-69795000D01*
%TO.C,D6*%
X176840000Y-89315000D02*
X176840000Y-92000000D01*
X178760000Y-89315000D02*
X176840000Y-89315000D01*
X178760000Y-92000000D02*
X178760000Y-89315000D01*
%TO.C,D13*%
X156520000Y-89315000D02*
X156520000Y-92000000D01*
X158440000Y-89315000D02*
X156520000Y-89315000D01*
X158440000Y-92000000D02*
X158440000Y-89315000D01*
%TO.C,C1*%
X114488748Y-93485000D02*
X115011252Y-93485000D01*
X114488748Y-92015000D02*
X115011252Y-92015000D01*
%TO.C,D7*%
X174300000Y-89315000D02*
X174300000Y-92000000D01*
X176220000Y-89315000D02*
X174300000Y-89315000D01*
X176220000Y-92000000D02*
X176220000Y-89315000D01*
%TO.C,R2*%
X115470000Y-87579564D02*
X115470000Y-87125436D01*
X116940000Y-87579564D02*
X116940000Y-87125436D01*
%TO.C,J8*%
X116780000Y-107250000D02*
X116780000Y-112450000D01*
X129540000Y-107250000D02*
X116780000Y-107250000D01*
X129540000Y-107250000D02*
X129540000Y-109850000D01*
X129540000Y-109850000D02*
X132140000Y-109850000D01*
X130810000Y-107250000D02*
X132140000Y-107250000D01*
X132140000Y-107250000D02*
X132140000Y-108580000D01*
X132140000Y-109850000D02*
X132140000Y-112450000D01*
X132140000Y-112450000D02*
X116780000Y-112450000D01*
%TO.C,J10*%
X157420000Y-107250000D02*
X157420000Y-112450000D01*
X170180000Y-107250000D02*
X157420000Y-107250000D01*
X170180000Y-107250000D02*
X170180000Y-109850000D01*
X170180000Y-109850000D02*
X172780000Y-109850000D01*
X171450000Y-107250000D02*
X172780000Y-107250000D01*
X172780000Y-107250000D02*
X172780000Y-108580000D01*
X172780000Y-109850000D02*
X172780000Y-112450000D01*
X172780000Y-112450000D02*
X157420000Y-112450000D01*
%TO.C,C2*%
X121235000Y-95488748D02*
X121235000Y-96011252D01*
X119765000Y-95488748D02*
X119765000Y-96011252D01*
%TO.C,R4*%
X140870000Y-89337936D02*
X140870000Y-89792064D01*
X142340000Y-89337936D02*
X142340000Y-89792064D01*
%TO.C,SDI*%
X130875000Y-86360000D02*
G75*
G02*
X129475000Y-86360000I-700000J0D01*
G01*
X129475000Y-86360000D02*
G75*
G02*
X130875000Y-86360000I700000J0D01*
G01*
%TO.C,U1*%
X115500000Y-94190000D02*
X114700000Y-94190000D01*
X115500000Y-94190000D02*
X116300000Y-94190000D01*
X115500000Y-97310000D02*
X114700000Y-97310000D01*
X115500000Y-97310000D02*
X116300000Y-97310000D01*
X114200000Y-94240000D02*
X113960000Y-93910000D01*
X114440000Y-93910000D01*
X114200000Y-94240000D01*
G36*
X114200000Y-94240000D02*
G01*
X113960000Y-93910000D01*
X114440000Y-93910000D01*
X114200000Y-94240000D01*
G37*
%TO.C,U3*%
X133015000Y-91440000D02*
X133015000Y-89240000D01*
X133015000Y-91440000D02*
X133015000Y-93640000D01*
X140035000Y-91440000D02*
X140035000Y-87790000D01*
X140035000Y-91440000D02*
X140035000Y-93640000D01*
%TO.C,C6*%
X140870000Y-93951252D02*
X140870000Y-93428748D01*
X142340000Y-93951252D02*
X142340000Y-93428748D01*
%TO.C,D10*%
X164140000Y-89315000D02*
X164140000Y-92000000D01*
X166060000Y-89315000D02*
X164140000Y-89315000D01*
X166060000Y-92000000D02*
X166060000Y-89315000D01*
%TO.C,D5*%
X179380000Y-89315000D02*
X179380000Y-92000000D01*
X181300000Y-89315000D02*
X179380000Y-89315000D01*
X181300000Y-92000000D02*
X181300000Y-89315000D01*
%TO.C,SCO*%
X130875000Y-92710000D02*
G75*
G02*
X129475000Y-92710000I-700000J0D01*
G01*
X129475000Y-92710000D02*
G75*
G02*
X130875000Y-92710000I700000J0D01*
G01*
%TO.C,D4*%
X181920000Y-89315000D02*
X181920000Y-92000000D01*
X183840000Y-89315000D02*
X181920000Y-89315000D01*
X183840000Y-92000000D02*
X183840000Y-89315000D01*
%TO.C,SDO*%
X130875000Y-90805000D02*
G75*
G02*
X129475000Y-90805000I-700000J0D01*
G01*
X129475000Y-90805000D02*
G75*
G02*
X130875000Y-90805000I700000J0D01*
G01*
%TO.C,C4*%
X123883748Y-92265000D02*
X124406252Y-92265000D01*
X123883748Y-93735000D02*
X124406252Y-93735000D01*
%TO.C,J9*%
X134560000Y-107250000D02*
X134560000Y-112450000D01*
X147320000Y-107250000D02*
X134560000Y-107250000D01*
X147320000Y-107250000D02*
X147320000Y-109850000D01*
X147320000Y-109850000D02*
X149920000Y-109850000D01*
X148590000Y-107250000D02*
X149920000Y-107250000D01*
X149920000Y-107250000D02*
X149920000Y-108580000D01*
X149920000Y-109850000D02*
X149920000Y-112450000D01*
X149920000Y-112450000D02*
X134560000Y-112450000D01*
%TO.C,U2*%
X121995000Y-86165000D02*
X118395000Y-86165000D01*
X121995000Y-86165000D02*
X124195000Y-86165000D01*
X121995000Y-91635000D02*
X119795000Y-91635000D01*
X121995000Y-91635000D02*
X124195000Y-91635000D01*
%TO.C,D8*%
X169220000Y-89315000D02*
X169220000Y-92000000D01*
X171140000Y-89315000D02*
X169220000Y-89315000D01*
X171140000Y-92000000D02*
X171140000Y-89315000D01*
%TO.C,D2*%
X187000000Y-89315000D02*
X187000000Y-92000000D01*
X188920000Y-89315000D02*
X187000000Y-89315000D01*
X188920000Y-92000000D02*
X188920000Y-89315000D01*
%TO.C,R3*%
X106292064Y-106765000D02*
X105837936Y-106765000D01*
X106292064Y-108235000D02*
X105837936Y-108235000D01*
%TO.C,R5*%
X149765000Y-91227064D02*
X149765000Y-90772936D01*
X151235000Y-91227064D02*
X151235000Y-90772936D01*
%TD*%
M02*
