%TF.GenerationSoftware,KiCad,Pcbnew,8.0.2*%
%TF.CreationDate,2025-01-02T13:01:15+01:00*%
%TF.ProjectId,test,74657374-2e6b-4696-9361-645f70636258,rev?*%
%TF.SameCoordinates,Original*%
%TF.FileFunction,Plated,1,2,PTH,Drill*%
%TF.FilePolarity,Positive*%
%FSLAX46Y46*%
G04 Gerber Fmt 4.6, Leading zero omitted, Abs format (unit mm)*
G04 Created by KiCad (PCBNEW 8.0.2) date 2025-01-02 13:01:15*
%MOMM*%
%LPD*%
G01*
G04 APERTURE LIST*
%TA.AperFunction,ComponentDrill*%
%ADD10C,0.300000*%
%TD*%
%TA.AperFunction,ViaDrill*%
%ADD11C,0.400000*%
%TD*%
%TA.AperFunction,ComponentDrill*%
%ADD12C,0.760000*%
%TD*%
%TA.AperFunction,ComponentDrill*%
%ADD13C,1.000000*%
%TD*%
G04 APERTURE END LIST*
D10*
%TO.C,U3*%
X133925000Y-90140000D03*
X133925000Y-91440000D03*
X133925000Y-92740000D03*
X135225000Y-90140000D03*
X135225000Y-91440000D03*
X135225000Y-92740000D03*
X136525000Y-90140000D03*
X136525000Y-91440000D03*
X136525000Y-92740000D03*
X137825000Y-90140000D03*
X137825000Y-91440000D03*
X137825000Y-92740000D03*
X139125000Y-90140000D03*
X139125000Y-91440000D03*
X139125000Y-92740000D03*
%TD*%
D11*
X100065000Y-107500000D03*
X115750000Y-95750000D03*
X116500000Y-98000000D03*
X116500000Y-99000000D03*
X116500000Y-100000000D03*
X116750000Y-95750000D03*
X118110000Y-78105000D03*
X118110000Y-105410000D03*
X120650000Y-79375000D03*
X120650000Y-104140000D03*
X123115000Y-102907500D03*
X123190000Y-80645000D03*
X125730000Y-81915000D03*
X125730000Y-101600000D03*
X128270000Y-83185000D03*
X128270000Y-101500000D03*
X129500000Y-89535000D03*
X129500000Y-94250000D03*
X129500000Y-95250000D03*
X129500000Y-96250000D03*
X130500000Y-89535000D03*
X130810000Y-84455000D03*
X130810000Y-101500000D03*
X131465000Y-89535000D03*
X131500000Y-90805000D03*
X131500000Y-94250000D03*
X134620000Y-99060000D03*
X135890000Y-76835000D03*
X135890000Y-99060000D03*
X137160000Y-99060000D03*
X138430000Y-78105000D03*
X138430000Y-99060000D03*
X139700000Y-99060000D03*
X140970000Y-79375000D03*
X140970000Y-99060000D03*
X143510000Y-80645000D03*
X144780000Y-97155000D03*
X146050000Y-81915000D03*
X148590000Y-83185000D03*
X157480000Y-93500000D03*
X158750000Y-105410000D03*
X160020000Y-93500000D03*
X161290000Y-104140000D03*
X162560000Y-93500000D03*
X163830000Y-102870000D03*
X165100000Y-93500000D03*
X166370000Y-101600000D03*
X167640000Y-93500000D03*
X168910000Y-100330000D03*
X170180000Y-93500000D03*
X171450000Y-99022500D03*
X175260000Y-93500000D03*
X176530000Y-76835000D03*
X177800000Y-93500000D03*
X179070000Y-78105000D03*
X180340000Y-93500000D03*
X181610000Y-79375000D03*
X182880000Y-93500000D03*
X184150000Y-80645000D03*
X185420000Y-93500000D03*
X186690000Y-81915000D03*
X188000000Y-93500000D03*
X189230000Y-83312000D03*
D12*
%TO.C,J1*%
X106600000Y-72717500D03*
X106600000Y-75257500D03*
X106600000Y-77797500D03*
X106600000Y-80337500D03*
%TO.C,J2*%
X106600000Y-88217500D03*
X106600000Y-90757500D03*
X106600000Y-93297500D03*
X106600000Y-95837500D03*
%TO.C,J1*%
X109140000Y-73987500D03*
X109140000Y-76527500D03*
X109140000Y-79067500D03*
X109140000Y-81607500D03*
%TO.C,J2*%
X109140000Y-89487500D03*
X109140000Y-92027500D03*
X109140000Y-94567500D03*
X109140000Y-97107500D03*
D13*
%TO.C,J4*%
X118110000Y-71125000D03*
X118110000Y-73665000D03*
%TO.C,J8*%
X118110000Y-108580000D03*
X118110000Y-111120000D03*
%TO.C,J4*%
X120650000Y-71125000D03*
X120650000Y-73665000D03*
%TO.C,J8*%
X120650000Y-108580000D03*
X120650000Y-111120000D03*
%TO.C,J4*%
X123190000Y-71125000D03*
X123190000Y-73665000D03*
%TO.C,J8*%
X123190000Y-108580000D03*
X123190000Y-111120000D03*
%TO.C,J4*%
X125730000Y-71125000D03*
X125730000Y-73665000D03*
%TO.C,J8*%
X125730000Y-108580000D03*
X125730000Y-111120000D03*
%TO.C,J4*%
X128270000Y-71125000D03*
X128270000Y-73665000D03*
%TO.C,J8*%
X128270000Y-108580000D03*
X128270000Y-111120000D03*
%TO.C,J4*%
X130810000Y-71125000D03*
X130810000Y-73665000D03*
%TO.C,J8*%
X130810000Y-108580000D03*
X130810000Y-111120000D03*
%TO.C,J5*%
X135890000Y-71125000D03*
X135890000Y-73665000D03*
%TO.C,J9*%
X135890000Y-108580000D03*
X135890000Y-111120000D03*
%TO.C,J5*%
X138430000Y-71125000D03*
X138430000Y-73665000D03*
%TO.C,J9*%
X138430000Y-108580000D03*
X138430000Y-111120000D03*
%TO.C,J5*%
X140970000Y-71125000D03*
X140970000Y-73665000D03*
%TO.C,J9*%
X140970000Y-108580000D03*
X140970000Y-111120000D03*
%TO.C,J5*%
X143510000Y-71125000D03*
X143510000Y-73665000D03*
%TO.C,J9*%
X143510000Y-108580000D03*
X143510000Y-111120000D03*
%TO.C,J5*%
X146050000Y-71125000D03*
X146050000Y-73665000D03*
%TO.C,J9*%
X146050000Y-108580000D03*
X146050000Y-111120000D03*
%TO.C,J5*%
X148590000Y-71125000D03*
X148590000Y-73665000D03*
%TO.C,J9*%
X148590000Y-108580000D03*
X148590000Y-111120000D03*
%TO.C,J3*%
X153525000Y-89750000D03*
X153525000Y-92290000D03*
%TO.C,J6*%
X158750000Y-71125000D03*
X158750000Y-73665000D03*
%TO.C,J10*%
X158750000Y-108580000D03*
X158750000Y-111120000D03*
%TO.C,J6*%
X161290000Y-71125000D03*
X161290000Y-73665000D03*
%TO.C,J10*%
X161290000Y-108580000D03*
X161290000Y-111120000D03*
%TO.C,J6*%
X163830000Y-71125000D03*
X163830000Y-73665000D03*
%TO.C,J10*%
X163830000Y-108580000D03*
X163830000Y-111120000D03*
%TO.C,J6*%
X166370000Y-71125000D03*
X166370000Y-73665000D03*
%TO.C,J10*%
X166370000Y-108580000D03*
X166370000Y-111120000D03*
%TO.C,J6*%
X168910000Y-71125000D03*
X168910000Y-73665000D03*
%TO.C,J10*%
X168910000Y-108580000D03*
X168910000Y-111120000D03*
%TO.C,J6*%
X171450000Y-71125000D03*
X171450000Y-73665000D03*
%TO.C,J10*%
X171450000Y-108580000D03*
X171450000Y-111120000D03*
%TO.C,J7*%
X176530000Y-71125000D03*
X176530000Y-73665000D03*
%TO.C,J11*%
X176530000Y-108580000D03*
X176530000Y-111120000D03*
%TO.C,J7*%
X179070000Y-71125000D03*
X179070000Y-73665000D03*
%TO.C,J11*%
X179070000Y-108580000D03*
X179070000Y-111120000D03*
%TO.C,J7*%
X181610000Y-71125000D03*
X181610000Y-73665000D03*
%TO.C,J11*%
X181610000Y-108580000D03*
X181610000Y-111120000D03*
%TO.C,J7*%
X184150000Y-71125000D03*
X184150000Y-73665000D03*
%TO.C,J11*%
X184150000Y-108580000D03*
X184150000Y-111120000D03*
%TO.C,J7*%
X186690000Y-71125000D03*
X186690000Y-73665000D03*
%TO.C,J11*%
X186690000Y-108580000D03*
X186690000Y-111120000D03*
%TO.C,J7*%
X189230000Y-71125000D03*
X189230000Y-73665000D03*
%TO.C,J11*%
X189230000Y-108580000D03*
X189230000Y-111120000D03*
M02*
