%
M48
M72
T01C0.01378
T02C0.01575
T03C0.01772
T04C0.01969
T05C0.03200
T06C0.03500
T07C0.03600
T08C0.03937
T09C0.04000
T10C0.12598
T11C0.12800
%
T01
X74400Y151600
X74400Y161600
X108150Y166600
X116900Y166600
X116900Y161600
X116900Y156600
X116900Y151600
X131900Y134100
X136900Y139100
X141900Y144100
X146900Y149100
X116900Y190350
X116900Y195350
X116900Y200350
X116900Y205350
X116900Y210350
X116900Y215350
X116900Y220350
X131900Y251600
X136900Y251600
X116900Y304100
X116900Y309100
X116900Y314100
X116900Y319100
X116900Y324100
X116900Y329100
X131900Y379100
X136900Y384100
X141900Y389100
X146900Y394100
X136900Y441600
X126900Y441600
X116900Y414100
X116900Y409100
X116900Y404100
X116900Y399100
X74400Y421600
X74400Y431600
X116900Y484100
X116900Y489100
X116900Y494100
X116900Y499100
X116900Y504100
X116900Y509100
X116900Y514100
X116900Y549100
X116900Y554100
X116900Y559100
X116900Y564100
X116900Y569100
X116900Y574100
X136900Y521600
X161900Y584100
X191900Y616600
X201900Y616600
X154400Y684100
X146900Y646600
X116900Y664100
X116900Y669100
X116900Y674100
X116900Y679100
X74400Y674100
X74400Y661600
X126900Y91600
X136900Y91600
X116900Y64100
X116900Y59100
X116900Y54100
X116900Y49100
X116900Y44100
X116900Y39100
T02
X251900Y241600
X251900Y246600
X251900Y251600
X251900Y256600
X251900Y261600
X256900Y261600
X256900Y256600
X256900Y251600
X256900Y246600
X256900Y241600
X261900Y241600
X261900Y246600
X261900Y251600
X261900Y256600
X261900Y261600
X266900Y261600
X266900Y256600
X266900Y251600
X266900Y246600
X266900Y241600
X271900Y241600
X271900Y246600
X271900Y251600
X271900Y256600
X271900Y261600
X271900Y396600
X271900Y401600
X271900Y406600
X271900Y411600
X271900Y416600
X266900Y416600
X266900Y411600
X266900Y406600
X266900Y401600
X266900Y396600
X261900Y396600
X261900Y401600
X261900Y406600
X261900Y411600
X261900Y416600
X256900Y416600
X256900Y411600
X256900Y406600
X256900Y401600
X256900Y396600
X251900Y396600
X251900Y401600
X251900Y406600
X251900Y411600
X251900Y416600
T03
X245650Y456600
X221900Y511600
X196900Y491600
X196900Y461600
X196900Y361600
X210650Y361600
X196900Y271600
X196900Y206600
X201900Y201600
X270650Y206600
X320650Y456600
X201900Y594100
X196900Y599100
X56900Y611600
T04
X146900Y486600
X154400Y524100
X201900Y501600
X201900Y456600
X161900Y424100
X154400Y334100
X146900Y296600
X161900Y234100
X189400Y266600
X201900Y266600
X154400Y174100
X146900Y136600
X131900Y91600
X161900Y74100
T05
X228150Y71600
X228150Y81600
X228150Y91600
X228150Y101600
X228150Y111600
X228150Y121600
X228150Y131600
X228150Y141600
X228150Y151600
X228150Y161600
X228150Y171600
X228150Y181600
X228150Y191600
X228150Y61600
X228150Y51600
X318150Y51600
X318150Y61600
X318150Y71600
X318150Y81600
X318150Y91600
X318150Y101600
X318150Y111600
X318150Y121600
X318150Y131600
X318150Y141600
X318150Y151600
X318150Y161600
X318150Y171600
X318150Y181600
X318150Y191600
T06
X320650Y504100
X320650Y514100
X320650Y524100
X320650Y534100
X310650Y529100
X310650Y539100
X310650Y519100
X310650Y509100
X320650Y564100
X320650Y574100
X320650Y584100
X320650Y594100
X310650Y589100
X310650Y579100
X310650Y569100
X310650Y599100
X66900Y594100
X66900Y584100
X66900Y574100
X66900Y564100
X56900Y569100
X56900Y579100
X56900Y589100
X56900Y599100
X66900Y624100
X66900Y634100
X66900Y644100
X66900Y654100
X56900Y649100
X56900Y659100
X56900Y639100
X56900Y629100
X56900Y539100
X56900Y529100
X56900Y519100
X56900Y509100
X66900Y504100
X66900Y514100
X66900Y524100
X66900Y534100
X56900Y479100
X56900Y469100
X56900Y459100
X56900Y449100
X66900Y444100
X66900Y454100
X66900Y464100
X66900Y474100
X56900Y419100
X56900Y409100
X56900Y399100
X56900Y389100
X66900Y384100
X66900Y394100
X66900Y404100
X66900Y414100
X56900Y329100
X56900Y319100
X56900Y309100
X56900Y299100
X66900Y294100
X66900Y304100
X66900Y314100
X66900Y324100
X56900Y269100
X56900Y259100
X56900Y249100
X56900Y239100
X66900Y234100
X66900Y244100
X66900Y254100
X66900Y264100
X56900Y209100
X56900Y199100
X56900Y189100
X56900Y179100
X66900Y174100
X66900Y184100
X66900Y194100
X66900Y204100
X56900Y149100
X56900Y139100
X56900Y129100
X56900Y119100
X66900Y114100
X66900Y124100
X66900Y134100
X66900Y144100
X56900Y89100
X56900Y79100
X56900Y69100
X56900Y59100
X66900Y54100
X66900Y64100
X66900Y74100
X66900Y84100
T07
X254400Y559100
X254400Y569100
X254400Y579100
X206900Y646600
X206900Y656600
X206900Y666600
X339400Y366600
X339400Y356600
X339400Y346600
T08
X346400Y637600
X346400Y639600
X346400Y641600
X346211Y641600
X346400Y643600
X346400Y645600
X338400Y660600
X336400Y660600
X334400Y660600
X334400Y660498
X332400Y660600
X330400Y660600
X322400Y645600
X322400Y643600
X322400Y641600
X322195Y641600
X322400Y639600
X322400Y637600
T09
X221900Y446600
X221900Y426600
X219400Y301600
X219400Y281600
X294400Y291600
X314400Y291600
X339400Y291600
X339400Y301600
X339400Y311600
X339400Y321600
X339400Y391600
X339400Y401600
X339400Y411600
X339400Y421600
X314400Y436600
X294400Y436600
T10
X181900Y529100
X181900Y179100
T11
X31900Y49100
X31900Y94100
X31900Y109100
X31900Y154100
X31900Y169100
X31900Y214100
X31900Y229100
X31900Y274100
X31900Y289100
X31900Y334100
X31900Y379100
X31900Y424100
X31900Y439100
X31900Y484100
X31900Y499100
X31900Y544100
X31900Y559100
X31900Y604100
X31900Y619100
X31900Y664100
X345650Y604100
X345650Y559100
X345650Y544100
X345650Y499100
M30
