%TF.GenerationSoftware,KiCad,Pcbnew,7.0.5*%
%TF.CreationDate,2024-01-16T20:54:18+01:00*%
%TF.ProjectId,test,74657374-2e6b-4696-9361-645f70636258,rev?*%
%TF.SameCoordinates,Original*%
%TF.FileFunction,Soldermask,Top*%
%TF.FilePolarity,Negative*%
%FSLAX46Y46*%
G04 Gerber Fmt 4.6, Leading zero omitted, Abs format (unit mm)*
G04 Created by KiCad (PCBNEW 7.0.5) date 2024-01-16 20:54:18*
%MOMM*%
%LPD*%
G01*
G04 APERTURE LIST*
G04 Aperture macros list*
%AMRoundRect*
0 Rectangle with rounded corners*
0 $1 Rounding radius*
0 $2 $3 $4 $5 $6 $7 $8 $9 X,Y pos of 4 corners*
0 Add a 4 corners polygon primitive as box body*
4,1,4,$2,$3,$4,$5,$6,$7,$8,$9,$2,$3,0*
0 Add four circle primitives for the rounded corners*
1,1,$1+$1,$2,$3*
1,1,$1+$1,$4,$5*
1,1,$1+$1,$6,$7*
1,1,$1+$1,$8,$9*
0 Add four rect primitives between the rounded corners*
20,1,$1+$1,$2,$3,$4,$5,0*
20,1,$1+$1,$4,$5,$6,$7,0*
20,1,$1+$1,$6,$7,$8,$9,0*
20,1,$1+$1,$8,$9,$2,$3,0*%
G04 Aperture macros list end*
%ADD10RoundRect,0.250000X0.475000X-0.250000X0.475000X0.250000X-0.475000X0.250000X-0.475000X-0.250000X0*%
%ADD11RoundRect,0.250000X0.250000X0.475000X-0.250000X0.475000X-0.250000X-0.475000X0.250000X-0.475000X0*%
%ADD12O,1.700000X1.700000*%
%ADD13R,1.700000X1.700000*%
%ADD14C,1.000000*%
%ADD15RoundRect,0.243750X-0.243750X-0.456250X0.243750X-0.456250X0.243750X0.456250X-0.243750X0.456250X0*%
%ADD16C,3.250000*%
%ADD17C,1.500000*%
%ADD18C,3.000000*%
%ADD19RoundRect,0.250000X-0.450000X0.262500X-0.450000X-0.262500X0.450000X-0.262500X0.450000X0.262500X0*%
%ADD20RoundRect,0.250000X0.450000X-0.262500X0.450000X0.262500X-0.450000X0.262500X-0.450000X-0.262500X0*%
%ADD21RoundRect,0.250000X-0.250000X-0.475000X0.250000X-0.475000X0.250000X0.475000X-0.250000X0.475000X0*%
%ADD22R,3.430000X2.750000*%
%ADD23RoundRect,0.100000X-0.100000X0.687500X-0.100000X-0.687500X0.100000X-0.687500X0.100000X0.687500X0*%
%ADD24RoundRect,0.100000X-0.637500X-0.100000X0.637500X-0.100000X0.637500X0.100000X-0.637500X0.100000X0*%
%ADD25R,1.500000X2.000000*%
%ADD26R,3.800000X2.000000*%
%ADD27RoundRect,0.250000X0.262500X0.450000X-0.262500X0.450000X-0.262500X-0.450000X0.262500X-0.450000X0*%
G04 APERTURE END LIST*
D10*
%TO.C,C1*%
X144145000Y-97790000D03*
X144145000Y-95890000D03*
%TD*%
D11*
%TO.C,C6*%
X125095000Y-86995000D03*
X123195000Y-86995000D03*
%TD*%
D12*
%TO.C,J11*%
X176530000Y-111120000D03*
X176530000Y-108580000D03*
X179070000Y-111120000D03*
X179070000Y-108580000D03*
X181610000Y-111120000D03*
X181610000Y-108580000D03*
X184150000Y-111120000D03*
X184150000Y-108580000D03*
X186690000Y-111120000D03*
X186690000Y-108580000D03*
X189230000Y-111120000D03*
D13*
X189230000Y-108580000D03*
%TD*%
D14*
%TO.C,SCI*%
X131445000Y-88265000D03*
%TD*%
D15*
%TO.C,D1*%
X99060000Y-109220000D03*
X100935000Y-109220000D03*
%TD*%
D13*
%TO.C,J5*%
X135890000Y-73665000D03*
D12*
X135890000Y-71125000D03*
X138430000Y-73665000D03*
X138430000Y-71125000D03*
X140970000Y-73665000D03*
X140970000Y-71125000D03*
X143510000Y-73665000D03*
X143510000Y-71125000D03*
X146050000Y-73665000D03*
X146050000Y-71125000D03*
X148590000Y-73665000D03*
X148590000Y-71125000D03*
%TD*%
D13*
%TO.C,J7*%
X176530000Y-73665000D03*
D12*
X176530000Y-71125000D03*
X179070000Y-73665000D03*
X179070000Y-71125000D03*
X181610000Y-73665000D03*
X181610000Y-71125000D03*
X184150000Y-73665000D03*
X184150000Y-71125000D03*
X186690000Y-73665000D03*
X186690000Y-71125000D03*
X189230000Y-73665000D03*
X189230000Y-71125000D03*
%TD*%
D16*
%TO.C,J3*%
X98805000Y-72775000D03*
X98805000Y-101215000D03*
D17*
X101345000Y-97935000D03*
X103125000Y-96955000D03*
X101345000Y-95935000D03*
X103125000Y-94915000D03*
X101345000Y-93895000D03*
X103125000Y-92875000D03*
X101345000Y-91855000D03*
X103125000Y-90835000D03*
X101345000Y-83155000D03*
X103125000Y-82135000D03*
X101345000Y-81115000D03*
X103125000Y-80095000D03*
X101345000Y-79075000D03*
X103125000Y-78055000D03*
X101345000Y-77035000D03*
X103125000Y-76055000D03*
D18*
X102235000Y-70995000D03*
X102235000Y-102995000D03*
%TD*%
D19*
%TO.C,R2*%
X116205000Y-84535000D03*
X116205000Y-86360000D03*
%TD*%
D13*
%TO.C,J6*%
X158750000Y-73665000D03*
D12*
X158750000Y-71125000D03*
X161290000Y-73665000D03*
X161290000Y-71125000D03*
X163830000Y-73665000D03*
X163830000Y-71125000D03*
X166370000Y-73665000D03*
X166370000Y-71125000D03*
X168910000Y-73665000D03*
X168910000Y-71125000D03*
X171450000Y-73665000D03*
X171450000Y-71125000D03*
%TD*%
%TO.C,J4*%
X130810000Y-71125000D03*
X130810000Y-73665000D03*
X128270000Y-71125000D03*
X128270000Y-73665000D03*
X125730000Y-71125000D03*
X125730000Y-73665000D03*
X123190000Y-71125000D03*
X123190000Y-73665000D03*
X120650000Y-71125000D03*
X120650000Y-73665000D03*
X118110000Y-71125000D03*
D13*
X118110000Y-73665000D03*
%TD*%
D10*
%TO.C,C2*%
X154940000Y-94615000D03*
X154940000Y-92715000D03*
%TD*%
D20*
%TO.C,R3*%
X116205000Y-90805000D03*
X116205000Y-88980000D03*
%TD*%
D13*
%TO.C,J8*%
X130810000Y-108580000D03*
D12*
X130810000Y-111120000D03*
X128270000Y-108580000D03*
X128270000Y-111120000D03*
X125730000Y-108580000D03*
X125730000Y-111120000D03*
X123190000Y-108580000D03*
X123190000Y-111120000D03*
X120650000Y-108580000D03*
X120650000Y-111120000D03*
X118110000Y-108580000D03*
X118110000Y-111120000D03*
%TD*%
D13*
%TO.C,J10*%
X171450000Y-108580000D03*
D12*
X171450000Y-111120000D03*
X168910000Y-108580000D03*
X168910000Y-111120000D03*
X166370000Y-108580000D03*
X166370000Y-111120000D03*
X163830000Y-108580000D03*
X163830000Y-111120000D03*
X161290000Y-108580000D03*
X161290000Y-111120000D03*
X158750000Y-108580000D03*
X158750000Y-111120000D03*
%TD*%
D21*
%TO.C,C3*%
X149865000Y-85725000D03*
X151765000Y-85725000D03*
%TD*%
D19*
%TO.C,R4*%
X141605000Y-88652500D03*
X141605000Y-90477500D03*
%TD*%
D14*
%TO.C,SDI*%
X131445000Y-86360000D03*
%TD*%
D22*
%TO.C,U3*%
X136525000Y-91440000D03*
D23*
X139450000Y-88577500D03*
X138800000Y-88577500D03*
X138150000Y-88577500D03*
X137500000Y-88577500D03*
X136850000Y-88577500D03*
X136200000Y-88577500D03*
X135550000Y-88577500D03*
X134900000Y-88577500D03*
X134250000Y-88577500D03*
X133600000Y-88577500D03*
X133600000Y-94302500D03*
X134250000Y-94302500D03*
X134900000Y-94302500D03*
X135550000Y-94302500D03*
X136200000Y-94302500D03*
X136850000Y-94302500D03*
X137500000Y-94302500D03*
X138150000Y-94302500D03*
X138800000Y-94302500D03*
X139450000Y-94302500D03*
%TD*%
D10*
%TO.C,C4*%
X141605000Y-94640000D03*
X141605000Y-92740000D03*
%TD*%
D14*
%TO.C,SCO*%
X131445000Y-93980000D03*
%TD*%
%TO.C,SDO*%
X131445000Y-92075000D03*
%TD*%
D21*
%TO.C,C5*%
X123195000Y-95885000D03*
X125095000Y-95885000D03*
%TD*%
D13*
%TO.C,J9*%
X148590000Y-108580000D03*
D12*
X148590000Y-111120000D03*
X146050000Y-108580000D03*
X146050000Y-111120000D03*
X143510000Y-108580000D03*
X143510000Y-111120000D03*
X140970000Y-108580000D03*
X140970000Y-111120000D03*
X138430000Y-108580000D03*
X138430000Y-111120000D03*
X135890000Y-108580000D03*
X135890000Y-111120000D03*
%TD*%
D24*
%TO.C,U1*%
X119132500Y-89165000D03*
X119132500Y-89815000D03*
X119132500Y-90465000D03*
X119132500Y-91115000D03*
X119132500Y-91765000D03*
X119132500Y-92415000D03*
X119132500Y-93065000D03*
X119132500Y-93715000D03*
X124857500Y-93715000D03*
X124857500Y-93065000D03*
X124857500Y-92415000D03*
X124857500Y-91765000D03*
X124857500Y-91115000D03*
X124857500Y-90465000D03*
X124857500Y-89815000D03*
X124857500Y-89165000D03*
%TD*%
D25*
%TO.C,U2*%
X147560000Y-94565000D03*
X149860000Y-94565000D03*
D26*
X149860000Y-88265000D03*
D25*
X152160000Y-94565000D03*
%TD*%
D27*
%TO.C,R1*%
X106600000Y-109220000D03*
X104775000Y-109220000D03*
%TD*%
M02*
