%TF.GenerationSoftware,KiCad,Pcbnew,7.0.5*%
%TF.CreationDate,2024-02-04T09:12:31+01:00*%
%TF.ProjectId,test,74657374-2e6b-4696-9361-645f70636258,rev?*%
%TF.SameCoordinates,Original*%
%TF.FileFunction,Paste,Top*%
%TF.FilePolarity,Positive*%
%FSLAX46Y46*%
G04 Gerber Fmt 4.6, Leading zero omitted, Abs format (unit mm)*
G04 Created by KiCad (PCBNEW 7.0.5) date 2024-02-04 09:12:31*
%MOMM*%
%LPD*%
G01*
G04 APERTURE LIST*
G04 Aperture macros list*
%AMRoundRect*
0 Rectangle with rounded corners*
0 $1 Rounding radius*
0 $2 $3 $4 $5 $6 $7 $8 $9 X,Y pos of 4 corners*
0 Add a 4 corners polygon primitive as box body*
4,1,4,$2,$3,$4,$5,$6,$7,$8,$9,$2,$3,0*
0 Add four circle primitives for the rounded corners*
1,1,$1+$1,$2,$3*
1,1,$1+$1,$4,$5*
1,1,$1+$1,$6,$7*
1,1,$1+$1,$8,$9*
0 Add four rect primitives between the rounded corners*
20,1,$1+$1,$2,$3,$4,$5,0*
20,1,$1+$1,$4,$5,$6,$7,0*
20,1,$1+$1,$6,$7,$8,$9,0*
20,1,$1+$1,$8,$9,$2,$3,0*%
G04 Aperture macros list end*
%ADD10RoundRect,0.250000X0.475000X-0.250000X0.475000X0.250000X-0.475000X0.250000X-0.475000X-0.250000X0*%
%ADD11RoundRect,0.250000X0.250000X0.475000X-0.250000X0.475000X-0.250000X-0.475000X0.250000X-0.475000X0*%
%ADD12RoundRect,0.243750X-0.243750X-0.456250X0.243750X-0.456250X0.243750X0.456250X-0.243750X0.456250X0*%
%ADD13RoundRect,0.250000X-0.450000X0.262500X-0.450000X-0.262500X0.450000X-0.262500X0.450000X0.262500X0*%
%ADD14RoundRect,0.250000X0.450000X-0.262500X0.450000X0.262500X-0.450000X0.262500X-0.450000X-0.262500X0*%
%ADD15RoundRect,0.250000X-0.250000X-0.475000X0.250000X-0.475000X0.250000X0.475000X-0.250000X0.475000X0*%
%ADD16RoundRect,0.250000X-0.440000X0.305000X-0.440000X-0.305000X0.440000X-0.305000X0.440000X0.305000X0*%
%ADD17RoundRect,0.100000X-0.100000X0.687500X-0.100000X-0.687500X0.100000X-0.687500X0.100000X0.687500X0*%
%ADD18RoundRect,0.100000X-0.637500X-0.100000X0.637500X-0.100000X0.637500X0.100000X-0.637500X0.100000X0*%
%ADD19R,1.500000X2.000000*%
%ADD20R,3.800000X2.000000*%
%ADD21RoundRect,0.250000X0.262500X0.450000X-0.262500X0.450000X-0.262500X-0.450000X0.262500X-0.450000X0*%
G04 APERTURE END LIST*
D10*
%TO.C,C1*%
X144145000Y-97790000D03*
X144145000Y-95890000D03*
%TD*%
D11*
%TO.C,C6*%
X125095000Y-86995000D03*
X123195000Y-86995000D03*
%TD*%
D12*
%TO.C,D1*%
X99060000Y-109220000D03*
X100935000Y-109220000D03*
%TD*%
D13*
%TO.C,R2*%
X116205000Y-84535000D03*
X116205000Y-86360000D03*
%TD*%
D10*
%TO.C,C2*%
X154940000Y-94615000D03*
X154940000Y-92715000D03*
%TD*%
D14*
%TO.C,R3*%
X116205000Y-90805000D03*
X116205000Y-88980000D03*
%TD*%
D15*
%TO.C,C3*%
X149865000Y-85725000D03*
X151765000Y-85725000D03*
%TD*%
D13*
%TO.C,R4*%
X141605000Y-88652500D03*
X141605000Y-90477500D03*
%TD*%
D16*
%TO.C,U3*%
X137385000Y-90750000D03*
X135665000Y-90750000D03*
X137385000Y-92130000D03*
X135665000Y-92130000D03*
D17*
X139450000Y-88577500D03*
X138800000Y-88577500D03*
X138150000Y-88577500D03*
X137500000Y-88577500D03*
X136850000Y-88577500D03*
X136200000Y-88577500D03*
X135550000Y-88577500D03*
X134900000Y-88577500D03*
X134250000Y-88577500D03*
X133600000Y-88577500D03*
X133600000Y-94302500D03*
X134250000Y-94302500D03*
X134900000Y-94302500D03*
X135550000Y-94302500D03*
X136200000Y-94302500D03*
X136850000Y-94302500D03*
X137500000Y-94302500D03*
X138150000Y-94302500D03*
X138800000Y-94302500D03*
X139450000Y-94302500D03*
%TD*%
D10*
%TO.C,C4*%
X141605000Y-94640000D03*
X141605000Y-92740000D03*
%TD*%
D15*
%TO.C,C5*%
X123195000Y-95885000D03*
X125095000Y-95885000D03*
%TD*%
D18*
%TO.C,U1*%
X119132500Y-89165000D03*
X119132500Y-89815000D03*
X119132500Y-90465000D03*
X119132500Y-91115000D03*
X119132500Y-91765000D03*
X119132500Y-92415000D03*
X119132500Y-93065000D03*
X119132500Y-93715000D03*
X124857500Y-93715000D03*
X124857500Y-93065000D03*
X124857500Y-92415000D03*
X124857500Y-91765000D03*
X124857500Y-91115000D03*
X124857500Y-90465000D03*
X124857500Y-89815000D03*
X124857500Y-89165000D03*
%TD*%
D19*
%TO.C,U2*%
X147560000Y-94565000D03*
X149860000Y-94565000D03*
D20*
X149860000Y-88265000D03*
D19*
X152160000Y-94565000D03*
%TD*%
D21*
%TO.C,R1*%
X106600000Y-109220000D03*
X104775000Y-109220000D03*
%TD*%
M02*
