%TF.GenerationSoftware,KiCad,Pcbnew,7.0.5*%
%TF.CreationDate,2024-02-04T09:12:31+01:00*%
%TF.ProjectId,test,74657374-2e6b-4696-9361-645f70636258,rev?*%
%TF.SameCoordinates,Original*%
%TF.FileFunction,Legend,Top*%
%TF.FilePolarity,Positive*%
%FSLAX46Y46*%
G04 Gerber Fmt 4.6, Leading zero omitted, Abs format (unit mm)*
G04 Created by KiCad (PCBNEW 7.0.5) date 2024-02-04 09:12:31*
%MOMM*%
%LPD*%
G01*
G04 APERTURE LIST*
%ADD10C,0.150000*%
%ADD11C,0.120000*%
G04 APERTURE END LIST*
D10*
%TO.C,C1*%
X143978333Y-99419580D02*
X143930714Y-99467200D01*
X143930714Y-99467200D02*
X143787857Y-99514819D01*
X143787857Y-99514819D02*
X143692619Y-99514819D01*
X143692619Y-99514819D02*
X143549762Y-99467200D01*
X143549762Y-99467200D02*
X143454524Y-99371961D01*
X143454524Y-99371961D02*
X143406905Y-99276723D01*
X143406905Y-99276723D02*
X143359286Y-99086247D01*
X143359286Y-99086247D02*
X143359286Y-98943390D01*
X143359286Y-98943390D02*
X143406905Y-98752914D01*
X143406905Y-98752914D02*
X143454524Y-98657676D01*
X143454524Y-98657676D02*
X143549762Y-98562438D01*
X143549762Y-98562438D02*
X143692619Y-98514819D01*
X143692619Y-98514819D02*
X143787857Y-98514819D01*
X143787857Y-98514819D02*
X143930714Y-98562438D01*
X143930714Y-98562438D02*
X143978333Y-98610057D01*
X144930714Y-99514819D02*
X144359286Y-99514819D01*
X144645000Y-99514819D02*
X144645000Y-98514819D01*
X144645000Y-98514819D02*
X144549762Y-98657676D01*
X144549762Y-98657676D02*
X144454524Y-98752914D01*
X144454524Y-98752914D02*
X144359286Y-98800533D01*
%TO.C,C6*%
X123658333Y-85449580D02*
X123610714Y-85497200D01*
X123610714Y-85497200D02*
X123467857Y-85544819D01*
X123467857Y-85544819D02*
X123372619Y-85544819D01*
X123372619Y-85544819D02*
X123229762Y-85497200D01*
X123229762Y-85497200D02*
X123134524Y-85401961D01*
X123134524Y-85401961D02*
X123086905Y-85306723D01*
X123086905Y-85306723D02*
X123039286Y-85116247D01*
X123039286Y-85116247D02*
X123039286Y-84973390D01*
X123039286Y-84973390D02*
X123086905Y-84782914D01*
X123086905Y-84782914D02*
X123134524Y-84687676D01*
X123134524Y-84687676D02*
X123229762Y-84592438D01*
X123229762Y-84592438D02*
X123372619Y-84544819D01*
X123372619Y-84544819D02*
X123467857Y-84544819D01*
X123467857Y-84544819D02*
X123610714Y-84592438D01*
X123610714Y-84592438D02*
X123658333Y-84640057D01*
X124515476Y-84544819D02*
X124325000Y-84544819D01*
X124325000Y-84544819D02*
X124229762Y-84592438D01*
X124229762Y-84592438D02*
X124182143Y-84640057D01*
X124182143Y-84640057D02*
X124086905Y-84782914D01*
X124086905Y-84782914D02*
X124039286Y-84973390D01*
X124039286Y-84973390D02*
X124039286Y-85354342D01*
X124039286Y-85354342D02*
X124086905Y-85449580D01*
X124086905Y-85449580D02*
X124134524Y-85497200D01*
X124134524Y-85497200D02*
X124229762Y-85544819D01*
X124229762Y-85544819D02*
X124420238Y-85544819D01*
X124420238Y-85544819D02*
X124515476Y-85497200D01*
X124515476Y-85497200D02*
X124563095Y-85449580D01*
X124563095Y-85449580D02*
X124610714Y-85354342D01*
X124610714Y-85354342D02*
X124610714Y-85116247D01*
X124610714Y-85116247D02*
X124563095Y-85021009D01*
X124563095Y-85021009D02*
X124515476Y-84973390D01*
X124515476Y-84973390D02*
X124420238Y-84925771D01*
X124420238Y-84925771D02*
X124229762Y-84925771D01*
X124229762Y-84925771D02*
X124134524Y-84973390D01*
X124134524Y-84973390D02*
X124086905Y-85021009D01*
X124086905Y-85021009D02*
X124039286Y-85116247D01*
%TO.C,J11*%
X191014819Y-110659523D02*
X191729104Y-110659523D01*
X191729104Y-110659523D02*
X191871961Y-110707142D01*
X191871961Y-110707142D02*
X191967200Y-110802380D01*
X191967200Y-110802380D02*
X192014819Y-110945237D01*
X192014819Y-110945237D02*
X192014819Y-111040475D01*
X192014819Y-109659523D02*
X192014819Y-110230951D01*
X192014819Y-109945237D02*
X191014819Y-109945237D01*
X191014819Y-109945237D02*
X191157676Y-110040475D01*
X191157676Y-110040475D02*
X191252914Y-110135713D01*
X191252914Y-110135713D02*
X191300533Y-110230951D01*
X192014819Y-108707142D02*
X192014819Y-109278570D01*
X192014819Y-108992856D02*
X191014819Y-108992856D01*
X191014819Y-108992856D02*
X191157676Y-109088094D01*
X191157676Y-109088094D02*
X191252914Y-109183332D01*
X191252914Y-109183332D02*
X191300533Y-109278570D01*
%TO.C,SCI*%
X127881191Y-88672200D02*
X128024048Y-88719819D01*
X128024048Y-88719819D02*
X128262143Y-88719819D01*
X128262143Y-88719819D02*
X128357381Y-88672200D01*
X128357381Y-88672200D02*
X128405000Y-88624580D01*
X128405000Y-88624580D02*
X128452619Y-88529342D01*
X128452619Y-88529342D02*
X128452619Y-88434104D01*
X128452619Y-88434104D02*
X128405000Y-88338866D01*
X128405000Y-88338866D02*
X128357381Y-88291247D01*
X128357381Y-88291247D02*
X128262143Y-88243628D01*
X128262143Y-88243628D02*
X128071667Y-88196009D01*
X128071667Y-88196009D02*
X127976429Y-88148390D01*
X127976429Y-88148390D02*
X127928810Y-88100771D01*
X127928810Y-88100771D02*
X127881191Y-88005533D01*
X127881191Y-88005533D02*
X127881191Y-87910295D01*
X127881191Y-87910295D02*
X127928810Y-87815057D01*
X127928810Y-87815057D02*
X127976429Y-87767438D01*
X127976429Y-87767438D02*
X128071667Y-87719819D01*
X128071667Y-87719819D02*
X128309762Y-87719819D01*
X128309762Y-87719819D02*
X128452619Y-87767438D01*
X129452619Y-88624580D02*
X129405000Y-88672200D01*
X129405000Y-88672200D02*
X129262143Y-88719819D01*
X129262143Y-88719819D02*
X129166905Y-88719819D01*
X129166905Y-88719819D02*
X129024048Y-88672200D01*
X129024048Y-88672200D02*
X128928810Y-88576961D01*
X128928810Y-88576961D02*
X128881191Y-88481723D01*
X128881191Y-88481723D02*
X128833572Y-88291247D01*
X128833572Y-88291247D02*
X128833572Y-88148390D01*
X128833572Y-88148390D02*
X128881191Y-87957914D01*
X128881191Y-87957914D02*
X128928810Y-87862676D01*
X128928810Y-87862676D02*
X129024048Y-87767438D01*
X129024048Y-87767438D02*
X129166905Y-87719819D01*
X129166905Y-87719819D02*
X129262143Y-87719819D01*
X129262143Y-87719819D02*
X129405000Y-87767438D01*
X129405000Y-87767438D02*
X129452619Y-87815057D01*
X129881191Y-88719819D02*
X129881191Y-87719819D01*
%TO.C,D1*%
X99259405Y-107769819D02*
X99259405Y-106769819D01*
X99259405Y-106769819D02*
X99497500Y-106769819D01*
X99497500Y-106769819D02*
X99640357Y-106817438D01*
X99640357Y-106817438D02*
X99735595Y-106912676D01*
X99735595Y-106912676D02*
X99783214Y-107007914D01*
X99783214Y-107007914D02*
X99830833Y-107198390D01*
X99830833Y-107198390D02*
X99830833Y-107341247D01*
X99830833Y-107341247D02*
X99783214Y-107531723D01*
X99783214Y-107531723D02*
X99735595Y-107626961D01*
X99735595Y-107626961D02*
X99640357Y-107722200D01*
X99640357Y-107722200D02*
X99497500Y-107769819D01*
X99497500Y-107769819D02*
X99259405Y-107769819D01*
X100783214Y-107769819D02*
X100211786Y-107769819D01*
X100497500Y-107769819D02*
X100497500Y-106769819D01*
X100497500Y-106769819D02*
X100402262Y-106912676D01*
X100402262Y-106912676D02*
X100307024Y-107007914D01*
X100307024Y-107007914D02*
X100211786Y-107055533D01*
%TO.C,J5*%
X133014819Y-72728333D02*
X133729104Y-72728333D01*
X133729104Y-72728333D02*
X133871961Y-72775952D01*
X133871961Y-72775952D02*
X133967200Y-72871190D01*
X133967200Y-72871190D02*
X134014819Y-73014047D01*
X134014819Y-73014047D02*
X134014819Y-73109285D01*
X133014819Y-71775952D02*
X133014819Y-72252142D01*
X133014819Y-72252142D02*
X133491009Y-72299761D01*
X133491009Y-72299761D02*
X133443390Y-72252142D01*
X133443390Y-72252142D02*
X133395771Y-72156904D01*
X133395771Y-72156904D02*
X133395771Y-71918809D01*
X133395771Y-71918809D02*
X133443390Y-71823571D01*
X133443390Y-71823571D02*
X133491009Y-71775952D01*
X133491009Y-71775952D02*
X133586247Y-71728333D01*
X133586247Y-71728333D02*
X133824342Y-71728333D01*
X133824342Y-71728333D02*
X133919580Y-71775952D01*
X133919580Y-71775952D02*
X133967200Y-71823571D01*
X133967200Y-71823571D02*
X134014819Y-71918809D01*
X134014819Y-71918809D02*
X134014819Y-72156904D01*
X134014819Y-72156904D02*
X133967200Y-72252142D01*
X133967200Y-72252142D02*
X133919580Y-72299761D01*
%TO.C,J7*%
X173654819Y-72728333D02*
X174369104Y-72728333D01*
X174369104Y-72728333D02*
X174511961Y-72775952D01*
X174511961Y-72775952D02*
X174607200Y-72871190D01*
X174607200Y-72871190D02*
X174654819Y-73014047D01*
X174654819Y-73014047D02*
X174654819Y-73109285D01*
X173654819Y-72347380D02*
X173654819Y-71680714D01*
X173654819Y-71680714D02*
X174654819Y-72109285D01*
%TO.C,J3*%
X96821666Y-103594819D02*
X96821666Y-104309104D01*
X96821666Y-104309104D02*
X96774047Y-104451961D01*
X96774047Y-104451961D02*
X96678809Y-104547200D01*
X96678809Y-104547200D02*
X96535952Y-104594819D01*
X96535952Y-104594819D02*
X96440714Y-104594819D01*
X97202619Y-103594819D02*
X97821666Y-103594819D01*
X97821666Y-103594819D02*
X97488333Y-103975771D01*
X97488333Y-103975771D02*
X97631190Y-103975771D01*
X97631190Y-103975771D02*
X97726428Y-104023390D01*
X97726428Y-104023390D02*
X97774047Y-104071009D01*
X97774047Y-104071009D02*
X97821666Y-104166247D01*
X97821666Y-104166247D02*
X97821666Y-104404342D01*
X97821666Y-104404342D02*
X97774047Y-104499580D01*
X97774047Y-104499580D02*
X97726428Y-104547200D01*
X97726428Y-104547200D02*
X97631190Y-104594819D01*
X97631190Y-104594819D02*
X97345476Y-104594819D01*
X97345476Y-104594819D02*
X97250238Y-104547200D01*
X97250238Y-104547200D02*
X97202619Y-104499580D01*
%TO.C,R2*%
X114133333Y-84909819D02*
X113800000Y-84433628D01*
X113561905Y-84909819D02*
X113561905Y-83909819D01*
X113561905Y-83909819D02*
X113942857Y-83909819D01*
X113942857Y-83909819D02*
X114038095Y-83957438D01*
X114038095Y-83957438D02*
X114085714Y-84005057D01*
X114085714Y-84005057D02*
X114133333Y-84100295D01*
X114133333Y-84100295D02*
X114133333Y-84243152D01*
X114133333Y-84243152D02*
X114085714Y-84338390D01*
X114085714Y-84338390D02*
X114038095Y-84386009D01*
X114038095Y-84386009D02*
X113942857Y-84433628D01*
X113942857Y-84433628D02*
X113561905Y-84433628D01*
X114514286Y-84005057D02*
X114561905Y-83957438D01*
X114561905Y-83957438D02*
X114657143Y-83909819D01*
X114657143Y-83909819D02*
X114895238Y-83909819D01*
X114895238Y-83909819D02*
X114990476Y-83957438D01*
X114990476Y-83957438D02*
X115038095Y-84005057D01*
X115038095Y-84005057D02*
X115085714Y-84100295D01*
X115085714Y-84100295D02*
X115085714Y-84195533D01*
X115085714Y-84195533D02*
X115038095Y-84338390D01*
X115038095Y-84338390D02*
X114466667Y-84909819D01*
X114466667Y-84909819D02*
X115085714Y-84909819D01*
%TO.C,J6*%
X155874819Y-72728333D02*
X156589104Y-72728333D01*
X156589104Y-72728333D02*
X156731961Y-72775952D01*
X156731961Y-72775952D02*
X156827200Y-72871190D01*
X156827200Y-72871190D02*
X156874819Y-73014047D01*
X156874819Y-73014047D02*
X156874819Y-73109285D01*
X155874819Y-71823571D02*
X155874819Y-72014047D01*
X155874819Y-72014047D02*
X155922438Y-72109285D01*
X155922438Y-72109285D02*
X155970057Y-72156904D01*
X155970057Y-72156904D02*
X156112914Y-72252142D01*
X156112914Y-72252142D02*
X156303390Y-72299761D01*
X156303390Y-72299761D02*
X156684342Y-72299761D01*
X156684342Y-72299761D02*
X156779580Y-72252142D01*
X156779580Y-72252142D02*
X156827200Y-72204523D01*
X156827200Y-72204523D02*
X156874819Y-72109285D01*
X156874819Y-72109285D02*
X156874819Y-71918809D01*
X156874819Y-71918809D02*
X156827200Y-71823571D01*
X156827200Y-71823571D02*
X156779580Y-71775952D01*
X156779580Y-71775952D02*
X156684342Y-71728333D01*
X156684342Y-71728333D02*
X156446247Y-71728333D01*
X156446247Y-71728333D02*
X156351009Y-71775952D01*
X156351009Y-71775952D02*
X156303390Y-71823571D01*
X156303390Y-71823571D02*
X156255771Y-71918809D01*
X156255771Y-71918809D02*
X156255771Y-72109285D01*
X156255771Y-72109285D02*
X156303390Y-72204523D01*
X156303390Y-72204523D02*
X156351009Y-72252142D01*
X156351009Y-72252142D02*
X156446247Y-72299761D01*
%TO.C,J4*%
X115234819Y-72728333D02*
X115949104Y-72728333D01*
X115949104Y-72728333D02*
X116091961Y-72775952D01*
X116091961Y-72775952D02*
X116187200Y-72871190D01*
X116187200Y-72871190D02*
X116234819Y-73014047D01*
X116234819Y-73014047D02*
X116234819Y-73109285D01*
X115568152Y-71823571D02*
X116234819Y-71823571D01*
X115187200Y-72061666D02*
X115901485Y-72299761D01*
X115901485Y-72299761D02*
X115901485Y-71680714D01*
%TO.C,C2*%
X157313333Y-93069580D02*
X157265714Y-93117200D01*
X157265714Y-93117200D02*
X157122857Y-93164819D01*
X157122857Y-93164819D02*
X157027619Y-93164819D01*
X157027619Y-93164819D02*
X156884762Y-93117200D01*
X156884762Y-93117200D02*
X156789524Y-93021961D01*
X156789524Y-93021961D02*
X156741905Y-92926723D01*
X156741905Y-92926723D02*
X156694286Y-92736247D01*
X156694286Y-92736247D02*
X156694286Y-92593390D01*
X156694286Y-92593390D02*
X156741905Y-92402914D01*
X156741905Y-92402914D02*
X156789524Y-92307676D01*
X156789524Y-92307676D02*
X156884762Y-92212438D01*
X156884762Y-92212438D02*
X157027619Y-92164819D01*
X157027619Y-92164819D02*
X157122857Y-92164819D01*
X157122857Y-92164819D02*
X157265714Y-92212438D01*
X157265714Y-92212438D02*
X157313333Y-92260057D01*
X157694286Y-92260057D02*
X157741905Y-92212438D01*
X157741905Y-92212438D02*
X157837143Y-92164819D01*
X157837143Y-92164819D02*
X158075238Y-92164819D01*
X158075238Y-92164819D02*
X158170476Y-92212438D01*
X158170476Y-92212438D02*
X158218095Y-92260057D01*
X158218095Y-92260057D02*
X158265714Y-92355295D01*
X158265714Y-92355295D02*
X158265714Y-92450533D01*
X158265714Y-92450533D02*
X158218095Y-92593390D01*
X158218095Y-92593390D02*
X157646667Y-93164819D01*
X157646667Y-93164819D02*
X158265714Y-93164819D01*
%TO.C,R3*%
X114133333Y-89354819D02*
X113800000Y-88878628D01*
X113561905Y-89354819D02*
X113561905Y-88354819D01*
X113561905Y-88354819D02*
X113942857Y-88354819D01*
X113942857Y-88354819D02*
X114038095Y-88402438D01*
X114038095Y-88402438D02*
X114085714Y-88450057D01*
X114085714Y-88450057D02*
X114133333Y-88545295D01*
X114133333Y-88545295D02*
X114133333Y-88688152D01*
X114133333Y-88688152D02*
X114085714Y-88783390D01*
X114085714Y-88783390D02*
X114038095Y-88831009D01*
X114038095Y-88831009D02*
X113942857Y-88878628D01*
X113942857Y-88878628D02*
X113561905Y-88878628D01*
X114466667Y-88354819D02*
X115085714Y-88354819D01*
X115085714Y-88354819D02*
X114752381Y-88735771D01*
X114752381Y-88735771D02*
X114895238Y-88735771D01*
X114895238Y-88735771D02*
X114990476Y-88783390D01*
X114990476Y-88783390D02*
X115038095Y-88831009D01*
X115038095Y-88831009D02*
X115085714Y-88926247D01*
X115085714Y-88926247D02*
X115085714Y-89164342D01*
X115085714Y-89164342D02*
X115038095Y-89259580D01*
X115038095Y-89259580D02*
X114990476Y-89307200D01*
X114990476Y-89307200D02*
X114895238Y-89354819D01*
X114895238Y-89354819D02*
X114609524Y-89354819D01*
X114609524Y-89354819D02*
X114514286Y-89307200D01*
X114514286Y-89307200D02*
X114466667Y-89259580D01*
%TO.C,J8*%
X132594819Y-110183333D02*
X133309104Y-110183333D01*
X133309104Y-110183333D02*
X133451961Y-110230952D01*
X133451961Y-110230952D02*
X133547200Y-110326190D01*
X133547200Y-110326190D02*
X133594819Y-110469047D01*
X133594819Y-110469047D02*
X133594819Y-110564285D01*
X133023390Y-109564285D02*
X132975771Y-109659523D01*
X132975771Y-109659523D02*
X132928152Y-109707142D01*
X132928152Y-109707142D02*
X132832914Y-109754761D01*
X132832914Y-109754761D02*
X132785295Y-109754761D01*
X132785295Y-109754761D02*
X132690057Y-109707142D01*
X132690057Y-109707142D02*
X132642438Y-109659523D01*
X132642438Y-109659523D02*
X132594819Y-109564285D01*
X132594819Y-109564285D02*
X132594819Y-109373809D01*
X132594819Y-109373809D02*
X132642438Y-109278571D01*
X132642438Y-109278571D02*
X132690057Y-109230952D01*
X132690057Y-109230952D02*
X132785295Y-109183333D01*
X132785295Y-109183333D02*
X132832914Y-109183333D01*
X132832914Y-109183333D02*
X132928152Y-109230952D01*
X132928152Y-109230952D02*
X132975771Y-109278571D01*
X132975771Y-109278571D02*
X133023390Y-109373809D01*
X133023390Y-109373809D02*
X133023390Y-109564285D01*
X133023390Y-109564285D02*
X133071009Y-109659523D01*
X133071009Y-109659523D02*
X133118628Y-109707142D01*
X133118628Y-109707142D02*
X133213866Y-109754761D01*
X133213866Y-109754761D02*
X133404342Y-109754761D01*
X133404342Y-109754761D02*
X133499580Y-109707142D01*
X133499580Y-109707142D02*
X133547200Y-109659523D01*
X133547200Y-109659523D02*
X133594819Y-109564285D01*
X133594819Y-109564285D02*
X133594819Y-109373809D01*
X133594819Y-109373809D02*
X133547200Y-109278571D01*
X133547200Y-109278571D02*
X133499580Y-109230952D01*
X133499580Y-109230952D02*
X133404342Y-109183333D01*
X133404342Y-109183333D02*
X133213866Y-109183333D01*
X133213866Y-109183333D02*
X133118628Y-109230952D01*
X133118628Y-109230952D02*
X133071009Y-109278571D01*
X133071009Y-109278571D02*
X133023390Y-109373809D01*
%TO.C,J10*%
X173234819Y-110659523D02*
X173949104Y-110659523D01*
X173949104Y-110659523D02*
X174091961Y-110707142D01*
X174091961Y-110707142D02*
X174187200Y-110802380D01*
X174187200Y-110802380D02*
X174234819Y-110945237D01*
X174234819Y-110945237D02*
X174234819Y-111040475D01*
X174234819Y-109659523D02*
X174234819Y-110230951D01*
X174234819Y-109945237D02*
X173234819Y-109945237D01*
X173234819Y-109945237D02*
X173377676Y-110040475D01*
X173377676Y-110040475D02*
X173472914Y-110135713D01*
X173472914Y-110135713D02*
X173520533Y-110230951D01*
X173234819Y-109040475D02*
X173234819Y-108945237D01*
X173234819Y-108945237D02*
X173282438Y-108849999D01*
X173282438Y-108849999D02*
X173330057Y-108802380D01*
X173330057Y-108802380D02*
X173425295Y-108754761D01*
X173425295Y-108754761D02*
X173615771Y-108707142D01*
X173615771Y-108707142D02*
X173853866Y-108707142D01*
X173853866Y-108707142D02*
X174044342Y-108754761D01*
X174044342Y-108754761D02*
X174139580Y-108802380D01*
X174139580Y-108802380D02*
X174187200Y-108849999D01*
X174187200Y-108849999D02*
X174234819Y-108945237D01*
X174234819Y-108945237D02*
X174234819Y-109040475D01*
X174234819Y-109040475D02*
X174187200Y-109135713D01*
X174187200Y-109135713D02*
X174139580Y-109183332D01*
X174139580Y-109183332D02*
X174044342Y-109230951D01*
X174044342Y-109230951D02*
X173853866Y-109278570D01*
X173853866Y-109278570D02*
X173615771Y-109278570D01*
X173615771Y-109278570D02*
X173425295Y-109230951D01*
X173425295Y-109230951D02*
X173330057Y-109183332D01*
X173330057Y-109183332D02*
X173282438Y-109135713D01*
X173282438Y-109135713D02*
X173234819Y-109040475D01*
%TO.C,C3*%
X154773333Y-85449580D02*
X154725714Y-85497200D01*
X154725714Y-85497200D02*
X154582857Y-85544819D01*
X154582857Y-85544819D02*
X154487619Y-85544819D01*
X154487619Y-85544819D02*
X154344762Y-85497200D01*
X154344762Y-85497200D02*
X154249524Y-85401961D01*
X154249524Y-85401961D02*
X154201905Y-85306723D01*
X154201905Y-85306723D02*
X154154286Y-85116247D01*
X154154286Y-85116247D02*
X154154286Y-84973390D01*
X154154286Y-84973390D02*
X154201905Y-84782914D01*
X154201905Y-84782914D02*
X154249524Y-84687676D01*
X154249524Y-84687676D02*
X154344762Y-84592438D01*
X154344762Y-84592438D02*
X154487619Y-84544819D01*
X154487619Y-84544819D02*
X154582857Y-84544819D01*
X154582857Y-84544819D02*
X154725714Y-84592438D01*
X154725714Y-84592438D02*
X154773333Y-84640057D01*
X155106667Y-84544819D02*
X155725714Y-84544819D01*
X155725714Y-84544819D02*
X155392381Y-84925771D01*
X155392381Y-84925771D02*
X155535238Y-84925771D01*
X155535238Y-84925771D02*
X155630476Y-84973390D01*
X155630476Y-84973390D02*
X155678095Y-85021009D01*
X155678095Y-85021009D02*
X155725714Y-85116247D01*
X155725714Y-85116247D02*
X155725714Y-85354342D01*
X155725714Y-85354342D02*
X155678095Y-85449580D01*
X155678095Y-85449580D02*
X155630476Y-85497200D01*
X155630476Y-85497200D02*
X155535238Y-85544819D01*
X155535238Y-85544819D02*
X155249524Y-85544819D01*
X155249524Y-85544819D02*
X155154286Y-85497200D01*
X155154286Y-85497200D02*
X155106667Y-85449580D01*
%TO.C,R4*%
X143978333Y-89354819D02*
X143645000Y-88878628D01*
X143406905Y-89354819D02*
X143406905Y-88354819D01*
X143406905Y-88354819D02*
X143787857Y-88354819D01*
X143787857Y-88354819D02*
X143883095Y-88402438D01*
X143883095Y-88402438D02*
X143930714Y-88450057D01*
X143930714Y-88450057D02*
X143978333Y-88545295D01*
X143978333Y-88545295D02*
X143978333Y-88688152D01*
X143978333Y-88688152D02*
X143930714Y-88783390D01*
X143930714Y-88783390D02*
X143883095Y-88831009D01*
X143883095Y-88831009D02*
X143787857Y-88878628D01*
X143787857Y-88878628D02*
X143406905Y-88878628D01*
X144835476Y-88688152D02*
X144835476Y-89354819D01*
X144597381Y-88307200D02*
X144359286Y-89021485D01*
X144359286Y-89021485D02*
X144978333Y-89021485D01*
%TO.C,SDI*%
X127881191Y-86767200D02*
X128024048Y-86814819D01*
X128024048Y-86814819D02*
X128262143Y-86814819D01*
X128262143Y-86814819D02*
X128357381Y-86767200D01*
X128357381Y-86767200D02*
X128405000Y-86719580D01*
X128405000Y-86719580D02*
X128452619Y-86624342D01*
X128452619Y-86624342D02*
X128452619Y-86529104D01*
X128452619Y-86529104D02*
X128405000Y-86433866D01*
X128405000Y-86433866D02*
X128357381Y-86386247D01*
X128357381Y-86386247D02*
X128262143Y-86338628D01*
X128262143Y-86338628D02*
X128071667Y-86291009D01*
X128071667Y-86291009D02*
X127976429Y-86243390D01*
X127976429Y-86243390D02*
X127928810Y-86195771D01*
X127928810Y-86195771D02*
X127881191Y-86100533D01*
X127881191Y-86100533D02*
X127881191Y-86005295D01*
X127881191Y-86005295D02*
X127928810Y-85910057D01*
X127928810Y-85910057D02*
X127976429Y-85862438D01*
X127976429Y-85862438D02*
X128071667Y-85814819D01*
X128071667Y-85814819D02*
X128309762Y-85814819D01*
X128309762Y-85814819D02*
X128452619Y-85862438D01*
X128881191Y-86814819D02*
X128881191Y-85814819D01*
X128881191Y-85814819D02*
X129119286Y-85814819D01*
X129119286Y-85814819D02*
X129262143Y-85862438D01*
X129262143Y-85862438D02*
X129357381Y-85957676D01*
X129357381Y-85957676D02*
X129405000Y-86052914D01*
X129405000Y-86052914D02*
X129452619Y-86243390D01*
X129452619Y-86243390D02*
X129452619Y-86386247D01*
X129452619Y-86386247D02*
X129405000Y-86576723D01*
X129405000Y-86576723D02*
X129357381Y-86671961D01*
X129357381Y-86671961D02*
X129262143Y-86767200D01*
X129262143Y-86767200D02*
X129119286Y-86814819D01*
X129119286Y-86814819D02*
X128881191Y-86814819D01*
X129881191Y-86814819D02*
X129881191Y-85814819D01*
%TO.C,U3*%
X136398095Y-85814819D02*
X136398095Y-86624342D01*
X136398095Y-86624342D02*
X136445714Y-86719580D01*
X136445714Y-86719580D02*
X136493333Y-86767200D01*
X136493333Y-86767200D02*
X136588571Y-86814819D01*
X136588571Y-86814819D02*
X136779047Y-86814819D01*
X136779047Y-86814819D02*
X136874285Y-86767200D01*
X136874285Y-86767200D02*
X136921904Y-86719580D01*
X136921904Y-86719580D02*
X136969523Y-86624342D01*
X136969523Y-86624342D02*
X136969523Y-85814819D01*
X137350476Y-85814819D02*
X137969523Y-85814819D01*
X137969523Y-85814819D02*
X137636190Y-86195771D01*
X137636190Y-86195771D02*
X137779047Y-86195771D01*
X137779047Y-86195771D02*
X137874285Y-86243390D01*
X137874285Y-86243390D02*
X137921904Y-86291009D01*
X137921904Y-86291009D02*
X137969523Y-86386247D01*
X137969523Y-86386247D02*
X137969523Y-86624342D01*
X137969523Y-86624342D02*
X137921904Y-86719580D01*
X137921904Y-86719580D02*
X137874285Y-86767200D01*
X137874285Y-86767200D02*
X137779047Y-86814819D01*
X137779047Y-86814819D02*
X137493333Y-86814819D01*
X137493333Y-86814819D02*
X137398095Y-86767200D01*
X137398095Y-86767200D02*
X137350476Y-86719580D01*
%TO.C,C4*%
X143978333Y-93069580D02*
X143930714Y-93117200D01*
X143930714Y-93117200D02*
X143787857Y-93164819D01*
X143787857Y-93164819D02*
X143692619Y-93164819D01*
X143692619Y-93164819D02*
X143549762Y-93117200D01*
X143549762Y-93117200D02*
X143454524Y-93021961D01*
X143454524Y-93021961D02*
X143406905Y-92926723D01*
X143406905Y-92926723D02*
X143359286Y-92736247D01*
X143359286Y-92736247D02*
X143359286Y-92593390D01*
X143359286Y-92593390D02*
X143406905Y-92402914D01*
X143406905Y-92402914D02*
X143454524Y-92307676D01*
X143454524Y-92307676D02*
X143549762Y-92212438D01*
X143549762Y-92212438D02*
X143692619Y-92164819D01*
X143692619Y-92164819D02*
X143787857Y-92164819D01*
X143787857Y-92164819D02*
X143930714Y-92212438D01*
X143930714Y-92212438D02*
X143978333Y-92260057D01*
X144835476Y-92498152D02*
X144835476Y-93164819D01*
X144597381Y-92117200D02*
X144359286Y-92831485D01*
X144359286Y-92831485D02*
X144978333Y-92831485D01*
%TO.C,SCO*%
X127595476Y-94387200D02*
X127738333Y-94434819D01*
X127738333Y-94434819D02*
X127976428Y-94434819D01*
X127976428Y-94434819D02*
X128071666Y-94387200D01*
X128071666Y-94387200D02*
X128119285Y-94339580D01*
X128119285Y-94339580D02*
X128166904Y-94244342D01*
X128166904Y-94244342D02*
X128166904Y-94149104D01*
X128166904Y-94149104D02*
X128119285Y-94053866D01*
X128119285Y-94053866D02*
X128071666Y-94006247D01*
X128071666Y-94006247D02*
X127976428Y-93958628D01*
X127976428Y-93958628D02*
X127785952Y-93911009D01*
X127785952Y-93911009D02*
X127690714Y-93863390D01*
X127690714Y-93863390D02*
X127643095Y-93815771D01*
X127643095Y-93815771D02*
X127595476Y-93720533D01*
X127595476Y-93720533D02*
X127595476Y-93625295D01*
X127595476Y-93625295D02*
X127643095Y-93530057D01*
X127643095Y-93530057D02*
X127690714Y-93482438D01*
X127690714Y-93482438D02*
X127785952Y-93434819D01*
X127785952Y-93434819D02*
X128024047Y-93434819D01*
X128024047Y-93434819D02*
X128166904Y-93482438D01*
X129166904Y-94339580D02*
X129119285Y-94387200D01*
X129119285Y-94387200D02*
X128976428Y-94434819D01*
X128976428Y-94434819D02*
X128881190Y-94434819D01*
X128881190Y-94434819D02*
X128738333Y-94387200D01*
X128738333Y-94387200D02*
X128643095Y-94291961D01*
X128643095Y-94291961D02*
X128595476Y-94196723D01*
X128595476Y-94196723D02*
X128547857Y-94006247D01*
X128547857Y-94006247D02*
X128547857Y-93863390D01*
X128547857Y-93863390D02*
X128595476Y-93672914D01*
X128595476Y-93672914D02*
X128643095Y-93577676D01*
X128643095Y-93577676D02*
X128738333Y-93482438D01*
X128738333Y-93482438D02*
X128881190Y-93434819D01*
X128881190Y-93434819D02*
X128976428Y-93434819D01*
X128976428Y-93434819D02*
X129119285Y-93482438D01*
X129119285Y-93482438D02*
X129166904Y-93530057D01*
X129785952Y-93434819D02*
X129976428Y-93434819D01*
X129976428Y-93434819D02*
X130071666Y-93482438D01*
X130071666Y-93482438D02*
X130166904Y-93577676D01*
X130166904Y-93577676D02*
X130214523Y-93768152D01*
X130214523Y-93768152D02*
X130214523Y-94101485D01*
X130214523Y-94101485D02*
X130166904Y-94291961D01*
X130166904Y-94291961D02*
X130071666Y-94387200D01*
X130071666Y-94387200D02*
X129976428Y-94434819D01*
X129976428Y-94434819D02*
X129785952Y-94434819D01*
X129785952Y-94434819D02*
X129690714Y-94387200D01*
X129690714Y-94387200D02*
X129595476Y-94291961D01*
X129595476Y-94291961D02*
X129547857Y-94101485D01*
X129547857Y-94101485D02*
X129547857Y-93768152D01*
X129547857Y-93768152D02*
X129595476Y-93577676D01*
X129595476Y-93577676D02*
X129690714Y-93482438D01*
X129690714Y-93482438D02*
X129785952Y-93434819D01*
%TO.C,SDO*%
X127595476Y-91212200D02*
X127738333Y-91259819D01*
X127738333Y-91259819D02*
X127976428Y-91259819D01*
X127976428Y-91259819D02*
X128071666Y-91212200D01*
X128071666Y-91212200D02*
X128119285Y-91164580D01*
X128119285Y-91164580D02*
X128166904Y-91069342D01*
X128166904Y-91069342D02*
X128166904Y-90974104D01*
X128166904Y-90974104D02*
X128119285Y-90878866D01*
X128119285Y-90878866D02*
X128071666Y-90831247D01*
X128071666Y-90831247D02*
X127976428Y-90783628D01*
X127976428Y-90783628D02*
X127785952Y-90736009D01*
X127785952Y-90736009D02*
X127690714Y-90688390D01*
X127690714Y-90688390D02*
X127643095Y-90640771D01*
X127643095Y-90640771D02*
X127595476Y-90545533D01*
X127595476Y-90545533D02*
X127595476Y-90450295D01*
X127595476Y-90450295D02*
X127643095Y-90355057D01*
X127643095Y-90355057D02*
X127690714Y-90307438D01*
X127690714Y-90307438D02*
X127785952Y-90259819D01*
X127785952Y-90259819D02*
X128024047Y-90259819D01*
X128024047Y-90259819D02*
X128166904Y-90307438D01*
X128595476Y-91259819D02*
X128595476Y-90259819D01*
X128595476Y-90259819D02*
X128833571Y-90259819D01*
X128833571Y-90259819D02*
X128976428Y-90307438D01*
X128976428Y-90307438D02*
X129071666Y-90402676D01*
X129071666Y-90402676D02*
X129119285Y-90497914D01*
X129119285Y-90497914D02*
X129166904Y-90688390D01*
X129166904Y-90688390D02*
X129166904Y-90831247D01*
X129166904Y-90831247D02*
X129119285Y-91021723D01*
X129119285Y-91021723D02*
X129071666Y-91116961D01*
X129071666Y-91116961D02*
X128976428Y-91212200D01*
X128976428Y-91212200D02*
X128833571Y-91259819D01*
X128833571Y-91259819D02*
X128595476Y-91259819D01*
X129785952Y-90259819D02*
X129976428Y-90259819D01*
X129976428Y-90259819D02*
X130071666Y-90307438D01*
X130071666Y-90307438D02*
X130166904Y-90402676D01*
X130166904Y-90402676D02*
X130214523Y-90593152D01*
X130214523Y-90593152D02*
X130214523Y-90926485D01*
X130214523Y-90926485D02*
X130166904Y-91116961D01*
X130166904Y-91116961D02*
X130071666Y-91212200D01*
X130071666Y-91212200D02*
X129976428Y-91259819D01*
X129976428Y-91259819D02*
X129785952Y-91259819D01*
X129785952Y-91259819D02*
X129690714Y-91212200D01*
X129690714Y-91212200D02*
X129595476Y-91116961D01*
X129595476Y-91116961D02*
X129547857Y-90926485D01*
X129547857Y-90926485D02*
X129547857Y-90593152D01*
X129547857Y-90593152D02*
X129595476Y-90402676D01*
X129595476Y-90402676D02*
X129690714Y-90307438D01*
X129690714Y-90307438D02*
X129785952Y-90259819D01*
%TO.C,C5*%
X126833333Y-96244580D02*
X126785714Y-96292200D01*
X126785714Y-96292200D02*
X126642857Y-96339819D01*
X126642857Y-96339819D02*
X126547619Y-96339819D01*
X126547619Y-96339819D02*
X126404762Y-96292200D01*
X126404762Y-96292200D02*
X126309524Y-96196961D01*
X126309524Y-96196961D02*
X126261905Y-96101723D01*
X126261905Y-96101723D02*
X126214286Y-95911247D01*
X126214286Y-95911247D02*
X126214286Y-95768390D01*
X126214286Y-95768390D02*
X126261905Y-95577914D01*
X126261905Y-95577914D02*
X126309524Y-95482676D01*
X126309524Y-95482676D02*
X126404762Y-95387438D01*
X126404762Y-95387438D02*
X126547619Y-95339819D01*
X126547619Y-95339819D02*
X126642857Y-95339819D01*
X126642857Y-95339819D02*
X126785714Y-95387438D01*
X126785714Y-95387438D02*
X126833333Y-95435057D01*
X127738095Y-95339819D02*
X127261905Y-95339819D01*
X127261905Y-95339819D02*
X127214286Y-95816009D01*
X127214286Y-95816009D02*
X127261905Y-95768390D01*
X127261905Y-95768390D02*
X127357143Y-95720771D01*
X127357143Y-95720771D02*
X127595238Y-95720771D01*
X127595238Y-95720771D02*
X127690476Y-95768390D01*
X127690476Y-95768390D02*
X127738095Y-95816009D01*
X127738095Y-95816009D02*
X127785714Y-95911247D01*
X127785714Y-95911247D02*
X127785714Y-96149342D01*
X127785714Y-96149342D02*
X127738095Y-96244580D01*
X127738095Y-96244580D02*
X127690476Y-96292200D01*
X127690476Y-96292200D02*
X127595238Y-96339819D01*
X127595238Y-96339819D02*
X127357143Y-96339819D01*
X127357143Y-96339819D02*
X127261905Y-96292200D01*
X127261905Y-96292200D02*
X127214286Y-96244580D01*
%TO.C,J9*%
X150374819Y-110183333D02*
X151089104Y-110183333D01*
X151089104Y-110183333D02*
X151231961Y-110230952D01*
X151231961Y-110230952D02*
X151327200Y-110326190D01*
X151327200Y-110326190D02*
X151374819Y-110469047D01*
X151374819Y-110469047D02*
X151374819Y-110564285D01*
X151374819Y-109659523D02*
X151374819Y-109469047D01*
X151374819Y-109469047D02*
X151327200Y-109373809D01*
X151327200Y-109373809D02*
X151279580Y-109326190D01*
X151279580Y-109326190D02*
X151136723Y-109230952D01*
X151136723Y-109230952D02*
X150946247Y-109183333D01*
X150946247Y-109183333D02*
X150565295Y-109183333D01*
X150565295Y-109183333D02*
X150470057Y-109230952D01*
X150470057Y-109230952D02*
X150422438Y-109278571D01*
X150422438Y-109278571D02*
X150374819Y-109373809D01*
X150374819Y-109373809D02*
X150374819Y-109564285D01*
X150374819Y-109564285D02*
X150422438Y-109659523D01*
X150422438Y-109659523D02*
X150470057Y-109707142D01*
X150470057Y-109707142D02*
X150565295Y-109754761D01*
X150565295Y-109754761D02*
X150803390Y-109754761D01*
X150803390Y-109754761D02*
X150898628Y-109707142D01*
X150898628Y-109707142D02*
X150946247Y-109659523D01*
X150946247Y-109659523D02*
X150993866Y-109564285D01*
X150993866Y-109564285D02*
X150993866Y-109373809D01*
X150993866Y-109373809D02*
X150946247Y-109278571D01*
X150946247Y-109278571D02*
X150898628Y-109230952D01*
X150898628Y-109230952D02*
X150803390Y-109183333D01*
%TO.C,U1*%
X118618095Y-95974819D02*
X118618095Y-96784342D01*
X118618095Y-96784342D02*
X118665714Y-96879580D01*
X118665714Y-96879580D02*
X118713333Y-96927200D01*
X118713333Y-96927200D02*
X118808571Y-96974819D01*
X118808571Y-96974819D02*
X118999047Y-96974819D01*
X118999047Y-96974819D02*
X119094285Y-96927200D01*
X119094285Y-96927200D02*
X119141904Y-96879580D01*
X119141904Y-96879580D02*
X119189523Y-96784342D01*
X119189523Y-96784342D02*
X119189523Y-95974819D01*
X120189523Y-96974819D02*
X119618095Y-96974819D01*
X119903809Y-96974819D02*
X119903809Y-95974819D01*
X119903809Y-95974819D02*
X119808571Y-96117676D01*
X119808571Y-96117676D02*
X119713333Y-96212914D01*
X119713333Y-96212914D02*
X119618095Y-96260533D01*
%TO.C,U2*%
X154178095Y-88989819D02*
X154178095Y-89799342D01*
X154178095Y-89799342D02*
X154225714Y-89894580D01*
X154225714Y-89894580D02*
X154273333Y-89942200D01*
X154273333Y-89942200D02*
X154368571Y-89989819D01*
X154368571Y-89989819D02*
X154559047Y-89989819D01*
X154559047Y-89989819D02*
X154654285Y-89942200D01*
X154654285Y-89942200D02*
X154701904Y-89894580D01*
X154701904Y-89894580D02*
X154749523Y-89799342D01*
X154749523Y-89799342D02*
X154749523Y-88989819D01*
X155178095Y-89085057D02*
X155225714Y-89037438D01*
X155225714Y-89037438D02*
X155320952Y-88989819D01*
X155320952Y-88989819D02*
X155559047Y-88989819D01*
X155559047Y-88989819D02*
X155654285Y-89037438D01*
X155654285Y-89037438D02*
X155701904Y-89085057D01*
X155701904Y-89085057D02*
X155749523Y-89180295D01*
X155749523Y-89180295D02*
X155749523Y-89275533D01*
X155749523Y-89275533D02*
X155701904Y-89418390D01*
X155701904Y-89418390D02*
X155130476Y-89989819D01*
X155130476Y-89989819D02*
X155749523Y-89989819D01*
%TO.C,R1*%
X105163333Y-107769819D02*
X104830000Y-107293628D01*
X104591905Y-107769819D02*
X104591905Y-106769819D01*
X104591905Y-106769819D02*
X104972857Y-106769819D01*
X104972857Y-106769819D02*
X105068095Y-106817438D01*
X105068095Y-106817438D02*
X105115714Y-106865057D01*
X105115714Y-106865057D02*
X105163333Y-106960295D01*
X105163333Y-106960295D02*
X105163333Y-107103152D01*
X105163333Y-107103152D02*
X105115714Y-107198390D01*
X105115714Y-107198390D02*
X105068095Y-107246009D01*
X105068095Y-107246009D02*
X104972857Y-107293628D01*
X104972857Y-107293628D02*
X104591905Y-107293628D01*
X106115714Y-107769819D02*
X105544286Y-107769819D01*
X105830000Y-107769819D02*
X105830000Y-106769819D01*
X105830000Y-106769819D02*
X105734762Y-106912676D01*
X105734762Y-106912676D02*
X105639524Y-107007914D01*
X105639524Y-107007914D02*
X105544286Y-107055533D01*
D11*
%TO.C,C1*%
X143410000Y-97101252D02*
X143410000Y-96578748D01*
X144880000Y-97101252D02*
X144880000Y-96578748D01*
%TO.C,C6*%
X124406252Y-87730000D02*
X123883748Y-87730000D01*
X124406252Y-86260000D02*
X123883748Y-86260000D01*
%TO.C,J11*%
X190560000Y-107250000D02*
X190560000Y-108580000D01*
X189230000Y-107250000D02*
X190560000Y-107250000D01*
X187960000Y-107250000D02*
X175200000Y-107250000D01*
X187960000Y-107250000D02*
X187960000Y-109850000D01*
X175200000Y-107250000D02*
X175200000Y-112450000D01*
X190560000Y-109850000D02*
X190560000Y-112450000D01*
X187960000Y-109850000D02*
X190560000Y-109850000D01*
X190560000Y-112450000D02*
X175200000Y-112450000D01*
%TO.C,SCI*%
X132145000Y-88265000D02*
G75*
G03*
X132145000Y-88265000I-700000J0D01*
G01*
%TO.C,D1*%
X98312500Y-108260000D02*
X98312500Y-110180000D01*
X98312500Y-110180000D02*
X100997500Y-110180000D01*
X100997500Y-108260000D02*
X98312500Y-108260000D01*
%TO.C,J5*%
X134560000Y-74995000D02*
X134560000Y-73665000D01*
X135890000Y-74995000D02*
X134560000Y-74995000D01*
X137160000Y-74995000D02*
X149920000Y-74995000D01*
X137160000Y-74995000D02*
X137160000Y-72395000D01*
X149920000Y-74995000D02*
X149920000Y-69795000D01*
X134560000Y-72395000D02*
X134560000Y-69795000D01*
X137160000Y-72395000D02*
X134560000Y-72395000D01*
X134560000Y-69795000D02*
X149920000Y-69795000D01*
%TO.C,J7*%
X175200000Y-74995000D02*
X175200000Y-73665000D01*
X176530000Y-74995000D02*
X175200000Y-74995000D01*
X177800000Y-74995000D02*
X190560000Y-74995000D01*
X177800000Y-74995000D02*
X177800000Y-72395000D01*
X190560000Y-74995000D02*
X190560000Y-69795000D01*
X175200000Y-72395000D02*
X175200000Y-69795000D01*
X177800000Y-72395000D02*
X175200000Y-72395000D01*
X175200000Y-69795000D02*
X190560000Y-69795000D01*
%TO.C,J3*%
X101473000Y-69854000D02*
X100457000Y-69854000D01*
X100457000Y-69854000D02*
X100965000Y-70362000D01*
X100965000Y-70362000D02*
X101473000Y-69854000D01*
X93345000Y-70865000D02*
X109095000Y-70865000D01*
X109095000Y-103125000D02*
X109095000Y-70865000D01*
X93345000Y-103125000D02*
X93345000Y-70865000D01*
X93345000Y-103125000D02*
X109095000Y-103125000D01*
%TO.C,R2*%
X116940000Y-85220436D02*
X116940000Y-85674564D01*
X115470000Y-85220436D02*
X115470000Y-85674564D01*
%TO.C,J6*%
X157420000Y-74995000D02*
X157420000Y-73665000D01*
X158750000Y-74995000D02*
X157420000Y-74995000D01*
X160020000Y-74995000D02*
X172780000Y-74995000D01*
X160020000Y-74995000D02*
X160020000Y-72395000D01*
X172780000Y-74995000D02*
X172780000Y-69795000D01*
X157420000Y-72395000D02*
X157420000Y-69795000D01*
X160020000Y-72395000D02*
X157420000Y-72395000D01*
X157420000Y-69795000D02*
X172780000Y-69795000D01*
%TO.C,J4*%
X116780000Y-74995000D02*
X116780000Y-73665000D01*
X118110000Y-74995000D02*
X116780000Y-74995000D01*
X119380000Y-74995000D02*
X132140000Y-74995000D01*
X119380000Y-74995000D02*
X119380000Y-72395000D01*
X132140000Y-74995000D02*
X132140000Y-69795000D01*
X116780000Y-72395000D02*
X116780000Y-69795000D01*
X119380000Y-72395000D02*
X116780000Y-72395000D01*
X116780000Y-69795000D02*
X132140000Y-69795000D01*
%TO.C,C2*%
X154205000Y-93926252D02*
X154205000Y-93403748D01*
X155675000Y-93926252D02*
X155675000Y-93403748D01*
%TO.C,R3*%
X115470000Y-90119564D02*
X115470000Y-89665436D01*
X116940000Y-90119564D02*
X116940000Y-89665436D01*
%TO.C,J8*%
X132140000Y-107250000D02*
X132140000Y-108580000D01*
X130810000Y-107250000D02*
X132140000Y-107250000D01*
X129540000Y-107250000D02*
X116780000Y-107250000D01*
X129540000Y-107250000D02*
X129540000Y-109850000D01*
X116780000Y-107250000D02*
X116780000Y-112450000D01*
X132140000Y-109850000D02*
X132140000Y-112450000D01*
X129540000Y-109850000D02*
X132140000Y-109850000D01*
X132140000Y-112450000D02*
X116780000Y-112450000D01*
%TO.C,J10*%
X172780000Y-107250000D02*
X172780000Y-108580000D01*
X171450000Y-107250000D02*
X172780000Y-107250000D01*
X170180000Y-107250000D02*
X157420000Y-107250000D01*
X170180000Y-107250000D02*
X170180000Y-109850000D01*
X157420000Y-107250000D02*
X157420000Y-112450000D01*
X172780000Y-109850000D02*
X172780000Y-112450000D01*
X170180000Y-109850000D02*
X172780000Y-109850000D01*
X172780000Y-112450000D02*
X157420000Y-112450000D01*
%TO.C,C3*%
X150553748Y-84990000D02*
X151076252Y-84990000D01*
X150553748Y-86460000D02*
X151076252Y-86460000D01*
%TO.C,R4*%
X142340000Y-89337936D02*
X142340000Y-89792064D01*
X140870000Y-89337936D02*
X140870000Y-89792064D01*
%TO.C,SDI*%
X132145000Y-86360000D02*
G75*
G03*
X132145000Y-86360000I-700000J0D01*
G01*
%TO.C,U3*%
X140035000Y-91440000D02*
X140035000Y-87790000D01*
X140035000Y-91440000D02*
X140035000Y-93640000D01*
X133015000Y-91440000D02*
X133015000Y-89240000D01*
X133015000Y-91440000D02*
X133015000Y-93640000D01*
%TO.C,C4*%
X140870000Y-93951252D02*
X140870000Y-93428748D01*
X142340000Y-93951252D02*
X142340000Y-93428748D01*
%TO.C,SCO*%
X132145000Y-93980000D02*
G75*
G03*
X132145000Y-93980000I-700000J0D01*
G01*
%TO.C,SDO*%
X132145000Y-90805000D02*
G75*
G03*
X132145000Y-90805000I-700000J0D01*
G01*
%TO.C,C5*%
X123883748Y-95150000D02*
X124406252Y-95150000D01*
X123883748Y-96620000D02*
X124406252Y-96620000D01*
%TO.C,J9*%
X149920000Y-107250000D02*
X149920000Y-108580000D01*
X148590000Y-107250000D02*
X149920000Y-107250000D01*
X147320000Y-107250000D02*
X134560000Y-107250000D01*
X147320000Y-107250000D02*
X147320000Y-109850000D01*
X134560000Y-107250000D02*
X134560000Y-112450000D01*
X149920000Y-109850000D02*
X149920000Y-112450000D01*
X147320000Y-109850000D02*
X149920000Y-109850000D01*
X149920000Y-112450000D02*
X134560000Y-112450000D01*
%TO.C,U1*%
X121995000Y-88705000D02*
X118395000Y-88705000D01*
X121995000Y-88705000D02*
X124195000Y-88705000D01*
X121995000Y-94175000D02*
X119795000Y-94175000D01*
X121995000Y-94175000D02*
X124195000Y-94175000D01*
%TO.C,U2*%
X146450000Y-95515000D02*
X146450000Y-89505000D01*
X153270000Y-93265000D02*
X153270000Y-89505000D01*
X146450000Y-89505000D02*
X147710000Y-89505000D01*
X153270000Y-89505000D02*
X152010000Y-89505000D01*
%TO.C,R1*%
X105914564Y-109955000D02*
X105460436Y-109955000D01*
X105914564Y-108485000D02*
X105460436Y-108485000D01*
%TD*%
M02*
